<svg xmlns="http://www.w3.org/2000/svg" viewBox="0 0 64 64"><title>Accu</title><g id="Accu"><rect x="1" y="59" width="62" height="4"/><rect x="1" y="13" width="62" height="4"/><rect x="8" y="8" width="12" height="3"/><path d="M32,49A11,11,0,1,0,21,38,11,11,0,0,0,32,49Zm-.77-20.21a1,1,0,0,1,1.54,0c4.73,5.73,7,12.79.23,15.9v1.88a1,1,0,0,1-2,0V44.69C24.18,41.58,26.49,34.52,31.23,28.79Z"/><path d="M31,42.42V36.29a1,1,0,0,1,2,0v6.13c4.18-2.56,1.85-7.36-1-11.33C29.06,35.18,26.87,39.85,31,42.42Z"/><path d="M8,53H56V23H8ZM47,28h5a1,1,0,0,1,0,2H47A1,1,0,0,1,47,28ZM32,25A13,13,0,1,1,19,38,13,13,0,0,1,32,25ZM12,28h1.5V26.5a1,1,0,0,1,2,0V28H17a1,1,0,0,1,0,2H15.5v1.5a1,1,0,0,1-2,0V30H12A1,1,0,0,1,12,28Z"/><path d="M3,19V57H61V19ZM58,54a1,1,0,0,1-1,1H7a1,1,0,0,1-1-1V22a1,1,0,0,1,1-1H57a1,1,0,0,1,1,1Z"/><rect x="11" y="1" width="6" height="5"/><rect x="44" y="8" width="12" height="3"/><rect x="47" y="1" width="6" height="5"/></g></svg>