<svg xmlns="http://www.w3.org/2000/svg" viewBox="0 0 64 64"><title>Barrel</title><g id="Barrel"><path d="M53,9H11a2,2,0,0,1,0-4H53A2,2,0,0,1,53,9Z"/><path d="M53,63H11a2,2,0,0,1,0-4H53A2,2,0,0,1,53,63Z"/><path d="M20.83,44H11V24h9.83A15,15,0,0,0,20.83,44Z"/><path d="M28.39,25.75l2.54,4.4a4,4,0,0,1,2.14,0l2.54-4.4A9.15,9.15,0,0,0,28.39,25.75ZM35.87,35a4.06,4.06,0,0,1-1.07,1.85l2.54,4.4A9.07,9.07,0,0,0,40.94,35Zm-7.74,0H23.06a9.07,9.07,0,0,0,3.6,6.25C30.38,34.8,28.9,38,28.13,35Zm.26-9.25,2.54,4.4a4,4,0,0,1,2.14,0l2.54-4.4A9.15,9.15,0,0,0,28.39,25.75Zm0,0,2.54,4.4a4.19,4.19,0,0,1,2.14,0l2.54-4.4A9.15,9.15,0,0,0,28.39,25.75ZM35.87,35a4.06,4.06,0,0,1-1.07,1.85l2.54,4.4A9.07,9.07,0,0,0,40.94,35Zm0,0a4.06,4.06,0,0,1-1.07,1.85l2.54,4.4A9.07,9.07,0,0,0,40.94,35Zm-7.48-9.25,2.54,4.4a4.19,4.19,0,0,1,2.14,0l2.54-4.4A9.15,9.15,0,0,0,28.39,25.75ZM32,32a2,2,0,1,0,1,3.74h0A2,2,0,0,0,32,32Zm-3.87,3H23.06a9.07,9.07,0,0,0,3.6,6.25C30.38,34.8,28.9,38,28.13,35Zm0,0H23.06a9.07,9.07,0,0,0,3.6,6.25C30.38,34.8,28.9,38,28.13,35Zm.26-9.25,2.54,4.4a4.19,4.19,0,0,1,2.14,0l2.54-4.4A9.15,9.15,0,0,0,28.39,25.75ZM35.87,35a4.06,4.06,0,0,1-1.07,1.85l2.54,4.4A9.07,9.07,0,0,0,40.94,35Zm0,0a4.06,4.06,0,0,1-1.07,1.85l2.54,4.4A9.07,9.07,0,0,0,40.94,35Zm-2.8-4.85,2.54-4.4a9.15,9.15,0,0,0-7.22,0l2.54,4.4A4.19,4.19,0,0,1,33.07,30.15ZM32,32a2,2,0,1,0,1,3.74h0A2,2,0,0,0,32,32Zm-3.87,3H23.06a9.07,9.07,0,0,0,3.6,6.25C30.38,34.8,28.9,38,28.13,35Zm12-11.17a13,13,0,0,0-16.18,0C14.19,31.57,19.92,47,32,47S49.84,31.59,40.09,23.83ZM37.5,43.53a1,1,0,0,1-.76.1c-.57-.16-.47-.22-3.67-5.77a4.08,4.08,0,0,1-2.14,0c-2.86,5-3.22,6.32-4.43,5.68A11.06,11.06,0,0,1,21,34a1,1,0,0,1,1-1h6.13a3.93,3.93,0,0,1,1.07-1.85l-3.07-5.31a1,1,0,0,1,.37-1.37,11.2,11.2,0,0,1,11,0,1,1,0,0,1,.37,1.37L34.8,31.15A4,4,0,0,1,35.87,33H42a1,1,0,0,1,1,1A11.06,11.06,0,0,1,37.5,43.53Zm-.16-2.28A9.07,9.07,0,0,0,40.94,35H35.87C35.07,38.16,33.53,34.64,37.34,41.25Zm-4.27-11.1,2.54-4.4a9.15,9.15,0,0,0-7.22,0l2.54,4.4A4.19,4.19,0,0,1,33.07,30.15ZM32,32a2,2,0,1,0,1,3.74h0A2,2,0,0,0,32,32Zm-3.87,3H23.06a9.07,9.07,0,0,0,3.6,6.25C30.38,34.8,28.9,38,28.13,35Zm0,0H23.06a9.07,9.07,0,0,0,3.6,6.25C30.38,34.8,28.9,38,28.13,35ZM32,32a2,2,0,1,0,1,3.74h0A2,2,0,0,0,32,32Zm-3.61-6.25,2.54,4.4a4.19,4.19,0,0,1,2.14,0l2.54-4.4A9.15,9.15,0,0,0,28.39,25.75ZM35.87,35a4.06,4.06,0,0,1-1.07,1.85l2.54,4.4A9.07,9.07,0,0,0,40.94,35Zm0,0a4.06,4.06,0,0,1-1.07,1.85l2.54,4.4A9.07,9.07,0,0,0,40.94,35Zm-7.48-9.25,2.54,4.4a4.19,4.19,0,0,1,2.14,0l2.54-4.4A9.15,9.15,0,0,0,28.39,25.75ZM28.13,35H23.06a9.07,9.07,0,0,0,3.6,6.25C30.38,34.8,28.9,38,28.13,35ZM32,32a2,2,0,1,0,1,3.74h0A2,2,0,0,0,32,32Zm-3.61-6.25,2.54,4.4a4,4,0,0,1,2.14,0l2.54-4.4A9.15,9.15,0,0,0,28.39,25.75ZM35.87,35a4.06,4.06,0,0,1-1.07,1.85l2.54,4.4A9.07,9.07,0,0,0,40.94,35Zm0,0a4.06,4.06,0,0,1-1.07,1.85l2.54,4.4A9.07,9.07,0,0,0,40.94,35Zm-7.48-9.25,2.54,4.4a4,4,0,0,1,2.14,0l2.54-4.4A9.15,9.15,0,0,0,28.39,25.75ZM28.13,35H23.06a9.07,9.07,0,0,0,3.6,6.25C30.38,34.8,28.9,38,28.13,35Z"/><path d="M23,22H11V11H53V22H41A15,15,0,0,0,23,22Z"/><path d="M43.17,24H53V44H43.17A15,15,0,0,0,43.17,24Z"/><path d="M41,46H53V57H11V46H23A15,15,0,0,0,41,46Z"/><path d="M31.47,30a4.52,4.52,0,0,1,1,0A3.62,3.62,0,0,0,31.47,30Z"/><polygon points="46 3 36 3 37 1 45 1 46 3"/></g></svg>