<svg xmlns="http://www.w3.org/2000/svg" viewBox="0 0 64 64"><title>Battery</title><g id="Battery"><path d="M29,7H23V1H9V7H3A2,2,0,0,0,1,9V61a2,2,0,0,0,2,2H29a2,2,0,0,0,2-2V9A2,2,0,0,0,29,7ZM28,59a1,1,0,0,1-1,1H5a1,1,0,0,1-1-1V11a1,1,0,0,1,1-1H27a1,1,0,0,1,1,1Z"/><path d="M15,40.45V33a1,1,0,0,1,2,0v7.45c5.33-3,2.61-8.82-1-13.8C12.38,31.64,9.68,37.41,15,40.45Z"/><path d="M6,58H26V12H6Zm9.23-33.64a1,1,0,0,1,1.54,0C17,24.62,22,30.77,22,35.77c0,3.82-2.95,6-5,6.92V45a1,1,0,0,1-2,0V42.69c-2.05-.87-5-3.1-5-6.92C10,30.77,15,24.62,15.23,24.36Z"/><path d="M56,55a6,6,0,0,1-12,0V47a8,8,0,0,0-8-8H33v2h3a6,6,0,0,1,6,6v8a8,8,0,0,0,16,0V24H56Z"/><path d="M62,11H61V7a1,1,0,0,0-2,0v4H55V7a1,1,0,0,0-2,0v4H52a1,1,0,0,0,0,2v3a3,3,0,0,0,3,3v3h4V19a3,3,0,0,0,3-3V13A1,1,0,0,0,62,11Z"/></g></svg>