<svg xmlns="http://www.w3.org/2000/svg" viewBox="0 0 64 64"><title>Bio Chemical</title><g id="Bio_Chemical" data-name="Bio Chemical"><path d="M37.5,24h-11a1.5,1.5,0,0,0,0,3h11A1.5,1.5,0,0,0,37.5,24Z"/><path d="M24,45.46a15.67,15.67,0,0,1,7,.1V29H27V42Z"/><path d="M40.78,46.37,37,42V29H33V46.33A12.31,12.31,0,0,0,40.78,46.37Z"/><path d="M48.93,55.77,42.19,48a13.54,13.54,0,0,1-10.61-.08c-2.89-1.36-6.88-.81-9.93.27C15,55.81,14,56.41,14,58.63A4.37,4.37,0,0,0,18.37,63H45.63A4.37,4.37,0,0,0,48.93,55.77Z"/><path d="M26.61,13.63H29a5.52,5.52,0,0,0-1-3.24c-1.34-1.82-3.22-3.65-5.42-3.65a1,1,0,0,1-1-1c0-2,4.71-1.29,8.31,3.86C31.35,11.74,31,12.18,31,22h2c0-7.12-.24-8,.94-9.72,3.71-5.51,8.51-6.15,8.51-4.17a1,1,0,0,1-1,1c-2.2,0-4.08,1.83-5.42,3.65A5.52,5.52,0,0,0,35,16h2.39A10.61,10.61,0,0,0,48,5.39v-2H42.61A10.6,10.6,0,0,0,32.19,12c-.24,0-.19.07-.19-.41A10.61,10.61,0,0,0,21.39,1H16V3A10.61,10.61,0,0,0,26.61,13.63Z"/></g></svg>