<svg xmlns="http://www.w3.org/2000/svg" viewBox="0 0 64 64"><title>biodegradability</title><g id="biodegradability"><path d="M11.49,17.15l2.83-2.83C30.15-1.51,57,10,57,32h6C63,4.65,29.68-9.52,10.08,10.08L7.25,12.91,4.42,10.08l-.7,10.61L14.32,20Z"/><path d="M52.51,46.85l-2.83,2.83C33.85,65.51,7,54,7,32H1C1,59.35,34.32,73.52,53.92,53.92l2.83-2.83,2.83,2.83.7-10.61L49.68,44Z"/><path d="M36.23,44.34a6.2,6.2,0,0,1-8.46,0,11.64,11.64,0,0,1-7,1.81C25.82,52.6,29.87,49,32,49s6.19,3.59,11.19-2.85A11.57,11.57,0,0,1,36.23,44.34Z"/><path d="M20.28,25.69c2.6-.33,5.18.65,7.71,2.93a5.73,5.73,0,0,1,8,0c2.53-2.28,5.11-3.26,7.71-2.93-3.81-3.35-8.66-3.15-10.72-2.87V22h2a7,7,0,0,0,7-7H39a7,7,0,0,0-6.13,3.62A7.28,7.28,0,0,0,27.2,13a1,1,0,0,0-.4,2c.18,0,4.2.89,4.2,5v2.82C28.94,22.54,24.09,22.34,20.28,25.69Z"/><path d="M43.82,27.73c-2.34-.44-4.68.54-7.11,3A1,1,0,0,1,36,31c-1.11,0-1.44-2-4-2-1.59,0-2.34.75-3.29,1.71a1,1,0,0,1-1.42,0c-2.43-2.44-4.77-3.42-7.11-3,6.68,4.68,5.87,12.2.92,16.44,3.2.31,6.27-1.94,6.3-2a1,1,0,0,1,1.49.35c1.23,2,5.3,1.82,6.22,0a1,1,0,0,1,1.49-.34s3.11,2.28,6.3,2C37.9,39.89,37.18,32.38,43.82,27.73ZM31,36a1,1,0,0,1-2,0V35a1,1,0,0,1,2,0Zm4,0a1,1,0,0,1-2,0V35a1,1,0,0,1,2,0Z"/></g></svg>