<svg xmlns="http://www.w3.org/2000/svg" viewBox="0 0 64 64"><title>Biofuel</title><g id="Biofuel"><path d="M26,7.11C26,7,27.55,7,12,7V9H24.87Z"/><rect x="14" y="1" width="10" height="4"/><path d="M53.66,6.26A6,6,0,0,0,47.7,1H35.4a6,6,0,0,0-5.15,2.91L26,11H11.54a3,3,0,0,0-2.95,2.49c-.79,4.7-.59,3.93-.59,40a42.73,42.73,0,0,0,.59,7A3,3,0,0,0,11.54,63H51.46a3,3,0,0,0,3-2.51C55.21,55.81,55,56.9,55,17ZM32,51A15,15,0,1,1,47,36,15,15,0,0,1,32,51ZM48.27,10.27c-1,1-1,.73-11.77.73a2.51,2.51,0,0,1-1.77-4.27c1-1,1-.73,11.77-.73A2.51,2.51,0,0,1,48.27,10.27Z"/><path d="M32,23A13,13,0,1,0,45,36,13,13,0,0,0,32,23Zm1,20.69V46a1,1,0,0,1-2,0V43.69c-2.05-.87-5-3.1-5-6.92,0-5,5-11.15,5.23-11.41a1,1,0,0,1,1.54,0C33,25.62,38,31.77,38,36.77,38,40.59,35.05,42.82,33,43.69Z"/><path d="M31,41.45V34a1,1,0,0,1,2,0v7.45c5.33-3,2.61-8.82-1-13.8C28.38,32.64,25.68,38.41,31,41.45Z"/></g></svg>