<svg xmlns="http://www.w3.org/2000/svg" viewBox="0 0 64 64"><title>Bottle</title><g id="Bottle"><rect x="26" y="1" width="12" height="6"/><path d="M43.5,31.5c0-2,1.5-2.5,1.5-8.5,0-8-8-12-8-12V9H27v2s-8,4-8,12c0,6,1.5,6.5,1.5,8.5S18,35,18,39V61a2,2,0,0,0,2,2H44a2,2,0,0,0,2-2V39C46,35,43.5,33.5,43.5,31.5ZM32.71,47c-2.9,2.9-2.92,3.07-3.48,3.07a1,1,0,0,1-1-1V47.26c-3.72,0-5.39.37-6.47-1.49a3,3,0,0,1,0-3l1.77-3.11a1,1,0,0,1,1.74,1c-1.91,3.36-2.13,3.44-1.77,4.11s.67.49,4.75.49c0-1.78-.15-2.39.62-2.69s1.12.25,3.81,2.94A1,1,0,0,1,32.71,47ZM34.6,33.46C32.67,30.11,32.74,30,32,30s-.77.32-2.79,3.83c1.58.92,2.14,1.1,2,1.89s-.71.83-4.51,1.85c-1.27.28-1.32-1-2.24-4.49a1,1,0,0,1,1.46-1.13l1.53.89C29.3,29.64,29.82,28,32,28a3,3,0,0,1,2.6,1.5l1.73,3A1,1,0,1,1,34.6,33.46Zm7.66,12.23a3,3,0,0,1-2.57,1.52l-3.52,0a1,1,0,1,1,0-2l3.52,0a1,1,0,0,0,.85-1.48,37.08,37.08,0,0,1-2-3.39c-1.65.95-1.67,1-2,1a1,1,0,0,1-1-1.26c1.5-5.57.43-5,6-3.48a1,1,0,0,1,.24,1.84l-1.53.88C42.15,42.54,43.33,43.81,42.26,45.69Z"/></g></svg>