<svg xmlns="http://www.w3.org/2000/svg" viewBox="0 0 64 64"><title>Brand new world</title><g id="Brand_new_world" data-name="Brand new world"><path d="M25.26,52.47H29A5.34,5.34,0,0,0,27.77,49c-4.87-5.82-7.72-2.79-7.72-5a1,1,0,0,1,1-1c3.92,0,7,3,8.88,5.45C31.17,50.13,31,51.24,31,56h2c0-2.86-.18-3.88.85-5.36,1.83-2.62,5-6.07,9.1-6.07a1,1,0,0,1,0,2c-2.91,0-5.39,2.45-7,4.61A4.66,4.66,0,0,0,35,54h3.74A11.79,11.79,0,0,0,50.53,42.21V40.53H43.79a11.77,11.77,0,0,0-10.79,7V39a16.68,16.68,0,0,1-2,0V46a11.77,11.77,0,0,0-10.79-7H13.47v1.68A11.79,11.79,0,0,0,25.26,52.47Z"/><path d="M16.59,11.09c1.89,1.17,3,2,3.17,3,.46,3.49,1.42,4.18,1.8,4.32.61.21,1.32.42,2,.62a1.8,1.8,0,0,1,.32-1.63c.78-1,2.27-1,3.24-1.17a6.09,6.09,0,0,1,2.68-4.3c.63-.41-.79-2.58-1.66-2.42a2.57,2.57,0,0,0-.53.11A1.08,1.08,0,0,1,26,9.6a2.81,2.81,0,0,1-1.22-1.52c0-.37-2.66-.44-7-.05A19,19,0,0,0,16,10.74,5.55,5.55,0,0,1,16.59,11.09Z"/><path d="M30,25.22c1.65,1.48,1.55,1.66,1.21,3.94-.57,3.89-.27,3.69.07,3.95.2-2.85,1.07-3.88,2.67-5.69,1.12-1.28,2.38-2.72,2.28-3.62s-3.87-2.12-5.59-1.92a5.88,5.88,0,0,0-1.41.39,2,2,0,0,1-.13,2.05A7.65,7.65,0,0,0,30,25.22Z"/><path d="M32.15,4.37c.24,2.29,1.35,3.83,2,4,.08,0,.25.08.53-.28C36.35,6,38.23,5.75,37.4,4a3.84,3.84,0,0,1-.26-2.27,17.86,17.86,0,0,0-9-.33C28.17,1.52,31.91,2.15,32.15,4.37Z"/><path d="M31,37a18,18,0,0,0,16.37-8.63c-1.61-.8-2.26-5.82-2.46-7.42-.58-.74-5.5-.39-5.81-2.93-.27-2.13,1.36-4.29,1.55-4.53,1.08-1.4,3.65-.82,3.21-1-2.5-1.11-4-1.64-3.92-2.82,0-1.76,3-1.51,4.12-3.59a.89.89,0,0,1,.16-.22,17.81,17.81,0,0,0-5.16-3.34c0,1.3,2,2.61-1.37,5.51-1.74,1.49-1.95,2.45-3.4,2.45-2.36,0-3.86-3.29-4.13-5.83-.11-.34-1.53-1-3.11-1.36-.76-.14-.79-.83-.83-1.27a17.9,17.9,0,0,0-6.53,3.92c2.69-.17,5.34-.17,6.06.39,1.1.86.74,1.19,1.13,1.49,3.58-1.46,6.8,4,4.05,5.82a3.94,3.94,0,0,0-1.79,2.94c.27,2-2.88,1.59-3.61,2,.09.27.53.83,2,2,.35.28,1.28-.44,2.83-.64,1.81-.23,7.47.93,7.82,3.65.29,2.34-2.38,4.57-4,6.66-1.07,1.38-1,4-.92,4.84a1,1,0,0,1-.76,1.09,1,1,0,0,0-.75-.11c-.13-.09.08.07-2.1-1.62-1.57-1.21-.33-5.32-.27-7-.59-.77-3.37-2.43-2-4.15a.4.4,0,0,0,.07-.12c-.05-.21-.74-.76-1.12-1.05-.75-.57-3.38-1.15-5.41-1.84-2.42-.86-2.94-4.58-3.11-5.87a15.62,15.62,0,0,0-2.6-1.84A18,18,0,0,0,31,37Z"/><path d="M48.24,13.35c-.3,2-5.28.57-6,1.34a5.19,5.19,0,0,0-1.13,3.06c.62.72,5.48.38,5.81,2.9.49,4,1.07,5.38,1.44,5.88a18,18,0,0,0-2.7-19.27,6.93,6.93,0,0,1-3,2.39C46.44,11.5,48.45,11.94,48.24,13.35Z"/><path d="M32,58a53.92,53.92,0,0,0-22,5H54A53.92,53.92,0,0,0,32,58Z"/></g></svg>