<svg xmlns="http://www.w3.org/2000/svg" viewBox="0 0 64 64"><title>Clean Water</title><g id="Clean_Water" data-name="Clean Water"><path d="M23,23a13.05,13.05,0,0,0-7,7,13,13,0,0,0-7-7,13.05,13.05,0,0,0,7-7A13,13,0,0,0,23,23Z"/><path d="M31,1A112.49,112.49,0,0,0,18.86,17.13,11,11,0,0,0,28,22a1,1,0,0,1,0,2A11,11,0,0,0,17,35a1,1,0,0,1-1,1c-2,0,.12-2.9-3-7.35a37.48,37.48,0,0,0-3,13.68A20.83,20.83,0,0,0,31,63,20.83,20.83,0,0,0,52,42.33C52,23.39,31,1,31,1Zm0,59a1,1,0,0,1,0-2A15.86,15.86,0,0,0,47,42.33a1,1,0,0,1,2,0A17.86,17.86,0,0,1,31,60Z"/></g></svg>