<svg xmlns="http://www.w3.org/2000/svg" viewBox="0 0 64 64"><title>CO2 Pollutions</title><g id="CO2_Pollutions" data-name="CO2 Pollutions"><circle cx="57" cy="5" r="4"/><circle cx="38" cy="60" r="3"/><circle cx="11.5" cy="9.5" r="3.5"/><circle cx="5" cy="54" r="2"/><path d="M34,25a3,3,0,0,0-3,3v4a3,3,0,0,0,6,0V28A3,3,0,0,0,34,25Zm0,0a3,3,0,0,0-3,3v4a3,3,0,0,0,6,0V28A3,3,0,0,0,34,25Zm23.77,8.13a10,10,0,0,0-3.65-10,6,6,0,0,0-9.29-7.42,19.93,19.93,0,0,0-28.91,3.45,7.49,7.49,0,0,0-8.66,9.29A9,9,0,0,0,10,46c2.92,0,2-1.07,2,1,0,6.63,9.24,8.34,11.6,2.14a19.88,19.88,0,0,0,16.47.15,9.48,9.48,0,0,0,14-3.76,6.5,6.5,0,1,0,3.68-12.4ZM22,35c.95,0,2.34.1,3.11-1.45a1,1,0,0,1,1.78.9A4.59,4.59,0,0,1,22.76,37H22a5,5,0,0,1-5-5V28a5,5,0,0,1,5-5h.76c3.08,0,5.28,3.11,3.69,3.89a1,1,0,0,1-1.34-.44C24.36,25,23,25,22,25a3,3,0,0,0-3,3v4A3,3,0,0,0,22,35Zm17-3a5,5,0,0,1-10,0V28a5,5,0,0,1,10,0Zm7,7a1,1,0,0,1,0,2H42a1,1,0,0,1-1-1c0-1.1-.08-1.44.4-1.8C44.8,35.65,45,35.67,45,35a1,1,0,0,0-2,0,1,1,0,0,1-2,0,3,3,0,0,1,6,0c0,1.86-1.32,2.49-3.33,4ZM34,25a3,3,0,0,0-3,3v4a3,3,0,0,0,6,0V28A3,3,0,0,0,34,25Z"/></g></svg>