<svg xmlns="http://www.w3.org/2000/svg" viewBox="0 0 64 64"><title>conserving nature</title><g id="conserving_nature" data-name="conserving nature"><path d="M26,44c-2.95-2-5-8-8-9-2.12-.71-5,0-2,5a44.72,44.72,0,0,0,4,6C10.2,40.21,9.17,39.53,4.77,29.08A2,2,0,0,0,1,30c0,2,4,12,7,15a90.16,90.16,0,0,0,10,9c4,3,3,9,3,9H31V53.39A12.76,12.76,0,0,0,26,44Z"/><path d="M59.23,29.08C54.82,39.54,53.78,40.22,44,46a44.72,44.72,0,0,0,4-6c3-5,.12-5.71-2-5-3,1-5,7-8,9a12.64,12.64,0,0,0-5,9.39V63H43s-1-6,3-9a90.16,90.16,0,0,0,10-9c3-3,7-13,7-15A2,2,0,0,0,59.23,29.08Z"/><path d="M24,17h5a4.68,4.68,0,0,0-.89-2.75C21.83,5.55,18,9.4,18,7a1,1,0,0,1,1-1c5.22,0,9.3,4.87,11.38,8,.83,1.24.62.19.62,19.07a7.44,7.44,0,0,1,2,0v-14A3.7,3.7,0,0,1,33.62,17C35.7,13.87,39.78,9,45,9a1,1,0,0,1,1,1c0,2.4-3.83-1.45-10.11,7.25A4.68,4.68,0,0,0,35,20h5A14,14,0,0,0,54,6V4H46A14,14,0,0,0,32.14,16C32,16,32,16.23,32,15A14,14,0,0,0,18,1H10V3A14,14,0,0,0,24,17Z"/><path d="M36.89,42.34a10.55,10.55,0,0,0,2.3-2.62c0-.28,0-.52,0-.8-4.9-5.22-9.38-5.22-14.28,0l-.05.79a10.35,10.35,0,0,0,2.29,2.62A16.24,16.24,0,0,1,32,48.56,16.18,16.18,0,0,1,36.89,42.34Z"/></g></svg>