<svg xmlns="http://www.w3.org/2000/svg" viewBox="0 0 64 64"><title>Digital  Ecology</title><g id="Digital_Ecology" data-name="Digital  Ecology"><polygon points="39.41 50 38.41 51 25.59 51 24.59 50 1 50 1 53 7 55 57 55 63 53 63 50 39.41 50"/><path d="M22.55,22.74c3.44,0,6.47,3,8.34,5.44A9.62,9.62,0,0,0,21.39,20H17v1a9.62,9.62,0,0,0,9.61,9.61H30.2c-1.65-2.42-4.68-5.89-7.65-5.89A1,1,0,0,1,22.55,22.74Z"/><path d="M41.45,27.11c-3,0-6,3.47-7.65,5.89h3.59A9.62,9.62,0,0,0,47,23.39v-1H42.61a9.62,9.62,0,0,0-9.5,8.18c1.87-2.42,4.9-5.44,8.34-5.44A1,1,0,0,1,41.45,27.11Z"/><path d="M11,44H31c0-12.63.1-11.37,0-11.37H26.61A11.63,11.63,0,0,1,15,21V19a1,1,0,0,1,1-1h5.39a11.64,11.64,0,0,1,11.12,8.26,11.61,11.61,0,0,1,10.1-5.89H48a1,1,0,0,1,1,1v2A11.63,11.63,0,0,1,37.39,35H33v9H53V14H11Z"/><path d="M26.41,49H37.59l1-1H58V12a3,3,0,0,0-3-3H9a3,3,0,0,0-3,3V48H25.41ZM9,45V13a1,1,0,0,1,1-1H54a1,1,0,0,1,1,1V45a1,1,0,0,1-1,1H10A1,1,0,0,1,9,45Z"/></g></svg>