<svg xmlns="http://www.w3.org/2000/svg" viewBox="0 0 64 64"><title>Earth Day</title><g id="Earth_Day" data-name="Earth Day"><path d="M32.15,27.37c.24,2.29,1.35,3.83,2,4,.08,0,.25.08.53-.28C36.35,29,38.23,28.75,37.4,27a3.49,3.49,0,0,1-.32-1.25,17.32,17.32,0,0,0-6.79-.68C29.33,25.09,32,25.47,32.15,27.37Z"/><path d="M42.22,37.69a5.19,5.19,0,0,0-1.13,3.06,7.7,7.7,0,0,0,2.11.6c5.13,1,3,2,4.59,6.95a16.83,16.83,0,0,0,.34-11.63C47.42,38.24,43,36.91,42.22,37.69Z"/><path d="M36.21,46.8c-.11-.84-3.87-2.12-5.59-1.92a5.88,5.88,0,0,0-1.41.39,2,2,0,0,1-.13,2,7.65,7.65,0,0,0,.9.9c1.65,1.48,1.55,1.66,1.21,3.94-.57,3.89-.27,3.69.07,4,.2-2.85,1.07-3.88,2.67-5.69C35.05,49.14,36.31,47.7,36.21,46.8Z"/><path d="M25.75,29.26c1.1.86.74,1.19,1.13,1.49,3.62-1.47,6.77,4,4.05,5.82a3.94,3.94,0,0,0-1.79,2.94c.27,2-2.88,1.59-3.61,2.05.09.27.53.83,2,2,.36.29,1.24-.44,2.83-.64,1.81-.23,7.47.93,7.82,3.65.29,2.34-2.38,4.57-4,6.66-1.07,1.38-1,4-.92,4.84a.94.94,0,0,1-.39.91,16.9,16.9,0,0,0,13.78-8.38c-1-1.45-1.43-4.13-1.75-6.66-.57-.72-5.5-.4-5.81-2.93-.27-2.13,1.36-4.29,1.55-4.53,1.06-1.38,3.62-.83,3.21-1-2.55-1.13-3.94-1.66-3.92-2.82,0-1.56,2.34-1.51,3.69-3a17.29,17.29,0,0,0-4.19-2.89c.73,2.13-.63,3.3-1.75,4.25-1.74,1.49-1.95,2.45-3.4,2.45-2.36,0-3.86-3.29-4.13-5.83-.11-.34-1.53-1-3.11-1.36a1,1,0,0,1-.54-.31,16.59,16.59,0,0,0-5.26,2.93C24.61,28.65,25.34,28.94,25.75,29.26Z"/><path d="M47.5,35A16.73,16.73,0,0,0,45,31.06a8.27,8.27,0,0,1-2.39,1.59C44.49,33.56,46.57,34.37,47.5,35Z"/><path d="M3,63H61V21H3ZM14.66,34.22a19,19,0,1,1,19.7,26.63A19,19,0,0,1,14.66,34.22Z"/><path d="M19.76,37.07c.46,3.49,1.42,4.18,1.8,4.32.61.21,1.32.42,2,.62a1.8,1.8,0,0,1,.32-1.63c.78-1,2.27-1,3.24-1.17a6.09,6.09,0,0,1,2.68-4.3c.63-.4-.77-2.55-1.66-2.42a2.57,2.57,0,0,0-.53.11,1.08,1.08,0,0,1-1.64,0,2.76,2.76,0,0,1-1.22-1.52c0-.32-1.29-.47-5.74-.07a16,16,0,0,0-2.16,3.25C18.59,35.34,19.64,36.1,19.76,37.07Z"/><path d="M31.69,59h0l-2-1.56c-1.57-1.21-.33-5.32-.27-7-.59-.77-3.37-2.43-2-4.15a.4.4,0,0,0,.07-.12c-.05-.21-.74-.76-1.12-1.05-.75-.57-3.38-1.15-5.41-1.84-2.42-.86-2.94-4.58-3.11-5.87a8.64,8.64,0,0,0-1.74-1.29A17,17,0,0,0,31.69,59Z"/><path d="M61,8H52c0-2.76.63-4.44,1-4.91A6.73,6.73,0,0,1,53.88,6h2C55.13-1.11,50-.83,50,8c0,1.31.3,4.38,1.09,5a1,1,0,0,1,.74,1.56C50.93,15.85,48,14.73,48,8H42c0-2.76.63-4.44,1-4.91A6.73,6.73,0,0,1,43.88,6h2C45.13-1.11,40-.83,40,8c0,2,.34,5.31,1.83,6.56C40.93,15.85,38,14.73,38,8H32c0-2.76.63-4.44,1-4.91A6.73,6.73,0,0,1,33.88,6h2c-.82-7.64-6.55-6.57-5.83,3.49.06.89.46,3.07,1,3.51a1,1,0,0,1,.74,1.56C30.93,15.85,28,14.73,28,8H22c0-2.76.63-4.44,1-4.91A6.73,6.73,0,0,1,23.88,6h2c-.82-7.64-6.55-6.57-5.83,3.49.06.89.46,3.07,1,3.51a1,1,0,0,1,.74,1.56C20.93,15.85,18,14.73,18,8H12c0-2.76.63-4.44,1-4.91A6.73,6.73,0,0,1,13.88,6h2C15.13-1.11,10-.83,10,8c0,1.28.29,4.38,1.09,5a1,1,0,0,1,.74,1.56C10.93,15.85,8,14.73,8,8H3a2,2,0,0,0-2,2v7a2,2,0,0,0,2,2H61a2,2,0,0,0,2-2V10A2,2,0,0,0,61,8Z"/></g></svg>