<svg xmlns="http://www.w3.org/2000/svg" viewBox="0 0 64 64"><title>Eco Tag</title><g id="Eco_Tag" data-name="Eco Tag"><path d="M28,39.42V33.29a1,1,0,0,1,2,0v6.13c4.18-2.56,1.85-7.36-1-11.33C26.06,32.18,23.87,36.85,28,39.42Z"/><path d="M29,24A11,11,0,1,0,40,35,11,11,0,0,0,29,24Zm1,17.69v1.88a1,1,0,0,1-2,0V41.69c-6.82-3.11-4.51-10.17.23-15.9a1,1,0,0,1,1.54,0C34.5,31.52,36.82,38.58,30,41.69Z"/><path d="M53.5,1c-6,0-10,5.46-9.48,10a7.58,7.58,0,0,0,1.62,4.16,2.5,2.5,0,1,1-1.45,1.39A9.41,9.41,0,0,1,42,11c-10.59,0-11.62-.4-13.08,1.06L2.06,38.94a3.63,3.63,0,0,0,0,5.12L19.94,61.94a3.63,3.63,0,0,0,5.12,0L51.94,35.06C53.36,33.64,53,33.5,53,20c4.7.55,10-3.62,10-9.48A9.51,9.51,0,0,0,53.5,1ZM29,48A13,13,0,1,1,42,35,13,13,0,0,1,29,48ZM53.5,18c-.59,0-.5,0-.5-.15V16a5,5,0,0,0-5-5H46a7.5,7.5,0,1,1,7.48,7Z"/></g></svg>