<svg xmlns="http://www.w3.org/2000/svg" viewBox="0 0 64 64"><title>Eco Factory</title><g id="Eco_Factory" data-name="Eco Factory"><rect x="6" y="51" width="12" height="2"/><rect x="6" y="55" width="12" height="2"/><rect x="6" y="59" width="12" height="2"/><path d="M34.66,47.25l6.26,5.48A10,10,0,0,0,31.05,44c-2.21,0-2.05,0-2.05,0A10,10,0,0,0,39.33,54l-6-5.24A1,1,0,0,1,34.66,47.25Z"/><path d="M44.66,57A10,10,0,0,0,55,47.05c0-.1.16,0-2,0a10,10,0,0,0-9.87,8.73l6.26-5.48a1,1,0,0,1,1.32,1.5Z"/><path d="M1,63H4V50a1,1,0,0,1,1-1H19a1,1,0,0,1,1,1V63H41c0-7.57.1-7,0-7H39a12,12,0,0,1-12-12V43a1,1,0,0,1,1-1h3.05a12,12,0,0,1,11.57,9A11.94,11.94,0,0,1,53,45h3a1,1,0,0,1,1,1v1a12,12,0,0,1-12,12H43v4H63V38H1Z"/><path d="M33,30v6H63V30Zm8,4H37a1,1,0,0,1,0-2h4A1,1,0,0,1,41,34Zm9,0H46a1,1,0,0,1,0-2h4A1,1,0,0,1,50,34Zm9,0H55a1,1,0,0,1,0-2h4A1,1,0,0,1,59,34Z"/><polygon points="44 20 36 28 44 28 44 20"/><polygon points="52 20 44 28 52 28 52 20"/><polygon points="60 20 52 28 60 28 60 20"/><path d="M28,33H4v3H28Z"/><polygon points="18.89 10 18.11 31 25.89 31 25.11 10 18.89 10"/><path d="M13.09,5H6.91C6.8,8.36,7,2,6.09,31h7.82C13,3.36,13.22,8.8,13.09,5Z"/><path d="M7,3H13a1,1,0,0,0,0-2H7A1,1,0,0,0,7,3Z"/><path d="M19,8h0C25.35,8,25,8.09,25,8a1,1,0,0,0,0-2H19A1,1,0,0,0,19,8Z"/></g></svg>