<svg xmlns="http://www.w3.org/2000/svg" viewBox="0 0 64 64"><title>Eco Plug</title><g id="Eco_Plug" data-name="Eco Plug"><path d="M11.61,13.63H14a5,5,0,0,0-.89-2.83C11.7,8.74,9.73,6.74,7.55,6.74a1,1,0,0,1-1-1C6.55,3.9,11.2,4,15.24,10.4c1,1.58.76,2,.76,11.63a16.68,16.68,0,0,1,2,0c0-6.86-.29-7.94,1-9.82,1.82-2.68,4.39-5.1,7.47-5.1a1,1,0,0,1,0,2c-2.09,0-4,1.74-5.38,3.6A5.55,5.55,0,0,0,20,16h2.39A10.61,10.61,0,0,0,33,5.39v-2H27.61A10.62,10.62,0,0,0,17,14c0-2.7.15-4.41-1-6.86A10.6,10.6,0,0,0,6.39,1H1V3A10.61,10.61,0,0,0,11.61,13.63Z"/><path d="M17.43,36.62v-4.5l-3.87,5.41c2.22.86,3,.93,3,1.85v4.5l3.87-5.41C18.22,37.61,17.43,37.54,17.43,36.62Z"/><path d="M15.18,24.12a14,14,0,1,0,15.7,15.7A14,14,0,0,0,15.18,24.12Zm1.21,23.46A1,1,0,0,1,14.57,47V40.07l-2.93-1.14a1,1,0,0,1-.45-1.51l6.42-9a1,1,0,0,1,1.82.58v6.93c3.09,1.2,3.34,1.17,3.53,1.78S23.3,37.89,16.39,47.58Z"/><path d="M57,20h2V47.5a6.51,6.51,0,0,1-7.36,6.44A6.65,6.65,0,0,1,46,47.27V44.5a4.51,4.51,0,0,0-5-4.48,4.64,4.64,0,0,0-4,4.68v7.43A10.73,10.73,0,0,1,26.91,63,10.52,10.52,0,0,1,16.1,54a13.67,13.67,0,0,0,2,0,8.5,8.5,0,0,0,9.2,7A8.7,8.7,0,0,0,35,52.2V44.5a6.51,6.51,0,0,1,7.36-6.44A6.65,6.65,0,0,1,48,44.73V47.5A4.51,4.51,0,0,0,53,52a4.64,4.64,0,0,0,4-4.68Z"/><path d="M62,13v2a3,3,0,0,1-3,3H57a3,3,0,0,1-3-3V13a1,1,0,0,1,0-2V8a1,1,0,0,1,2,0v3h4V8a1,1,0,0,1,2,0v3A1,1,0,0,1,62,13Z"/></g></svg>