<svg xmlns="http://www.w3.org/2000/svg" viewBox="0 0 64 64"><title>Eco Bulb</title><g id="Eco_Bulb" data-name="Eco Bulb"><path d="M24.66,22.25l6.26,5.48A10,10,0,0,0,21.05,19C18.84,19,19,19,19,19.05A10,10,0,0,0,29.33,29l-6-5.24A1,1,0,0,1,24.66,22.25Z"/><path d="M34.66,32A10,10,0,0,0,45,22.05c0-.1.16-.05-2-.05a10,10,0,0,0-9.87,8.73l6.26-5.48a1,1,0,0,1,1.32,1.5Z"/><path d="M30.87,1C12.64,2,4,24.75,17.76,37.43A13.09,13.09,0,0,1,21.84,45H30a1,1,0,0,0,1-1V31H29A12,12,0,0,1,17,19.05V18a1,1,0,0,1,1-1h3.05a12,12,0,0,1,11.57,9A11.94,11.94,0,0,1,43,20h3a1,1,0,0,1,1,1v1.05a12,12,0,0,1-12,12H33V44a1,1,0,0,0,1,1h8.16a13.3,13.3,0,0,1,4.1-7.59C60.56,24.21,50.54,0,30.87,1Z"/><path d="M42,50V47H22v1C22.15,48,20.72,47.86,42,50Z"/><path d="M42.1,52C42,52,22.54,50,22,50a1,1,0,0,0-.1,2c.1,0,19.88,2,20.15,2A1,1,0,0,0,42.1,52Z"/><path d="M42.1,56c-.1,0-20-2-20.1-2-1.2,0-1.51,1.89.13,2A4,4,0,0,0,26,59h3v1a3,3,0,0,0,6,0V59c2.77,0,4.31.29,5.75-1.11,1,.09,2.12.35,2.25-.79A1,1,0,0,0,42.1,56Z"/></g></svg>