<svg xmlns="http://www.w3.org/2000/svg" viewBox="0 0 64 64"><title>Eco Thecnology</title><g id="Eco_Thecnology" data-name="Eco Thecnology"><path d="M32,19A13,13,0,1,0,45,32,13,13,0,0,0,32,19Zm1,20.69V42a1,1,0,0,1-2,0V39.69c-2.05-.87-5-3.1-5-6.92,0-5,5-11.15,5.23-11.41a1,1,0,0,1,1.54,0C33,21.62,38,27.77,38,32.77,38,36.59,35.05,38.82,33,39.69Zm-2-2.24V30a1,1,0,0,1,2,0v7.45c5.32-3,2.61-8.82-1-13.8C28.38,28.64,25.68,34.41,31,37.45Z"/><path d="M32,15A17,17,0,1,0,49,32,17,17,0,0,0,32,15Zm0,32A15,15,0,1,1,47,32,15,15,0,0,1,32,47Z"/><path d="M63,37V27l-6.7-.86a25,25,0,0,0-3-7.18l4.13-5.34L50.38,6.54,45,10.67a25,25,0,0,0-7.18-3L37,1H27l-.86,6.7a25,25,0,0,0-7.18,3L13.62,6.54,6.54,13.62,10.67,19a25,25,0,0,0-3,7.18L1,27V37l6.7.86a25,25,0,0,0,3,7.18L6.54,50.38l7.08,7.08L19,53.33a25,25,0,0,0,7.18,3L27,63H37l.86-6.7a25,25,0,0,0,7.18-3l5.34,4.13,7.08-7.08L53.33,45a25,25,0,0,0,3-7.18ZM32,51A19,19,0,1,1,51,32,19,19,0,0,1,32,51Z"/></g></svg>