<svg xmlns="http://www.w3.org/2000/svg" viewBox="0 0 64 64"><title>Eco House</title><g id="Eco_House" data-name="Eco House"><rect x="1" y="58" width="62" height="5"/><path d="M63,24v7L32,8,1,31V24L32,1Z"/><rect x="45" y="1" width="12" height="4"/><polygon points="55 7 55 15.57 47 9.64 47 7 55 7"/><path d="M45,42a10,10,0,0,1-10,10c-.56,0-1.3.8,5.61-5.25a1,1,0,0,0-1.32-1.5l-6.26,5.48A10,10,0,0,1,43,42Z"/><path d="M30.92,47.73l-6.26-5.48a1,1,0,0,0-1.32,1.5l6,5.24A10,10,0,0,1,19,39.05c0-.1-.16,0,2.05,0A10,10,0,0,1,30.92,47.73Z"/><path d="M34.29,27.49,32,30.24c0-3.33.37-2.84-2.29-3.73L32,23.76C32,27.09,31.63,26.6,34.29,27.49Z"/><path d="M32,18a9,9,0,1,0,9,9A9,9,0,0,0,32,18Zm4.77,9.64C31.51,34,31.67,34,31,34a1,1,0,0,1-1-1V28.72L27.68,28a1,1,0,0,1-.45-1.59l5-6a1,1,0,0,1,1.11-.3c.87.3.66.81.66,5.22,2.36.78,2.77.78,3,1.45A1,1,0,0,1,36.77,27.64Z"/><path d="M55,27.55V56H34a1,1,0,0,1-1-1V54h2a12,12,0,0,0,12-12V41a1,1,0,0,0-1-1H43a12,12,0,0,0-10,5.33V38a11,11,0,1,0-2,0v4.38A12,12,0,0,0,21.05,37H18a1,1,0,0,0-1,1v1A12,12,0,0,0,29,51H31c-.26,2.74.57,5-1,5H9V27.55L32,10.49Z"/><path d="M31,51c.1,0,0-.09,0,1Z"/></g></svg>