<svg xmlns="http://www.w3.org/2000/svg" viewBox="0 0 64 64"><title>Electric car</title><g id="Electric_car" data-name="Electric car"><path d="M10,53a5,5,0,1,0,5,5A5,5,0,0,0,10,53Zm0,7a2,2,0,1,1,2-2A2,2,0,0,1,10,60Z"/><path d="M48,53a5,5,0,1,0,5,5A5,5,0,0,0,48,53Zm0,7a2,2,0,1,1,2-2A2,2,0,0,1,48,60Z"/><path d="M1,49h.21a4.14,4.14,0,0,0,.61,0,2.51,2.51,0,0,0,1.53-4.14.38.38,0,0,1-.09-.13A6,6,0,0,0,1,49Z"/><path d="M36,31c0,.16-.11,1.23-.89,9h12A1.9,1.9,0,0,0,49,38.1c0-.4.06-.09-2-6.81C46.92,30.88,48.36,31,36,31Z"/><path d="M15.2,40H33.09l.9-9C24.22,31,27.53,29.73,15.2,40Z"/><path d="M55,48v1a1,1,0,0,0,1,1h1V47H56A1,1,0,0,0,55,48Z"/><path d="M54,13H49a13.35,13.35,0,0,1,0,2h5a7,7,0,0,1,7,7V50.26a3,3,0,0,1-3,3H57V52H56a3,3,0,0,1-3-3V48a3,3,0,0,1,3-3h.73l-2.54-9.55A6,6,0,0,0,49.06,31C51,37.37,51,37.3,51,38.1A3.91,3.91,0,0,1,47.1,42H10.75L5.06,43.76A4.48,4.48,0,0,1,1,51v7H3a7,7,0,0,1,14,0H41a7,7,0,0,1,14,0h2V55.26h1a5,5,0,0,0,5-5V22A9,9,0,0,0,54,13ZM32,46H29a1,1,0,0,1,0-2h3A1,1,0,0,1,32,46Z"/><path d="M33.57,15.38v4.5l3.87-5.41c-2.22-.86-3-.93-3-1.85V8.12l-3.87,5.41C32.78,14.39,33.57,14.46,33.57,15.38Z"/><path d="M34,27A13,13,0,1,0,21,14,13,13,0,0,0,34,27Zm.62-22.58A1,1,0,0,1,36.43,5v6.93c3.09,1.2,3.34,1.17,3.53,1.78s.34.19-6.58,9.87A1,1,0,0,1,31.57,23V16.07c-3.09-1.2-3.34-1.17-3.53-1.78S27.7,14.1,34.62,4.42Z"/><path d="M2,16a1,1,0,0,0,0,2H5a1,1,0,0,0,2,0H9a3,3,0,0,0,3-3h7a13.35,13.35,0,0,1,0-2H12a3,3,0,0,0-3-3H7a1,1,0,0,0-2,0H2a1,1,0,0,0,0,2H5v4Z"/></g></svg>