<svg xmlns="http://www.w3.org/2000/svg" viewBox="0 0 64 64"><title>Faucet</title><g id="Faucet"><path d="M13,41H3a2,2,0,0,0,0,4H13a2,2,0,0,0,0-4Z"/><rect x="22" y="13" width="14" height="2"/><path d="M32,8H26a2,2,0,0,0-2,2v1H34V10A2,2,0,0,0,32,8Z"/><path d="M35,19.48V17H23v2.49A11.88,11.88,0,0,0,19.74,22H17A14,14,0,0,0,3,36v3H13V38a4,4,0,0,1,4-4h1.31c4.43,8,16.89,8,21.37,0H43V22H38.23A12,12,0,0,0,35,19.48Z"/><path d="M8,63a6,6,0,0,0,6-6c0-5.5-6-12-6-12S2,51.5,2,57A6,6,0,0,0,8,63Z"/><rect x="45" y="19" width="5" height="18"/><rect x="52" y="20" width="11" height="16"/><path d="M19.72,5H27V6h4V5h7.28a2,2,0,1,0,0-2H31a2,2,0,0,0-4,0H19.72a2,2,0,1,0,0,2Z"/></g></svg>