<svg xmlns="http://www.w3.org/2000/svg" viewBox="0 0 64 64"><title>Forest</title><g id="Forest"><path d="M39.31,31.7l-.58.86-3.86-.77L32,33.24l-2.87-1.45-3.86.77-.58-.86a39.35,39.35,0,0,1-6.69,7h4.94c.48.71.16.23,1.65,2.48l4.12-.83L32,42l3.29-1.66,4.12.83c1.47-2.22,1.16-1.75,1.65-2.48H46A39,39,0,0,1,39.31,31.7Z"/><path d="M26.18,30.34l3.23-.65L32,31l2.59-1.31,3.23.65,1.3-2H43a28.6,28.6,0,0,1-4-3.95c-2.53-3-1.9-3-2.3-2.43-1.7-.28-1.07-.16-2.76-.5l-2,1-1.95-1c-1.66.34-1,.22-2.76.5-.39-.58.23-.55-2.34,2.47A29.3,29.3,0,0,1,21,28.38h3.88Z"/><path d="M28.25,19.82c2.63-.44,1.4-.76,3.75.42,2.35-1.18,1.12-.86,3.75-.42l.84-1.27h2.5A23.18,23.18,0,0,1,32,8a23.18,23.18,0,0,1-7.09,10.55h2.5Z"/><path d="M56.71,34.52l-3.3-.69L51,35.07l-2.41-1.24-3.3.69-.64-1c-.19.25-.38.48-.58.71a36,36,0,0,0,5,4.29,1.21,1.21,0,0,1-.72,2.18c-.12,0-.41-.17,2.61,1.31l2-1c1.09-.53.24-.51,4.35.29l1.41-2.07H63a31.15,31.15,0,0,1-5.65-5.73Z"/><path d="M45.18,30.64c.9,1.38.67,1,1.06,1.64l2.64-.55L51,32.82l2.12-1.09,2.64.55c.39-.62.16-.26,1.06-1.64H60a24.3,24.3,0,0,1-4.66-5.12c-.27.4.08.34-1.62.09-1.31-.26-.7-.38-2.72.62l-1.68-.83c-2.76.56-2.34.48-2.63.08A24.53,24.53,0,0,1,42,30.64Z"/><path d="M47.82,23.66c2.31-.33,1.07-.69,3.18.34,2.11-1,.87-.67,3.18-.34l.7-1H57A19.08,19.08,0,0,1,51,14a19.08,19.08,0,0,1-6,8.62h2.12Z"/><path d="M6.65,41.31C10.8,40.5,9.91,40.49,11,41l2,1c3-1.48,2.73-1.31,2.59-1.31a1.2,1.2,0,0,1-.71-2.18,30.3,30.3,0,0,0,4.92-4.16c.18-.18.18,0-.45-.84l-.64,1-3.3-.69L13,35.07l-2.41-1.24-3.3.69-.64-1A31.15,31.15,0,0,1,1,39.24H5.24Z"/><path d="M8.24,32.28l2.64-.55L13,32.82l2.12-1.09,2.64.55c.39-.62.16-.26,1.06-1.64H22a24.3,24.3,0,0,1-4.66-5.12l-.2.3c-1.7-.25-1.15-.16-2.46-.42L13,26.23l-1.68-.83c-1.44.29-.89.19-2.39.41l-.24-.33A24.53,24.53,0,0,1,4,30.64H7.18C8.08,32,7.85,31.66,8.24,32.28Z"/><path d="M9.82,23.66c2.31-.33,1.07-.69,3.18.34,2.11-1,.87-.67,3.18-.34l.7-1H19A19.08,19.08,0,0,1,13,14a19.08,19.08,0,0,1-6,8.62H9.12Z"/><path d="M61,54H53V43.25l-2,1-2-1V54H34V43.23l-2,1-2-1V54H15V43.25l-2,1-2-1V54H2a1,1,0,0,0,0,2H61A1,1,0,0,0,61,54Z"/></g></svg>