<svg xmlns="http://www.w3.org/2000/svg" viewBox="0 0 64 64"><title>Greenhouse</title><g id="Greenhouse"><rect x="1" y="60" width="8" height="3"/><rect x="11" y="48" width="6" height="15"/><path d="M5,28.63V37H1.05A12.87,12.87,0,0,1,5,28.63Z"/><rect x="1" y="39" width="4" height="19"/><path d="M7,39H21V58H19V47a1,1,0,0,0-1-1H10a1,1,0,0,0-1,1V58H7Z"/><path d="M24,26.64c-.13.19.07.29-1.14-.76Z"/><path d="M21,27.05V37H7V27.05A13,13,0,0,1,21,27.05Z"/><path d="M22.3,25.5c-.93-.62-1.05-.5-.45-.5C22.78,25.8,23.36,26.21,22.3,25.5Z"/><path d="M27,37H23V28.63A13,13,0,0,1,27,37Z"/><rect x="23" y="39" width="4" height="19"/><rect x="19" y="60" width="8" height="3"/><path d="M45,37c-17.28,0-16,.08-16-.15A15,15,0,0,0,21.48,25H32A13,13,0,0,1,45,37Z"/><rect x="34" y="48" width="6" height="6"/><path d="M29,39V58H45V39ZM42,55a1,1,0,0,1-1,1H33a1,1,0,0,1-1-1V47a1,1,0,0,1,1-1h8a1,1,0,0,1,1,1Z"/><rect x="29" y="60" width="16" height="3"/><circle cx="32" cy="11" r="4"/><path d="M31,4V2a1,1,0,0,1,2,0V4A1,1,0,0,1,31,4Z"/><path d="M31,20V18a1,1,0,0,1,2,0v2A1,1,0,0,1,31,20Z"/><path d="M41,12H39a1,1,0,0,1,0-2h2A1,1,0,0,1,41,12Z"/><path d="M25,12H23a1,1,0,0,1,0-2h2A1,1,0,0,1,25,12Z"/><path d="M37,7.05a1,1,0,0,1-.71-1.71l1.42-1.41a1,1,0,0,1,1.41,1.41C37.53,6.88,37.48,7.05,37,7.05Z"/><path d="M25.64,18.36a1,1,0,0,1-.71-1.7l1.41-1.42a1,1,0,0,1,1.42,1.42C26.22,18.2,26.16,18.36,25.64,18.36Z"/><path d="M38.36,18.36c-.6,0-.82-.41-2.12-1.7a1,1,0,0,1,1.42-1.42l1.41,1.42A1,1,0,0,1,38.36,18.36Z"/><path d="M27.05,7.05c-.6,0-.83-.41-2.12-1.71a1,1,0,0,1,1.41-1.41l1.42,1.41A1,1,0,0,1,27.05,7.05Z"/><path d="M63,37H47a15,15,0,0,0-7.48-12H50A13,13,0,0,1,63,37Z"/><rect x="52" y="48" width="6" height="6"/><path d="M47,39V58H63V39ZM60,55a1,1,0,0,1-1,1H51a1,1,0,0,1-1-1V47a1,1,0,0,1,1-1h8a1,1,0,0,1,1,1Z"/><rect x="47" y="60" width="16" height="3"/></g></svg>