<svg xmlns="http://www.w3.org/2000/svg" viewBox="0 0 64 64"><title>Green Idea</title><g id="Green_Idea" data-name="Green Idea"><path d="M33,55.81V48H31v7.81A14,14,0,0,0,18,47H10v2A14,14,0,0,0,24,63h6.82C29.5,61,24.48,54,19,54a1,1,0,0,1,0-2c5.27,0,9.93,4.89,13,9.17C35.07,56.89,39.73,52,45,52a1,1,0,0,1,0,2c-5.48,0-10.5,7-11.82,9H40A14,14,0,0,0,54,49V47H46A14,14,0,0,0,33,55.81Z"/><path d="M31.57,26.38v4.5l3.87-5.41c-2.22-.86-3-.93-3-1.85v-4.5l-3.87,5.41C30.78,25.39,31.57,25.46,31.57,26.38Z"/><path d="M23.16,32.61A8.12,8.12,0,0,1,25.77,38H38.23a8.21,8.21,0,0,1,2.62-5.4C49.7,24.4,43.54,9.37,31.3,10,20,10.6,14.64,24.78,23.16,32.61Zm9.46-17.19a1,1,0,0,1,1.81.58v6.93c3.09,1.2,3.34,1.17,3.53,1.78s.34.19-6.58,9.87A1,1,0,0,1,29.57,34V27.07c-3.09-1.2-3.34-1.17-3.53-1.78S25.7,25.1,32.62,15.42Z"/><path d="M28.28,46h7.44a2.48,2.48,0,0,0,2.49-2.48V40H25.79v3.52A2.48,2.48,0,0,0,28.28,46Z"/><path d="M49,23h4a1,1,0,0,0,0-2H49A1,1,0,0,0,49,23Z"/><path d="M11,23h4a1,1,0,0,0,0-2H11A1,1,0,0,0,11,23Z"/><path d="M44.73,33.31a1,1,0,0,0-1.42,1.42c3.07,3.07,3,3.12,3.54,3.12a1,1,0,0,0,.71-1.71Z"/><path d="M19.27,10.69a1,1,0,0,0,1.42-1.42L17.86,6.44a1,1,0,0,0-1.42,1.42Z"/><path d="M44,11c.55,0,.46-.05,3.54-3.12a1,1,0,0,0-1.42-1.42L43.31,9.27A1,1,0,0,0,44,11Z"/><path d="M17.15,37.85c.55,0,.46-.05,3.54-3.12a1,1,0,0,0-1.42-1.42l-2.83,2.83A1,1,0,0,0,17.15,37.85Z"/><path d="M33,6V2a1,1,0,0,0-2,0V6A1,1,0,0,0,33,6Z"/></g></svg>