<svg xmlns="http://www.w3.org/2000/svg" viewBox="0 0 64 64"><title>Label</title><g id="Label"><path d="M30.2,44.63H26.61A9.62,9.62,0,0,1,17,35V34h4.39a9.62,9.62,0,0,1,9.5,8.18C29,39.76,26,36.74,22.55,36.74a1,1,0,0,0,0,2C25.52,38.74,28.55,42.21,30.2,44.63Z"/><path d="M47,36.37v1A9.62,9.62,0,0,1,37.39,47H33.8c1.65-2.42,4.68-5.89,7.65-5.89a1,1,0,0,0,0-2c-3.44,0-6.47,3-8.34,5.44a9.62,9.62,0,0,1,9.5-8.18Z"/><path d="M32,11a21,21,0,0,0-1,42c0-6.61,0-6,.07-6.34H26.61A11.63,11.63,0,0,1,15,35V33a1,1,0,0,1,1-1h5.39a11.64,11.64,0,0,1,11.12,8.26,11.61,11.61,0,0,1,10.1-5.89H48a1,1,0,0,1,1,1v2A11.63,11.63,0,0,1,37.39,49H33v4a21,21,0,0,0-1-42ZM24.5,23a1,1,0,0,1,0,2H21v3h5a1,1,0,0,1,0,2H20a1,1,0,0,1-1-1V19a1,1,0,0,1,1-1h6a1,1,0,0,1,0,2H21v3Zm9.32,3.75a1,1,0,0,1,1.3-.55c1.62.63-.25,3.8-3.14,3.8a4,4,0,0,1-4-4V22a4,4,0,0,1,7.68-1.48,1,1,0,0,1-1.86.75A2,2,0,0,0,30,22v4A2,2,0,0,0,33.82,26.75ZM46,26a4,4,0,0,1-8,0V22a4,4,0,0,1,8,0Zm-4-6a2,2,0,0,0-2,2v4a2,2,0,0,0,4,0V22A2,2,0,0,0,42,20Z"/><path d="M63,32c0-2.68-2.53-5-3.19-7.45s.33-5.82-1-8-4.65-3-6.5-4.85-2.58-5.19-4.85-6.5-5.49-.28-8-1S34.68,1,32,1s-5,2.53-7.45,3.19-5.82-.33-8,1-3,4.65-4.85,6.5-5.19,2.58-6.5,4.85-.28,5.49-1,8.05S1,29.32,1,32s2.53,5,3.19,7.45-.33,5.82,1,8,4.65,3,6.5,4.85,2.58,5.19,4.85,6.5,5.49.28,8.05,1S29.32,63,32,63s5-2.53,7.45-3.19,5.82.33,8-1,3-4.65,4.85-6.5,5.19-2.58,6.5-4.85.28-5.49,1-8S63,34.68,63,32ZM32,55A23,23,0,1,1,55,32,23,23,0,0,1,32,55Z"/><path d="M31,46.63c0,.67,0,.29.07,0Z"/></g></svg>