<svg xmlns="http://www.w3.org/2000/svg" viewBox="0 0 64 64"><title>Leaves</title><g id="Leaves"><path d="M60.52,39C60.47,46.71,54.11,55.16,45,59a1,1,0,0,1-.79-1.83c7.62-3.26,13.18-9.92,14.13-16.34.46-3.11-1.72-12.09-4.69-15a1,1,0,0,0-1.4,1.43c1.93,1.93,3.8,8,3.8,9.81A19.59,19.59,0,0,0,43.6,46.52c-5.5,9.53-6,10.39-11.1,13.22,9.53,5.5,23.06,4.08,28.06-4.58C64.88,47.67,62.56,42,60.52,39Z"/><path d="M18.05,22c1-3.06,5-7.16,6.47-8.1A19.56,19.56,0,0,0,39,20c11,0,12,0,17,3C56,12,48,1,38,1,29.3,1,25.53,5.93,24,9.18c6.72-3.81,17.21-2.52,25.09,3.39a1,1,0,0,1-1.2,1.6c-7.18-5.39-16.63-6.68-22.67-3.4-1.25.68-7.2,5.86-8.57,9.41a7.34,7.34,0,0,0-.52,1.31A1,1,0,0,0,18.05,22Z"/><path d="M31.09,54.36c-2.38.72-7.41-.42-10.27-1.56a19.62,19.62,0,0,0-2-15.46c-5.5-9.52-6-10.39-5.9-16.22-9.52,5.5-15,17.93-10,26.59C7.17,55.14,13.21,56,16.82,55.77c-6.59-4-10.66-13.63-9.49-23.36a1,1,0,0,1,2,.24C8.42,40.12,10.8,47.52,15,51.84c2.69,2.73,12.31,5.67,16.6,4.44A1,1,0,0,0,31.09,54.36Z"/></g></svg>