<svg xmlns="http://www.w3.org/2000/svg" viewBox="0 0 64 64"><title>Love</title><g id="Love"><path d="M30.13,35H24A13,13,0,0,1,11,22V21h7A13,13,0,0,1,30.93,32.73C28.51,29.62,24.07,25,19,25a1,1,0,0,0,0,2C23.77,27,28.2,32.32,30.13,35Z"/><path d="M53,24v1A13,13,0,0,1,40,38H33.87c1.93-2.68,6.36-8,11.13-8a1,1,0,0,0,0-2c-5.07,0-9.51,4.62-11.93,7.73A13,13,0,0,1,46,24Z"/><path d="M63,24c0,18.74-24.69,31.11-30,33.55V40h7A15,15,0,0,0,55,25V23a1,1,0,0,0-1-1H46a15,15,0,0,0-13.45,8.36A15,15,0,0,0,18,19H10a1,1,0,0,0-1,1v2A15,15,0,0,0,24,37h7V57.55C25.69,55.11,1,42.74,1,24,1,7.74,20.86-.08,32,11.57,43.15-.09,63,7.75,63,24Z"/></g></svg>