<svg xmlns="http://www.w3.org/2000/svg" viewBox="0 0 64 64"><title>No Chemical</title><g id="No_Chemical" data-name="No Chemical"><path d="M19,5H33a2,2,0,0,0,0-4H19a2,2,0,0,0,0,4Z"/><path d="M38.31,44.33,41,41.65l-2.31-3.08A9,9,0,0,0,38.31,44.33Z"/><path d="M44.67,50.69A8.94,8.94,0,0,0,48,51l-1.52-2Z"/><path d="M25.44,36a11.43,11.43,0,0,0,4.22,1.15A17.86,17.86,0,0,1,33,30.71V7H19V31l-3,4A13.83,13.83,0,0,1,25.44,36Z"/><path d="M29.23,39.16a13.25,13.25,0,0,1-4.67-1.32c-5.61-2.75-10.35,0-10.75.08C1.19,54.74,1,54.33,1,57a6,6,0,0,0,6,6H45a6,6,0,0,0,5.37-3.32A18,18,0,0,1,29.23,39.16Z"/><path d="M47,26A16,16,0,1,0,63,42,16,16,0,0,0,47,26Zm5.81,6.65L37.65,47.81C31.6,38,42.89,26.55,52.81,32.65ZM41.19,51.35,56.35,36.19C62.45,46.1,51,57.4,41.19,51.35Z"/></g></svg>