<svg id="No_Plastics" data-name="No Plastics" xmlns="http://www.w3.org/2000/svg" viewBox="0 0 64 64"><title>No Plastics</title><path d="M33,46.85c.08-.51.25-.2-1-1.44L21.71,55.71a1,1,0,0,1-1.42,0l-4-4a1,1,0,0,1,0-1.42L26.59,40,16.29,29.71a1,1,0,0,1,0-1.42l4-4a1,1,0,0,1,1.42,0L32,34.59c3.76-3.76,3.24-3.05,3.35-3.84-2.49-7-1.81-13.31,3.46-18.4A63.35,63.35,0,0,1,37,1H31V16a2,2,0,0,1-2,2H15a2,2,0,0,1-2-2V1H7C6.52,5.85,6,14,1,22,1,56,.33,57.68,3,63H33.54C32.81,61.74,33,62.52,33,46.85Z"/><rect x="43" y="1" width="12" height="6"/><path d="M60.5,31.5c0-2,1.5-2.5,1.5-8.5,0-8-8-12-8-12V9H44v2s-8,4-8,12a16.12,16.12,0,0,0,1,6.55l5.25-5.26a1,1,0,0,1,1.42,0l4,4a1,1,0,0,1,0,1.42L37.41,40l10.3,10.29a1,1,0,0,1,0,1.42C43.41,56,43.58,56,43,56s-.18.24-8-7.59V61a2,2,0,0,0,2,2H61a2,2,0,0,0,2-2V39C63,35,60.5,33.5,60.5,31.5Z"/><path d="M45.59,29,43,26.41,32.71,36.71a1,1,0,0,1-1.42,0L21,26.41,18.41,29l10.3,10.29a1,1,0,0,1,0,1.42L18.41,51,21,53.59C32.16,42.42,31.4,43,32,43s-.27-.7,11,10.59L45.59,51,35.29,40.71a1,1,0,0,1,0-1.42Z"/></svg>