<svg xmlns="http://www.w3.org/2000/svg" viewBox="0 0 64 64"><title>No Plastic Bottle</title><g id="No_Plastic_Bottle" data-name="No Plastic Bottle"><rect x="18" y="1" width="12" height="6"/><path d="M29.31,44.33l8.2-8.19A20.35,20.35,0,0,0,36,33.22,9,9,0,0,0,29.31,44.33Z"/><path d="M38,51V48.36l-2.33,2.33A8.72,8.72,0,0,0,38,51Z"/><path d="M20,42A18,18,0,0,1,37,24c0-.32,0-.67,0-1,0-8-8-12-8-12V9H19v2s-8,4-8,12c0,6,1.5,6.5,1.5,8.5S10,35,10,39V61a2,2,0,0,0,2,2H36a2,2,0,0,0,2-2V60A18,18,0,0,1,20,42Z"/><path d="M38,26A16,16,0,1,0,54,42,16,16,0,0,0,38,26Zm5.81,6.65L28.65,47.81C22.6,38,33.89,26.55,43.81,32.65ZM32.19,51.35,47.35,36.19C53.45,46.1,42,57.4,32.19,51.35Z"/></g></svg>