<svg xmlns="http://www.w3.org/2000/svg" viewBox="0 0 64 64"><title>No Plastic Bag</title><g id="No_Plastic_Bag" data-name="No Plastic Bag"><path d="M45,26A16,16,0,1,0,61,42,16,16,0,0,0,45,26Zm5.81,6.65L35.65,47.81C29.6,38,40.89,26.55,50.81,32.65ZM39.19,51.35,54.35,36.19C60.45,46.1,49,57.4,39.19,51.35Z"/><path d="M44.75,51l0-2.4-2.1,2.1A8.1,8.1,0,0,0,44.75,51Z"/><path d="M36.31,44.33l8.59-8.59,0-2.74A9,9,0,0,0,36.31,44.33Z"/><path d="M27,42A18,18,0,0,1,45,24V22c-5-8-5.52-16.15-6-21H33V16a2,2,0,0,1-2,2H17a2,2,0,0,1-2-2V1H9C8.52,5.85,8,14,3,22c0,34-.67,35.68,2,41H43a18.26,18.26,0,0,0,1.2-3A18,18,0,0,1,27,42Z"/></g></svg>