<svg xmlns="http://www.w3.org/2000/svg" viewBox="0 0 64 64"><title>Nuclear Plant</title><g id="Nuclear_Plant" data-name="Nuclear Plant"><path d="M33.85,44.39C30.67,32.05,31,25.15,31,16H9c0,7.87.75,23.32-7.55,42h37.1A86.59,86.59,0,0,1,33.85,44.39ZM21,45.69V48a1,1,0,0,1-2,0V45.69c-2.05-.87-5-3.1-5-6.92,0-5,5-11.15,5.23-11.41a1,1,0,0,1,1.54,0C21,27.62,26,33.77,26,38.77,26,42.59,23.05,44.82,21,45.69Zm-2-2.24V36a1,1,0,0,1,2,0v7.45c5.33-3,2.61-8.82-1-13.8C16.38,34.64,13.68,40.41,19,43.45Z"/><path d="M62.57,58H40.74a87.4,87.4,0,0,1-5.92-18.28,76.11,76.11,0,0,0,1.34-13.33V19H55.84v7.39A86.86,86.86,0,0,0,62.57,58Z"/><rect x="1" y="60" width="38" height="3"/><rect x="1" y="60" width="38" height="3"/><rect x="41" y="60" width="22" height="3"/><path d="M41,4a3,3,0,0,1-3,3H30a3,3,0,0,1-.88,2.12c-1.36,1.36-2.52.43-3.53,1.47C24.85,11.31,25,12,25,14H14V12a5,5,0,0,1,5-5,6,6,0,0,1,6-6H38A3,3,0,0,1,41,4Z"/><path d="M63,8.5A2.49,2.49,0,0,1,60.5,11H57a3,3,0,0,1-3.07,3A2.91,2.91,0,0,0,51,17H41V16a5,5,0,0,1,5-5,5,5,0,0,1,1.46-3.54C49.41,5.53,50.76,6,60.5,6A2.5,2.5,0,0,1,63,8.5Z"/></g></svg>