<svg xmlns="http://www.w3.org/2000/svg" viewBox="0 0 64 64"><title>O2 Oxigen</title><g id="O2_Oxigen" data-name="O2 Oxigen"><circle cx="57" cy="5" r="4"/><circle cx="38" cy="60" r="3"/><circle cx="11.5" cy="9.5" r="3.5"/><circle cx="5" cy="54" r="2"/><path d="M28,25a3,3,0,0,0-3,3v4a3,3,0,0,0,6,0V28A3,3,0,0,0,28,25Z"/><path d="M57.77,33.13a10,10,0,0,0-3.65-10,6,6,0,0,0-9.29-7.42,19.93,19.93,0,0,0-28.91,3.45,7.49,7.49,0,0,0-8.66,9.29A9,9,0,0,0,10,46c2.92,0,2-1.07,2,1,0,6.63,9.24,8.34,11.6,2.14a19.88,19.88,0,0,0,16.47.15,9.48,9.48,0,0,0,14-3.76,6.5,6.5,0,1,0,3.68-12.4ZM33,32a5,5,0,0,1-10,0V28a5,5,0,0,1,10,0Zm7,7a1,1,0,0,1,0,2H36a1,1,0,0,1-1-1c0-1.1-.08-1.44.4-1.8C38.8,35.65,39,35.67,39,35a1,1,0,0,0-2,0,1,1,0,0,1-2,0,3,3,0,0,1,6,0c0,1.86-1.32,2.49-3.33,4Z"/></g></svg>