<svg xmlns="http://www.w3.org/2000/svg" viewBox="0 0 64 64"><title>Ocean</title><g id="Ocean"><circle cx="32" cy="18" r="8"/><path d="M33,6V2a1,1,0,0,0-2,0V6A1,1,0,0,0,33,6Z"/><path d="M31,30v4a1,1,0,0,0,2,0V30A1,1,0,0,0,31,30Z"/><path d="M44,19h4a1,1,0,0,0,0-2H44A1,1,0,0,0,44,19Z"/><path d="M16,19h4a1,1,0,0,0,0-2H16A1,1,0,0,0,16,19Z"/><path d="M40.49,10.51c.55,0,.46,0,3.53-3.12A1,1,0,0,0,42.61,6L39.78,8.81A1,1,0,0,0,40.49,10.51Z"/><path d="M22.81,25.78,20,28.61A1,1,0,0,0,21.39,30l2.83-2.83A1,1,0,0,0,22.81,25.78Z"/><path d="M39.78,27.19,42.61,30A1,1,0,0,0,44,28.61l-2.83-2.83A1,1,0,0,0,39.78,27.19Z"/><path d="M22.81,10.22a1,1,0,0,0,1.41-1.41L21.39,6A1,1,0,0,0,20,7.39Z"/><path d="M63,42a4.79,4.79,0,0,1-8.86,0h0a4.77,4.77,0,0,1-8.84,0h0a4.78,4.78,0,0,1-8.85,0h0a4.78,4.78,0,0,1-8.85,0h0a4.77,4.77,0,0,1-8.84,0h0a4.78,4.78,0,0,1-8.85,0A4.77,4.77,0,0,1,1,42v7a1,1,0,0,1,.89.55h0a3.78,3.78,0,0,0,7,0,1,1,0,0,1,1.8,0c1.22,2.5,3.79,3,5.57,1.78C17.9,50.26,17.6,49,18.7,49a1,1,0,0,1,.9.55c1.55,3.21,5.44,3.27,7,0a1,1,0,0,1,1.8,0c1.58,3.27,5.51,3.23,7.06,0a1,1,0,0,1,1.78-.06c1.62,3.35,5.52,3.24,7.08.06a1,1,0,0,1,1.81,0,3.74,3.74,0,0,0,5.56,1.77C53.29,50.29,53,49,54.13,49a1,1,0,0,1,.9.56c1.61,3.28,5.5,3.2,7.06,0A1,1,0,0,1,63,49C63,41.68,63,41.93,63,42Z"/><path d="M54.13,51.85a5.65,5.65,0,0,1-8.86,0,5.65,5.65,0,0,1-8.86,0,5.64,5.64,0,0,1-8.85,0,5.67,5.67,0,0,1-8.86,0,5.65,5.65,0,0,1-8.85,0,5.64,5.64,0,0,1-8.85,0V57a1,1,0,0,1,.89.55h0a3.78,3.78,0,0,0,7,0,1,1,0,0,1,1.8,0c1.22,2.5,3.79,3,5.57,1.78C17.9,58.26,17.6,57,18.7,57a1,1,0,0,1,.9.55c1.55,3.21,5.44,3.27,7,0a1,1,0,0,1,1.8,0c1.58,3.27,5.51,3.23,7.06,0a1,1,0,0,1,1.78-.06c1.62,3.35,5.52,3.24,7.08.06a1,1,0,0,1,1.81,0,3.74,3.74,0,0,0,5.56,1.77C53.29,58.29,53,57,54.13,57a1,1,0,0,1,.9.56c1.61,3.28,5.5,3.2,7.06,0A1,1,0,0,1,63,57V51.84A5.64,5.64,0,0,1,54.13,51.85Z"/><path d="M54.13,59.85a5.65,5.65,0,0,1-8.86,0,5.65,5.65,0,0,1-8.86,0,5.64,5.64,0,0,1-8.85,0,5.67,5.67,0,0,1-8.86,0,5.65,5.65,0,0,1-8.85,0,5.64,5.64,0,0,1-8.85,0V63H63V59.84A5.64,5.64,0,0,1,54.13,59.85Z"/></g></svg>