<svg xmlns="http://www.w3.org/2000/svg" viewBox="0 0 64 64"><title>Package</title><g id="Package"><path d="M39,18c0,7.63.18,7.52-.53,7.88s-1,0-3.46-1.68c-3.58,2.37-2.47,2.37-6,0-2.5,1.66-2.8,2.06-3.48,1.68S25,25.33,25,18H3V63H61V18ZM32.71,52c-2.9,2.9-2.92,3.07-3.48,3.07a1,1,0,0,1-1-1V52.26H24.35a3,3,0,0,1-2.61-4.48l1.77-3.11a1,1,0,0,1,1.74,1l-1.77,3.11a1,1,0,0,0,.87,1.49h3.88V48.49a1,1,0,0,1,1.71-.7C32.26,50.11,33.65,51,32.71,52ZM34.6,38.46C32.67,35.11,32.74,35,32,35s-.77.32-2.79,3.84c1.58.91,2.14,1.08,2,1.88s-.71.83-4.51,1.85a1.21,1.21,0,0,1-.52,0,1.08,1.08,0,0,1-.71-.71l-1-3.78a1,1,0,0,1,1.46-1.13l1.54.89,1.92-3.34a3,3,0,0,1,5.2,0c1.9,3.29,1.86,3.13,1.86,3.5A1,1,0,0,1,34.6,38.46Zm7.66,12.23a3,3,0,0,1-2.57,1.52l-3.52,0a1,1,0,0,1,0-2l3.52,0a1,1,0,0,0,.85-1.49c-.28-.47,0,0-2-3.39-1.65,1-1.67,1-2,1a1,1,0,0,1-1-1.26c.89-3.31.93-4.78,2.24-4.49,3.89,1,4.41,1,4.52,1.85s-.45,1-2,1.88C42.15,47.54,43.33,48.81,42.26,50.69ZM27,18v5.13c2.4-1.58,1.57-1.63,5,.67,3.45-2.29,2.63-2.26,5-.67V18Z"/><polygon points="27.47 1 25.14 16 3.75 16 15 1 27.47 1"/><path d="M36.83,16H27.17l2.3-14.85c0-.22-.61-.15,5.05-.15C34.52,1.13,34.36,0,36.83,16Z"/><polygon points="60.25 16 38.86 16 36.53 1 49 1 60.25 16"/></g></svg>