<svg xmlns="http://www.w3.org/2000/svg" viewBox="0 0 64 64"><title>Paper bag</title><g id="Paper_bag" data-name="Paper bag"><path d="M11,18V63H53V18ZM29.94,49.74a1,1,0,0,1-1.09.22c-.74-.29-.62-.83-.62-2.7-3.56,0-5.37.42-6.47-1.49a3,3,0,0,1,0-3l1.77-3.11a1,1,0,0,1,1.74,1c-1.91,3.36-2.13,3.44-1.77,4.11s.67.49,4.75.49c0-1.78-.15-2.39.62-2.69s1.12.25,3.86,3a1,1,0,0,1,.29.69C33,46.91,32.59,47.09,29.94,49.74ZM34.6,33.46C32.67,30.11,32.74,30,32,30s-.77.32-2.79,3.84c1.58.91,2.14,1.08,2,1.88s-.71.83-4.51,1.85c-1.33,0-1.16-.43-2.24-4.49a1,1,0,0,1,1.46-1.13l1.54.89,1.92-3.34a3,3,0,0,1,5.2,0c1.9,3.29,1.86,3.13,1.86,3.5A1,1,0,0,1,34.6,33.46Zm7.66,12.23a3,3,0,0,1-2.57,1.52l-3.52,0a1,1,0,1,1,0-2l3.52,0a1,1,0,0,0,.85-1.49c-.1-.1,0,.05-2-3.39-1.29.75-1.93,1.36-2.64.81s-.33-1.14.65-4.82a1,1,0,0,1,.94-.75c.25,0,0,0,4.08,1a1,1,0,0,1,.24,1.84l-1.53.88C42.15,42.54,43.33,43.81,42.26,45.69Z"/><polygon points="24 16 18 16 18 7 24 1 24 16"/><polygon points="40 16 46 16 46 7 40 1 40 16"/><rect x="26" y="1" width="12" height="6"/></g></svg>