<svg xmlns="http://www.w3.org/2000/svg" viewBox="0 0 64 64"><title>Plastic Bag</title><g id="Plastic_Bag" data-name="Plastic Bag"><path d="M47,1H41V16a2,2,0,0,1-2,2H25a2,2,0,0,1-2-2V1H17c-.48,4.85-1,13-6,21,0,34-.67,35.68,2,41H51c2.61-5.2,2-5.86,2-41C48,14,47.48,5.85,47,1ZM33,48.3c0,.61-.34.76-3.06,3.48a1,1,0,0,1-1.09.22c-.75-.31-.62-.83-.62-2.7-3.55,0-5.36.42-6.47-1.49a3,3,0,0,1,0-3l1.77-3.11a1,1,0,0,1,1.74,1c-1.91,3.36-2.13,3.44-1.77,4.11s.58.5,4.75.5c0-1.88-.14-2.38.62-2.7s1.1.23,3.86,3A1.1,1.1,0,0,1,33,48.3Zm1.6-12.8C32.67,32.15,32.74,32,32,32s-.77.32-2.79,3.83c1.54.9,2.14,1.08,2,1.89s-.71.82-4.51,1.85c-1.35,0-1.09-.2-2.24-4.5A1,1,0,0,1,25.94,34l1.54.88L29.4,31.5a3,3,0,0,1,5.2,0c1.9,3.29,1.86,3.13,1.86,3.5A1,1,0,0,1,34.6,35.5Zm7.66,12.23a3,3,0,0,1-2.57,1.52l-3.52,0a1,1,0,0,1,0-2l3.52,0a1,1,0,0,0,.85-1.5c-.09-.14,0,.08-2-3.38-1.65,1-1.69,1-2,1a1,1,0,0,1-1-1.26c.9-3.36,1-4.82,2.24-4.5,3.93,1.06,4.41,1,4.52,1.85s-.48,1-2,1.89C42.15,44.57,43.33,45.84,42.26,47.73Z"/></g></svg>