<svg xmlns="http://www.w3.org/2000/svg" viewBox="0 0 64 64"><title>Protection</title><g id="Protection"><path d="M43.76,48.88A30.92,30.92,0,0,1,32,56.67a30.92,30.92,0,0,1-11.76-7.79C28.29,42.41,35.65,42.36,43.76,48.88Z"/><path d="M30.2,27.63H26.61A9.62,9.62,0,0,1,17,18V17h4.39a9.62,9.62,0,0,1,9.5,8.18C29,22.76,26,19.74,22.55,19.74a1,1,0,0,0,0,2C25.52,21.74,28.55,25.21,30.2,27.63Z"/><path d="M41.45,22.11c-3.44,0-6.47,3-8.34,5.44a9.62,9.62,0,0,1,9.5-8.18H47v1A9.62,9.62,0,0,1,37.39,30H33.8c1.65-2.42,4.68-5.89,7.65-5.89A1,1,0,0,0,41.45,22.11Z"/><path d="M52,10.87V27.8a30.64,30.64,0,0,1-6.92,19.57C41,44.08,37,42.29,33,42V32h4.39A11.63,11.63,0,0,0,49,20.39v-2a1,1,0,0,0-1-1H42.61a11.61,11.61,0,0,0-10.1,5.89A11.64,11.64,0,0,0,21.39,15H16a1,1,0,0,0-1,1v2A11.63,11.63,0,0,0,26.61,29.63h4.46c-.1.3-.07-.82-.07,12.4-3.95.26-8,2-12.08,5.34A30.64,30.64,0,0,1,12,27.8V10.87A83.41,83.41,0,0,0,32,7.3,83.5,83.5,0,0,0,52,10.87Z"/><path d="M32,1A78.28,78.28,0,0,1,6,5V27.8A36.84,36.84,0,0,0,32,63,36.84,36.84,0,0,0,58,27.8V5A78.42,78.42,0,0,1,32,1ZM54,27.8A32.47,32.47,0,0,1,32.34,58.67a1,1,0,0,1-.68,0A32.47,32.47,0,0,1,10,27.8V9.92a1,1,0,0,1,1-1C24.62,8.32,31.24,5,32.3,5.3A82.19,82.19,0,0,0,53,8.92a1,1,0,0,1,1,1Z"/><path d="M31,29.63c0,.67,0,.29.07,0Z"/></g></svg>