<svg xmlns="http://www.w3.org/2000/svg" viewBox="0 0 64 64"><title>Recycle</title><g id="Recycle"><path d="M46.07,56.59,43.23,58.3h-10l7.23-6.62a1,1,0,0,0,0-1.48l-7.23-6.63H48.43l.76,1.34A8.67,8.67,0,0,1,46.07,56.59Z"/><path d="M61.53,43.5c-.91,1.82,2.68-4.69-5.42,9.38a10.21,10.21,0,0,1-9,5.42,10.7,10.7,0,0,0,3.75-14.52c0-.1.06.08-5.76-10l-3.65,2.1c1.49-6.67,1.93-8.69,3.71-16.72l16.34,5.15-3.65,2.1,3.69,6.4A10.62,10.62,0,0,1,61.53,43.5Z"/><path d="M46.39,6.59a10.21,10.21,0,0,0-13.88,3.65c-.72,1.45,2.83-4.91-7.28,12.61L28.88,25,12.54,30.11c-3.66-16.48-.15-.68-3.71-16.73l3.65,2.1,5-8.65a10.67,10.67,0,0,1,9.25-5.34H37.56A10.22,10.22,0,0,1,46.39,6.59Z"/><path d="M54.07,19.88l-9.36-2.94a1,1,0,0,0-1.28.74l-2.11,9.55L33.16,13.12c1-1.8,2.86-5.89,8.14-5.89,2.64,0,4,1,7.09,2.82Z"/><path d="M38.31,50.94,25.69,62.51V58.3H17.18a10.67,10.67,0,0,1-9.29-5.42L2.34,43.26a10.2,10.2,0,0,1,0-10.21A10.7,10.7,0,0,0,13,43.57H25.69V39.36Z"/><path d="M21.45,29.39l-7,12.18H13A8.74,8.74,0,0,1,4.34,33l-.06-3.34L8.7,22l2.12,9.58a1,1,0,0,0,1.28.74Z"/></g></svg>