<svg xmlns="http://www.w3.org/2000/svg" viewBox="0 0 64 64"><title>Recycle Tag</title><g id="Recycle_Tag" data-name="Recycle Tag"><path d="M53.5,1c-6,0-10,5.46-9.48,10a7.58,7.58,0,0,0,1.62,4.16,2.5,2.5,0,1,1-1.45,1.39A9.41,9.41,0,0,1,42,11c-10.59,0-11.62-.4-13.08,1.06L2.06,38.94a3.63,3.63,0,0,0,0,5.12L19.94,61.94a3.63,3.63,0,0,0,5.12,0L51.94,35.06C53.36,33.64,53,33.5,53,20c4.72.56,10-3.64,10-9.48A9.51,9.51,0,0,0,53.5,1ZM19.67,41.1A1,1,0,0,1,19,39.4l1.25-1.26L17.47,35.4a3,3,0,0,1,1.33-5l3.45-.95a1,1,0,0,1,.53,1.93l-3.45.94A1,1,0,0,0,18.89,34l2.74,2.74,1.25-1.25a1,1,0,0,1,1.71.71C24.59,42,25.42,41.1,19.67,41.1Zm17.45.07c-.49.64-1,.37-2.76-.1l-1,3.77a3,3,0,0,1-2.9,2.23c-1.54,0-2.11-.89-4.61-3.31a1,1,0,0,1,1.4-1.43c2.65,2.58,2.79,2.92,3.48,2.7s.62-.43,1.71-4.48l-1.71-.46a1,1,0,0,1-.24-1.83c3.66-2.11,3.64-2.21,4.15-2.06a1,1,0,0,1,.61.47C37.25,40.16,37.65,40.47,37.12,41.17Zm.18-11.11-.89,3.35a1,1,0,0,1-2-.26,28.73,28.73,0,0,1,.93-3.61.94.94,0,0,0-.26-1c-.54-.54-.8-.3-4.68.74.48,1.8.73,2.27.1,2.76a1,1,0,0,1-1.11.07c-3.07-1.77-4.36-2.11-3.76-3.32,2-3.52,2.09-4,3-3.89s.8.63,1.29,2.44c3.76-1,4.38-1.34,5.51-.92A3,3,0,0,1,37.3,30.06ZM53,18V16a5,5,0,0,0-5-5H46a7.5,7.5,0,1,1,7,7Z"/></g></svg>