<svg xmlns="http://www.w3.org/2000/svg" viewBox="0 0 64 64"><title>Save Water</title><g id="Save_Water" data-name="Save Water"><path d="M32,1S20,14,20,25a12,12,0,0,0,24,0C44,14,32,1,32,1Zm3.28,32.38a1,1,0,0,1-.73-1.86A7,7,0,0,0,39,25a1,1,0,0,1,2,0A9.07,9.07,0,0,1,35.28,33.38Z"/><path d="M26,44c-2.95-2-5-8-8-9-2.12-.71-5,0-2,5a44.72,44.72,0,0,0,4,6C10.2,40.21,9.17,39.53,4.77,29.08A2,2,0,0,0,1,30c0,2,4,12,7,15a90.16,90.16,0,0,0,10,9c4,3,3,9,3,9H31V53.39A12.76,12.76,0,0,0,26,44Z"/><path d="M59.23,29.08C54.82,39.54,53.78,40.22,44,46a44.72,44.72,0,0,0,4-6c3-5,.12-5.71-2-5-3,1-5,7-8,9a12.64,12.64,0,0,0-5,9.39V63H43s-1-6,3-9a90.16,90.16,0,0,0,10-9c3-3,7-13,7-15A2,2,0,0,0,59.23,29.08Z"/></g></svg>