<svg xmlns="http://www.w3.org/2000/svg" viewBox="0 0 64 64"><title>Save Earth</title><g id="Save_Earth" data-name="Save Earth"><path d="M16.11,10.79l-.1,0a17.75,17.75,0,0,1,1.79-2.8c3.91-.32,7-.24,7,.14A2.76,2.76,0,0,0,26,9.6a1.08,1.08,0,0,0,1.64,0,2.57,2.57,0,0,1,.53-.11c.86-.13,2.3,2,1.66,2.42a6.12,6.12,0,0,0-2.67,4.3c-1,.18-2.48.17-3.25,1.17A1.79,1.79,0,0,0,23.58,19c-.7-.2-1.41-.41-2-.62-.38-.14-1.34-.83-1.8-4.32C19.6,12.83,17.76,11.82,16.11,10.79Z"/><path d="M29.08,24.32a1.88,1.88,0,0,0,.12-2.05,6.11,6.11,0,0,1,1.42-.39c1.72-.21,5.48,1.08,5.59,1.92s-1.16,2.35-2.28,3.62c-1.51,1.73-2.46,2.7-2.67,5.69-.21-.16-.69.29-.07-3.95.34-2.27.44-2.46-1.21-3.94A7.65,7.65,0,0,1,29.08,24.32Z"/><path d="M28.17,1.43a17.65,17.65,0,0,1,9,.32,1.06,1.06,0,0,0,0,.19c-.33,2.84,1.85,2.29-.72,4.51-1.86,1.58-1.75,2.06-2.2,2-.68-.2-1.79-1.74-2-4C32,2.68,29.58,1.8,28.17,1.43Z"/><path d="M47.37,28.34c-8.75,14.47-31.1,9.87-33.23-7.11a17.86,17.86,0,0,1,1-8.66,15.13,15.13,0,0,1,2.6,1.84c.17,1.29.69,5,3.11,5.87,1.33.45,5.41,1.51,5.41,1.85.38.29,1.07.83,1.12,1a.4.4,0,0,1-.07.12c-1.34,1.72,1.44,3.38,2,4.15,0,.28-.11.93-.18,1.42-.81,5.39-.28,5,2.46,7.11a1,1,0,0,0,1.6-.91c-.1-.89-.14-3.48.92-4.85,1.71-2.16,4.28-4.36,4-6.66-.35-2.72-6-3.88-7.82-3.65-1.56.2-2.52,1-2.83.64-1.48-1.15-1.92-1.71-2-2,.74-.46,3.88,0,3.61-2a3.94,3.94,0,0,1,1.79-2.94c2.72-1.78-.46-7.28-4.05-5.82-.39-.3,0-.63-1.13-1.49-.74-.57-3.69-.56-6-.45A17.7,17.7,0,0,1,26.22,2c0,.78.35,1.18.83,1.27,1.44.29,3,1,3.11,1.36.27,2.51,1.77,5.83,4.13,5.83,1.46,0,1.63-.94,3.4-2.45,3.41-2.91,1.37-4.2,1.37-5.51a18.12,18.12,0,0,1,5.16,3.33.94.94,0,0,0-.16.23C43,8,40,7.89,39.94,9.6c0,1.43,2.31,2,4,2.85-1.33,0-2.59.14-3.26,1-.19.24-1.82,2.4-1.55,4.53.31,2.55,5.22,2.18,5.81,2.93C45.11,22.51,45.75,27.53,47.37,28.34Z"/><path d="M48.34,26.53c-.37-.5-1-1.91-1.44-5.88-.33-2.51-5.21-2.18-5.81-2.91a5.18,5.18,0,0,1,1.13-3c.74-.77,5.72.69,6-1.34.21-1.41-1.75-1.82-5.62-3.7a6.93,6.93,0,0,0,3-2.39A18,18,0,0,1,48.34,26.53Z"/><path d="M26,44c-2.95-2-5-8-8-9-2.12-.71-5,0-2,5a44.72,44.72,0,0,0,4,6C10.2,40.21,9.17,39.53,4.77,29.08A2,2,0,0,0,1,30c0,2,4,12,7,15a90.16,90.16,0,0,0,10,9c4,3,3,9,3,9H31V53.39A12.76,12.76,0,0,0,26,44Z"/><path d="M59.23,29.08C54.82,39.54,53.78,40.22,44,46a44.72,44.72,0,0,0,4-6c3-5,.12-5.71-2-5-3,1-5,7-8,9a12.64,12.64,0,0,0-5,9.39V63H43s-1-6,3-9a90.16,90.16,0,0,0,10-9c3-3,7-13,7-15A2,2,0,0,0,59.23,29.08Z"/></g></svg>