<svg xmlns="http://www.w3.org/2000/svg" viewBox="0 0 64 64"><title>Soil</title><g id="Soil"><path d="M9,9S7,6,8,1c5,0,7,2,7,2C20.29.36,43.63.31,49,3c0,0,2-2,7-2,1,5-1,8-1,8s.31,2.36.69,5.71c-20.76-3.54-26.6-3.54-47.38,0C8.69,11.36,9,9,9,9Z"/><path d="M31,32.86h-.72A5.27,5.27,0,0,1,25,28h.72A5.26,5.26,0,0,1,31,32.86Z"/><path d="M33.74,34.57H33a5.27,5.27,0,0,1,5.24-4.86H39A5.26,5.26,0,0,1,33.74,34.57Z"/><path d="M44,32A12,12,0,0,1,33,44V36.57h.74c3.68,0,7.26-2.74,7.26-7.86a1,1,0,0,0-1-1c-2.25,0-5.2-.21-7.51,2.88A7.27,7.27,0,0,0,25.74,26H24a1,1,0,0,0-1,1c0,5,3.49,7.86,7.26,7.86H31c0,.1,0,0,0,9.1A12,12,0,1,1,44,32Z"/><path d="M56.13,18.8c-.23-2.34-.18-2.05-.32-2.05C55.33,16.75,40.73,14,32,14S8.43,16.82,8.08,16.74c-1.44,15.81-1.45,14.58,0,30.52C8.5,47.17,22.92,50,32,50c8.86,0,23.57-2.82,23.92-2.74C57.08,34.55,57.53,32.42,56.13,18.8ZM32,46A14,14,0,1,1,46,32,14,14,0,0,1,32,46Z"/><path d="M55,55s2,3,1,8c-5,0-7-2-7-2-5.29,2.64-28.63,2.69-34,0,0,0-2,2-7,2-1-5,1-8,1-8s-.31-2.36-.69-5.71c20.76,3.54,26.6,3.54,47.38,0C55.31,52.64,55,55,55,55Z"/><path d="M31,34.86c0,.1,0,.19,0,0Z"/></g></svg>