<svg xmlns="http://www.w3.org/2000/svg" viewBox="0 0 64 64"><title>Solar Panel</title><g id="Solar_Panel" data-name="Solar Panel"><polygon points="22.26 40 4.81 40 1 49 21.11 49 22.26 40"/><polygon points="23.4 31 8.62 31 5.65 38 22.51 38 23.4 31"/><polygon points="24.42 23 12 23 9.46 29 23.66 29 24.42 23"/><polygon points="25.68 29 38.32 29 37.56 23 26.44 23 25.68 29"/><polygon points="39.47 38 38.58 31 25.42 31 24.53 38 39.47 38"/><polygon points="40.34 29 54.54 29 52 23 39.58 23 40.34 29"/><polygon points="41.49 38 58.35 38 55.38 31 40.6 31 41.49 38"/><polygon points="23.13 49 40.87 49 39.73 40 24.27 40 23.13 49"/><polygon points="42.89 49 63 49 59.19 40 41.74 40 42.89 49"/><path d="M40,59H34V51H30v8H24a3,3,0,0,0-3,3v1H43V62A3,3,0,0,0,40,59Z"/><circle cx="32" cy="11" r="4"/><path d="M33,4V2a1,1,0,0,0-2,0V4A1,1,0,0,0,33,4Z"/><path d="M33,20V18a1,1,0,0,0-2,0v2A1,1,0,0,0,33,20Z"/><path d="M39,12h2a1,1,0,0,0,0-2H39A1,1,0,0,0,39,12Z"/><path d="M23,12h2a1,1,0,0,0,0-2H23A1,1,0,0,0,23,12Z"/><path d="M37,7.05c.6,0,.83-.41,2.12-1.71a1,1,0,0,0-1.41-1.41L36.24,5.34A1,1,0,0,0,37,7.05Z"/><path d="M26.34,15.24l-1.41,1.42a1,1,0,0,0,1.41,1.41l1.42-1.41A1,1,0,0,0,26.34,15.24Z"/><path d="M38.36,18.36a1,1,0,0,0,.71-1.7l-1.41-1.42a1,1,0,0,0-1.42,1.42C37.78,18.19,37.84,18.36,38.36,18.36Z"/><path d="M26.34,6.76a1,1,0,0,0,1.42-1.42L26.34,3.93a1,1,0,0,0-1.41,1.41Z"/></g></svg>