<svg xmlns="http://www.w3.org/2000/svg" viewBox="0 0 64 64"><title>sprout</title><g id="sprout"><polygon points="18.07 63 45.93 63 50.54 43 13.46 43 18.07 63"/><path d="M46,4A14,14,0,0,0,32.22,15.5a18.41,18.41,0,0,0-1-5A14,14,0,0,0,18,1H10V3A14,14,0,0,0,24,17h5a6.64,6.64,0,0,0-1.88-4.61C24.92,10.14,22,8,19,8a1,1,0,0,1,0-2c4.1,0,7.79,3,10.33,5.82C31.46,14.17,31,14.73,31,33h2V19.2a6.54,6.54,0,0,1,1.71-4.43C37.48,11.73,41.13,9,45,9a1,1,0,0,1,0,2c-3,0-5.92,2.14-8.12,4.39A6.62,6.62,0,0,0,35,20h5A14,14,0,0,0,54,6V4Z"/><path d="M11,35v6H53V35Z"/></g></svg>