<svg xmlns="http://www.w3.org/2000/svg" viewBox="0 0 64 64"><title>Sustainable energy</title><g id="Sustainable_energy" data-name="Sustainable energy"><path d="M11.49,17.15l2.83-2.83C30.15-1.51,57,10,57,32h6C63,4.64,29.68-9.52,10.08,10.08L7.25,12.91,4.42,10.08l-.7,10.61L14.32,20Z"/><path d="M52.51,46.85l-2.83,2.83C33.85,65.51,7,54,7,32H1C1,59.35,34.32,73.52,53.92,53.92l2.83-2.83,2.83,2.83.7-10.61L49.68,44Z"/><polygon points="42.77 32 35.08 28.92 35.08 12 21.23 32 28.92 35.08 28.92 52 42.77 32"/></g></svg>