<svg xmlns="http://www.w3.org/2000/svg" viewBox="0 0 64 64"><title>Trash</title><g id="Trash"><path d="M6.23,13,12,63h7l1-2H37c-5.43-7.2.84-17.46,9.7-15.85L49.81,13ZM25.94,39.74a1,1,0,0,1-1.09.22c-.74-.29-.62-.83-.62-2.7-3.56,0-5.37.42-6.47-1.49a3,3,0,0,1,0-3l1.77-3.11a1,1,0,0,1,1.74,1c-1.91,3.36-2.13,3.44-1.77,4.11s.67.49,4.75.49c0-1.78-.15-2.39.62-2.69s1.12.25,3.86,3a1,1,0,0,1,.29.69C29,36.91,28.59,37.09,25.94,39.74ZM30.6,23.46C28.67,20.11,28.74,20,28,20s-.77.32-2.79,3.84c1.58.91,2.14,1.08,2,1.88s-.71.83-4.51,1.85c-1.26,0-1,0-2.24-4.49a1,1,0,0,1,1.46-1.13l1.54.89c1.74-3,2.26-4.71,4.33-4.83,2.35-.14,3,1.78,4.52,4.49A1,1,0,0,1,30.6,23.46Zm7.66,12.23a3,3,0,0,1-2.57,1.52l-3.52,0a1,1,0,0,1,0-2l3.52,0a1,1,0,0,0,.85-1.49c-.09-.14,0,.07-2-3.39-1.65,1-1.67,1-2,1a1,1,0,0,1-1-1.26c1.05-3.92,1-4.11,1.48-4.39a1,1,0,0,1,.76-.1c3.89,1,4.41,1,4.52,1.85s-.45,1-2,1.88C38.15,32.54,39.33,33.81,38.26,35.69Z"/><path d="M61,8a3,3,0,0,1-3,3H3V7H55.18A3,3,0,0,1,61,8Z"/><polygon points="48.67 5 7.33 5 10 1 46 1 48.67 5"/><circle cx="45" cy="55" r="2"/><path d="M45,47a8,8,0,1,0,8,8A8,8,0,0,0,45,47Zm0,12a4,4,0,1,1,4-4A4,4,0,0,1,45,59Z"/></g></svg>