<svg xmlns="http://www.w3.org/2000/svg" viewBox="0 0 64 64"><title>Tshirt</title><g id="Tshirt"><path d="M25,1.24a32.54,32.54,0,0,0,14,0C38.81,3.89,35.75,6,32,6S25.19,3.89,25,1.24Z"/><path d="M63,26,55.2,8.06a10,10,0,0,0-7.65-5.9L41,1.15C40.89,4.94,36.9,8,32,8s-8.89-3.06-9-6.85l-6.55,1A10,10,0,0,0,8.8,8.06L1,26l11,6.42V21a1,1,0,0,1,2,0V60c0,1.66,8.06,3,18,3s18-1.34,18-3V21a1,1,0,0,1,2,0V32.42ZM32.71,38c-2.9,2.9-2.92,3.07-3.48,3.07a1,1,0,0,1-1-1V38.26H24.35a3,3,0,0,1-2.61-4.48l1.77-3.11a1,1,0,0,1,1.74,1l-1.77,3.11a1,1,0,0,0,.87,1.49h3.88V34.49a1,1,0,0,1,1.71-.7C32.46,36.31,33.58,37,32.71,38ZM34.6,24.46C32.67,21.11,32.74,21,32,21s-.77.32-2.79,3.83c1.58.92,2.14,1.1,2,1.89s-.71.83-4.51,1.85h0a1,1,0,0,1-1.22-.71c-1-3.9-1.35-4.31-.66-4.83s1.13-.07,2.64.81c1.8-3.12,2.25-4.59,4.15-4.81a3,3,0,0,1,3,1.47l1.73,3A1,1,0,1,1,34.6,24.46Zm7.66,12.23a3,3,0,0,1-2.57,1.52l-3.52,0a1,1,0,1,1,0-2l3.52,0a1,1,0,0,0,1-1c0-.31,0-.17-2.1-3.87-1.67,1-2,1.3-2.64.8s-.35-1.1.64-4.77a1.38,1.38,0,0,1,.27-.5,1.09,1.09,0,0,1,1.05-.25c3.8,1,4.33.95,4.44,1.83s-.45,1-2,1.88C42.15,33.54,43.33,34.81,42.26,36.69Z"/></g></svg>