<svg xmlns="http://www.w3.org/2000/svg" viewBox="0 0 64 64"><title>Waste</title><g id="Waste"><rect x="52" y="4" width="11" height="24"/><rect x="44" y="1" width="6" height="30"/><path d="M42,10V6A30,30,0,0,0,13,36v8.9c2.95-.33,4.41-2.26,10-1.85V40a1,1,0,0,1,2,0v3.32c2.69.54,4.48,2.2,8.72,1.58.4,0,.28.78.28-7.9a9,9,0,0,1,8-8.94V23a21.13,21.13,0,0,0-2.11.31,1,1,0,0,1-.22-2A15.05,15.05,0,0,1,42,21V12a24,24,0,0,0-17,8.09c-.85,1-2.4-.33-1.5-1.32A26,26,0,0,1,42,10ZM19.71,30.23C18.88,33.49,19,35.73,19,39a1,1,0,0,1-2,0c0-3.39-.12-5.75.77-9.27A1,1,0,0,1,19.71,30.23ZM35.62,17.41a19.5,19.5,0,0,1,3.21-1,1,1,0,0,1,.41,2,17.43,17.43,0,0,0-2.88.87A1,1,0,0,1,35.62,17.41Zm-5,14.73C29.82,34.64,30,36,30,42a1,1,0,0,1-2,0c0-6.4-.17-7.74.67-10.5A1,1,0,0,1,30.58,32.14Zm.85-12.46a1,1,0,0,1,1.16,1.64A18,18,0,0,0,25.1,34.11a1,1,0,0,1-2-.2A20,20,0,0,1,31.43,19.68Z"/><path d="M25,45.37a1,1,0,0,1-2-.32A11.71,11.71,0,0,1,25,45.37Z"/><path d="M63,45v6a13.18,13.18,0,0,0-5.53,1.07c-8.79,3.43-11-3.76-20.66,0-8.88,3.44-11-3.78-20.66,0a12.71,12.71,0,0,1-9.62,0A13.18,13.18,0,0,0,1,51V45c5.64,0,5.66,2.57,12,1.92,3.88-.4,4.46-2.29,10-1.87,4,.31,4.26,2,9,2,5.16,0,5.16-2,10.33-2s5.17,2,10.33,2S57.84,45,63,45Z"/><path d="M63,53v5a13.18,13.18,0,0,0-5.53,1.07c-8.79,3.43-11-3.76-20.66,0-8.88,3.44-11-3.78-20.66,0a12.71,12.71,0,0,1-9.62,0A13.18,13.18,0,0,0,1,58V53c4.72,0,5.12,2,10.34,2s5.58-2,10.34-2S26.81,55,32,55s5.58-2,10.33-2,5.09,2,10.33,2S58.26,53,63,53Z"/><path d="M63,60v3H1V60c4.72,0,5.12,2,10.34,2s5.58-2,10.34-2S26.81,62,32,62s5.58-2,10.33-2,5.09,2,10.33,2S58.26,60,63,60Z"/></g></svg>