<svg xmlns="http://www.w3.org/2000/svg" viewBox="0 0 64 64"><title>Water Filtration</title><g id="Water_Filtration" data-name="Water Filtration"><path d="M1,26v4a1,1,0,0,1,1-1H6a1,1,0,0,1,0,2H2a1,1,0,0,1-1-1v4a1,1,0,0,1,1-1H6a1,1,0,0,1,0,2H2a1,1,0,0,1-1-1v4H63V34a1,1,0,0,1-1,1H58a1,1,0,0,1,0-2h4a1,1,0,0,1,1,1V30a1,1,0,0,1-1,1H58a1,1,0,0,1,0-2h4a1,1,0,0,1,1,1V26Zm13,9H10a1,1,0,0,1,0-2h4A1,1,0,0,1,14,35Zm0-4H10a1,1,0,0,1,0-2h4A1,1,0,0,1,14,31Zm8,4H18a1,1,0,0,1,0-2h4A1,1,0,0,1,22,35Zm0-4H18a1,1,0,0,1,0-2h4A1,1,0,0,1,22,31Zm8,4H26a1,1,0,0,1,0-2h4A1,1,0,0,1,30,35Zm0-4H26a1,1,0,0,1,0-2h4A1,1,0,0,1,30,31Zm8,4H34a1,1,0,0,1,0-2h4A1,1,0,0,1,38,35Zm0-4H34a1,1,0,0,1,0-2h4A1,1,0,0,1,38,31Zm8,4H42a1,1,0,0,1,0-2h4A1,1,0,0,1,46,35Zm0-4H42a1,1,0,0,1,0-2h4A1,1,0,0,1,46,31Zm8,4H50a1,1,0,0,1,0-2h4A1,1,0,0,1,54,35Zm0-4H50a1,1,0,0,1,0-2h4A1,1,0,0,1,54,31Z"/><path d="M32,42s-7,7.58-7,14a7,7,0,0,0,14,0C39,49.58,32,42,32,42Zm0,19a1,1,0,0,1,0-2,3,3,0,0,0,3-3,1,1,0,0,1,1-1C38.28,55,36.65,61,32,61Z"/><path d="M9,42S2,49.58,2,56a7,7,0,0,0,14,0C16,49.58,9,42,9,42ZM9,61a1,1,0,0,1,0-2,3,3,0,0,0,3-3,1,1,0,0,1,1-1C15.28,55,13.65,61,9,61Z"/><path d="M55,42s-7,7.58-7,14a7,7,0,0,0,14,0C62,49.58,55,42,55,42Zm0,19a1,1,0,0,1,0-2,3,3,0,0,0,3-3,1,1,0,0,1,1-1C61.28,55,59.65,61,55,61Z"/></g><g id="Faucet"><path d="M32,1s-7,7.58-7,14a7,7,0,0,0,14,0C39,8.58,32,1,32,1ZM28,17a1,1,0,0,1,0-2A1,1,0,0,1,28,17Zm2-4a1,1,0,0,1,0-2A1,1,0,0,1,30,13Zm2-5a1,1,0,0,1,2,0A1,1,0,0,1,32,8Zm2,11a1,1,0,0,1,0-2A1,1,0,0,1,34,19Zm1-5a1,1,0,0,1,0-2A1,1,0,0,1,35,14Z"/><path d="M9,1S2,8.58,2,15a7,7,0,0,0,14,0C16,8.58,9,1,9,1ZM5,13a1,1,0,0,1,2,0A1,1,0,0,1,5,13Zm2,6a1,1,0,0,1,0-2A1,1,0,0,1,7,19Zm2-9A1,1,0,0,1,9,8,1,1,0,0,1,9,10Zm3,9a1,1,0,0,1,0-2A1,1,0,0,1,12,19Zm0-4a1,1,0,0,1,0-2A1,1,0,0,1,12,15Z"/><path d="M55,1s-7,7.58-7,14a7,7,0,0,0,14,0C62,8.58,55,1,55,1ZM51,17a1,1,0,0,1,0-2A1,1,0,0,1,51,17Zm2-8a1,1,0,0,1,2,0A1,1,0,0,1,53,9Zm1,4a1,1,0,0,1,2,0A1,1,0,0,1,54,13Zm2,6a1,1,0,0,1,0-2A1,1,0,0,1,56,19Zm3-4a1,1,0,0,1,0-2A1,1,0,0,1,59,15Z"/></g></svg>