<svg xmlns="http://www.w3.org/2000/svg" viewBox="0 0 64 64"><title>Water Recycle</title><g id="Water_Recycle" data-name="Water Recycle"><path d="M63,32H57C57,10,30.15-1.51,14.32,14.32l-2.83,2.83L14.32,20l-10.6.71.7-10.61,2.83,2.83,2.83-2.83C29.67-9.51,63,4.63,63,32Z"/><path d="M60.28,43.31l-.7,10.61-2.83-2.83-2.83,2.83C34.33,73.51,1,59.37,1,32H7C7,54,33.85,65.51,49.68,49.68l2.83-2.83L49.68,44Z"/><path d="M32,14S20,27,20,38a12,12,0,0,0,24,0C44,27,32,14,32,14Zm3.28,32.38a1,1,0,0,1-.73-1.86A7,7,0,0,0,39,38a1,1,0,0,1,2,0A9.07,9.07,0,0,1,35.28,46.38Z"/></g></svg>