<svg xmlns="http://www.w3.org/2000/svg" viewBox="0 0 64 64"><title>Wind Turbin Energy</title><g id="Wind_Turbin_Energy" data-name="Wind Turbin Energy"><path d="M17.61,18.61a5,5,0,0,1,3.39-.5v-16a1.15,1.15,0,0,0-2.25-.34C14.84,14.52,15,13.79,15,14.53,15,16.34,16.14,17.14,17.61,18.61Z"/><path d="M39,32.51c-9-9.71-8.48-9.23-9.14-9.61-1.57-.9-2.87-.3-4.84.23a4.82,4.82,0,0,1-1.26,3.18l13.83,8A1.15,1.15,0,0,0,39,32.51Z"/><path d="M2,34.71c.19,0-.56.16,12.17-2.76,2.49-.59,2.71-2.83,3.2-4.68a5,5,0,0,1-2.13-2.68l-13.82,8A1.16,1.16,0,0,0,2,34.71Z"/><path d="M20,20a3,3,0,1,0,1.94,5.28A3,3,0,0,0,20,20Z"/><path d="M18.29,27.7C16.67,39.41,17,33.2,17,56h6c0-22.81.33-16.59-1.29-28.3A5,5,0,0,1,18.29,27.7Z"/><path d="M62,61H26a3,3,0,0,0-3-3H17a3,3,0,0,0-3,3H2a1,1,0,0,0,0,2H62A1,1,0,0,0,62,61Z"/><path d="M37,13H54a1,1,0,0,0,0-2H37a4,4,0,0,1-2.84-6.83A4.67,4.67,0,0,1,38,3a1,1,0,0,0,0-2c-1.8,0-3.49,0-5.25,1.76A6,6,0,0,0,37,13Z"/><path d="M58,13h4a1,1,0,0,0,0-2H58A1,1,0,0,0,58,13Z"/><path d="M38,17a1,1,0,0,0,0,2h1a1,1,0,0,0,0-2Z"/><path d="M52,17H43a1,1,0,0,0,0,2h9A1,1,0,0,0,52,17Z"/><path d="M30,19h4a1,1,0,0,0,0-2H30A1,1,0,0,0,30,19Z"/><path d="M52,25h7a1,1,0,0,0,0-2H52A1,1,0,0,0,52,25Z"/><path d="M46,25h2a1,1,0,0,0,0-2H46a5,5,0,0,0,0,10,1,1,0,0,0,0-2,3,3,0,0,1,0-6Z"/><path d="M43,7H59a1,1,0,0,0,0-2H43A1,1,0,0,0,43,7Z"/></g></svg>