<svg xmlns="http://www.w3.org/2000/svg" xmlns:xlink="http://www.w3.org/1999/xlink" viewBox="0 0 64 64"><defs><style>.cls-1{fill:#c7cdd8;}.cls-2{fill:url(#linear-gradient);}.cls-3{fill:url(#linear-gradient-2);}.cls-4{fill:url(#linear-gradient-3);}.cls-5{fill:url(#linear-gradient-4);}.cls-6{fill:url(#linear-gradient-5);}.cls-7{fill:url(#linear-gradient-6);}.cls-8{fill:#77cacb;}.cls-9{fill:url(#linear-gradient-7);}.cls-10{fill:#8288a1;}.cls-11{fill:url(#linear-gradient-8);}.cls-12{fill:#42455e;}.cls-13{fill:#dfe3ea;}</style><linearGradient id="linear-gradient" x1="1.02" y1="43" x2="14.98" y2="43" gradientUnits="userSpaceOnUse"><stop offset="0" stop-color="#949aaf"/><stop offset="1" stop-color="#c6ccda"/></linearGradient><linearGradient id="linear-gradient-2" x1="29" y1="16" x2="29" y2="12" xlink:href="#linear-gradient"/><linearGradient id="linear-gradient-3" x1="29" y1="12" x2="29" y2="8" xlink:href="#linear-gradient"/><linearGradient id="linear-gradient-4" x1="29" y1="8" x2="29" y2="1.02" gradientUnits="userSpaceOnUse"><stop offset="0" stop-color="#d4d8e1"/><stop offset="1" stop-color="#f3f4f5"/></linearGradient><linearGradient id="linear-gradient-5" x1="23.5" y1="41" x2="23.5" y2="16" xlink:href="#linear-gradient-4"/><linearGradient id="linear-gradient-6" x1="8" y1="63" x2="8" y2="45" gradientUnits="userSpaceOnUse"><stop offset="0" stop-color="#9dd5df"/><stop offset="1" stop-color="#c3e1f5"/></linearGradient><linearGradient id="linear-gradient-7" x1="47" y1="37" x2="47" y2="19" xlink:href="#linear-gradient"/><linearGradient id="linear-gradient-8" x1="56.5" y1="36" x2="56.5" y2="20" gradientUnits="userSpaceOnUse"><stop offset="0" stop-color="#474f72"/><stop offset="1" stop-color="#878c9f"/></linearGradient></defs><title>Faucet</title><g id="Faucet"><path class="cls-1" d="M27,3H19.72a2,2,0,1,0,0,2H27A1,1,0,0,0,27,3Z"/><path class="cls-1" d="M38.28,3H31a1,1,0,0,0,0,2h7.28a2,2,0,1,0,0-2Z"/><path class="cls-2" d="M3,41H13a2,2,0,0,1,0,4H3A2,2,0,0,1,3,41Z"/><rect class="cls-3" x="22" y="12" width="14" height="4"/><path class="cls-4" d="M26,8h6a2,2,0,0,1,2,2v2a0,0,0,0,1,0,0H24a0,0,0,0,1,0,0V10A2,2,0,0,1,26,8Z"/><path class="cls-5" d="M31,8V3a2,2,0,0,0-4,0V8Z"/><path class="cls-6" d="M44,22V34H39.68c-4.49,8-16.95,8-21.37,0H17a4,4,0,0,0-4,4v3H3V36A14,14,0,0,1,17,22h2.74A11.88,11.88,0,0,1,23,19.49V16H35v3.48A12,12,0,0,1,38.23,22Z"/><path class="cls-7" d="M14,57A6,6,0,0,1,2,57c0-5.5,6-12,6-12S14,51.5,14,57Z"/><path class="cls-8" d="M8,63a6,6,0,0,1-5.92-7.08,6,6,0,0,0,11.84,0A6,6,0,0,1,8,63Z"/><rect class="cls-9" x="44" y="19" width="6" height="18"/><rect class="cls-10" x="44" y="34" width="6" height="3"/><rect class="cls-11" x="50" y="20" width="13" height="16"/><rect class="cls-12" x="50" y="33" width="13" height="3"/><rect class="cls-1" x="27" y="6" width="4" height="2"/><rect class="cls-13" x="23" y="16" width="12" height="3"/><rect class="cls-1" x="3" y="38" width="10" height="3"/><path class="cls-1" d="M39.68,34c-4.49,8-16.95,8-21.37,0C22.74,38,35.2,38,39.68,34Z"/></g></svg>