<svg xmlns="http://www.w3.org/2000/svg" viewBox="0 0 64 64"><title>Accu</title><g id="Accu"><path d="M63,18a1,1,0,0,0,1-1V11a1,1,0,0,0-1-1H57V7a1,1,0,0,0-1-1H54V1a1,1,0,0,0-1-1H47a1,1,0,0,0-1,1V6H44a1,1,0,0,0-1,1v3H21V7a1,1,0,0,0-1-1H18V1a1,1,0,0,0-1-1H11a1,1,0,0,0-1,1V6H8A1,1,0,0,0,7,7v3H1a1,1,0,0,0-1,1v6a1,1,0,0,0,1,1H2V56H1a1,1,0,0,0-1,1v6a1,1,0,0,0,1,1H63a1,1,0,0,0,1-1V57a1,1,0,0,0-1-1H62V18ZM48,2h4V6H48ZM45,8H55v2H45ZM12,2h4V6H12ZM9,8H19v2H9ZM2,12H62v4H2ZM62,62H2V58H62Zm-2-6H4V18H60Z"/><path d="M7,54H57a1,1,0,0,0,1-1V21a1,1,0,0,0-1-1H7a1,1,0,0,0-1,1V53A1,1,0,0,0,7,54ZM8,22H56V52H8Z"/><path d="M31.23,27.79c-4.72,5.74-7,12.84-.23,15.89v1.89a1,1,0,0,0,2,0V43.68c6.81-3,4.49-10.16-.23-15.89A1,1,0,0,0,31.23,27.79ZM33,41.42V35.29a1,1,0,0,0-2,0v6.13c-4.15-2.58-1.9-7.28,1-11.33C34.86,34.08,37.17,38.83,33,41.42Z"/><path d="M32,24A13,13,0,1,0,45,37,13,13,0,0,0,32,24Zm0,24A11,11,0,1,1,43,37,11,11,0,0,1,32,48Z"/><path d="M17,27H15.5V25.5a1,1,0,0,0-2,0V27H12a1,1,0,0,0,0,2h1.5v1.5a1,1,0,0,0,2,0V29H17A1,1,0,0,0,17,27Z"/><path d="M52,27H47a1,1,0,0,0,0,2h5A1,1,0,0,0,52,27Z"/></g></svg>