<svg xmlns="http://www.w3.org/2000/svg" viewBox="0 0 64 64"><title>Barrel</title><g id="Barrel"><path d="M54,58.18V9.82A3,3,0,0,0,53,4H47.62C45.84.44,45.82,0,45,0c-8.62,0-8.52-.2-8.89.55L34.38,4H11a3,3,0,0,0-1,5.82V58.18A3,3,0,0,0,11,64H53A3,3,0,0,0,54,58.18ZM19,34A13,13,0,1,1,32,47,13,13,0,0,1,19,34Zm1.85,10H12V24h8.85A14.91,14.91,0,0,0,20.85,44Zm22.3-20H52V44H43.15A14.91,14.91,0,0,0,43.15,24ZM52,22H41A14.88,14.88,0,0,0,23,22H12V10H52ZM12,46H23A14.88,14.88,0,0,0,41,46H52V58H12ZM37.62,2h6.76l1,2H36.62ZM11,6H53a1,1,0,0,1,0,2H11A1,1,0,0,1,11,6ZM53,62H11a1,1,0,0,1,0-2H53A1,1,0,0,1,53,62Z"/><path d="M33.07,37.85c3.32,5.76,3.16,5.81,3.93,5.81,1.19,0,6-3.74,6-9.66a1,1,0,0,0-1-1H35.87a4,4,0,0,0-1.07-1.85l3.07-5.31a1,1,0,0,0-.37-1.37,11.2,11.2,0,0,0-11,0,1,1,0,0,0-.37,1.37l3.07,5.31A4,4,0,0,0,28.13,33H22a1,1,0,0,0-1,1,11.06,11.06,0,0,0,5.5,9.53,1.05,1.05,0,0,0,.76.1c.54-.15.31,0,3.67-5.78A3.89,3.89,0,0,0,33.07,37.85ZM31,35.73A2,2,0,1,1,34,34,2,2,0,0,1,31,35.73Zm6.34,5.52-2.54-4.4A4,4,0,0,0,35.87,35h5.07A9.07,9.07,0,0,1,37.34,41.25Zm-1.73-15.5-2.54,4.4a4,4,0,0,0-2.14,0l-2.54-4.4A9.15,9.15,0,0,1,35.61,25.75Zm-8.95,15.5A9.07,9.07,0,0,1,23.06,35h5.07a4.11,4.11,0,0,0,1.07,1.85Z"/></g></svg>