<svg xmlns="http://www.w3.org/2000/svg" viewBox="0 0 64 64"><title>Battery</title><g id="Battery"><path d="M27,10H5a1,1,0,0,0-1,1V59a1,1,0,0,0,1,1H27a1,1,0,0,0,1-1V11A1,1,0,0,0,27,10ZM26,58H6V12H26Z"/><path d="M15,42.69V45a1,1,0,0,0,2,0V42.69c2-.87,5-3.1,5-6.92,0-5-5-11.15-5.23-11.41a1,1,0,0,0-1.54,0C15,24.62,10,30.77,10,35.77,10,39.59,13,41.82,15,42.69Zm1-16c3.62,5,6.32,10.77,1,13.81V33a1,1,0,0,0-2,0v7.45C9.66,37.41,12.4,31.6,16,26.65Z"/><path d="M63,11H61V7a1,1,0,0,0-2,0v4H55V7a1,1,0,0,0-2,0v4H51a1,1,0,0,0,0,2v3a4,4,0,0,0,3,3.86V23a1,1,0,0,0,1,1h1V56a6,6,0,0,1-12,0V47a8,8,0,0,0-8-8H32V9a3,3,0,0,0-3-3H24V1a1,1,0,0,0-1-1H9A1,1,0,0,0,8,1V6H3A3,3,0,0,0,0,9V61a3,3,0,0,0,3,3H29a3,3,0,0,0,3-3V41h4a6,6,0,0,1,6,6v9a8,8,0,0,0,16,0V24h1a1,1,0,0,0,1-1V19.86A4,4,0,0,0,63,16V13A1,1,0,0,0,63,11ZM30,61a1,1,0,0,1-1,1H3a1,1,0,0,1-1-1V9A1,1,0,0,1,3,8H9a1,1,0,0,0,1-1V2H22V7a1,1,0,0,0,1,1h6a1,1,0,0,1,1,1ZM58,22H56V20h2Zm3-6a2,2,0,0,1-2,2H55a2,2,0,0,1-2-2V13h8Z"/></g></svg>