<svg xmlns="http://www.w3.org/2000/svg" viewBox="0 0 64 64"><title>Bio Chemical</title><g id="Bio_Chemical" data-name="Bio Chemical"><path d="M49.69,55.11,38,41.63V28.82A3,3,0,0,0,37,23H33V17h4.39A11.63,11.63,0,0,0,49,5.39v-2a1,1,0,0,0-1-1H42.61a11.59,11.59,0,0,0-10.1,5.91A11.63,11.63,0,0,0,21.39,0H16a1,1,0,0,0-1,1V3A11.63,11.63,0,0,0,26.61,14.63H31V23H27a3,3,0,0,0-1,5.82V41.63L14.31,55.11A5.38,5.38,0,0,0,18.37,64H45.63A5.38,5.38,0,0,0,49.69,55.11ZM42.61,4.37H47v1A9.62,9.62,0,0,1,37.39,15H33.8c1.65-2.42,4.68-5.89,7.65-5.89a1,1,0,0,0,0-2c-3.43,0-6.46,3-8.33,5.44A9.61,9.61,0,0,1,42.61,4.37ZM17,3V2h4.39a9.61,9.61,0,0,1,9.49,8.18C29,7.76,26,4.74,22.55,4.74a1,1,0,0,0,0,2c3,0,6,3.47,7.65,5.89H26.61A9.62,9.62,0,0,1,17,3ZM39.61,46.54A10.46,10.46,0,0,1,33,46.35V29h3V42C36,42.5,35.9,42.26,39.61,46.54ZM27,25H37a1,1,0,0,1,0,2H27A1,1,0,0,1,27,25Zm.76,17.66c.34-.41.24.48.24-13.66h3V45.55a13,13,0,0,0-5.53-.26ZM45.63,62H18.37A3.37,3.37,0,0,1,15,58.63c0-1.66.14-1.42,8.24-10.77,2.56-.83,5.86-1.17,8.36,0a12.27,12.27,0,0,0,9.44.28l7.14,8.23A3.38,3.38,0,0,1,45.63,62Z"/></g></svg>