<svg xmlns="http://www.w3.org/2000/svg" viewBox="0 0 64 64"><title>Biofuel</title><g id="Biofuel"><path d="M54.65,6.13A7,7,0,0,0,47.7,0H35.4a7,7,0,0,0-6,3.4C25.29,10.25,28.24,6,26,6H25V1a1,1,0,0,0-1-1H14a1,1,0,0,0-1,1V6H12a1,1,0,0,0-1,1v3.05a4,4,0,0,0-3.4,3.27A43.69,43.69,0,0,0,7,20.54c0,34.59-.22,35.23.6,40.14A4,4,0,0,0,11.54,64H51.46a4,4,0,0,0,3.94-3.34,43.54,43.54,0,0,0,.6-7.2C56,9.67,56.45,20.55,54.65,6.13ZM15,2h8V6H15ZM13,8H25v2H13ZM54,53.46a41.72,41.72,0,0,1-.57,6.87,2,2,0,0,1-2,1.67H11.54C8.44,62,9,59.83,9,20.54a41.87,41.87,0,0,1,.57-6.89,2,2,0,0,1,2-1.65H26c.82,0,.69-.2,5.11-7.57A5,5,0,0,1,35.4,2H47.7a5,5,0,0,1,5,4.38C54.44,20.62,54,11.15,54,53.46Z"/><path d="M46.5,5h-10a3.5,3.5,0,0,0,0,7h10a3.5,3.5,0,0,0,0-7Zm0,5h-10a1.5,1.5,0,0,1,0-3h10A1.5,1.5,0,0,1,46.5,10Z"/><path d="M31.23,25.36C31,25.62,26,31.77,26,36.77c0,3.82,3,6,5,6.92V46a1,1,0,0,0,2,0V43.69c2-.87,5-3.1,5-6.92,0-5-5-11.15-5.23-11.41A1,1,0,0,0,31.23,25.36ZM33,41.46V34a1,1,0,0,0-2,0v7.46c-5.34-3.05-2.59-8.86,1-13.81C35.62,32.63,38.32,38.42,33,41.46Z"/><path d="M32,21A15,15,0,1,0,47,36,15,15,0,0,0,32,21Zm0,28A13,13,0,1,1,45,36,13,13,0,0,1,32,49Z"/></g></svg>