<svg xmlns="http://www.w3.org/2000/svg" viewBox="0 0 64 64"><title>Bottle</title><g id="Bottle"><path d="M45.3,33.44c-2.08-3.58.7-2.2.7-10.44,0-7.34-6.09-11.48-8-12.59V9a1,1,0,0,0,1-1V1a1,1,0,0,0-1-1H26a1,1,0,0,0-1,1V8a1,1,0,0,0,1,1v1.41c-1.91,1.11-8,5.25-8,12.59,0,6.07,1.5,6.87,1.5,8.5S17,34.82,17,39V61a3,3,0,0,0,3,3H44a3,3,0,0,0,3-3C47,36,47.51,37.28,45.3,33.44ZM27,2H37V7H27ZM45,61a1,1,0,0,1-1,1H20a1,1,0,0,1-1-1V39c0-3.74,2.5-5.06,2.5-7.5S20,28.88,20,23c0-7.27,7.37-11.07,7.45-11.11.72-.36.55-1,.55-2.89h8c0,2.12-.14,2.55.55,2.89C36.63,11.93,44,15.73,44,23c0,7.75-3.08,6.86-.43,11.44C45.44,37.68,45,35.86,45,61Z"/><path d="M40.3,39.33c1.66-1,2.13-1.08,2-1.88s-.78-.85-4.52-1.85a1,1,0,0,0-.76.1c-.47.27-.37.26-1.48,4.39a1,1,0,0,0,1,1.26c.36,0,.41-.08,2-1,2.07,3.59,2.34,3.72,2,4.38s-1,.51-4.37.55a1,1,0,0,0,0,2l3.53,0a3,3,0,0,0,2.56-4.5Z"/><path d="M32.7,45.56c-2.89-2.9-3-3.32-3.85-3s-.62.83-.62,2.69c-4.11,0-4.36.17-4.75-.49s-.1-.83,1.77-4.11a1,1,0,0,0-1.74-1c-1.57,2.77-2.86,4.2-1.75,6.1a3,3,0,0,0,2.59,1.49h3.88c0,1.93-.13,2.39.62,2.7a1,1,0,0,0,1.09-.22L32.71,47A1,1,0,0,0,32.7,45.56Z"/><path d="M36.33,32.46C34.79,29.79,34.19,28,32,28a3,3,0,0,0-2.6,1.5L27.48,32.8l-1.54-.89A1,1,0,0,0,24.48,33c1,3.79,1,4.11,1.48,4.39a1.07,1.07,0,0,0,.76.1c4-1.06,4.4-1,4.51-1.85s-.4-1-2-1.88c2-3.53,2-3.84,2.79-3.84s.89.54,2.6,3.5A1,1,0,0,0,36.33,32.46Z"/></g></svg>