<svg xmlns="http://www.w3.org/2000/svg" viewBox="0 0 64 64"><title>Brand new world</title><g id="Brand_new_world" data-name="Brand new world"><path d="M54.45,62.11A54.79,54.79,0,0,0,33,57V55h5.74A12.81,12.81,0,0,0,51.53,42.21V40.53a1,1,0,0,0-1-1H43.79A12.77,12.77,0,0,0,33,45.48V38A19,19,0,0,0,50.85,16.64C48.74-.22,27.14-6,16.87,7.5A19,19,0,0,0,31,38v6a12.77,12.77,0,0,0-10.79-6H13.47a1,1,0,0,0-1,1v1.68A12.8,12.8,0,0,0,25.26,53.47H31V57A54.79,54.79,0,0,0,9.55,62.11,1,1,0,0,0,10,64c.89,0,9.26-5,22-5a53.43,53.43,0,0,1,21.55,4.89A1,1,0,0,0,54.45,62.11ZM43.79,41.53h5.74C49.53,48.92,44.15,53,38.74,53H33.89c1.69-2.3,5.25-6.42,9.06-6.42a1,1,0,0,0,1-1c0-2.15-5.69-1.21-10.82,5.12A10.81,10.81,0,0,1,43.79,41.53ZM31.38,27.13c-.15-1.16-1.71-2-2.3-2.81a2,2,0,0,0,.13-2.05,5.88,5.88,0,0,1,1.41-.39c1.72-.2,5.48,1.08,5.59,1.92s-1.16,2.34-2.28,3.62c-1.49,1.7-2.45,2.66-2.67,5.69-.21-.16-.7.29-.07-3.95A8.84,8.84,0,0,0,31.38,27.13ZM32.89,36a1,1,0,0,0,.38-.9c-.1-.87-.15-3.46.92-4.84,1.64-2.1,4.28-4.33,4-6.66-.35-2.72-6-3.88-7.82-3.65-1.52.19-2.46.91-2.83.64-.1-.1-1.81-1.35-2-2,.75-.47,3.87,0,3.61-2a3.94,3.94,0,0,1,1.79-2.94c2.73-1.82-.48-7.27-4.05-5.82-.14-.11-.18-.17-.17-.18-.57-2.14-3.23-1.86-5.46-1.73a16.81,16.81,0,0,1,5.27-2.92.94.94,0,0,0,.53.3c1.58.32,3,1,3.11,1.36.5,4.68,4,7.54,6.13,4.75,1.35-1.72,4.13-2.72,3.15-5.61a17.22,17.22,0,0,1,4.17,2.9c-1.37,1.46-3.66,1.44-3.67,3,0,1.18,1.43,1.72,4,2.85-1.33,0-2.59.14-3.26,1-.19.24-1.82,2.4-1.55,4.53.32,2.51,5.22,2.2,5.81,2.93.32,2.53.78,5.2,1.75,6.65A16.88,16.88,0,0,1,32.89,36ZM23.58,19c-.7-.2-1.41-.41-2-.62-.38-.14-1.34-.83-1.8-4.32-.12-1-1.17-1.73-2.89-2.8A17,17,0,0,1,19,8c.64-.06,5.77-.54,5.73.07A2.8,2.8,0,0,0,26,9.6a1.09,1.09,0,0,0,1.64,0,2.57,2.57,0,0,1,.53-.11c.79-.14,2.27,1.81,1.66,2.42a6.09,6.09,0,0,0-2.68,4.3c-1.05.18-2.48.19-3.24,1.17A1.8,1.8,0,0,0,23.58,19ZM37.08,2.79A3.44,3.44,0,0,0,37.4,4c.85,1.76-1,1.93-2.69,4.09-.28.36-.45.31-.53.28-.68-.19-1.79-1.73-2-4a3.21,3.21,0,0,0-2.07-2.26A16.92,16.92,0,0,1,37.08,2.79Zm8,5.35A17,17,0,0,1,47.49,12c-.92-.63-2.87-1.38-4.87-2.35C44.9,8.56,44.9,7.93,45.08,8.14Zm2.7,17.14c-1.58-5,.52-5.91-4.58-6.93a7.7,7.7,0,0,1-2.11-.6,5.19,5.19,0,0,1,1.13-3.06c.73-.76,5.16.52,5.92-1A16.82,16.82,0,0,1,47.78,25.28ZM16.05,13.11a8.69,8.69,0,0,1,1.74,1.3c.75,5.68,2.72,5.8,5.26,6.53,3.26.93,3.36,1.26,3.26,1.18,1.31,1,1.15,1.05,1.05,1.17-1.35,1.74,1.45,3.37,2,4.15-.06,1.64-1.3,5.75.27,7l2,1.56A17,17,0,0,1,16.05,13.11ZM14.47,40h5.74a10.81,10.81,0,0,1,10.66,9.18c-2.12-2.62-5.72-6.13-9.82-6.13a1,1,0,0,0,0,2c3.81,0,7.37,4.12,9.06,6.42H25.26C19.79,51.47,14.47,47.33,14.47,40Z"/></g></svg>