<svg xmlns="http://www.w3.org/2000/svg" viewBox="0 0 64 64"><title>Clean Water</title><g id="Clean_Water" data-name="Clean Water"><path d="M31.73.32a1,1,0,0,0-1.46,0,114.77,114.77,0,0,0-12,15.86A11.09,11.09,0,0,1,17,11a1,1,0,0,0-2,0A11,11,0,0,1,4,22a1,1,0,0,0,0,2,11,11,0,0,1,8.26,3.76A39,39,0,0,0,9,42.33a22,22,0,0,0,44,0C53,23.21,32.6,1.24,31.73.32ZM9,23a13.05,13.05,0,0,0,7-7,13.15,13.15,0,0,0,7,7,13.05,13.05,0,0,0-7,7A13.07,13.07,0,0,0,9,23ZM31,62A19.86,19.86,0,0,1,11,42.33a35.82,35.82,0,0,1,2.64-12.62c2.21,4,.55,6.29,2.36,6.29a1,1,0,0,0,1-1A11,11,0,0,1,28,24a1,1,0,0,0,0-2,10.91,10.91,0,0,1-8.49-4A114.53,114.53,0,0,1,31,2.49C34.68,6.64,51,26,51,42.33A19.86,19.86,0,0,1,31,62Z"/><path d="M47,42.33A15.86,15.86,0,0,1,31,58a1,1,0,0,0,0,2A17.86,17.86,0,0,0,49,42.33,1,1,0,0,0,47,42.33Z"/></g></svg>