<svg xmlns="http://www.w3.org/2000/svg" viewBox="0 0 64 64"><title>Climate change</title><g id="Climate_change" data-name="Climate change"><path d="M24.85,6.39C6.83,9.69-.48,32.05,12.73,45.27a23,23,0,0,0,36.55-5.43C58.28,23,43.91,2.9,24.85,6.39ZM48.28,37.32c-2.46-6.39.86-7.59-5.63-8.89-.75-.15-2.72-.55-2.76-.93-.18-1.44,1-3.3,1.43-3.9s4-.21,5.88-.44c1.07-.13,1.37-.67,1.43-1.09.25-1.67-3-2.35-7.16-4.5a10.14,10.14,0,0,0,3.43-2.26A21,21,0,0,1,48.28,37.32ZM35.81,10.6c1.1,2.29-1.35,2.7-3.32,5.23-.43.56-.75.47-.89.43-.91-.26-2.33-2.18-2.64-5.11-.14-1.41-1.66-2.33-3.12-2.9A20.76,20.76,0,0,1,35.42,9,4,4,0,0,0,35.81,10.6ZM23.28,25.79c-1.11.22-3.07.17-4,1.37a2.08,2.08,0,0,0-.22,2.19c-.87-.26-2-.56-2.89-.88-.64-.23-1.79-1.23-2.35-5.46-.14-1.12-1.45-2-3.6-3.38a19.9,19.9,0,0,1,2.84-4.28c5.79-.51,6.84-.2,6.94-.16.81.63-.09.65,1.8,2.16.74.6,1.38.45,1.71,0a2.08,2.08,0,0,1,.77-.18c1.09-.13,3.19,2.36,2.18,3.37A7.14,7.14,0,0,0,23.28,25.79ZM14.15,43.85A20.93,20.93,0,0,1,9.4,21.48a10.64,10.64,0,0,1,2.44,1.83c.2,1.49.8,6,3.66,7.05,3.29,1.15,6.7,1.51,8,3.52.5.76-2.08,1.16,1.5,4.38a10.74,10.74,0,0,1,1,1,14.26,14.26,0,0,1-.22,1.89c-1,6.42-.36,5.92,2.92,8.47a1,1,0,0,0,1.61-.91s-.46-4,1.17-6.09c2-2.56,5.17-5.25,4.84-8-.41-3.18-7.17-4.53-9.32-4.26s-3,1.2-3.62.74c-2.38-1.85-2.58-2.5-2.56-2.69.64-.81,4.74,0,4.44-2.38a4.93,4.93,0,0,1,2.28-3.81c3.16-2.11-.73-8.58-4.87-6.68-.77-.64-.14-.86-1.48-1.9-.48-.38-1.43-.73-6-.43a20.78,20.78,0,0,1,7.19-4.1A1,1,0,0,0,23,9.5c1.95.4,3.92,1.32,4,1.86.59,5.57,4.61,8.89,7.09,5.69,1.7-2.17,5.3-3.41,3.6-7.17a20.45,20.45,0,0,1,5.84,4c-1.64,2-4.57,1.94-4.59,3.67,0,1.42,2,2,5.69,3.72-2,0-3.93-.06-4.87,1.14-.22.29-2.15,2.86-1.84,5.38.23,1.81,2.42,2.25,4.35,2.64.74.14,2.71.54,2.76.94.39,3.15,1,6.48,2.17,8.17A21,21,0,0,1,14.15,43.85Zm11.12-11a8.86,8.86,0,0,1,2-.57c2.12-.26,6.92,1.29,7.08,2.53s-1.44,3-2.83,4.61c-1.8,2-3.07,3.28-3.24,7.25-.9-.69-1.26-.24-.5-5.31.4-2.7.53-2.86-1.41-4.61a7.5,7.5,0,0,1-1.22-1.27A2.26,2.26,0,0,0,25.27,32.88Z"/><path d="M59,56.28V37a1,1,0,0,0-2,0V56.28a2,2,0,1,0,2,0Z"/><path d="M62,53.55V32a4,4,0,0,0-4-4,33.25,33.25,0,0,0-1.44-8A29,29,0,0,0,46.32,5.75C27.32-8.45,0,5.13,0,29,0,58.16,39,69.25,54,43.71v9.84a6,6,0,1,0,8,0ZM9.91,48.09a27,27,0,0,1,0-38.17C26.68-6.9,55.6,4.82,56,28.57A4,4,0,0,0,54,32v7.19A27,27,0,0,1,9.91,48.09Zm50.61,13a4,4,0,0,1-6.45-2.35,4,4,0,0,1,1.53-3.93c.6-.45.4.92.4-22.82a2,2,0,0,1,4,0c0,23.93-.17,22.39.4,22.82A4,4,0,0,1,60.52,61.1Z"/></g></svg>