<svg xmlns="http://www.w3.org/2000/svg" viewBox="0 0 64 64"><title>conserving nature</title><g id="conserving_nature" data-name="conserving nature"><path d="M58.31,28.69c-4.18,10-5.62,10.67-10.75,13.94,1.45-2.31,3.84-5.79,2.17-7.86-1-1.21-2.73-1.16-4-.72-2.11.7-3.65,3.22-5,5.18Q36.88,34.64,33,34.11V21h7A15,15,0,0,0,55,6V4a1,1,0,0,0-1-1H46a15,15,0,0,0-13.45,8.41A15,15,0,0,0,18,0H10A1,1,0,0,0,9,1V3A15,15,0,0,0,24,18h7V34.11q-3.87.53-7.73,5.12c-1.3-2-2.86-4.48-4.95-5.18-3.51-1.18-6.37,1.13-3.18,6.47.48.8.92,1.5,1.3,2.11-5.25-3.35-6.5-3.87-10.78-14A3,3,0,0,0,0,30c0,2.25,4.13,12.55,7.29,15.71A91.88,91.88,0,0,0,17.4,54.8c3.46,2.59,2.62,8,2.61,8a1,1,0,0,0,2,.32c0-.26,1.05-6.63-3.39-10a89.39,89.39,0,0,1-9.89-8.91C5.84,41.42,2,31.58,2,30a1,1,0,0,1,1.85-.53C8.34,40.21,9.68,41.05,19.47,46.85a1,1,0,0,0,1.26-1.52c-.78-.88-5.89-8.08-4.9-9.31.25-.31,1.06-.34,1.85-.07,2.5.83,4.61,6.78,7.77,8.88C28.14,46.63,31,52.37,31,56v7a1,1,0,0,0,2,0V56c0-3.63,2.86-9.37,5.55-11.17,3.15-2.09,5.27-8,7.77-8.88.79-.27,1.6-.24,1.85.07,1,1.23-4.17,8.48-4.9,9.31a1,1,0,0,0,1.26,1.52C54.22,41.18,55.78,40,60.12,29.54A1,1,0,0,1,62,30c0,1.58-3.84,11.42-6.71,14.29A89.39,89.39,0,0,1,45.4,53.2C41,56.53,42,62.9,42,63.16a1,1,0,0,0,2-.32c0-.06-.85-5.45,2.61-8a91.88,91.88,0,0,0,10.11-9.09C59.87,42.55,64,32.25,64,30A3,3,0,0,0,58.31,28.69ZM46,5h7V6A13,13,0,0,1,40,19H33.88c1.93-2.69,6.35-8,11.12-8a1,1,0,0,0,0-2c-5.07,0-9.52,4.62-11.94,7.74A13,13,0,0,1,46,5ZM11,3V2h7A13,13,0,0,1,30.94,13.74C28.52,10.62,24.07,6,19,6a1,1,0,0,0,0,2c4.77,0,9.19,5.31,11.12,8H24A13,13,0,0,1,11,3ZM37.45,43.17C35.3,44.6,33.2,47.84,32,51.11c-1.2-3.27-3.3-6.51-5.45-7.94a9.36,9.36,0,0,1-2.11-2.24c5.28-6.53,9.82-6.56,15.12,0A9.36,9.36,0,0,1,37.45,43.17Z"/></g></svg>