<svg xmlns="http://www.w3.org/2000/svg" viewBox="0 0 64 64"><title>Digital  Ecology</title><g id="Digital_Ecology" data-name="Digital  Ecology"><path d="M63,48H59V12a4,4,0,0,0-4-4H9a4,4,0,0,0-4,4V48H1a1,1,0,0,0-1,1c0,4.12-.22,4.65.68,5C7.24,56.13,6.77,56,7,56c53.49,0,50.08,0,50.32,0C63.71,53.82,64,54,64,53V49A1,1,0,0,0,63,48ZM7,12a2,2,0,0,1,2-2H55a2,2,0,0,1,2,2V48c-20.37,0-18.06-.35-19.41,1H26.41c-.59-.6-.87-1-1.41-1H7ZM62,52.28,56.84,54H7.16L2,52.28V50H24.59c.59.6.87,1,1.41,1,13.74,0,12.07.34,13.41-1H62Z"/><path d="M54,46a1,1,0,0,0,1-1V13a1,1,0,0,0-1-1H10a1,1,0,0,0-1,1V45a1,1,0,0,0,1,1ZM41.45,25.11c-3.43,0-6.46,3-8.33,5.44a9.61,9.61,0,0,1,9.49-8.18H47v1A9.62,9.62,0,0,1,37.39,33H33.8c1.65-2.42,4.68-5.89,7.65-5.89A1,1,0,0,0,41.45,25.11Zm-18.9-.37c3,0,6,3.47,7.65,5.89H26.61A9.62,9.62,0,0,1,17,21V20h4.39a9.61,9.61,0,0,1,9.49,8.18C29,25.76,26,22.74,22.55,22.74A1,1,0,0,0,22.55,24.74ZM11,14H53V44H33V35h4.39A11.63,11.63,0,0,0,49,23.39v-2a1,1,0,0,0-1-1H42.61a11.59,11.59,0,0,0-10.1,5.91A11.64,11.64,0,0,0,21.39,18H16a1,1,0,0,0-1,1v2A11.63,11.63,0,0,0,26.61,32.63H31V44H11Z"/></g></svg>