<svg xmlns="http://www.w3.org/2000/svg" viewBox="0 0 64 64"><title>Earth Day</title><g id="Earth_Day" data-name="Earth Day"><path d="M34.36,59.85A19,19,0,0,0,50.85,38.64C48.71,21.58,27,16.16,16.87,29.5S17.63,61.94,34.36,59.85ZM16.05,35.11a8.69,8.69,0,0,1,1.74,1.3c.75,5.68,2.72,5.8,5.26,6.53,3.26.93,3.36,1.26,3.26,1.18,1.31,1,1.15,1.05,1.05,1.17-1.35,1.74,1.45,3.37,2,4.15-.06,1.64-1.3,5.75.27,7,2.49,1.93,1.81,1.41,2,1.56A17,17,0,0,1,16.05,35.11ZM19,30c.64-.06,5.77-.54,5.73.07A2.8,2.8,0,0,0,26,31.6a1.09,1.09,0,0,0,1.64,0c1.41-.56,2.75,1.75,2.19,2.31a6.09,6.09,0,0,0-2.68,4.3c-1.05.18-2.48.19-3.24,1.17A1.8,1.8,0,0,0,23.58,41c-.7-.2-1.41-.41-2-.62-.38-.14-1.34-.83-1.8-4.32-.12-1-1.17-1.73-2.89-2.8A17.11,17.11,0,0,1,19,30ZM29.21,44.27a5.88,5.88,0,0,1,1.41-.39c1.72-.2,5.48,1.08,5.59,1.92C36.35,47,34,49.19,32.61,51a7.76,7.76,0,0,0-1.35,4.13l-.3-.23c-.38-.91.53-4.81.42-5.75-.15-1.16-1.71-2-2.3-2.81A2,2,0,0,0,29.21,44.27ZM32.89,58a1,1,0,0,0,.38-.9c-.1-.87-.15-3.46.92-4.84,1.64-2.1,4.28-4.33,4-6.66-.35-2.72-6-3.88-7.82-3.65-1.53.19-2.49.92-2.83.64-.1-.1-1.81-1.35-2-2,.75-.47,3.87,0,3.61-2.05a3.94,3.94,0,0,1,1.79-2.94c2.75-1.83-.5-7.27-4.05-5.82-.14-.11-.18-.17-.17-.18-.57-2.13-3.22-1.86-5.46-1.73a16.81,16.81,0,0,1,5.27-2.92.94.94,0,0,0,.53.3c1.58.32,3,1,3.11,1.36.5,4.68,4,7.54,6.13,4.75,1.35-1.72,4.13-2.72,3.15-5.61a17.22,17.22,0,0,1,4.17,2.9c-1.37,1.46-3.66,1.44-3.67,3,0,1.18,1.43,1.72,4,2.85-1.33,0-2.59.14-3.26,1-.19.24-1.82,2.4-1.55,4.53.32,2.51,5.22,2.2,5.81,2.93.32,2.53.78,5.2,1.75,6.65A16.9,16.9,0,0,1,32.89,58Zm4.19-33.16A3.44,3.44,0,0,0,37.4,26c.85,1.76-1,1.93-2.69,4.09-.28.36-.45.31-.53.28-.68-.19-1.79-1.73-2-4a3.21,3.21,0,0,0-2.07-2.26A16.84,16.84,0,0,1,37.08,24.79Zm8,5.35A17.35,17.35,0,0,1,47.49,34c-.92-.63-2.87-1.38-4.87-2.35C44.9,30.56,44.9,29.93,45.08,30.14Zm2.7,17.14c-1.58-5,.52-5.91-4.58-6.93a7.7,7.7,0,0,1-2.11-.6,5.19,5.19,0,0,1,1.13-3.06c.71-.75,5.18.5,5.92-1A16.82,16.82,0,0,1,47.78,47.28Z"/><path d="M61,6H55C54.55-2,49.45-2,49,6H45C44.55-2,39.45-2,39,6H35C34.55-2,29.45-2,29,6H25C24.55-2,19.45-2,19,6H15C14.55-2,9.45-2,9,6H3A3,3,0,0,0,0,9v8a3,3,0,0,0,2,2.82V63a1,1,0,0,0,1,1H61a1,1,0,0,0,1-1V19.82A3,3,0,0,0,64,17V9A3,3,0,0,0,61,6ZM52,2.09A8.18,8.18,0,0,1,53,6H51A8.18,8.18,0,0,1,52,2.09Zm-10,0A8.18,8.18,0,0,1,43,6H41A8.18,8.18,0,0,1,42,2.09Zm-10,0A8.18,8.18,0,0,1,33,6H31A8.18,8.18,0,0,1,32,2.09Zm-10,0A8.18,8.18,0,0,1,23,6H21A8.18,8.18,0,0,1,22,2.09Zm-10,0A8.18,8.18,0,0,1,13,6H11A8.18,8.18,0,0,1,12,2.09ZM60,62H4V20H60Zm2-45a1,1,0,0,1-1,1H3a1,1,0,0,1-1-1V9A1,1,0,0,1,3,8H9c.37,7.09,4,6.63,4,5a1,1,0,0,0-.91-1c-.31-.25-.92-1.62-1.06-4h8c.16,3.13,1.1,6,3,6a1,1,0,0,0,.09-2c-.31-.25-.92-1.62-1.06-4h8c.37,7.09,4,6.63,4,5a1,1,0,0,0-.91-1c-.31-.25-.92-1.62-1.06-4h8c.16,3.13,1.1,6,3,6a1,1,0,0,0,.09-2c-.31-.25-.92-1.62-1.06-4h8c.37,7.09,4,6.63,4,5a1,1,0,0,0-.91-1c-.31-.25-.92-1.62-1.06-4H61a1,1,0,0,1,1,1Z"/></g></svg>