<svg xmlns="http://www.w3.org/2000/svg" viewBox="0 0 64 64"><title>Eco House</title><g id="Eco_House" data-name="Eco House"><path d="M63.45,31.89c.76-.38.55-.44.55-7.89,0-.7.12-.42-8-6.44V6h1a1,1,0,0,0,1-1V1a1,1,0,0,0-1-1H45a1,1,0,0,0-1,1V5a1,1,0,0,0,1,1h1v4.14L32.6.2a1,1,0,0,0-1.2,0l-31,23c-.57.43-.4.44-.4,7.8a1,1,0,0,0,1.6.8L8,27.05V56H1a1,1,0,0,0-1,1v6a1,1,0,0,0,1,1H63a1,1,0,0,0,1-1V57a1,1,0,0,0-1-1H56V27.05C62.93,32.2,62.71,32.27,63.45,31.89ZM46,2H56V4H46Zm2,4h6V16.08l-6-4.45ZM2,24.5,32,2.25,62,24.5V29L32.6,7.2a1,1,0,0,0-1.2,0L2,29ZM62,62H2V58H62ZM32,36a9,9,0,1,1,9-9A9,9,0,0,1,32,36Zm7.34,9.25-6.26,5.47A10,10,0,0,1,43,42h2a10,10,0,0,1-10,10c-.55,0-1.3.8,5.61-5.25A1,1,0,0,0,39.34,45.25Zm-16-1.5C30.25,49.79,29.49,49,29,49A10,10,0,0,1,19,39h2.05a10,10,0,0,1,9.87,8.72l-6.26-5.47A1,1,0,0,0,23.34,43.75ZM54,56H34a1,1,0,0,1-1-1V54h2a12,12,0,0,0,12-12V41a1,1,0,0,0-1-1H43a11.94,11.94,0,0,0-10,5.35V38a11,11,0,1,0-2,0v4.4A11.94,11.94,0,0,0,21.05,37H18a1,1,0,0,0-1,1v1A12,12,0,0,0,29,51H31v4a1,1,0,0,1-1,1H10V25.57L32,9.25,54,25.57Z"/><path d="M34,25.28V21a1,1,0,0,0-1.77-.64c-6.46,7.75-6.6,6.91-2.23,8.36,0,4.34-.22,4.9.66,5.22a1,1,0,0,0,1.11-.3C38.23,25.89,38.37,26.73,34,25.28Zm-2,5c0-3.34.37-2.84-2.29-3.73L32,23.76c0,3.34-.37,2.84,2.29,3.73Z"/></g></svg>