<svg xmlns="http://www.w3.org/2000/svg" viewBox="0 0 64 64"><title>Eco Factory</title><g id="Eco_Factory" data-name="Eco Factory"><path d="M63,29H61V22a1,1,0,0,0-1.71-.71L53,27.59V22a1,1,0,0,0-1.71-.71L45,27.59V22a1,1,0,0,0-1.71-.71L35.59,29H33a1,1,0,0,0-1,1v7H29V34a1,1,0,0,0-1-1H27L26,7a1,1,0,0,0,0-2H18a1,1,0,0,0,0,2L17,33H15L14,2a1,1,0,0,0,0-2H6A1,1,0,0,0,6,2L5,33H4a1,1,0,0,0-1,1v3H1a1,1,0,0,0-1,1V63a1,1,0,0,0,1,1H63a1,1,0,0,0,1-1V30A1,1,0,0,0,63,29Zm-4-4.59V29H54.41Zm-8,0V29H46.41Zm-8,0V29H38.41ZM34,31H62v6H34ZM20,7H24L25,33H19ZM8,2H12L13,33H7ZM5,35H27v2H5ZM18,58H6V56H18Zm0-4H6V52H18ZM6,62V60H18v2ZM49.34,50.25l-6.26,5.47A10,10,0,0,1,53,47h2a10,10,0,0,1-10,10c-.55,0-1.3.8,5.61-5.25A1,1,0,0,0,49.34,50.25Zm-16-1.5C40.25,54.79,39.49,54,39,54A10,10,0,0,1,29,44h2.05a10,10,0,0,1,9.87,8.72l-6.26-5.47A1,1,0,0,0,33.34,48.75ZM62,62H43V59h2a12,12,0,0,0,12-12V46a1,1,0,0,0-1-1H53a11.94,11.94,0,0,0-10.34,6,12,12,0,0,0-11.56-9H28a1,1,0,0,0-1,1v1A12,12,0,0,0,39,56h2v6H20V51a1,1,0,0,0-1-1H5a1,1,0,0,0-1,1V62H2V39H62Z"/><path d="M41,33H37a1,1,0,0,0,0,2h4A1,1,0,0,0,41,33Z"/><path d="M50,33H46a1,1,0,0,0,0,2h4A1,1,0,0,0,50,33Z"/><path d="M59,33H55a1,1,0,0,0,0,2h4A1,1,0,0,0,59,33Z"/></g></svg>