<svg xmlns="http://www.w3.org/2000/svg" viewBox="0 0 64 64"><title>Eco Tag</title><g id="Eco_Tag" data-name="Eco Tag"><path d="M28.23,25.79c-4.72,5.74-7,12.84-.23,15.89v1.89a1,1,0,0,0,2,0V41.68c6.81-3,4.49-10.16-.23-15.89A1,1,0,0,0,28.23,25.79ZM30,39.42V33.29a1,1,0,0,0-2,0v6.13c-4.15-2.58-1.9-7.28,1-11.33C31.86,32.08,34.17,36.83,30,39.42Z"/><path d="M29,22A13,13,0,1,0,42,35,13,13,0,0,0,29,22Zm0,24A11,11,0,1,1,40,35,11,11,0,0,1,29,46Z"/><path d="M54,0A10,10,0,0,0,44,10c-13.28,0-14-.44-15.77,1.35L1.35,38.23a4.64,4.64,0,0,0,0,6.54L19.23,62.65a4.64,4.64,0,0,0,6.54,0L52.65,35.77A4.65,4.65,0,0,0,54,32.5V20A10,10,0,0,0,54,0ZM52,32.5C52,34,53.56,32,24.35,61.23a2.68,2.68,0,0,1-3.7,0L2.77,43.35a2.62,2.62,0,0,1,0-3.7C32,10.43,30,12,31.5,12H44.22a9.63,9.63,0,0,0,1.21,3.1A2.5,2.5,0,1,0,47.11,14a8.3,8.3,0,0,1-.85-2H48a4,4,0,0,1,4,4ZM54,18V16a6,6,0,0,0-6-6H46a8,8,0,1,1,8,8Z"/></g></svg>