<svg xmlns="http://www.w3.org/2000/svg" viewBox="0 0 64 64"><title>Eco Thecnology</title><g id="Eco_Thecnology" data-name="Eco Thecnology"><path d="M63.13,26l-6-.78A25.83,25.83,0,0,0,54.54,19l3.71-4.8a1,1,0,0,0-.09-1.32L51.09,5.84a1,1,0,0,0-1.32-.09L45,9.46a25.83,25.83,0,0,0-6.2-2.56L38,.87A1,1,0,0,0,37,0H27a1,1,0,0,0-1,.87l-.78,6A25.83,25.83,0,0,0,19,9.46l-4.8-3.71a1,1,0,0,0-1.32.09L5.84,12.91a1,1,0,0,0-.09,1.32L9.46,19a25.83,25.83,0,0,0-2.56,6.2L.87,26A1,1,0,0,0,0,27V37a1,1,0,0,0,.87,1l6,.78A25.83,25.83,0,0,0,9.46,45l-3.71,4.8a1,1,0,0,0,.09,1.32l7.07,7.07a1,1,0,0,0,1.32.09L19,54.54a25.83,25.83,0,0,0,6.2,2.56l.78,6A1,1,0,0,0,27,64H37a1,1,0,0,0,1-.87l.78-6A25.83,25.83,0,0,0,45,54.54l4.8,3.71a1,1,0,0,0,1.32-.09l7.07-7.07a1,1,0,0,0,.09-1.32L54.54,45a25.83,25.83,0,0,0,2.56-6.2l6-.78A1,1,0,0,0,64,37V27A1,1,0,0,0,63.13,26ZM62,36.12c-6.16.8-6.45.61-6.67,1.51-2.45,10.19-5.65,4.31.8,12.67L50.3,56.13c-4.9-3.78-5-4.13-5.78-3.65-9,5.48-7.05-1-8.4,9.52H27.88c-.8-6.16-.61-6.45-1.51-6.67-10.14-2.44-4.32-5.64-12.67.8L7.87,50.3c3.8-4.92,4.13-5,3.65-5.78-5.48-9,1-7.05-9.52-8.4V27.88c6.16-.8,6.45-.61,6.67-1.51,2.45-10.19,5.65-4.31-.8-12.67L13.7,7.87c4.92,3.8,5,4.13,5.78,3.65,9-5.48,7.05,1,8.4-9.52h8.24c.8,6.16.61,6.45,1.51,6.67,10.14,2.44,4.32,5.64,12.67-.8l5.83,5.83c-3.8,4.92-4.13,5-3.65,5.78,5.48,9-1,7.05,9.52,8.4Z"/><path d="M31.23,21.36C31,21.62,26,27.77,26,32.77c0,3.82,3,6,5,6.92V42a1,1,0,0,0,2,0V39.69c2-.87,5-3.1,5-6.92,0-5-5-11.15-5.23-11.41A1,1,0,0,0,31.23,21.36ZM33,37.46V30a1,1,0,0,0-2,0v7.46c-5.34-3.05-2.6-8.86,1-13.81C35.62,28.63,38.32,34.42,33,37.46Z"/><path d="M32,17A15,15,0,1,0,47,32,15,15,0,0,0,32,17Zm0,28A13,13,0,1,1,45,32,13,13,0,0,1,32,45Z"/><path d="M32,13A19,19,0,1,0,51,32,19,19,0,0,0,32,13Zm0,36A17,17,0,1,1,49,32,17,17,0,0,1,32,49Z"/></g></svg>