<svg xmlns="http://www.w3.org/2000/svg" viewBox="0 0 64 64"><title>Electric car</title><g id="Electric_car" data-name="Electric car"><circle cx="10" cy="58" r="2"/><circle cx="49" cy="58" r="2"/><path d="M32,44H29a1,1,0,0,0,0,2h3A1,1,0,0,0,32,44Z"/><path d="M55,13H48a14,14,0,0,0-27.9,0H12A4,4,0,0,0,8,9H6A1,1,0,0,0,4,9v1H1a1,1,0,0,0,0,2H4v4H1a1,1,0,0,0,0,2H4v1a1,1,0,0,0,2,0H8a4,4,0,0,0,4-4h8.05A14,14,0,0,0,48,15h7a7,7,0,0,1,7,7V50.26a3,3,0,0,1-3,3H58c0-9.59.63-5-2.84-18.07A7.08,7.08,0,0,0,48.39,30H28.17c-3.35,0-4.06,1.27-14.66,10.1C4.25,43,4.42,42.85,3.63,43.3,1.34,44.55,0,46.75,0,50v8a1,1,0,0,0,1,1H4.09a6,6,0,0,0,11.82,0H43.09a6,6,0,0,0,11.82,0H57a1,1,0,0,0,1-1V55.26h1a5,5,0,0,0,5-5V22A9,9,0,0,0,55,13ZM10,15a2,2,0,0,1-2,2H6V11H8a2,2,0,0,1,2,2ZM34,26A12,12,0,1,1,46,14,12,12,0,0,1,34,26ZM56,50H55a1,1,0,0,1-1-1V48a1,1,0,0,1,1-1h1ZM48.92,37.55A1.9,1.9,0,0,1,47.1,40h-12l.8-8H47.26ZM33.89,32l-.8,8H16.76C27.81,30.79,24.65,32,33.89,32ZM2,48.87a4.92,4.92,0,0,1,1.79-3.28C4.75,47.92,2,49.25,2,48.87ZM10,62a4,4,0,1,1,4-4A4,4,0,0,1,10,62Zm39,0a4,4,0,1,1,4-4A4,4,0,0,1,49,62Zm7-5H54.91a6,6,0,0,0-11.82,0H15.91A6,6,0,0,0,4.09,57H2V51a4.46,4.46,0,0,0,3.58-6.31L14.15,42h33a3.91,3.91,0,0,0,3.74-5l-1.46-4.86a5,5,0,0,1,3.84,3.6L55.7,45H55a3,3,0,0,0-3,3v1a3,3,0,0,0,3,3h1Z"/><path d="M36.43,11.93V5a1,1,0,0,0-1.81-.58c-6.91,9.66-6.77,9.21-6.58,9.87s.34.54,3.53,1.78V23a1,1,0,0,0,1.81.58c6.91-9.66,6.78-9.21,6.58-9.87S39.62,13.17,36.43,11.93Zm-2.86,8c0-4.67.21-5.1-.64-5.43l-2.37-.92,3.87-5.41c0,4.67-.21,5.1.64,5.43l2.37.92Z"/></g></svg>