<svg xmlns="http://www.w3.org/2000/svg" viewBox="0 0 64 64"><title>Faucet</title><g id="Faucet"><path d="M63,35H51V21H63a1,1,0,0,0,0-2H51a1,1,0,0,0-1-1H44a1,1,0,0,0-1,1v2c-6.79,0-2.71.45-7-2.1V17a1,1,0,0,0,1-1V12a1,1,0,0,0-1-1H35V10a3,3,0,0,0-3-3V5h6.28a2,2,0,1,0,0-2H32a3,3,0,0,0-6,0H19.72a2,2,0,1,0,0,2H26V7a3,3,0,0,0-3,3v1H22a1,1,0,0,0-1,1v4a1,1,0,0,0,1,1c0,3.27.41.81-2.69,4H17A15,15,0,0,0,2,36v4.18A3,3,0,0,0,3,46H5.86C4,48.37,1,52.87,1,57a7,7,0,0,0,14,0c0-4.13-3-8.63-4.86-11H13a3,3,0,0,0,1-5.82V38a3,3,0,0,1,3-3h.74c5,8,17.5,8,22.51,0H43v2a1,1,0,0,0,1,1h6a1,1,0,0,0,1-1H63A1,1,0,0,0,63,35ZM8,62a5,5,0,0,1-5-5c0-3.93,3.45-8.58,5-10.46,1.55,1.88,5,6.53,5,10.46A5,5,0,0,1,8,62ZM28,3a1,1,0,0,1,2,0V7H28Zm-3,7a1,1,0,0,1,1-1h6a1,1,0,0,1,1,1v1H25Zm-2,3H35v2H23ZM13,44H3a1,1,0,0,1,0-2H13A1,1,0,0,1,13,44ZM38.81,33.51c-4.09,7.32-15.57,7.3-19.63,0-.32-.58-.72-.51-2.18-.51a5,5,0,0,0-5,5v2H4V36A13,13,0,0,1,17,23c2.8,0,3.09.11,3.48-.33,2.15-2.38,3.52-2,3.52-3.18V17H34c0,2.62-.14,3,.53,3.37,2.75,1.45,2.74,2.63,3.7,2.63H43V33C39.58,33,39.18,32.83,38.81,33.51ZM45,36V20h4V36Z"/></g></svg>