<svg xmlns="http://www.w3.org/2000/svg" viewBox="0 0 64 64"><title>Greenhouse</title><g id="Greenhouse"><path d="M50,24H14A14.06,14.06,0,0,0,0,38V63a1,1,0,0,0,1,1H63a1,1,0,0,0,1-1V38A14,14,0,0,0,50,24ZM19,58V47a1,1,0,0,0-1-1H10a1,1,0,0,0-1,1V58H7V39H21V58ZM2,58V39H5V58ZM7,28.27a11.92,11.92,0,0,1,14,0V37H7ZM26,37H23V30.09A12,12,0,0,1,26,37ZM23,39h3V58H23Zm5,0H44V58H28Zm18,0H62V58H46Zm4-13A12,12,0,0,1,62,37H46a14,14,0,0,0-6.78-11ZM32,26A12,12,0,0,1,44,37H28a14.08,14.08,0,0,0-6.78-11ZM5,30.09V37H2.05A12,12,0,0,1,5,30.09ZM2,62V60H9v2Zm9-14h6V62H11Zm8,14V60h7v2Zm9-2H44v2H28Zm34,2H46V60H62Z"/><path d="M40,46H32a1,1,0,0,0-1,1v8a1,1,0,0,0,1,1h8a1,1,0,0,0,1-1V47A1,1,0,0,0,40,46Zm-1,8H33V48h6Z"/><path d="M32,15a5,5,0,1,0-5-5A5,5,0,0,0,32,15Zm0-8a3,3,0,1,1-3,3A3,3,0,0,1,32,7Z"/><path d="M33,3V1a1,1,0,0,0-2,0V3A1,1,0,0,0,33,3Z"/><path d="M31,17v2a1,1,0,0,0,2,0V17A1,1,0,0,0,31,17Z"/><path d="M39,11h2a1,1,0,0,0,0-2H39A1,1,0,0,0,39,11Z"/><path d="M23,11h2a1,1,0,0,0,0-2H23A1,1,0,0,0,23,11Z"/><path d="M37,6.05c.6,0,.83-.41,2.12-1.71a1,1,0,0,0-1.41-1.41L36.24,4.34A1,1,0,0,0,37,6.05Z"/><path d="M26.34,14.24l-1.41,1.42a1,1,0,0,0,1.41,1.41l1.42-1.41A1,1,0,0,0,26.34,14.24Z"/><path d="M36.24,15.66l1.42,1.41a1,1,0,0,0,1.41-1.41l-1.41-1.42A1,1,0,0,0,36.24,15.66Z"/><path d="M26.34,5.76a1,1,0,0,0,1.42-1.42L26.34,2.93a1,1,0,0,0-1.41,1.41Z"/><path d="M58,46H50a1,1,0,0,0-1,1v8a1,1,0,0,0,1,1h8a1,1,0,0,0,1-1V47A1,1,0,0,0,58,46Zm-1,8H51V48h6Z"/></g></svg>