<svg xmlns="http://www.w3.org/2000/svg" viewBox="0 0 64 64"><title>Green Idea</title><g id="Green_Idea" data-name="Green Idea"><path d="M54,46H46a15,15,0,0,0-13,7.55V46h2.72a3.49,3.49,0,0,0,3.49-3.48c0-4.4-.58-7.5,2.32-10.19,9.53-8.82,2.91-25-10.28-24.31C19,8.66,13.35,23.91,22.48,32.35c2.84,2.62,2.31,5.34,2.31,10.17A3.49,3.49,0,0,0,28.28,46H31v7.55A15,15,0,0,0,18,46H10a1,1,0,0,0-1,1v2A15,15,0,0,0,24,64H40A15,15,0,0,0,55,49V47A1,1,0,0,0,54,46ZM23.84,30.88C16,23.61,21,10.56,31.35,10c11.25-.59,17,13.25,8.82,20.85a9.24,9.24,0,0,0-2.91,5.68H26.74A9.23,9.23,0,0,0,23.84,30.88Zm2.95,11.64v-4H37.21v4A1.49,1.49,0,0,1,35.72,44H28.28A1.49,1.49,0,0,1,26.79,42.52ZM11,49V48h7A13,13,0,0,1,30.94,59.74C28.52,56.62,24.07,52,19,52a1,1,0,0,0,0,2c4.77,0,9.19,5.31,11.12,8H24A13,13,0,0,1,11,49Zm42,0A13,13,0,0,1,40,62H33.88c1.93-2.69,6.35-8,11.12-8a1,1,0,0,0,0-2c-5.07,0-9.52,4.62-11.94,7.74A13,13,0,0,1,46,48h7Z"/><path d="M29.57,33a1,1,0,0,0,1,1c.73,0,.37.2,7.24-9.42a1,1,0,0,0-.45-1.51l-2.93-1.14V15a1,1,0,0,0-1.81-.58c-6.91,9.66-6.78,9.21-6.58,9.87s.34.54,3.53,1.78Zm-1-9.47,3.87-5.41v4.5c0,.86.58.91,3,1.85l-3.87,5.41v-4.5C31.57,24.52,31,24.47,28.56,23.53Z"/><path d="M49,22h4a1,1,0,0,0,0-2H49A1,1,0,0,0,49,22Z"/><path d="M11,22h4a1,1,0,0,0,0-2H11A1,1,0,0,0,11,22Z"/><path d="M44.73,32.31a1,1,0,0,0-1.42,1.42c3.07,3.07,3,3.12,3.54,3.12a1,1,0,0,0,.71-1.71Z"/><path d="M19.27,9.69a1,1,0,0,0,1.42-1.42L17.86,5.44a1,1,0,0,0-1.42,1.42Z"/><path d="M44,10c.55,0,.46-.05,3.54-3.12a1,1,0,0,0-1.42-1.42L43.31,8.27A1,1,0,0,0,44,10Z"/><path d="M17.15,36.85c.55,0,.46-.05,3.54-3.12a1,1,0,0,0-1.42-1.42l-2.83,2.83A1,1,0,0,0,17.15,36.85Z"/><path d="M33,5V1a1,1,0,0,0-2,0V5A1,1,0,0,0,33,5Z"/></g></svg>