<svg xmlns="http://www.w3.org/2000/svg" viewBox="0 0 64 64"><title>No Chemical</title><g id="No_Chemical" data-name="No Chemical"><path d="M64,42c0-15.63-19.51-23-29.83-11.11-.25-.33-.17,1.69-.17-25.07A3,3,0,0,0,33,0H19a3,3,0,0,0-1,5.82V30.67L1.4,52.8A7,7,0,0,0,7,64H45a7,7,0,0,0,6.87-5.72A17,17,0,0,0,64,42ZM19,2H33a1,1,0,0,1,0,2H19A1,1,0,0,1,19,2Zm.8,29.6c.3-.4.2,1.45.2-25.6H32V31c0,.42.15.54.89,1.52a17,17,0,0,0-2.18,4.66A11.43,11.43,0,0,1,26.44,36,13.73,13.73,0,0,0,17.27,35ZM45,62H7a5,5,0,0,1-4-8c9-12.06,12.27-16.25,12.15-16.18a11.86,11.86,0,0,1,10.41,0,13.61,13.61,0,0,0,4.7,1.31A17,17,0,0,0,49.65,58.77,5,5,0,0,1,45,62Zm2-5A15,15,0,1,1,62,42,15,15,0,0,1,47,57Z"/><path d="M53.33,31.8A12,12,0,0,0,36.8,48.33a1,1,0,0,0,.85.48c.59,0-.72,1.13,15.87-15.45A1,1,0,0,0,53.33,31.8ZM37.9,46.15a10,10,0,0,1-.34-7.41l3.32,4.43Zm4.41-4.41-3.78-5A10,10,0,0,1,51.15,32.9Z"/><path d="M57.2,35.67a1,1,0,0,0-1.56-.19C39.12,52,40.12,50.78,40.2,51.47a1,1,0,0,0,.47.73C51.38,58.8,63.84,46.47,57.2,35.67ZM42.85,51.1l2.27-2.27L47.48,52A9.83,9.83,0,0,1,42.85,51.1Zm6.86.52L46.55,47.4l9.55-9.55A10,10,0,0,1,49.71,51.62Z"/></g></svg>