<svg xmlns="http://www.w3.org/2000/svg" viewBox="0 0 64 64"><title>No Plastic Bottle</title><g id="No_Plastic_Bottle" data-name="No Plastic Bottle"><path d="M55,42A17,17,0,0,0,37.93,25c0-.6.07-1.26.07-2,0-7.34-6.09-11.48-8-12.59V9a1,1,0,0,0,1-1V1a1,1,0,0,0-1-1H18a1,1,0,0,0-1,1V8a1,1,0,0,0,1,1v1.41c-1.91,1.11-8,5.25-8,12.59,0,6.07,1.5,6.87,1.5,8.5S9,34.82,9,39V61a3,3,0,0,0,3,3H36a3,3,0,0,0,3-3V59A17,17,0,0,0,55,42ZM19,2H29V7H19ZM36,62H12a1,1,0,0,1-1-1c0-25-.48-23.25,1.43-26.56C15.08,29.85,12,30.77,12,23c0-7.27,7.37-11.07,7.45-11.11.72-.36.55-1,.55-2.89h8c0,2.12-.14,2.55.55,2.89C28.63,11.93,36,15.73,36,23c0,.8,0,1.51-.08,2.14A17,17,0,0,0,37,59v2A1,1,0,0,1,36,62Zm2-5A15,15,0,1,1,53,42,15,15,0,0,1,38,57Z"/><path d="M44.33,31.8C33.6,25.19,21.17,37.57,27.8,48.33a1,1,0,0,0,.85.48c.59,0-.72,1.13,15.87-15.45A1,1,0,0,0,44.33,31.8ZM28.9,46.15a10,10,0,0,1,5.78-13.57c.55,1.79,1.94,2.91,2.24,5.54Zm9.74-9.74c-.59-2.08-1.62-3.16-2-4.31a10,10,0,0,1,5.52.8Z"/><path d="M48.2,35.67a1,1,0,0,0-1.56-.19C30.12,52,31.12,50.78,31.2,51.47a1,1,0,0,0,.47.73A12,12,0,0,0,48.2,35.67ZM37,48v4a10.15,10.15,0,0,1-3.15-.85Zm2,4V46l8.1-8.1A10,10,0,0,1,39,52Z"/></g></svg>