<svg xmlns="http://www.w3.org/2000/svg" viewBox="0 0 64 64"><title>No Pesticides</title><g id="No_Pesticides" data-name="No Pesticides"><path d="M37.93,27,35,23.63V18a1,1,0,0,0-1-1H31V14a1,1,0,0,0-1-1H28V11h1a4,4,0,0,0,4-4V4a1,1,0,0,0-1-1H22a1,1,0,0,0-1,1V7a4,4,0,0,0,4,4h1v2H24a1,1,0,0,0-1,1v3H20a1,1,0,0,0-1,1v5.63L17,26H12a4,4,0,0,0-4,4V60a2,2,0,0,1-4,0V45a1,1,0,0,0,1-1V31a1,1,0,0,0-1-1V7.41l5.71-5.7A1,1,0,0,0,8.29.29l-6,6C1.86,6.72,2,5,2,30a1,1,0,0,0-1,1V44a1,1,0,0,0,1,1V60a4,4,0,0,0,8,0V30a2,2,0,0,1,2-2h3.25l-2,2.35C12.89,30.76,13,28.47,13,60a4,4,0,0,0,4,4H37a4,4,0,0,0,4-4V58.25A17,17,0,1,0,37.93,27ZM23,7V5h8V7a2,2,0,0,1-2,2H25A2,2,0,0,1,23,7Zm2,8h4v2H25Zm-4,4H33v4H21ZM15,31.37,20.46,25H33.54l2.68,3.12A17,17,0,0,0,36.38,56H15ZM39,60a2,2,0,0,1-2,2H17a2,2,0,0,1-2-2V58H39Zm7-3A15,15,0,1,1,61,42,15,15,0,0,1,46,57Z"/><path d="M52.33,31.8a12,12,0,0,0-12.72.06h0A12,12,0,0,0,35.8,48.33a1,1,0,0,0,.85.48c.59,0-.72,1.13,15.87-15.45A1,1,0,0,0,52.33,31.8ZM36.9,46.15A10,10,0,0,1,39,34.87v9.18Zm4.1-4.1v-8.7a10,10,0,0,1,9.15-.45Z"/><path d="M56.2,35.67a1,1,0,0,0-1.56-.19C38.12,52,39.12,50.78,39.2,51.47a1,1,0,0,0,.47.73A12,12,0,0,0,56.2,35.67ZM41.85,51.1,55.1,37.85A10,10,0,0,1,41.85,51.1Z"/></g></svg>