<svg xmlns="http://www.w3.org/2000/svg" viewBox="0 0 64 64"><title>No Plastic Bag</title><g id="No_Plastic_Bag" data-name="No Plastic Bag"><path d="M62,42A17,17,0,0,0,46,25.05V22c0-2-4.27-3.19-6-21.1A1,1,0,0,0,39,0H33a1,1,0,0,0-1,1V16a1,1,0,0,1-1,1H17a1,1,0,0,1-1-1V1a1,1,0,0,0-1-1H9A1,1,0,0,0,8,.9C7.3,8.19,6.44,14.61,2.15,21.47,1.93,21.83,2,19.74,2,54.53a20,20,0,0,0,2.11,8.92A1,1,0,0,0,5,64c40.83,0,38.48.28,38.89-.55A20.2,20.2,0,0,0,45.49,59,17,17,0,0,0,62,42ZM42.37,62H5.63C3.3,56.93,4,55.68,4,22.28,8.69,14.65,9.42,7.05,9.91,2H14V16a3,3,0,0,0,3,3H31a3,3,0,0,0,3-3V2h4.09c.49,5.05,1.22,12.65,5.91,20.28v2.77a17,17,0,0,0-.54,33.87A18.47,18.47,0,0,1,42.37,62ZM45,57A15,15,0,1,1,60,42,15,15,0,0,1,45,57Z"/><path d="M51.33,31.8A12,12,0,0,0,34.8,48.33a1,1,0,0,0,.85.48c.59,0-.72,1.13,15.87-15.45A1,1,0,0,0,51.33,31.8ZM35.9,46.15A10,10,0,0,1,44,32.05v6ZM46,36.05v-4a10.15,10.15,0,0,1,3.15.85Z"/><path d="M55.2,35.67a1,1,0,0,0-1.56-.19C37.12,52,38.12,50.78,38.2,51.47a1,1,0,0,0,.47.73A12,12,0,0,0,55.2,35.67ZM44,48v4a10.15,10.15,0,0,1-3.15-.85Zm2,4V46l8.1-8.1A10,10,0,0,1,46,52Z"/></g></svg>