<svg id="No_Plastics" data-name="No Plastics" xmlns="http://www.w3.org/2000/svg" viewBox="0 0 64 64"><title>No Plastics</title><path d="M62.3,33.44c-2.08-3.58.7-2.2.7-10.44,0-7.34-6.09-11.48-8-12.59V9a1,1,0,0,0,1-1V1a1,1,0,0,0-1-1H43a1,1,0,0,0-1,1V8a1,1,0,0,0,1,1c0,2.41.47.48-3,3.66C37.31,3.65,39,0,37,0H31a1,1,0,0,0-1,1V16a1,1,0,0,1-1,1H15a1,1,0,0,1-1-1V1a1,1,0,0,0-1-1C5.75,0,6.14-.46,5.92,1.78,4.37,18,0,20.45,0,22V54.53a20,20,0,0,0,2.11,8.92c.43.86-3.25.55,58.89.55a3,3,0,0,0,3-3C64,36,64.51,37.27,62.3,33.44ZM44,2H54V7H44ZM2,22.28C6.69,14.65,7.42,7.05,7.91,2H12V16a3,3,0,0,0,3,3H29a3,3,0,0,0,3-3V2h4.09a56.26,56.26,0,0,0,2.27,12.29c-3.94,4.6-4.21,10.07-2.1,16L32,34.59,21.71,24.29a1,1,0,0,0-1.42,0l-4,4a1,1,0,0,0,0,1.42L26.59,40,16.29,50.29a1,1,0,0,0,0,1.42l4,4a1,1,0,0,0,1.42,0L32,45.41l2,2c0,14.79-.07,13.86.18,14.59H3.63C1.3,56.93,2,55.68,2,22.28ZM35.29,40.71,45.59,51,43,53.59C32,42.62,32.61,43,32,43s.15-.56-11,10.59L18.41,51l10.3-10.29a1,1,0,0,0,0-1.42L18.41,29,21,26.41l10.29,10.3a1,1,0,0,0,1.42,0L43,26.41,45.59,29,35.29,39.29A1,1,0,0,0,35.29,40.71ZM62,61a1,1,0,0,1-1,1H37a1,1,0,0,1-1-1V49.41l6.29,6.3a1,1,0,0,0,1.42,0l4-4a1,1,0,0,0,0-1.42L37.41,40l10.3-10.29a1,1,0,0,0,0-1.42l-4-4a1,1,0,0,0-1.42,0l-4.47,4.48A15.67,15.67,0,0,1,37,23c0-7.27,7.37-11.07,7.45-11.11.72-.36.55-1,.55-2.89h8c0,2.12-.14,2.55.55,2.89C53.63,11.93,61,15.73,61,23c0,5.87-1.5,6.18-1.5,8.5S62,35.25,62,39Z"/></svg>