<svg xmlns="http://www.w3.org/2000/svg" viewBox="0 0 64 64"><title>Nuclear Plant</title><g id="Nuclear_Plant" data-name="Nuclear Plant"><path d="M19.23,27.36C19,27.62,14,33.77,14,38.77c0,3.82,3,6,5,6.92V48a1,1,0,0,0,2,0V45.69c2-.87,5-3.1,5-6.92,0-5-5-11.15-5.23-11.41A1,1,0,0,0,19.23,27.36ZM21,43.46V36a1,1,0,0,0-2,0v7.46c-5.34-3.05-2.59-8.86,1-13.81C23.62,34.63,26.32,40.42,21,43.46Z"/><path d="M63.92,58.6C56.17,40.7,56.84,27.18,56.84,18a1,1,0,0,0-1-1H52a2,2,0,0,1,2-2,4,4,0,0,0,3.87-3H60.5a3.5,3.5,0,0,0,0-7H51a6,6,0,0,0-5.93,5.07A6,6,0,0,0,40,16v1H36.16c-2.58,0,.65,6.38-2.36,22.74C30,21.58,33.75,14,31,14H26V12a1,1,0,0,1,1-1,4,4,0,0,0,3.87-3H38a4,4,0,0,0,0-8H25a7,7,0,0,0-6.94,6.07A6,6,0,0,0,13,12v2H9a1,1,0,0,0-1,1c0,8.71.88,24.53-7.91,43.58C0,58.85,0,58.73,0,63a1,1,0,0,0,1,1H63a1,1,0,0,0,1-1C64,58.9,64,58.88,63.92,58.6ZM42,16a4,4,0,0,1,4-4,1,1,0,0,0,1-1,4,4,0,0,1,4-4h9.5a1.5,1.5,0,0,1,0,3H57a1,1,0,0,0-1,1,2,2,0,0,1-2.07,2A3.92,3.92,0,0,0,50,16.91c0,.13.62.09-8,.09Zm-4.84,3H54.84c0,7.82-.59,21.72,6.64,39H39.65a87,87,0,0,1-4.77-13.65C37.51,33.07,37.16,26.62,37.16,19ZM15,12a4,4,0,0,1,4-4,1,1,0,0,0,1-1,5,5,0,0,1,5-5H38a2,2,0,0,1,0,4H30a1,1,0,0,0-1,1,2,2,0,0,1-2,2,3,3,0,0,0-3,3v2H15ZM10,24V16H30c0,7.4-.83,23,7.45,42H2.55A91.91,91.91,0,0,0,10,24ZM2,60H38v2H2Zm60,2H40V60H62Z"/></g></svg>