<svg xmlns="http://www.w3.org/2000/svg" viewBox="0 0 64 64"><title>O2 Oxigen</title><g id="O2_Oxigen" data-name="O2 Oxigen"><path d="M57,10a5,5,0,1,0-5-5A5,5,0,0,0,57,10Zm0-8a3,3,0,1,1-3,3A3,3,0,0,1,57,2Z"/><path d="M38,56a4,4,0,1,0,4,4A4,4,0,0,0,38,56Zm0,6a2,2,0,1,1,2-2A2,2,0,0,1,38,62Z"/><path d="M11.5,14A4.5,4.5,0,1,0,7,9.5,4.51,4.51,0,0,0,11.5,14Zm0-7A2.5,2.5,0,1,1,9,9.5,2.5,2.5,0,0,1,11.5,7Z"/><path d="M5,51a3,3,0,1,0,3,3A3,3,0,0,0,5,51Zm0,4a1,1,0,0,1,0-2A1,1,0,0,1,5,55Z"/><path d="M58.91,32.4a10.92,10.92,0,0,0-3.53-9.54c3-6.58-4.86-12.74-10.56-8.47a20.92,20.92,0,0,0-29.33,3.67A8.5,8.5,0,0,0,6.1,27.79,10,10,0,0,0,11,47a7,7,0,0,0,13.09,3.5,21,21,0,0,0,15.88,0,10.49,10.49,0,0,0,14.61-3.67A7.5,7.5,0,0,0,58.91,32.4ZM54.46,44.61a1,1,0,0,0-1.27.5,8.49,8.49,0,0,1-12.55,3.36,1,1,0,0,0-1-.09A19,19,0,0,1,24,48.23a1,1,0,0,0-1.35.55A5,5,0,0,1,13,47c0-1,.38-1.45-.17-2a1,1,0,0,0-.93-.26A8,8,0,0,1,7.56,29.38a1,1,0,0,0,.67-1.21,6.49,6.49,0,0,1,7.51-8,1,1,0,0,0,1-.39,18.92,18.92,0,0,1,27.46-3.28,1,1,0,0,0,1.34,0c4.2-4.06,10.75,1.23,7.74,6.18a1,1,0,0,0,.24,1.31,8.93,8.93,0,0,1,3.28,9,1,1,0,0,0,.78,1.2,5.5,5.5,0,1,1-3.11,10.5Z"/><path d="M28,23a5,5,0,0,0-5,5v4a5,5,0,0,0,10,0V28A5,5,0,0,0,28,23Zm3,9a3,3,0,0,1-6,0V28a3,3,0,0,1,6,0Z"/><path d="M41,35a3,3,0,0,0-6,0,1,1,0,0,0,2,0,1,1,0,0,1,2,0c0,.71-.36.77-3.6,3.2-.48.36-.4.75-.4,1.8a1,1,0,0,0,1,1h4a1,1,0,0,0,0-2H37.67C39.57,37.57,41,36.88,41,35Z"/></g></svg>