<svg xmlns="http://www.w3.org/2000/svg" viewBox="0 0 64 64"><title>Ocean</title><g id="Ocean"><path d="M9.85,43.84a5.65,5.65,0,0,0,8.85,0,5.66,5.66,0,0,0,8.86,0,5.64,5.64,0,0,0,8.85,0,5.65,5.65,0,0,0,8.86,0,5.65,5.65,0,0,0,8.86,0c2.64,3.22,7.68,2.89,9.77-1.42a1,1,0,0,0-1.81-.84c-1.56,3.2-5.47,3.24-7.06,0a1,1,0,0,0-1.81,0,3.77,3.77,0,0,1-7,0,1,1,0,0,0-1.81,0c-1.53,3.15-5.44,3.31-7.08-.06a1,1,0,0,0-1.78.06c-1.55,3.2-5.47,3.25-7.06,0a1,1,0,0,0-1.8,0c-1.56,3.22-5.48,3.22-7,0a1,1,0,0,0-1.8,0c-1.56,3.22-5.48,3.22-7,0a1,1,0,0,0-1.8,0c-1.5,3.09-5.37,3.35-7.06,0a1,1,0,0,0-1.79.89A5.72,5.72,0,0,0,9.85,43.84Z"/><path d="M62.09,50.59c-1.56,3.2-5.47,3.24-7.06,0a1,1,0,0,0-1.81,0,3.77,3.77,0,0,1-7,0,1,1,0,0,0-1.81,0c-1.53,3.15-5.44,3.31-7.08-.06a1,1,0,0,0-1.78.06c-1.55,3.2-5.47,3.25-7.06,0a1,1,0,0,0-1.8,0c-1.55,3.21-5.48,3.23-7,0a1,1,0,0,0-1.8,0c-1.56,3.22-5.48,3.22-7,0a1,1,0,0,0-1.8,0,3.78,3.78,0,0,1-7,0,1,1,0,0,0-1.8.88,5.72,5.72,0,0,0,9.75,1.4,5.65,5.65,0,0,0,8.85,0,5.66,5.66,0,0,0,8.86,0,5.64,5.64,0,0,0,8.85,0,5.65,5.65,0,0,0,8.86,0,5.65,5.65,0,0,0,8.86,0c2.64,3.22,7.68,2.89,9.77-1.42A1,1,0,0,0,62.09,50.59Z"/><path d="M62.09,59.59c-1.56,3.2-5.47,3.24-7.06,0a1,1,0,0,0-1.81,0,3.77,3.77,0,0,1-7,0,1,1,0,0,0-1.81,0c-1.53,3.15-5.44,3.31-7.08-.06a1,1,0,0,0-1.78.06c-1.55,3.2-5.47,3.25-7.06,0a1,1,0,0,0-1.8,0c-1.55,3.21-5.48,3.23-7,0a1,1,0,0,0-1.8,0c-1.56,3.22-5.48,3.22-7,0a1,1,0,0,0-1.8,0,3.78,3.78,0,0,1-7,0,1,1,0,0,0-1.8.88,5.72,5.72,0,0,0,9.75,1.4,5.65,5.65,0,0,0,8.85,0,5.66,5.66,0,0,0,8.86,0,5.64,5.64,0,0,0,8.85,0,5.65,5.65,0,0,0,8.86,0,5.65,5.65,0,0,0,8.86,0c2.64,3.22,7.68,2.89,9.77-1.42A1,1,0,0,0,62.09,59.59Z"/><path d="M32,26a9,9,0,1,0-9-9A9,9,0,0,0,32,26Zm0-16a7,7,0,1,1-7,7A7,7,0,0,1,32,10Z"/><path d="M33,5V1a1,1,0,0,0-2,0V5A1,1,0,0,0,33,5Z"/><path d="M31,29v4a1,1,0,0,0,2,0V29A1,1,0,0,0,31,29Z"/><path d="M44,18h4a1,1,0,0,0,0-2H44A1,1,0,0,0,44,18Z"/><path d="M16,18h4a1,1,0,0,0,0-2H16A1,1,0,0,0,16,18Z"/><path d="M40.49,9.51c.55,0,.46,0,3.53-3.12A1,1,0,0,0,42.61,5L39.78,7.81A1,1,0,0,0,40.49,9.51Z"/><path d="M22.81,24.78,20,27.61A1,1,0,0,0,21.39,29l2.83-2.83A1,1,0,0,0,22.81,24.78Z"/><path d="M39.78,26.19,42.61,29A1,1,0,0,0,44,27.61l-2.83-2.83A1,1,0,0,0,39.78,26.19Z"/><path d="M22.81,9.22a1,1,0,0,0,1.41-1.41L21.39,5A1,1,0,0,0,20,6.39Z"/></g></svg>