<svg xmlns="http://www.w3.org/2000/svg" viewBox="0 0 64 64"><title>Paper bag</title><g id="Paper_bag" data-name="Paper bag"><path d="M53,16H46V7c0-.6.13-.29-6.29-6.71C39.27-.14,39.52,0,25,0c-.56,0-.32-.09-6.71,6.29-.42.42-.29.07-.29,9.71H11a1,1,0,0,0-1,1V63a1,1,0,0,0,1,1H53a1,1,0,0,0,1-1V17A1,1,0,0,0,53,16Zm-9,0H40V3.41l4,4ZM26,16V8H38v8ZM38,6H26V2H38ZM20,7.41l4-4V16H20ZM52,62H12V18H52Z"/><path d="M40.3,39.33c1.66-1,2.13-1.08,2-1.88s-.78-.85-4.52-1.85a1,1,0,0,0-.76.1c-.47.27-.37.26-1.48,4.39a1,1,0,0,0,1,1.26c.36,0,.41-.08,2-1,2.07,3.59,2.34,3.72,2,4.38s-1,.51-4.37.55a1,1,0,0,0,0,2l3.53,0a3,3,0,0,0,2.56-4.5Z"/><path d="M32.71,45.56c-2.9-2.9-3.06-3.33-3.86-3s-.62.83-.62,2.69c-4.11,0-4.36.17-4.75-.49s-.09-.85,1.77-4.11a1,1,0,0,0-1.74-1c-1.57,2.77-2.86,4.2-1.75,6.1a3,3,0,0,0,2.59,1.49h3.88c0,1.93-.13,2.39.62,2.7a1,1,0,0,0,1.09-.22L32.72,47A1,1,0,0,0,32.71,45.56Z"/><path d="M36.33,32.46l-1.73-3a3,3,0,0,0-3-1.47c-1.89.23-2.28,1.58-4.14,4.81-1.67-1-2-1.31-2.65-.81s-.34,1.09.66,4.83a1,1,0,0,0,1,.74c.19,0,0,0,4.06-1a1,1,0,0,0,.24-1.84l-1.53-.88,1.92-3.34a1,1,0,0,1,1.74,0l1.73,3A1,1,0,0,0,36.33,32.46Z"/></g></svg>