<svg xmlns="http://www.w3.org/2000/svg" viewBox="0 0 64 64"><title>Protection</title><g id="Protection"><path d="M53,8.92C39.28,8.32,32.77,5,31.7,5.3A82,82,0,0,1,11,8.92a1,1,0,0,0-1,1V27.8A32.47,32.47,0,0,0,31.66,58.67a1,1,0,0,0,.68,0A32.47,32.47,0,0,0,54,27.8V9.92A1,1,0,0,0,53,8.92ZM32,56.67a30.86,30.86,0,0,1-11.75-7.78c8.07-6.48,15.37-6.53,23.5,0A30.86,30.86,0,0,1,32,56.67Zm9.45-34.56c-3.43,0-6.46,3-8.33,5.44a9.61,9.61,0,0,1,9.49-8.18H47v1A9.62,9.62,0,0,1,37.39,30H33.8c1.65-2.42,4.68-5.89,7.65-5.89A1,1,0,0,0,41.45,22.11Zm-18.9-.37c3,0,6,3.47,7.65,5.89H26.61A9.62,9.62,0,0,1,17,18V17h4.39a9.61,9.61,0,0,1,9.49,8.18C29,22.76,26,19.74,22.55,19.74A1,1,0,0,0,22.55,21.74ZM52,27.8a30.71,30.71,0,0,1-6.93,19.59C41,44.1,37,42.31,33,42.06V32h4.39A11.63,11.63,0,0,0,49,20.39v-2a1,1,0,0,0-1-1H42.61a11.59,11.59,0,0,0-10.1,5.91A11.64,11.64,0,0,0,21.39,15H16a1,1,0,0,0-1,1v2A11.63,11.63,0,0,0,26.61,29.63H31V42.06c-3.95.25-8,2-12.07,5.33A30.71,30.71,0,0,1,12,27.8V10.87A83.41,83.41,0,0,0,32,7.3a83.5,83.5,0,0,0,20,3.57Z"/><path d="M58,4A77.23,77.23,0,0,1,32.32.05C30.76-.46,24.4,4,6,4A1,1,0,0,0,5,5V27.8A37.65,37.65,0,0,0,31.71,64a1.14,1.14,0,0,0,.58,0A37.65,37.65,0,0,0,59,27.8V5A1,1,0,0,0,58,4ZM57,27.8A35.64,35.64,0,0,1,32,62,35.64,35.64,0,0,1,7,27.8C7,3.61,6.84,6,7.35,6A78.79,78.79,0,0,0,32,2.05,78.79,78.79,0,0,0,56.65,6C57.16,6,57,3.61,57,27.8Z"/></g></svg>