<svg xmlns="http://www.w3.org/2000/svg" viewBox="0 0 64 64"><title>Save Water</title><g id="Save_Water" data-name="Save Water"><path d="M31,63V56c0-3.63-2.85-9.37-5.55-11.17-3.15-2.1-5.26-8-7.77-8.88-.79-.27-1.6-.24-1.85.07-1,1.23,4.13,8.44,4.9,9.31a1,1,0,0,1-1.26,1.52C10,41.22,8.32,40.19,4.13,30.15,3.9,29.59,3.79,29,3,29a1,1,0,0,0-1,1c0,1.58,3.84,11.42,6.71,14.29A89.39,89.39,0,0,0,18.6,53.2C23,56.53,22,62.9,22,63.16a1,1,0,0,1-2-.32c0-.06.84-5.45-2.61-8A91.88,91.88,0,0,1,7.29,45.71C4.13,42.55,0,32.25,0,30a3,3,0,0,1,5.66-1.38c4.28,10.12,5.54,10.67,10.78,14-1.45-2.31-3.84-5.79-2.17-7.86,1-1.21,2.73-1.16,4.05-.72,3.48,1.16,5.41,7.23,8.23,9.12C29.81,45.34,33,51.69,33,56v7A1,1,0,0,1,31,63Z"/><path d="M31,63V56c0-4.31,3.19-10.66,6.45-12.83,2.82-1.88,4.76-8,8.23-9.12,1.32-.44,3.08-.49,4,.72,1.67,2.08-.72,5.55-2.17,7.86,5.13-3.27,6.55-3.9,10.75-13.94A3,3,0,0,1,64,30c0,2.25-4.13,12.55-7.29,15.71A91.88,91.88,0,0,1,46.6,54.8c-3.45,2.59-2.62,8-2.61,8a1,1,0,0,1-2,.32c0-.26-1-6.63,3.39-10a89.39,89.39,0,0,0,9.89-8.91C58.16,41.42,62,31.58,62,30a1,1,0,0,0-1.88-.46c-4.37,10.6-5.89,11.57-15.59,17.31a1,1,0,0,1-1.26-1.52c.74-.84,5.89-8.07,4.9-9.31-.25-.31-1.06-.34-1.85-.07-2.5.83-4.62,6.79-7.77,8.88C35.85,46.63,33,52.37,33,56v7A1,1,0,0,1,31,63Z"/><path d="M32,38A13,13,0,0,1,19,25C19,13.74,30.76.86,31.27.32a1,1,0,0,1,1.46,0C33.24.86,45,13.74,45,25A13,13,0,0,1,32,38ZM32,2.52C29.43,5.53,21,16.08,21,25a11,11,0,0,0,22,0C43,16.08,34.57,5.53,32,2.52Z"/><path d="M34.55,31.52A7,7,0,0,0,39,25a1,1,0,0,1,2,0,9.07,9.07,0,0,1-5.72,8.38A1,1,0,0,1,34.55,31.52Z"/></g></svg>