<svg xmlns="http://www.w3.org/2000/svg" viewBox="0 0 64 64"><title>Save Earth</title><g id="Save_Earth" data-name="Save Earth"><path d="M58.31,28.69c-4.18,10-5.62,10.67-10.75,13.94,1.45-2.31,3.84-5.79,2.17-7.86-1-1.21-2.72-1.16-4-.72-3.5,1.17-5.37,7.21-8.23,9.12C35.3,44.6,33.2,47.84,32,51.11c-1.2-3.27-3.3-6.51-5.45-7.94-2.82-1.88-4.76-8-8.23-9.12-1.32-.44-3.08-.49-4.05.72-1.67,2.08.73,5.57,2.17,7.86-5.22-3.32-6.53-3.94-10.78-14A3,3,0,0,0,0,30c0,2.25,4.13,12.55,7.29,15.71A91.88,91.88,0,0,0,17.4,54.8c3.46,2.59,2.62,8,2.61,8a1,1,0,0,0,2,.32c0-.26,1.05-6.63-3.39-10a89.39,89.39,0,0,1-9.89-8.91C5.84,41.42,2,31.58,2,30a1,1,0,0,1,1.85-.53C8.29,40.09,9.54,41,19.47,46.85a1,1,0,0,0,1.26-1.52c-.78-.88-5.89-8.08-4.9-9.31.25-.31,1.06-.34,1.85-.07,2.5.83,4.61,6.78,7.77,8.88C28.14,46.63,31,52.37,31,56v7a1,1,0,0,0,2,0V56c0-3.63,2.86-9.37,5.55-11.17,3.15-2.09,5.27-8,7.77-8.88.79-.27,1.6-.24,1.85.07,1,1.23-4.17,8.48-4.9,9.31a1,1,0,0,0,1.26,1.52c9.55-5.59,11.21-6.81,15.34-16.7.26-.63.41-1.15,1.13-1.15a1,1,0,0,1,1,1c0,1.58-3.84,11.42-6.71,14.29A89.39,89.39,0,0,1,45.4,53.2C41,56.53,42,62.9,42,63.16a1,1,0,0,0,2-.32c0-.06-.85-5.45,2.61-8a91.88,91.88,0,0,0,10.11-9.09C59.87,42.55,64,32.25,64,30A3,3,0,0,0,58.31,28.69Z"/><path d="M34.36,37.85A19,19,0,0,0,50.85,16.64C48.82.42,28.59-5.75,17.79,6.38,6.24,19.42,17,40,34.36,37.85ZM16.05,13.11a8.69,8.69,0,0,1,1.74,1.3c.75,5.68,2.72,5.8,5.26,6.53a14.62,14.62,0,0,1,3.26,1.18,5.23,5.23,0,0,1,1.12,1.05c0,.24-1.55,1,1.21,3.54a7.58,7.58,0,0,1,.75.73c0,.28-.11.93-.18,1.42-.79,5.29-.31,5,2.47,7.11A17,17,0,0,1,16.05,13.11ZM19,8c.64-.06,5.77-.54,5.73.07A2.8,2.8,0,0,0,26,9.6a1.1,1.1,0,0,0,1.64,0,2.57,2.57,0,0,1,.53-.11c.77-.11,2.28,1.8,1.66,2.42a6.12,6.12,0,0,0-2.67,4.3c-1,.16-2.48.17-3.25,1.17A1.79,1.79,0,0,0,23.58,19c-.7-.2-1.41-.41-2-.62-.38-.14-1.34-.83-1.8-4.32-.12-1-1.17-1.73-2.89-2.81A17.36,17.36,0,0,1,19,8ZM29.2,22.27a6.11,6.11,0,0,1,1.42-.39c1.72-.21,5.48,1.08,5.59,1.92C36.35,25,34,27.19,32.62,29a7.69,7.69,0,0,0-1.36,4.13l-.3-.23c-.38-.91.54-4.81.42-5.75-.15-1.16-1.7-2-2.3-2.81A1.88,1.88,0,0,0,29.2,22.27ZM32.89,36a1,1,0,0,0,.38-.89c-.1-.89-.14-3.48.92-4.85,1.63-2.09,4.28-4.33,4-6.66-.35-2.72-6-3.88-7.82-3.65s-2.46.94-2.83.64c.1,0-1.79-1.28-2-2,.76-.48,3.87,0,3.61-2a3.94,3.94,0,0,1,1.79-2.94c2.74-1.82-.47-7.28-4.05-5.82-.4-.33-.05-.65-1.13-1.49-.42-.32-1.15-.61-4.5-.42a16.88,16.88,0,0,1,5.26-2.92,1,1,0,0,0,.54.3c1.44.29,3,1,3.11,1.36.27,2.52,1.78,5.83,4.13,5.83,1.46,0,1.7-1,3.4-2.45,1.11-1,2.47-2.12,1.75-4.24a17.22,17.22,0,0,1,4.17,2.9c-1.37,1.46-3.66,1.44-3.67,3,0,1.26,1.71,1.83,3.92,2.83.49.21-2.12-.38-3.21,1-.19.24-1.82,2.4-1.55,4.53.32,2.51,5.22,2.2,5.81,2.93.32,2.53.78,5.2,1.75,6.65A16.9,16.9,0,0,1,32.89,36ZM37.08,2.79A3.44,3.44,0,0,0,37.4,4c.85,1.76-1,1.93-2.69,4.09-.28.36-.45.31-.53.29-.68-.2-1.79-1.74-2-4a3.21,3.21,0,0,0-2.07-2.26A16.8,16.8,0,0,1,37.08,2.79Zm8,5.35A16.9,16.9,0,0,1,47.49,12c-.93-.63-2.93-1.41-4.87-2.35C44.87,8.57,44.91,7.94,45.08,8.14Zm2.7,17.14c-1.58-5,.53-5.91-4.58-6.93a7.31,7.31,0,0,1-2.11-.61,5.18,5.18,0,0,1,1.13-3c.73-.77,5.16.53,5.92-1A16.81,16.81,0,0,1,47.78,25.28Z"/></g></svg>