<svg xmlns="http://www.w3.org/2000/svg" viewBox="0 0 64 64"><title>Soil</title><g id="Soil"><path d="M56,9.21A12.74,12.74,0,0,0,57,.8,1,1,0,0,0,56,0a12.34,12.34,0,0,0-7.16,1.86c-7-2.49-26.69-2.49-33.68,0A12.34,12.34,0,0,0,8,0,1,1,0,0,0,7,.8,12.74,12.74,0,0,0,8,9.21c-2.54,19.57-2.54,26,0,45.58A12.74,12.74,0,0,0,7,63.2,1,1,0,0,0,8,64a12.34,12.34,0,0,0,7.16-1.86c7,2.49,26.69,2.49,33.68,0A12.34,12.34,0,0,0,56,64a1,1,0,0,0,1-.8A12.74,12.74,0,0,0,56,54.79C58.64,34.79,58.58,28.78,56,9.21ZM54.89,47.39c-20.15,3.41-25.63,3.41-45.78,0-1.47-13.94-1.46-16.95,0-30.78,20.15-3.41,25.63-3.41,45.78,0C56.32,30.22,56.38,33.24,54.89,47.39ZM8.84,2c5.39.27,5.31,2.5,6.6,1.88,5.16-2.52,27.88-2.54,33.11,0,1.29.65,1.22-1.6,6.61-1.87.65,4.71-1.27,6.25-1.15,7.11,0,0,.3,2.26.66,5.41-19.84-3.32-25.47-3.32-45.34,0,.36-3.15.66-5.38.66-5.41C10.11,8.22,8.18,6.76,8.84,2ZM55.16,62c-5.37-.27-5.31-2.49-6.6-1.88-5.16,2.52-27.88,2.54-33.11,0-1.28-.64-1.24,1.6-6.61,1.87a9.92,9.92,0,0,1,1-6.43c.32-.47.18-.19-.5-6.09,19.84,3.32,25.47,3.32,45.34,0-.68,5.95-.81,5.62-.5,6.09A9.92,9.92,0,0,1,55.16,62Z"/><path d="M32,18A14,14,0,1,0,46,32,14,14,0,0,0,32,18Zm1,26V36.57h.74c3.69,0,7.26-2.74,7.26-7.86a1,1,0,0,0-1-1c-2.18,0-5.14-.24-7.51,2.88A7.28,7.28,0,0,0,25.74,26H24a1,1,0,0,0-1,1c0,5,3.48,7.86,7.26,7.86.88,0,.74,0,.74.11v9a12,12,0,1,1,2,0Zm0-9.38a5.27,5.27,0,0,1,5.24-4.86H39a5.26,5.26,0,0,1-5.24,4.86Zm-2-1.71h-.72A5.27,5.27,0,0,1,25,28h.72A5.26,5.26,0,0,1,31,32.86Z"/></g></svg>