<svg xmlns="http://www.w3.org/2000/svg" viewBox="0 0 64 64"><title>sprout</title><g id="sprout"><path d="M40,21A15,15,0,0,0,55,6V4a1,1,0,0,0-1-1H46a15,15,0,0,0-13.45,8.41A15,15,0,0,0,18,0H10A1,1,0,0,0,9,1V3A15,15,0,0,0,24,18h7V34H11a1,1,0,0,0-1,1v6a1,1,0,0,0,1,1h1.2l4.89,21.22a1,1,0,0,0,1,.78H45.93a1,1,0,0,0,1-.78L51.8,42H53a1,1,0,0,0,1-1V35a1,1,0,0,0-1-1H33V21Zm5.14,41H18.86l-4.6-20H49.74ZM52,40H12V36H52ZM46,5h7V6A13,13,0,0,1,40,19H33.88c1.93-2.69,6.35-8,11.12-8a1,1,0,0,0,0-2c-5.07,0-9.52,4.62-11.94,7.74A13,13,0,0,1,46,5ZM11,3V2h7A13,13,0,0,1,30.94,13.74C28.52,10.62,24.07,6,19,6a1,1,0,0,0,0,2c4.77,0,9.19,5.31,11.12,8H24A13,13,0,0,1,11,3Z"/></g></svg>