<svg xmlns="http://www.w3.org/2000/svg" viewBox="0 0 64 64"><title>Trash</title><g id="Trash"><path d="M31.56,30.09a1,1,0,0,0,1,1.26c.36,0,.41-.08,2-1,.09.16,1.87,3.25,2,3.39a1,1,0,0,1-.85,1.49l-3.52,0a1,1,0,0,0,0,2c3.16,0,5,.33,6.09-1.57a3,3,0,0,0,0-3l-2-3.38c1.64-.95,2.12-1.09,2-1.88s-.69-.82-4.52-1.85a1,1,0,0,0-.76.1C32.57,26,32.67,26,31.56,30.09Z"/><path d="M20.35,37.26h3.88V39a1,1,0,0,0,1,1c.57,0,.54-.13,3.48-3.07a1,1,0,0,0,.29-.71c0-.54-.12-.53-3.06-3.47a1,1,0,0,0-1.71.7v1.77H20.35a1,1,0,0,1-.87-1.49l1.77-3.11a1,1,0,0,0-1.74-1l-1.77,3.11A3,3,0,0,0,20.35,37.26Z"/><path d="M21.49,26.82a1,1,0,0,0,1,.74c.19,0,0,0,4.06-1a1,1,0,0,0,.24-1.84l-1.53-.88,1.92-3.34a1,1,0,0,1,1.74,0l1.73,3a1,1,0,0,0,1.73-1c-1.5-2.6-2.16-4.64-4.52-4.49-2.1.13-2.61,1.85-4.33,4.83l-1.54-.89A1,1,0,0,0,20.48,23C21.67,27.49,21.49,26.72,21.49,26.82Z"/><path d="M54.55,6h-4c-4-6-3.82-6-4.54-6C7.64,0,9.61-.22,9.17.45L5.46,6H3A1,1,0,0,0,2,7v4a1,1,0,0,0,1,1H5.11L11,63.11A1,1,0,0,0,12,64c7.59,0,7.12,0,7.43-.11s.43-.37,1.19-1.89H39.36A9,9,0,1,0,47.6,46.39L50.91,12H58a4,4,0,1,0-3.45-6Zm-44-4H45.46l2.67,4H7.87ZM52,55a7,7,0,1,1-7-7A7,7,0,0,1,52,55Zm-6.38-9a9,9,0,0,0-8.1,14H20c-.73,0-.84.44-1.62,2H12.89L7.12,12H48.9ZM58,10H4V8c55.26,0,51.75.3,52.11-.65A2,2,0,1,1,58,10Z"/><path d="M41,55a4,4,0,1,0,4-4A4,4,0,0,0,41,55Zm6,0a2,2,0,1,1-2-2A2,2,0,0,1,47,55Z"/></g></svg>