<svg xmlns="http://www.w3.org/2000/svg" viewBox="0 0 64 64"><title>Tshirt</title><g id="Tshirt"><path d="M40.3,30.33c1.66-1,2.13-1.08,2-1.88s-.78-.85-4.52-1.85a1,1,0,0,0-.76.1c-.47.27-.37.26-1.48,4.39a1,1,0,0,0,1,1.26c.36,0,.41-.08,2-1,2.07,3.59,2.34,3.72,2,4.38s-1,.51-4.37.55a1,1,0,0,0,0,2l3.53,0a3,3,0,0,0,2.56-4.5Z"/><path d="M32.71,36.56c-2.9-2.9-3.06-3.33-3.86-3s-.62.83-.62,2.69c-4.11,0-4.36.17-4.75-.49s-.09-.85,1.77-4.11a1,1,0,0,0-1.74-1c-1.57,2.77-2.86,4.2-1.75,6.1a3,3,0,0,0,2.59,1.49h3.88c0,1.93-.13,2.39.62,2.7a1,1,0,0,0,1.09-.22L32.72,38A1,1,0,0,0,32.71,36.56Z"/><path d="M36.33,23.46l-1.73-3a3,3,0,0,0-3-1.47c-1.89.23-2.28,1.58-4.14,4.81-1.67-1-2-1.31-2.65-.81s-.34,1.09.66,4.83a1,1,0,0,0,1,.74c.19,0,0,0,4.06-1a1,1,0,0,0,.24-1.84l-1.53-.88,1.92-3.34a1,1,0,0,1,1.74,0l1.73,3A1,1,0,0,0,36.33,23.46Z"/><path d="M63.92,25.6,56.12,7.66A11,11,0,0,0,47.7,1.17C42.94.44,40.12,0,40,0a35.59,35.59,0,0,1-8,1,34.91,34.91,0,0,1-8-1c-.62,0-7.59,1.16-7.7,1.17A11,11,0,0,0,7.88,7.66L.08,25.6A1,1,0,0,0,.5,26.86L12,33.57V60c0,3.81,16.66,4,20,4s20-.19,20-4V33.57l11.5-6.71A1,1,0,0,0,63.92,25.6ZM38.75,2.31c-1.88,4.9-11.62,4.9-13.5,0A33.53,33.53,0,0,0,38.75,2.31ZM52,31.26V20a1,1,0,0,0-2,0V59.83C49,60.74,42.18,62,32,62s-17-1.26-18-2.17V20a1,1,0,0,0-2,0V31.26L2.27,25.58,9.72,8.46A9,9,0,0,1,16.6,3.15l6.53-1C23.84,5.46,27.54,8,32,8s8.16-2.54,8.87-5.85l6.53,1a9,9,0,0,1,6.88,5.31l7.45,17.12Z"/></g></svg>