<svg xmlns="http://www.w3.org/2000/svg" viewBox="0 0 64 64"><title>Waste</title><g id="Waste"><path d="M43,32h8a1,1,0,0,0,1-1V29H63a1,1,0,0,0,0-2H52V5H63a1,1,0,0,0,0-2H52V1a1,1,0,0,0-1-1H43a1,1,0,0,0-1,1V5A31,31,0,0,0,12,36V46c-5.29.21-5.56-2-11-2a1,1,0,0,0,0,2c4.68,0,5.13,2,10.34,2s5.59-2,10.34-2S26.81,48,32,48s5.59-2,10.33-2,5.13,2,10.33,2S58.26,46,63,46a1,1,0,0,0,0-2c-5.18,0-5.59,2-10.33,2s-5.13-2-10.33-2c-4,0-5.1,1.11-7.34,1.67V37a8,8,0,0,1,7-7.93V31A1,1,0,0,0,43,32ZM44,2h6V30H44ZM33,37v9c-4.31.26-5.38-1-8-1.63V40a1,1,0,0,0-2,0v4c-5-.37-6.4,1.15-9,1.7V36A29,29,0,0,1,42,7v3a26,26,0,0,0-18.49,8.76A1,1,0,0,0,25,20.11,24,24,0,0,1,42,12v9a13.9,13.9,0,0,0-2.33.32,1,1,0,0,0,.44,1.94A11.94,11.94,0,0,1,42,23.06v4A10,10,0,0,0,33,37Z"/><path d="M31.43,19.68a20,20,0,0,0-8.31,14.23,1,1,0,1,0,2,.2,18,18,0,0,1,7.49-12.79A1,1,0,0,0,31.43,19.68Z"/><path d="M38.83,16.44a19.5,19.5,0,0,0-3.21,1A1,1,0,0,0,36,19.34c.47,0,1-.47,3.25-.94A1,1,0,0,0,38.83,16.44Z"/><path d="M17.77,29.73A33.42,33.42,0,0,0,17,39a1,1,0,0,0,1,1c2.08,0,.08-3.34,1.71-9.77A1,1,0,0,0,17.77,29.73Z"/><path d="M28.67,31.54C27.86,34.17,28,35.28,28,42a1,1,0,0,0,2,0c0-6.14-.17-7.48.58-9.9A1,1,0,0,0,28.67,31.54Z"/><path d="M63,52c-5.18,0-5.59,2-10.33,2s-5.13-2-10.33-2S36.73,54,32,54s-5.13-2-10.33-2-5.6,2-10.34,2S6.2,52,1,52a1,1,0,0,0,0,2c4.68,0,5.13,2,10.34,2s5.59-2,10.34-2S26.81,56,32,56s5.59-2,10.33-2,5.13,2,10.33,2S58.26,54,63,54A1,1,0,0,0,63,52Z"/><path d="M63,60c-5.18,0-5.59,2-10.33,2s-5.13-2-10.33-2S36.73,62,32,62s-5.13-2-10.33-2-5.6,2-10.34,2S6.2,60,1,60a1,1,0,0,0,0,2c4.68,0,5.13,2,10.34,2s5.59-2,10.34-2S26.81,64,32,64s5.59-2,10.33-2,5.13,2,10.33,2S58.26,62,63,62A1,1,0,0,0,63,60Z"/></g></svg>