<svg xmlns="http://www.w3.org/2000/svg" viewBox="0 0 64 64"><title>Water Recycle</title><g id="Water_Recycle" data-name="Water Recycle"><path d="M9.37,9.37,7.25,11.49c-1.9-1.9-2.33-2.66-3.18-2.35S3.49,9,2.72,20.62a1,1,0,0,0,1.06,1.06c11.2-.74,11.16-.51,11.48-1.35s-.26-1.09-2.35-3.18L15,15c15-15,41-4.35,41,17a1,1,0,0,0,1,1h6a1,1,0,0,0,1-1C64,3.56,29.4-10.65,9.37,9.37ZM58,31C57.14,8.51,29.64-2.41,13.62,13.62l-2.83,2.82a1,1,0,0,0,0,1.42l1.27,1.27-7.27.48.48-7.26,1.27,1.27a1,1,0,0,0,1.42,0l2.83-2.83C29.35-7.77,61.14,5,62,31Z"/><path d="M60.22,42.32c-11.2.74-11.16.51-11.48,1.35s.26,1.09,2.35,3.18L49,49C34,64,8,53.32,8,32a1,1,0,0,0-1-1H1a1,1,0,0,0-1,1C0,60.51,34.64,74.61,54.63,54.63l2.12-2.12c1.9,1.9,2.33,2.66,3.18,2.35s.58.11,1.35-11.48A1,1,0,0,0,60.22,42.32Zm-1.49,9.33-1.27-1.27a1,1,0,0,0-1.42,0l-2.83,2.83C34.66,71.77,2.86,59,2,33H6c.84,22.49,28.34,33.41,44.36,17.38l2.83-2.82a1,1,0,0,0,0-1.42l-1.27-1.27,7.27-.48Z"/><path d="M45,38c0-11.26-11.76-24.14-12.27-24.68a1,1,0,0,0-1.46,0C30.76,13.86,19,26.74,19,38a13,13,0,0,0,26,0ZM21,38c0-8.92,8.43-19.47,11-22.48,2.57,3,11,13.56,11,22.48a11,11,0,0,1-22,0Z"/><path d="M35.28,46.38A9.07,9.07,0,0,0,41,38a1,1,0,0,0-2,0,7,7,0,0,1-4.45,6.52A1,1,0,0,0,35.28,46.38Z"/></g></svg>