<svg xmlns="http://www.w3.org/2000/svg" viewBox="0 0 64 64"><title>Water Filtration</title><g id="Faucet"><path d="M1,27H63a1,1,0,0,0,0-2H1A1,1,0,0,0,1,27Z"/><path d="M63,37H1a1,1,0,0,0,0,2H63A1,1,0,0,0,63,37Z"/><path d="M6,29H2a1,1,0,0,0,0,2H6A1,1,0,0,0,6,29Z"/><path d="M14,29H10a1,1,0,0,0,0,2h4A1,1,0,0,0,14,29Z"/><path d="M22,29H18a1,1,0,0,0,0,2h4A1,1,0,0,0,22,29Z"/><path d="M30,29H26a1,1,0,0,0,0,2h4A1,1,0,0,0,30,29Z"/><path d="M38,29H34a1,1,0,0,0,0,2h4A1,1,0,0,0,38,29Z"/><path d="M46,29H42a1,1,0,0,0,0,2h4A1,1,0,0,0,46,29Z"/><path d="M54,29H50a1,1,0,0,0,0,2h4A1,1,0,0,0,54,29Z"/><path d="M62,29H58a1,1,0,0,0,0,2h4A1,1,0,0,0,62,29Z"/><path d="M6,33H2a1,1,0,0,0,0,2H6A1,1,0,0,0,6,33Z"/><path d="M14,33H10a1,1,0,0,0,0,2h4A1,1,0,0,0,14,33Z"/><path d="M22,33H18a1,1,0,0,0,0,2h4A1,1,0,0,0,22,33Z"/><path d="M30,33H26a1,1,0,0,0,0,2h4A1,1,0,0,0,30,33Z"/><path d="M38,33H34a1,1,0,0,0,0,2h4A1,1,0,0,0,38,33Z"/><path d="M46,33H42a1,1,0,0,0,0,2h4A1,1,0,0,0,46,33Z"/><path d="M54,33H50a1,1,0,0,0,0,2h4A1,1,0,0,0,54,33Z"/><path d="M62,33H58a1,1,0,0,0,0,2h4A1,1,0,0,0,62,33Z"/><path d="M29,16a1,1,0,0,0-2,0A1,1,0,0,0,29,16Z"/><path d="M30,13a1,1,0,0,0,0-2A1,1,0,0,0,30,13Z"/><path d="M35,14a1,1,0,0,0,0-2A1,1,0,0,0,35,14Z"/><path d="M33,9a1,1,0,0,0,0-2A1,1,0,0,0,33,9Z"/><path d="M34,17a1,1,0,0,0,0,2A1,1,0,0,0,34,17Z"/><path d="M52,16a1,1,0,0,0-2,0A1,1,0,0,0,52,16Z"/><path d="M59,15a1,1,0,0,0,0-2A1,1,0,0,0,59,15Z"/><path d="M54,10a1,1,0,0,0,0-2A1,1,0,0,0,54,10Z"/><path d="M54,13a1,1,0,0,0,2,0A1,1,0,0,0,54,13Z"/><path d="M55,18a1,1,0,0,0,2,0A1,1,0,0,0,55,18Z"/><path d="M6,14a1,1,0,0,0,0-2A1,1,0,0,0,6,14Z"/><path d="M12,15a1,1,0,0,0,0-2A1,1,0,0,0,12,15Z"/><path d="M12,19a1,1,0,0,0,0-2A1,1,0,0,0,12,19Z"/><path d="M6,18a1,1,0,0,0,2,0A1,1,0,0,0,6,18Z"/><path d="M9,10A1,1,0,0,0,9,8,1,1,0,0,0,9,10Z"/><path d="M31.27,41.32C31,41.64,24,49.27,24,56a8,8,0,0,0,16,0c0-6.73-7-14.36-7.27-14.68A1,1,0,0,0,31.27,41.32ZM32,62a6,6,0,0,1-6-6c0-4.75,4.25-10.36,6-12.47,1.75,2.11,6,7.72,6,12.47A6,6,0,0,1,32,62Z"/><path d="M31,60c0,2.28,6,.65,6-4a1,1,0,0,0-2,0,3,3,0,0,1-3,3A1,1,0,0,0,31,60Z"/><path d="M8.27,41.32C8,41.64,1,49.27,1,56a8,8,0,0,0,16,0c0-6.73-7-14.36-7.27-14.68A1,1,0,0,0,8.27,41.32ZM9,62a6,6,0,0,1-6-6c0-4.75,4.25-10.36,6-12.47,1.75,2.11,6,7.72,6,12.47A6,6,0,0,1,9,62Z"/><path d="M8,60c0,2.28,6,.65,6-4a1,1,0,0,0-2,0,3,3,0,0,1-3,3A1,1,0,0,0,8,60Z"/><path d="M54.27,41.32C54,41.64,47,49.27,47,56a8,8,0,0,0,16,0c0-6.73-7-14.36-7.27-14.68A1,1,0,0,0,54.27,41.32ZM55,62a6,6,0,0,1-6-6c0-4.75,4.25-10.36,6-12.47,1.75,2.11,6,7.72,6,12.47A6,6,0,0,1,55,62Z"/><path d="M54,60c0,2.28,6,.65,6-4a1,1,0,0,0-2,0,3,3,0,0,1-3,3A1,1,0,0,0,54,60Z"/><path d="M32,23a8,8,0,0,0,8-8C40,8.27,33,.64,32.73.32a1,1,0,0,0-1.46,0C31,.64,24,8.27,24,15A8,8,0,0,0,32,23ZM32,2.53c1.75,2.11,6,7.72,6,12.47a6,6,0,0,1-12,0C26,10.25,30.25,4.64,32,2.53Z"/><path d="M9,23a8,8,0,0,0,8-8C17,8.27,10,.64,9.73.32a1,1,0,0,0-1.46,0C8,.64,1,8.27,1,15A8,8,0,0,0,9,23ZM9,2.53c1.75,2.11,6,7.72,6,12.47A6,6,0,0,1,3,15C3,10.25,7.25,4.64,9,2.53Z"/><path d="M55,23a8,8,0,0,0,8-8C63,8.27,56,.64,55.73.32a1,1,0,0,0-1.46,0C54,.64,47,8.27,47,15A8,8,0,0,0,55,23ZM55,2.53c1.75,2.11,6,7.72,6,12.47a6,6,0,0,1-12,0C49,10.25,53.25,4.64,55,2.53Z"/></g></svg>