<svg xmlns="http://www.w3.org/2000/svg" viewBox="0 0 64 64"><title>Wind Turbin Energy</title><g id="Wind_Turbin_Energy" data-name="Wind Turbin Energy"><path d="M63,62H27a4,4,0,0,0-3-3.86c0-26.1.37-18.56-1.41-31.33,15.5,8.94,14.91,8.88,16.1,8.56a2.14,2.14,0,0,0,1.59-2.07c0-1.18,0-.88-8.88-10.42a4.62,4.62,0,0,0-4.52-1.3L24,22.37A4,4,0,0,0,22,19.54V2.15a2.15,2.15,0,0,0-4.21-.63L14.21,13.18a4.54,4.54,0,0,0,1.12,4.57l2.15,2.15A4,4,0,0,0,16,23c0,.1,1-.56-15.06,8.7A2.15,2.15,0,0,0,2.5,35.65C14.81,32.83,15.38,33,16.75,31.52c-1,7.23-.75,1.18-.75,26.62A4,4,0,0,0,13,62H1a1,1,0,0,0,0,2H63A1,1,0,0,0,63,62ZM20.68,21.13A2,2,0,1,1,18,23,2,2,0,0,1,20.68,21.13Zm-1.27,5.8a2.6,2.6,0,0,0,1.18,0C22.37,39.7,22,32.88,22,58H18C18,32.88,17.63,39.7,19.41,26.93Zm8-3.41a2.57,2.57,0,0,1,2.53.72c8.92,9.61,8.37,9,8.34,9.13s.6.52-14.81-8.37C23.89,24.28,23,24.7,27.4,23.52Zm-11.4-9c0-.52-.24.42,3.7-12.42a.15.15,0,0,1,.3,0V19l-.55,0C16.86,16.44,16,15.94,16,14.53ZM14,31C1.31,33.87,2,33.78,1.88,33.63S1.13,33.9,16.54,25c.07.13.23.36.3.46C15.94,28.83,15.9,30.52,14,31Zm1,31a2,2,0,0,1,2-2h6a2,2,0,0,1,2,2Z"/><path d="M37,12H55a1,1,0,0,0,0-2H37a4,4,0,0,1-2.84-6.83A4.67,4.67,0,0,1,38,2a1,1,0,0,0,0-2c-1.8,0-3.49,0-5.25,1.76A6,6,0,0,0,37,12Z"/><path d="M59,12h4a1,1,0,0,0,0-2H59A1,1,0,0,0,59,12Z"/><path d="M38,16a1,1,0,0,0,0,2h1a1,1,0,0,0,0-2Z"/><path d="M53,16H43a1,1,0,0,0,0,2H53A1,1,0,0,0,53,16Z"/><path d="M30,18h4a1,1,0,0,0,0-2H30A1,1,0,0,0,30,18Z"/><path d="M53,24h7a1,1,0,0,0,0-2H53A1,1,0,0,0,53,24Z"/><path d="M46,24h3a1,1,0,0,0,0-2H46a5,5,0,0,0,0,10,1,1,0,0,0,0-2,3,3,0,0,1,0-6Z"/><path d="M43,6H60a1,1,0,0,0,0-2H43A1,1,0,0,0,43,6Z"/></g></svg>