<?xml version="1.0" encoding="utf-8"?>
<svg width="549px" height="520px" viewBox="0 0 549 520" version="1.1" xmlns:xlink="http://www.w3.org/1999/xlink" xmlns="http://www.w3.org/2000/svg">
  <desc>Created with Lunacy</desc>
  <g id="icons8-recycle-Copy-3">
    <path d="M198.128 21.6609L171.284 0.0125816L141.008 0.0125816C116.625 -0.377418 86.8987 8.24593 69.3626 33.3504L68.0193 35.546L14.502 128.135L104.239 180.55L190.906 36.1054L198.128 21.6609ZM425.707 360.173C445.915 359.768 488.945 308.547 465.661 256.749L464.794 254.092L411.263 161.531L328.128 209.44L414.795 361.106L425.707 360.173ZM2.03645 407.881C-7.61247 425.893 17.1454 483.787 73.7822 489.521L76.4255 489.969L183.488 489.969L190.906 382.773L10.3497 382.773L2.03645 407.881Z" transform="translate(76.50151 0.00035815846)" id="Shape" fill="#298D56" fill-rule="evenodd" stroke="none" />
    <path d="M255.36 17.2842C246.448 3.0183 234.601 0.557066 227.014 0.21083L377.373 0.21083C392.294 -1.19029 398.418 4.54418 402.39 12.8931L439.686 77.8499L469.445 65.0005L415.939 165.196L296.111 158.89L327.308 142.85L255.36 17.2842ZM227.014 0.21083L221.184 0.21083C221.57 0.21083 222.017 0.201117 222.518 0.190221C223.729 0.163891 225.257 0.130651 227.014 0.21083ZM85.782 445.274C76.682 427.088 74.5297 414.478 81.9686 401.291L154.393 275.826L180.74 288.884L129.375 188.018L14.6288 194.995L42.0007 211.288L4.25725 276.216C-0.538323 283.684 -2.73388 291.556 5.60059 303.892L85.782 445.274ZM536.868 331.119C523.84 349.984 513.396 359.156 498.042 359.604L498.042 359.575L353.597 359.575L354.074 339.44L289.969 424.98L354.074 519.996L353.626 489.099L428.694 489.099C437.447 489.952 445.81 487.727 451.921 474.149L536.868 331.119Z" id="Shape" fill="#4CBD64" fill-rule="evenodd" stroke="none" />
  </g>
</svg>