<svg xmlns="http://www.w3.org/2000/svg" xmlns:xlink="http://www.w3.org/1999/xlink" viewBox="0 0 64 64"><defs><style>.cls-1{fill:url(#linear-gradient);}.cls-2{fill:url(#linear-gradient-2);}.cls-3{fill:url(#linear-gradient-3);}.cls-4{fill:#42455e;}.cls-5{fill:#575f7c;}.cls-6{fill:url(#linear-gradient-4);}.cls-7{fill:#dd8b37;}.cls-8{fill:url(#linear-gradient-5);}.cls-9{fill:url(#linear-gradient-6);}</style><linearGradient id="linear-gradient" x1="32" y1="9" x2="32" y2="5" gradientUnits="userSpaceOnUse"><stop offset="0" stop-color="#949aaf"/><stop offset="1" stop-color="#c6ccda"/></linearGradient><linearGradient id="linear-gradient-2" x1="32" y1="63" x2="32" y2="59" xlink:href="#linear-gradient"/><linearGradient id="linear-gradient-3" x1="32" y1="59" x2="32" y2="9" gradientUnits="userSpaceOnUse"><stop offset="0" stop-color="#474f72"/><stop offset="1" stop-color="#878c9f"/></linearGradient><linearGradient id="linear-gradient-4" x1="32" y1="48" x2="32" y2="20" gradientUnits="userSpaceOnUse"><stop offset="0" stop-color="#e9a254"/><stop offset="1" stop-color="#f4bb79"/></linearGradient><linearGradient id="linear-gradient-5" x1="32" y1="37" x2="32" y2="31" xlink:href="#linear-gradient"/><linearGradient id="linear-gradient-6" x1="41" y1="5" x2="41" y2="1" xlink:href="#linear-gradient-3"/></defs><title>Barrel</title><g id="Barrel"><path class="cls-1" d="M53,9H11a2,2,0,0,1,0-4H53A2,2,0,0,1,53,9Z"/><path class="cls-2" d="M53,63H11a2,2,0,0,1,0-4H53A2,2,0,0,1,53,63Z"/><rect class="cls-3" x="11" y="9" width="42" height="50"/><rect class="cls-4" x="11" y="56" width="42" height="3"/><rect class="cls-5" x="11" y="9" width="42" height="3"/><circle class="cls-6" cx="32" cy="34" r="14"/><path class="cls-7" d="M32,48A14,14,0,0,1,18.08,32.5a14,14,0,0,0,27.84,0A14,14,0,0,1,32,48Z"/><path class="cls-4" d="M30.5,36.6,27,42.66A10,10,0,0,1,22,34h7A3,3,0,0,0,30.5,36.6Z"/><path class="cls-4" d="M37,25.34,33.5,31.4a3,3,0,0,0-3,0L27,25.34A10,10,0,0,1,37,25.34Z"/><path class="cls-4" d="M42,34a10,10,0,0,1-5,8.66L33.5,36.6A3,3,0,0,0,35,34Z"/><circle class="cls-8" cx="32" cy="34" r="3"/><polygon class="cls-9" points="47 5 35 5 37 1 45 1 47 5"/><path d="M54,58.18V9.82A3,3,0,0,0,53,4H47.62C45.84.44,45.82,0,45,0c-8.62,0-8.52-.2-8.89.55L34.38,4H11a3,3,0,0,0-1,5.82V58.18A3,3,0,0,0,11,64H53A3,3,0,0,0,54,58.18ZM19,34A13,13,0,1,1,32,47,13,13,0,0,1,19,34Zm1.85,10H12V24h8.85A14.91,14.91,0,0,0,20.85,44Zm22.3-20H52V44H43.15A14.91,14.91,0,0,0,43.15,24ZM52,22H41A14.88,14.88,0,0,0,23,22H12V10H52ZM12,46H23A14.88,14.88,0,0,0,41,46H52V58H12ZM37.62,2h6.76l1,2H36.62ZM11,6H53a1,1,0,0,1,0,2H11A1,1,0,0,1,11,6ZM53,62H11a1,1,0,0,1,0-2H53A1,1,0,0,1,53,62Z"/><path d="M33.07,37.85c3.32,5.76,3.16,5.81,3.93,5.81,1.19,0,6-3.74,6-9.66a1,1,0,0,0-1-1H35.87a4,4,0,0,0-1.07-1.85l3.07-5.31a1,1,0,0,0-.37-1.37,11.2,11.2,0,0,0-11,0,1,1,0,0,0-.37,1.37l3.07,5.31A4,4,0,0,0,28.13,33H22a1,1,0,0,0-1,1,11.06,11.06,0,0,0,5.5,9.53,1.05,1.05,0,0,0,.76.1c.54-.15.31,0,3.67-5.78A3.89,3.89,0,0,0,33.07,37.85ZM31,35.73A2,2,0,1,1,34,34,2,2,0,0,1,31,35.73Zm6.34,5.52-2.54-4.4A4,4,0,0,0,35.87,35h5.07A9.07,9.07,0,0,1,37.34,41.25Zm-1.73-15.5-2.54,4.4a4,4,0,0,0-2.14,0l-2.54-4.4A9.15,9.15,0,0,1,35.61,25.75Zm-8.95,15.5A9.07,9.07,0,0,1,23.06,35h5.07a4.11,4.11,0,0,0,1.07,1.85Z"/></g></svg>