<svg xmlns="http://www.w3.org/2000/svg" xmlns:xlink="http://www.w3.org/1999/xlink" viewBox="0 0 64 64"><defs><style>.cls-1{fill:url(#linear-gradient);}.cls-2{fill:url(#linear-gradient-2);}.cls-3{fill:#8288a1;}.cls-4{fill:url(#linear-gradient-3);}.cls-5{fill:#4da67f;}.cls-6{fill:url(#linear-gradient-4);}.cls-7{fill:#c7cdd8;}.cls-8{fill:#dfe3ea;}.cls-9{fill:url(#linear-gradient-5);}.cls-10{fill:#78c19b;}</style><linearGradient id="linear-gradient" x1="57" y1="19" x2="57" y2="12" gradientUnits="userSpaceOnUse"><stop offset="0" stop-color="#949aaf"/><stop offset="1" stop-color="#c6ccda"/></linearGradient><linearGradient id="linear-gradient-2" x1="57" y1="23" x2="57" y2="19" xlink:href="#linear-gradient"/><linearGradient id="linear-gradient-3" x1="16" y1="63" x2="16" y2="1" gradientUnits="userSpaceOnUse"><stop offset="0" stop-color="#6ab891"/><stop offset="1" stop-color="#85cba9"/></linearGradient><linearGradient id="linear-gradient-4" x1="16" y1="59" x2="16" y2="11" gradientUnits="userSpaceOnUse"><stop offset="0" stop-color="#d4d8e1"/><stop offset="1" stop-color="#f3f4f5"/></linearGradient><linearGradient id="linear-gradient-5" x1="16" y1="42" x2="16" y2="25" gradientUnits="userSpaceOnUse"><stop offset="0" stop-color="#8cdd79"/><stop offset="1" stop-color="#d4e6b6"/></linearGradient></defs><title>Battery</title><g id="Battery"><path class="cls-1" d="M52,12H62a0,0,0,0,1,0,0v4a3,3,0,0,1-3,3H55a3,3,0,0,1-3-3V12A0,0,0,0,1,52,12Z"/><rect class="cls-2" x="55" y="19" width="4" height="4"/><rect class="cls-3" x="55" y="21" width="4" height="2"/><path class="cls-4" d="M31,9V61a2,2,0,0,1-2,2H3a2,2,0,0,1-2-2V9A2,2,0,0,1,3,7H9V1H23V7h6A2,2,0,0,1,31,9Z"/><path class="cls-5" d="M31,58v3a2,2,0,0,1-2,2H3a2,2,0,0,1-2-2V58a2,2,0,0,0,2,2H29A2,2,0,0,0,31,58Z"/><rect class="cls-6" x="5" y="11" width="22" height="48"/><rect class="cls-7" x="5" y="56" width="22" height="3"/><rect class="cls-8" x="5" y="11" width="22" height="3"/><path class="cls-9" d="M21,35.77C21,40.46,16,42,16,42s-5-1.54-5-6.23S16,25,16,25,21,31.07,21,35.77Z"/><rect class="cls-10" x="9" y="1" width="14" height="6"/><path d="M27,10H5a1,1,0,0,0-1,1V59a1,1,0,0,0,1,1H27a1,1,0,0,0,1-1V11A1,1,0,0,0,27,10ZM26,58H6V12H26Z"/><path d="M15,42.69V45a1,1,0,0,0,2,0V42.69c2-.87,5-3.1,5-6.92,0-5-5-11.15-5.23-11.41a1,1,0,0,0-1.54,0C15,24.62,10,30.77,10,35.77,10,39.59,13,41.82,15,42.69Zm1-16c3.62,5,6.32,10.77,1,13.81V33a1,1,0,0,0-2,0v7.45C9.66,37.41,12.4,31.6,16,26.65Z"/><path d="M63,11H61V7a1,1,0,0,0-2,0v4H55V7a1,1,0,0,0-2,0v4H51a1,1,0,0,0,0,2v3a4,4,0,0,0,3,3.86V23a1,1,0,0,0,1,1h1V56a6,6,0,0,1-12,0V47a8,8,0,0,0-8-8H32V9a3,3,0,0,0-3-3H24V1a1,1,0,0,0-1-1H9A1,1,0,0,0,8,1V6H3A3,3,0,0,0,0,9V61a3,3,0,0,0,3,3H29a3,3,0,0,0,3-3V41h4a6,6,0,0,1,6,6v9a8,8,0,0,0,16,0V24h1a1,1,0,0,0,1-1V19.86A4,4,0,0,0,63,16V13A1,1,0,0,0,63,11ZM30,61a1,1,0,0,1-1,1H3a1,1,0,0,1-1-1V9A1,1,0,0,1,3,8H9a1,1,0,0,0,1-1V2H22V7a1,1,0,0,0,1,1h6a1,1,0,0,1,1,1ZM58,22H56V20h2Zm3-6a2,2,0,0,1-2,2H55a2,2,0,0,1-2-2V13h8Z"/></g></svg>