<svg xmlns="http://www.w3.org/2000/svg" xmlns:xlink="http://www.w3.org/1999/xlink" viewBox="0 0 64 64"><defs><style>.cls-1{fill:url(#linear-gradient);}.cls-2{fill:url(#linear-gradient-2);}.cls-3{fill:#5b8dc9;}.cls-4{fill:#c7cdd8;}.cls-5{fill:url(#linear-gradient-3);}.cls-6{fill:url(#linear-gradient-4);}.cls-7{fill:#7ece67;}.cls-8{fill:#dfe3ea;}</style><linearGradient id="linear-gradient" x1="32" y1="63" x2="32" y2="28" gradientUnits="userSpaceOnUse"><stop offset="0" stop-color="#d4d8e1"/><stop offset="1" stop-color="#f3f4f5"/></linearGradient><linearGradient id="linear-gradient-2" x1="32" y1="60" x2="32" y2="46.11" gradientUnits="userSpaceOnUse"><stop offset="0" stop-color="#7aa8d7"/><stop offset="1" stop-color="#c3d2e7"/></linearGradient><linearGradient id="linear-gradient-3" x1="24" y1="13.63" x2="24" y2="1" gradientUnits="userSpaceOnUse"><stop offset="0" stop-color="#8cdd79"/><stop offset="1" stop-color="#d4e6b6"/></linearGradient><linearGradient id="linear-gradient-4" x1="40" y1="16" x2="40" y2="3.37" gradientTransform="translate(80 19.37) rotate(-180)" xlink:href="#linear-gradient-3"/></defs><title>Bio Chemical</title><g id="Bio_Chemical" data-name="Bio Chemical"><path class="cls-1" d="M37,42V28H27V42L15.07,55.77A4.37,4.37,0,0,0,18.37,63H45.63A4.37,4.37,0,0,0,50,58.63C50,56.45,50.07,57.09,37,42Z"/><path class="cls-2" d="M47,58.3v.29A1.37,1.37,0,0,1,45.63,60H18.37a1.31,1.31,0,0,1-1.24-.8,1.35,1.35,0,0,1,.2-1.47L27.4,46.12C32.19,46,33,48.68,38.14,47.87c1.13,1.31,2.13,2.46,3,3.47A87.31,87.31,0,0,1,47,58.3Z"/><path class="cls-3" d="M47,58.3v.29A1.37,1.37,0,0,1,45.63,60H18.37a1.31,1.31,0,0,1-1.24-.8,1.35,1.35,0,0,1,.2-1.47l.09-.11a1.25,1.25,0,0,0,.95.38H45.63a1.31,1.31,0,0,0,.92-.36A4.56,4.56,0,0,1,47,58.3Z"/><path class="cls-4" d="M45.63,63H18.37a4.36,4.36,0,0,1-4.25-5.37A4.36,4.36,0,0,0,18.37,61H45.63a4.37,4.37,0,0,0,4.25-3.37A4.37,4.37,0,0,1,45.63,63Z"/><path class="cls-5" d="M16,1h5.39A10.61,10.61,0,0,1,32,11.61v2a0,0,0,0,1,0,0H26.61A10.61,10.61,0,0,1,16,3V1A0,0,0,0,1,16,1Z"/><path class="cls-6" d="M42.61,3.37H48a0,0,0,0,1,0,0v2A10.61,10.61,0,0,1,37.39,16H32a0,0,0,0,1,0,0V14A10.61,10.61,0,0,1,42.61,3.37Z" transform="translate(80 19.37) rotate(180)"/><path class="cls-5" d="M16,1h5.39A10.61,10.61,0,0,1,32,11.61v2a0,0,0,0,1,0,0H26.61A10.61,10.61,0,0,1,16,3V1A0,0,0,0,1,16,1Z"/><path class="cls-6" d="M42.61,3.37H48a0,0,0,0,1,0,0v2A10.61,10.61,0,0,1,37.39,16H32a0,0,0,0,1,0,0V14A10.61,10.61,0,0,1,42.61,3.37Z" transform="translate(80 19.37) rotate(180)"/><path class="cls-7" d="M32,11.63v2H26.61A10.61,10.61,0,0,1,16,3V1A10.61,10.61,0,0,0,26.61,11.63Z"/><path class="cls-7" d="M48,3.39v2A10.61,10.61,0,0,1,37.39,16H32V14h5.39A10.61,10.61,0,0,0,48,3.39Z"/><path class="cls-8" d="M27,24H37a2,2,0,0,1,0,4H27A2,2,0,0,1,27,24Z"/><path d="M49.69,55.11,38,41.63V28.82A3,3,0,0,0,37,23H33V17h4.39A11.63,11.63,0,0,0,49,5.39v-2a1,1,0,0,0-1-1H42.61a11.59,11.59,0,0,0-10.1,5.91A11.63,11.63,0,0,0,21.39,0H16a1,1,0,0,0-1,1V3A11.63,11.63,0,0,0,26.61,14.63H31V23H27a3,3,0,0,0-1,5.82V41.63L14.31,55.11A5.38,5.38,0,0,0,18.37,64H45.63A5.38,5.38,0,0,0,49.69,55.11ZM42.61,4.37H47v1A9.62,9.62,0,0,1,37.39,15H33.8c1.65-2.42,4.68-5.89,7.65-5.89a1,1,0,0,0,0-2c-3.43,0-6.46,3-8.33,5.44A9.61,9.61,0,0,1,42.61,4.37ZM17,3V2h4.39a9.61,9.61,0,0,1,9.49,8.18C29,7.76,26,4.74,22.55,4.74a1,1,0,0,0,0,2c3,0,6,3.47,7.65,5.89H26.61A9.62,9.62,0,0,1,17,3ZM39.61,46.54A10.46,10.46,0,0,1,33,46.35V29h3V42C36,42.5,35.9,42.26,39.61,46.54ZM27,25H37a1,1,0,0,1,0,2H27A1,1,0,0,1,27,25Zm.76,17.66c.34-.41.24.48.24-13.66h3V45.55a13,13,0,0,0-5.53-.26ZM45.63,62H18.37A3.37,3.37,0,0,1,15,58.63c0-1.66.14-1.42,8.24-10.77,2.56-.83,5.86-1.17,8.36,0a12.27,12.27,0,0,0,9.44.28l7.14,8.23A3.38,3.38,0,0,1,45.63,62Z"/></g></svg>