<svg xmlns="http://www.w3.org/2000/svg" xmlns:xlink="http://www.w3.org/1999/xlink" viewBox="0 0 64 64"><defs><style>.cls-1{fill:url(#linear-gradient);}.cls-2{fill:url(#linear-gradient-2);}.cls-3{fill:url(#linear-gradient-3);}.cls-4{fill:url(#linear-gradient-4);}.cls-5{fill:#cf4055;}.cls-6{fill:#fcd2c3;}.cls-7{fill:url(#linear-gradient-5);}.cls-8{fill:url(#linear-gradient-6);}.cls-9{fill:url(#linear-gradient-7);}.cls-10{fill:#7ece67;}</style><linearGradient id="linear-gradient" x1="3.72" y1="16.48" x2="63" y2="16.48" gradientUnits="userSpaceOnUse"><stop offset="0" stop-color="#6ab891"/><stop offset="1" stop-color="#85cba9"/></linearGradient><linearGradient id="linear-gradient-2" x1="60.28" y1="47.52" x2="1" y2="47.52" xlink:href="#linear-gradient"/><linearGradient id="linear-gradient-3" x1="32" y1="50" x2="32" y2="22.68" gradientUnits="userSpaceOnUse"><stop offset="0" stop-color="#f2c4b0"/><stop offset="0.71" stop-color="#ffe3d7"/></linearGradient><linearGradient id="linear-gradient-4" x1="32" y1="50" x2="32" y2="43" gradientUnits="userSpaceOnUse"><stop offset="0" stop-color="#da5466"/><stop offset="1" stop-color="#f4929c"/></linearGradient><linearGradient id="linear-gradient-5" x1="38.5" y1="30" x2="38.5" y2="22.68" xlink:href="#linear-gradient-4"/><linearGradient id="linear-gradient-6" x1="25.5" y1="30" x2="25.5" y2="22.68" xlink:href="#linear-gradient-4"/><linearGradient id="linear-gradient-7" x1="37" y1="22" x2="37" y2="15" gradientUnits="userSpaceOnUse"><stop offset="0" stop-color="#8cdd79"/><stop offset="1" stop-color="#d4e6b6"/></linearGradient></defs><title>biodegradability</title><g id="biodegradability"><path class="cls-1" d="M63,32H57C57,10,30.15-1.51,14.32,14.32l-2.83,2.83L14.32,20l-10.6.71.7-10.61,2.83,2.83,2.83-2.83C29.67-9.51,63,4.63,63,32Z"/><path class="cls-2" d="M60.28,43.31l-.7,10.61-2.83-2.83-2.83,2.83C34.33,73.51,1,59.37,1,32H7C7,54,33.85,65.51,49.68,49.68l2.83-2.83L49.68,44Z"/><path class="cls-3" d="M44,45s-3,5-7,5c-3,0-3-1-5-1s-2,1-5,1c-4,0-7-5-7-5a10.93,10.93,0,0,0,5-9c0-3.89-2.88-7.44-6-9,5-6,13-4,13-4s8-2,13,4c-3,1.51-6,5-6,9A11,11,0,0,0,44,45Z"/><path class="cls-4" d="M44,45s-3,5-7,5c-3,0-3-1-5-1s-2,1-5,1c-4,0-7-5-7-5,4,1,8-2,8-2,1.33,2.65,6.66,2.68,8,0C36,43,40,46,44,45Z"/><path class="cls-5" d="M43.67,45.5C42.79,46.77,40.22,50,37,50c-3,0-3-1-5-1s-2,1-5,1c-3.22,0-5.79-3.23-6.67-4.5C25.67,50.07,29.47,47,32,47S38.33,50.07,43.67,45.5Z"/><path class="cls-6" d="M45,27a12.63,12.63,0,0,0-2.33,1.62c-2.77.05-4.91,2.44-6.67,4.21C33.77,30.58,33.36,30,32,30s-1.68.49-4,2.83c-1.83-1.85-3.92-4.16-6.67-4.21A12.63,12.63,0,0,0,19,27c5-6,13-4,13-4S40,21,45,27Z"/><path class="cls-7" d="M45,27q-4.5-1.5-9,3a5.2,5.2,0,0,0-4-2V23S40,21,45,27Z"/><path class="cls-8" d="M32,23v5a5.2,5.2,0,0,0-4,2q-4.5-4.5-9-3C24,21,32,23,32,23Z"/><path class="cls-9" d="M35,22H32a7,7,0,0,1,7-7h3A7,7,0,0,1,35,22Z"/><path class="cls-10" d="M42,15a7,7,0,0,1-7,7H32a6.91,6.91,0,0,1,.29-2c3,0,5.3.31,7.66-2.05A6.93,6.93,0,0,0,41.71,15Z"/><path d="M9.37,9.37,7.25,11.49c-1.9-1.9-2.33-2.67-3.18-2.35S3.49,9,2.72,20.62a1,1,0,0,0,1.06,1.06c11.2-.74,11.16-.51,11.48-1.35s-.26-1.09-2.35-3.18L15,15c15-15,41-4.35,41,17a1,1,0,0,0,1,1h6a1,1,0,0,0,1-1C64,3.56,29.4-10.65,9.37,9.37ZM58,31C57.14,8.51,29.64-2.41,13.62,13.62l-2.83,2.82a1,1,0,0,0,0,1.42l1.27,1.27-7.27.48.48-7.26,1.27,1.27a1,1,0,0,0,1.42,0l2.83-2.83C29.35-7.77,61.14,5,62,31Z"/><path d="M60.22,42.32c-11.2.74-11.16.51-11.48,1.35s.26,1.09,2.35,3.18L49,49C34,64,8,53.32,8,32a1,1,0,0,0-1-1H1a1,1,0,0,0-1,1C0,60.51,34.64,74.61,54.63,54.63l2.12-2.12c1.9,1.89,2.33,2.66,3.18,2.35s.58.11,1.35-11.48A1,1,0,0,0,60.22,42.32Zm-1.49,9.33-1.27-1.27a1,1,0,0,0-1.42,0l-2.83,2.83C34.66,71.77,2.86,59,2,33H6c.84,22.49,28.34,33.41,44.36,17.38l2.83-2.82a1,1,0,0,0,0-1.42l-1.27-1.27,7.27-.48Z"/><path d="M18,27.07a1,1,0,0,0,.54.82c.06,0,5.45,2.82,5.45,8.11a10,10,0,0,1-4.51,8.14,1,1,0,0,0-.36,1.34C20.51,48,23.78,51,27,51s3.39-1,5-1,1.87,1,5,1,6.5-3,7.87-5.52a1,1,0,0,0,.12-.33h0a1.06,1.06,0,0,0-.15-.67C44.51,43.94,40,41.62,40,36c0-5.29,5.39-8.08,5.45-8.11a1,1,0,0,0,.33-1.52,12.67,12.67,0,0,0-7.05-4.3A8,8,0,0,0,43,15a1,1,0,0,0-1-1c-3.34,0-6.8-.4-9.5,3.35A7.47,7.47,0,0,0,27.2,13a1,1,0,0,0-.4,2c.18,0,4.2.89,4.2,5v1.81c-2.57-.33-8.58-.48-12.77,4.55A1.1,1.1,0,0,0,18,27.07ZM32,48c-2.59,0-5.46,3.2-9.86-1.81a12.61,12.61,0,0,0,5.63-1.85,6.2,6.2,0,0,0,8.46,0,12.62,12.62,0,0,0,5.63,1.84C37.47,51.2,34.59,48,32,48Zm9.41-3.85A11.68,11.68,0,0,1,36.6,42.2a1,1,0,0,0-1.49.34c-1,1.94-5.16,2-6.22,0a1,1,0,0,0-1.49-.35,11.68,11.68,0,0,1-4.81,1.95c4.43-4.53,4.95-11.68-.83-16.48,4.38.38,5.52,4.46,7,3,.95-1,1.7-1.71,3.29-1.71,2.55,0,2.91,2,4,2s2.35-2.65,5.66-3.27c.22,0,.49-.05.59-.06C36.52,32.42,36.93,39.57,41.41,44.15ZM39,16h1.92A6,6,0,0,1,35,21H33.08A6,6,0,0,1,39,16Zm-7.24,8c.53.13,5.71-1.47,10.3,1.68a10.78,10.78,0,0,0-6.05,3,5.73,5.73,0,0,0-8,0,10.78,10.78,0,0,0-6-3C26.28,22.68,31.5,23.91,31.76,24Z"/><path d="M29,35v1a1,1,0,0,0,2,0V35A1,1,0,0,0,29,35Z"/><path d="M33,35v1a1,1,0,0,0,2,0V35A1,1,0,0,0,33,35Z"/></g></svg>