<svg xmlns="http://www.w3.org/2000/svg" xmlns:xlink="http://www.w3.org/1999/xlink" viewBox="0 0 64 64"><defs><style>.cls-1{fill:url(#linear-gradient);}.cls-2{fill:url(#linear-gradient-2);}.cls-3{fill:url(#linear-gradient-3);}.cls-4{fill:#78c19b;}.cls-5{fill:url(#linear-gradient-4);}.cls-6{fill:#c7cdd8;}.cls-7{fill:#4da67f;}.cls-8{fill:url(#linear-gradient-5);}.cls-9{fill:#dfe3ea;}</style><linearGradient id="linear-gradient" x1="19" y1="11" x2="19" y2="7" gradientUnits="userSpaceOnUse"><stop offset="0" stop-color="#949aaf"/><stop offset="1" stop-color="#c6ccda"/></linearGradient><linearGradient id="linear-gradient-2" x1="19" y1="7" x2="19" y2="1" gradientUnits="userSpaceOnUse"><stop offset="0" stop-color="#d4d8e1"/><stop offset="1" stop-color="#f3f4f5"/></linearGradient><linearGradient id="linear-gradient-3" x1="31.5" y1="63" x2="31.5" y2="1" gradientUnits="userSpaceOnUse"><stop offset="0" stop-color="#6ab891"/><stop offset="1" stop-color="#85cba9"/></linearGradient><linearGradient id="linear-gradient-4" x1="32" y1="50" x2="32" y2="22" xlink:href="#linear-gradient-2"/><linearGradient id="linear-gradient-5" x1="32" y1="43" x2="32" y2="26" gradientUnits="userSpaceOnUse"><stop offset="0" stop-color="#8cdd79"/><stop offset="1" stop-color="#d4e6b6"/></linearGradient></defs><title>Biofuel</title><g id="Biofuel"><rect class="cls-1" x="12" y="7" width="14" height="4"/><rect class="cls-2" x="14" y="1" width="10" height="6"/><path class="cls-3" d="M53.66,6.26A6,6,0,0,0,47.7,1H35.4a6,6,0,0,0-5.15,2.91L26,11H11.54a3,3,0,0,0-2.95,2.49c-.79,4.7-.59,3.93-.59,40a42.73,42.73,0,0,0,.59,7A3,3,0,0,0,11.54,63H51.46a3,3,0,0,0,3-2.51C55.21,55.81,55,56.9,55,17Zm-5.39,4c-1,1-1,.73-11.77.73a2.51,2.51,0,0,1-1.77-4.27c1-1,1-.73,11.77-.73A2.51,2.51,0,0,1,48.27,10.27Z"/><path class="cls-4" d="M54.41,13.49A3,3,0,0,0,51.46,11H11.54a3,3,0,0,0-2.95,2.49,42.73,42.73,0,0,0-.59,7c0,6.72-.21.72.59-4.05A3,3,0,0,1,11.54,14H51.46a3,3,0,0,1,2.95,2.49A42.73,42.73,0,0,1,55,23.54,52.63,52.63,0,0,0,54.41,13.49Z"/><circle class="cls-5" cx="32" cy="36" r="14"/><path class="cls-6" d="M32,50A14,14,0,0,1,18.08,34.5a14,14,0,0,0,27.84,0A14,14,0,0,1,32,50Z"/><path class="cls-7" d="M54.42,57.49a3,3,0,0,1-3,2.51H11.54a3,3,0,0,1-2.95-2.49,42.73,42.73,0,0,1-.59-7,52.72,52.72,0,0,0,.59,10A3,3,0,0,0,11.54,63H51.46a3,3,0,0,0,3-2.51,42.39,42.39,0,0,0,.58-7C55,46.7,55.2,52.83,54.42,57.49Z"/><path class="cls-8" d="M37,36.77C37,41.46,32,43,32,43s-5-1.54-5-6.23S32,26,32,26,37,32.07,37,36.77Z"/><rect class="cls-9" x="14" y="1" width="10" height="2"/><path d="M54.65,6.13A7,7,0,0,0,47.7,0H35.4a7,7,0,0,0-6,3.4C25.29,10.25,28.24,6,26,6H25V1a1,1,0,0,0-1-1H14a1,1,0,0,0-1,1V6H12a1,1,0,0,0-1,1v3.05a4,4,0,0,0-3.4,3.27A43.69,43.69,0,0,0,7,20.54c0,34.59-.22,35.23.6,40.14A4,4,0,0,0,11.54,64H51.46a4,4,0,0,0,3.94-3.34,43.54,43.54,0,0,0,.6-7.2C56,9.67,56.45,20.55,54.65,6.13ZM15,2h8V6H15ZM13,8H25v2H13ZM54,53.46a41.72,41.72,0,0,1-.57,6.87,2,2,0,0,1-2,1.67H11.54C8.44,62,9,59.83,9,20.54a41.87,41.87,0,0,1,.57-6.89,2,2,0,0,1,2-1.65H26c.82,0,.69-.2,5.11-7.57A5,5,0,0,1,35.4,2H47.7a5,5,0,0,1,5,4.38C54.44,20.62,54,11.15,54,53.46Z"/><path d="M46.5,5h-10a3.5,3.5,0,0,0,0,7h10a3.5,3.5,0,0,0,0-7Zm0,5h-10a1.5,1.5,0,0,1,0-3h10A1.5,1.5,0,0,1,46.5,10Z"/><path d="M31.23,25.36C31,25.62,26,31.77,26,36.77c0,3.82,3,6,5,6.92V46a1,1,0,0,0,2,0V43.69c2-.87,5-3.1,5-6.92,0-5-5-11.15-5.23-11.41A1,1,0,0,0,31.23,25.36ZM33,41.46V34a1,1,0,0,0-2,0v7.46c-5.34-3.05-2.59-8.86,1-13.81C35.62,32.63,38.32,38.42,33,41.46Z"/><path d="M32,21A15,15,0,1,0,47,36,15,15,0,0,0,32,21Zm0,28A13,13,0,1,1,45,36,13,13,0,0,1,32,49Z"/></g></svg>