<svg xmlns="http://www.w3.org/2000/svg" xmlns:xlink="http://www.w3.org/1999/xlink" viewBox="0 0 64 64"><defs><style>.cls-1{fill:url(#linear-gradient);}.cls-2{fill:#77cacb;}.cls-3{fill:url(#linear-gradient-2);}</style><linearGradient id="linear-gradient" x1="31" y1="63" x2="31" y2="1" gradientUnits="userSpaceOnUse"><stop offset="0" stop-color="#9dd5df"/><stop offset="1" stop-color="#c3e1f5"/></linearGradient><linearGradient id="linear-gradient-2" x1="16" y1="35" x2="16" y2="11" gradientUnits="userSpaceOnUse"><stop offset="0" stop-color="#d4d8e1"/><stop offset="1" stop-color="#f3f4f5"/></linearGradient></defs><title>Clean Water</title><g id="Clean_Water" data-name="Clean Water"><path class="cls-1" d="M18.3,18.06A112.21,112.21,0,0,1,31,1S52,23.39,52,42.33A20.83,20.83,0,0,1,31,63,20.83,20.83,0,0,1,10,42.33a38.8,38.8,0,0,1,3.42-14.77"/><path class="cls-2" d="M31,63A20.83,20.83,0,0,1,10.05,40.68,20.85,20.85,0,0,0,31,60,20.85,20.85,0,0,0,52,40.7,20.83,20.83,0,0,1,31,63Z"/><path class="cls-3" d="M28,23A12,12,0,0,0,16,35,12,12,0,0,0,4,23,12,12,0,0,0,16,11,12,12,0,0,0,28,23Z"/></g><g id="Recycle"><path d="M31.73.32a1,1,0,0,0-1.46,0,114.77,114.77,0,0,0-12,15.86A11.09,11.09,0,0,1,17,11a1,1,0,0,0-2,0A11,11,0,0,1,4,22a1,1,0,0,0,0,2,11,11,0,0,1,8.26,3.76A39,39,0,0,0,9,42.33a22,22,0,0,0,44,0C53,23.21,32.6,1.24,31.73.32ZM9,23a13.05,13.05,0,0,0,7-7,13.15,13.15,0,0,0,7,7,13.05,13.05,0,0,0-7,7A13.07,13.07,0,0,0,9,23ZM31,62A19.86,19.86,0,0,1,11,42.33a35.82,35.82,0,0,1,2.64-12.62c2.21,4,.55,6.29,2.36,6.29a1,1,0,0,0,1-1A11,11,0,0,1,28,24a1,1,0,0,0,0-2,10.91,10.91,0,0,1-8.49-4A114.53,114.53,0,0,1,31,2.49C34.68,6.64,51,26,51,42.33A19.86,19.86,0,0,1,31,62Z"/><path d="M47,42.33A15.86,15.86,0,0,1,31,58a1,1,0,0,0,0,2A17.86,17.86,0,0,0,49,42.33,1,1,0,0,0,47,42.33Z"/></g></svg>