<svg xmlns="http://www.w3.org/2000/svg" xmlns:xlink="http://www.w3.org/1999/xlink" viewBox="0 0 64 64"><defs><style>.cls-1{fill:#ffd9cc;}.cls-2{fill:url(#linear-gradient);}.cls-3{fill:#77cacb;}.cls-4{fill:url(#linear-gradient-2);}.cls-5{fill:url(#linear-gradient-3);}.cls-6{fill:url(#linear-gradient-4);}.cls-7{fill:url(#linear-gradient-5);}.cls-8{fill:url(#linear-gradient-6);}</style><linearGradient id="linear-gradient" x1="58" y1="63.01" x2="58" y2="29" gradientUnits="userSpaceOnUse"><stop offset="0" stop-color="#9dd5df"/><stop offset="1" stop-color="#c3e1f5"/></linearGradient><linearGradient id="linear-gradient-2" x1="28.98" y1="51.02" x2="28.98" y2="6.95" xlink:href="#linear-gradient"/><linearGradient id="linear-gradient-3" x1="29.08" y1="48.78" x2="29.08" y2="31.29" gradientUnits="userSpaceOnUse"><stop offset="0" stop-color="#6ab891"/><stop offset="1" stop-color="#85cba9"/></linearGradient><linearGradient id="linear-gradient-4" x1="18.33" y1="31.86" x2="18.33" y2="14.06" xlink:href="#linear-gradient-3"/><linearGradient id="linear-gradient-5" x1="44.94" y1="39.36" x2="44.94" y2="13.71" xlink:href="#linear-gradient-3"/><linearGradient id="linear-gradient-6" x1="30.12" y1="17.29" x2="30.12" y2="7" xlink:href="#linear-gradient-3"/></defs><title>Climate change</title><g id="Climate_change" data-name="Climate change"><path class="cls-1" d="M55,39.39A28,28,0,0,1,9.2,48.8C-8.93,30.69,5-.58,30.82,1.06A28,28,0,0,1,57,29.18Z"/><path class="cls-2" d="M61,54V32a3,3,0,0,0-6,0V54a5,5,0,1,0,6,0Z"/><path class="cls-3" d="M56.93,62.89A5,5,0,0,1,53.11,57c1,5.29,8.67,5.31,9.79,0A5,5,0,0,1,56.93,62.89Z"/><path class="cls-4" d="M50.78,32.11A22,22,0,0,1,32.73,50.68c-20.94,3.62-34.51-22-19.29-37.23C28.4-1.51,53.75,11.32,50.78,32.11Z"/><path class="cls-3" d="M32.73,50.68A22,22,0,0,1,7.06,27.5,22,22,0,0,0,51,27.59,22,22,0,0,1,32.73,50.68Z"/><path class="cls-5" d="M22.8,31.86c1.23,1,2.18-.27,4.36-.54s7.91,1.22,8.19,3.4S32.63,39.5,30.72,42s-1.38,6.82-1.38,6.82l-2.44-1.9c-1.24-1,.26-6.69.13-7.79S23.34,36.23,24.3,35,24,32.82,22.8,31.86Z"/><path class="cls-6" d="M27,21.36a5.86,5.86,0,0,0-2.72,4.77c.13,1.09-3.28.42-4.23,1.64s1.5,3.14,2.73,4.09c-1.23-.95-4.65-1.63-7-2.45s-2.86-5.19-3-6.28C12.72,22.27,10.47,21,8.92,20a22.31,22.31,0,0,1,3.62-5.6c10.78-1,7.6.39,9.55,1.9,1.22.95-.12.15,2.07-.14S29.07,20,27,21.36Z"/><path class="cls-7" d="M44.82,13.71A22,22,0,0,1,48.4,39.36C46.86,38.1,46.23,33,46,31.18c-.29-2.18-6.83-1.36-7.11-3.56S40.53,23,40.53,23c1-1.23,4.37-.55,6.55-.82s-2.46-1.91-6-3.68S43,17.11,44.82,13.71Z"/><path class="cls-8" d="M36.44,8.3a3.34,3.34,0,0,0,.27,1.86c1.5,3.14-1.52,3.82-3.43,6.28s-4.85-.8-5.31-5.18c-.19-1.81-4.77-2.74-4.77-2.74a5.26,5.26,0,0,1-.07-.72A22,22,0,0,1,36.44,8.3Z"/><path d="M24.85,6.39C6.83,9.69-.48,32.05,12.73,45.27a23,23,0,0,0,36.55-5.43C58.28,23,43.91,2.9,24.85,6.39ZM48.28,37.32c-2.46-6.39.86-7.59-5.63-8.89-.75-.15-2.72-.55-2.76-.93-.18-1.44,1-3.3,1.43-3.9s4-.21,5.88-.44c1.07-.13,1.37-.67,1.43-1.09.25-1.67-3-2.35-7.16-4.5a10.14,10.14,0,0,0,3.43-2.26A21,21,0,0,1,48.28,37.32ZM35.81,10.6c1.1,2.29-1.35,2.7-3.32,5.23-.43.56-.75.47-.89.43-.91-.26-2.33-2.18-2.64-5.11-.14-1.41-1.66-2.33-3.12-2.9A20.76,20.76,0,0,1,35.42,9,4,4,0,0,0,35.81,10.6ZM23.28,25.79c-1.11.22-3.07.17-4,1.37a2.08,2.08,0,0,0-.22,2.19c-.87-.26-2-.56-2.89-.88-.64-.23-1.79-1.23-2.35-5.46-.14-1.12-1.45-2-3.6-3.38a19.9,19.9,0,0,1,2.84-4.28c5.79-.51,6.84-.2,6.94-.16.81.63-.09.65,1.8,2.16.74.6,1.38.45,1.71,0a2.08,2.08,0,0,1,.77-.18c1.09-.13,3.19,2.36,2.18,3.37A7.14,7.14,0,0,0,23.28,25.79ZM14.15,43.85A20.93,20.93,0,0,1,9.4,21.48a10.64,10.64,0,0,1,2.44,1.83c.2,1.49.8,6,3.66,7.05,3.29,1.15,6.7,1.51,8,3.52.5.76-2.08,1.16,1.5,4.38a10.74,10.74,0,0,1,1,1,14.26,14.26,0,0,1-.22,1.89c-1,6.42-.36,5.92,2.92,8.47a1,1,0,0,0,1.61-.91s-.46-4,1.17-6.09c2-2.56,5.17-5.25,4.84-8-.41-3.18-7.17-4.53-9.32-4.26s-3,1.2-3.62.74c-2.38-1.85-2.58-2.5-2.56-2.69.64-.81,4.74,0,4.44-2.38a4.93,4.93,0,0,1,2.28-3.81c3.16-2.11-.73-8.58-4.87-6.68-.77-.64-.14-.86-1.48-1.9-.48-.38-1.43-.73-6-.43a20.78,20.78,0,0,1,7.19-4.1A1,1,0,0,0,23,9.5c1.95.4,3.92,1.32,4,1.86.59,5.57,4.61,8.89,7.09,5.69,1.7-2.17,5.3-3.41,3.6-7.17a20.45,20.45,0,0,1,5.84,4c-1.64,2-4.57,1.94-4.59,3.67,0,1.42,2,2,5.69,3.72-2,0-3.93-.06-4.87,1.14-.22.29-2.15,2.86-1.84,5.38.23,1.81,2.42,2.25,4.35,2.64.74.14,2.71.54,2.76.94.39,3.15,1,6.48,2.17,8.17A21,21,0,0,1,14.15,43.85Zm11.12-11a8.86,8.86,0,0,1,2-.57c2.12-.26,6.92,1.29,7.08,2.53s-1.44,3-2.83,4.61c-1.8,2-3.07,3.28-3.24,7.25-.9-.69-1.26-.24-.5-5.31.4-2.7.53-2.86-1.41-4.61a7.5,7.5,0,0,1-1.22-1.27A2.26,2.26,0,0,0,25.27,32.88Z"/><path d="M59,56.28V37a1,1,0,0,0-2,0V56.28a2,2,0,1,0,2,0Z"/><path d="M62,53.55V32a4,4,0,0,0-4-4,33.25,33.25,0,0,0-1.44-8A29,29,0,0,0,46.32,5.75C27.32-8.45,0,5.13,0,29,0,58.16,39,69.25,54,43.71v9.84a6,6,0,1,0,8,0ZM9.91,48.09a27,27,0,0,1,0-38.17C26.68-6.9,55.6,4.82,56,28.57A4,4,0,0,0,54,32v7.19A27,27,0,0,1,9.91,48.09Zm50.61,13a4,4,0,0,1-6.45-2.35,4,4,0,0,1,1.53-3.93c.6-.45.4.92.4-22.82a2,2,0,0,1,4,0c0,23.93-.17,22.39.4,22.82A4,4,0,0,1,60.52,61.1Z"/></g></svg>