<svg xmlns="http://www.w3.org/2000/svg" xmlns:xlink="http://www.w3.org/1999/xlink" viewBox="0 0 64 64"><defs><style>.cls-1{fill:url(#linear-gradient);}.cls-2{fill:url(#linear-gradient-2);}.cls-3{fill:url(#linear-gradient-3);}.cls-4{fill:url(#linear-gradient-4);}.cls-5{fill:#7ece67;}.cls-6{fill:url(#linear-gradient-5);}.cls-7{fill:#8a6762;}.cls-8{fill:#eab39b;}</style><linearGradient id="linear-gradient" x1="16.5" y1="64" x2="16.5" y2="28" gradientUnits="userSpaceOnUse"><stop offset="0" stop-color="#f2c4b0"/><stop offset="1" stop-color="#ffe3d7"/></linearGradient><linearGradient id="linear-gradient-2" x1="47.49" x2="47.49" y2="28" xlink:href="#linear-gradient"/><linearGradient id="linear-gradient-3" x1="21" y1="17" x2="21" y2="1" gradientUnits="userSpaceOnUse"><stop offset="0" stop-color="#8cdd79"/><stop offset="1" stop-color="#d4e6b6"/></linearGradient><linearGradient id="linear-gradient-4" x1="43" y1="20" x2="43" y2="4" gradientTransform="translate(86 24) rotate(-180)" xlink:href="#linear-gradient-3"/><linearGradient id="linear-gradient-5" x1="32" y1="56" x2="32" y2="35.02" gradientUnits="userSpaceOnUse"><stop offset="0" stop-color="#9b756d"/><stop offset="1" stop-color="#bc9388"/></linearGradient></defs><title>conserving nature</title><g id="conserving_nature" data-name="conserving nature"><path class="cls-1" d="M32,56v8H21c.49-3.86-.26-8-3-10A90.16,90.16,0,0,1,8,45C5,42,1,32,1,30a2,2,0,0,1,3.77-.92C9.18,39.54,10.22,40.22,20,46a44.72,44.72,0,0,1-4-6c-3-5-.12-5.71,2-5,3,1,5,7,8,9S32,52.11,32,56Z"/><path class="cls-2" d="M63,30c0,2-4,12-7,15a90.16,90.16,0,0,1-10,9c-2.71,2-3.51,6-3,10H32c0-8-.14-8.66.35-10.61C33.21,49.75,35.6,45.6,38,44c3-2,5-8,8-9,2.12-.71,5,0,2,5a44.72,44.72,0,0,1-4,6c9.78-5.78,10.81-6.46,15.21-16.91A2,2,0,0,1,63,30Z"/><path class="cls-3" d="M10,1h8A14,14,0,0,1,32,15v2a0,0,0,0,1,0,0H24A14,14,0,0,1,10,3V1A0,0,0,0,1,10,1Z"/><path class="cls-4" d="M46,4h8a0,0,0,0,1,0,0V6A14,14,0,0,1,40,20H32a0,0,0,0,1,0,0V18A14,14,0,0,1,46,4Z" transform="translate(86 24) rotate(180)"/><path class="cls-5" d="M32,15v2H24A14,14,0,0,1,10,3V1A14,14,0,0,0,24,15Z"/><path class="cls-5" d="M54,4V6A14,14,0,0,1,40,20H32V18h8A14,14,0,0,0,54,4Z"/><path class="cls-6" d="M40.81,40.9A11.71,11.71,0,0,1,38,44c-3,2-6,8-6,12,0-4-3-10-6-12a11.71,11.71,0,0,1-2.81-3.1C29.2,33.06,34.79,33.05,40.81,40.9Z"/><path class="cls-7" d="M40.81,40.9A11.71,11.71,0,0,1,38,44c-3,2-6,8-6,12,0-4-3-10-6-12a11.71,11.71,0,0,1-2.81-3.1l.15-.19c2.42,4.38,14.9,4.37,17.32,0Z"/><path class="cls-8" d="M32,59a3.61,3.61,0,0,1-3.24,2h-.93a9.09,9.09,0,0,1-7.53-4,14.68,14.68,0,0,1,.7,7H32C32,58.24,32,59.1,32,59Z"/><path class="cls-8" d="M43.7,57a9.09,9.09,0,0,1-7.53,4c-1.28,0-3.13.08-4.17-2v5H43A14.54,14.54,0,0,1,43.7,57Z"/><path d="M58.31,28.69c-4.18,10-5.62,10.67-10.75,13.94,1.45-2.31,3.84-5.79,2.17-7.86-1-1.21-2.73-1.16-4-.72-2.11.7-3.65,3.22-5,5.18Q36.88,34.64,33,34.11V21h7A15,15,0,0,0,55,6V4a1,1,0,0,0-1-1H46a15,15,0,0,0-13.45,8.41A15,15,0,0,0,18,0H10A1,1,0,0,0,9,1V3A15,15,0,0,0,24,18h7V34.11q-3.87.53-7.73,5.12c-1.3-2-2.86-4.48-4.95-5.18-3.51-1.18-6.37,1.13-3.18,6.47.48.8.92,1.5,1.3,2.11-5.25-3.35-6.5-3.87-10.78-14A3,3,0,0,0,0,30c0,2.25,4.13,12.55,7.29,15.71A91.88,91.88,0,0,0,17.4,54.8c3.46,2.59,2.62,8,2.61,8a1,1,0,0,0,2,.32c0-.26,1.05-6.63-3.39-10a89.39,89.39,0,0,1-9.89-8.91C5.84,41.42,2,31.58,2,30a1,1,0,0,1,1.85-.53C8.34,40.21,9.68,41.05,19.47,46.85a1,1,0,0,0,1.26-1.52c-.78-.88-5.89-8.08-4.9-9.31.25-.31,1.06-.34,1.85-.07,2.5.83,4.61,6.78,7.77,8.88C28.14,46.63,31,52.37,31,56v7a1,1,0,0,0,2,0V56c0-3.63,2.86-9.37,5.55-11.17,3.15-2.09,5.27-8,7.77-8.88.79-.27,1.6-.24,1.85.07,1,1.23-4.17,8.48-4.9,9.31a1,1,0,0,0,1.26,1.52C54.22,41.18,55.78,40,60.12,29.54A1,1,0,0,1,62,30c0,1.58-3.84,11.42-6.71,14.29A89.39,89.39,0,0,1,45.4,53.2C41,56.53,42,62.9,42,63.16a1,1,0,0,0,2-.32c0-.06-.85-5.45,2.61-8a91.88,91.88,0,0,0,10.11-9.09C59.87,42.55,64,32.25,64,30A3,3,0,0,0,58.31,28.69ZM46,5h7V6A13,13,0,0,1,40,19H33.88c1.93-2.69,6.35-8,11.12-8a1,1,0,0,0,0-2c-5.07,0-9.52,4.62-11.94,7.74A13,13,0,0,1,46,5ZM11,3V2h7A13,13,0,0,1,30.94,13.74C28.52,10.62,24.07,6,19,6a1,1,0,0,0,0,2c4.77,0,9.19,5.31,11.12,8H24A13,13,0,0,1,11,3ZM37.45,43.17C35.3,44.6,33.2,47.84,32,51.11c-1.2-3.27-3.3-6.51-5.45-7.94a9.36,9.36,0,0,1-2.11-2.24c5.28-6.53,9.82-6.56,15.12,0A9.36,9.36,0,0,1,37.45,43.17Z"/></g></svg>