<svg xmlns="http://www.w3.org/2000/svg" xmlns:xlink="http://www.w3.org/1999/xlink" viewBox="0 0 64 64"><defs><style>.cls-1{fill:url(#linear-gradient);}.cls-2{fill:#8288a1;}.cls-3{fill:url(#linear-gradient-2);}.cls-4{fill:url(#linear-gradient-3);}.cls-5{fill:#c7cdd8;}.cls-6{fill:#dfe3ea;}.cls-7{fill:url(#linear-gradient-4);}.cls-8{fill:url(#linear-gradient-5);}.cls-9{fill:#7ece67;}</style><linearGradient id="linear-gradient" x1="32" y1="50" x2="32" y2="9" gradientUnits="userSpaceOnUse"><stop offset="0" stop-color="#949aaf"/><stop offset="1" stop-color="#c6ccda"/></linearGradient><linearGradient id="linear-gradient-2" y1="55" y2="49" xlink:href="#linear-gradient"/><linearGradient id="linear-gradient-3" x1="32" y1="45" x2="32" y2="13" gradientUnits="userSpaceOnUse"><stop offset="0" stop-color="#d4d8e1"/><stop offset="1" stop-color="#f3f4f5"/></linearGradient><linearGradient id="linear-gradient-4" x1="24" y1="31.63" x2="24" y2="19" gradientUnits="userSpaceOnUse"><stop offset="0" stop-color="#8cdd79"/><stop offset="1" stop-color="#d4e6b6"/></linearGradient><linearGradient id="linear-gradient-5" x1="40" y1="34" x2="40" y2="21.37" gradientTransform="translate(80 55.37) rotate(-180)" xlink:href="#linear-gradient-4"/></defs><title>Digital  Ecology</title><g id="Digital_Ecology" data-name="Digital  Ecology"><path class="cls-1" d="M58,12V49H39l-1,1H26l-1-1H6V12A3,3,0,0,1,9,9H55A3,3,0,0,1,58,12Z"/><polygon class="cls-2" points="58 47 58 49 39 49 38 50 26 50 25 49 6 49 6 47 25.83 47 26.83 48 37.17 48 38.17 47 58 47"/><polygon class="cls-3" points="63 49 63 53 57 55 7 55 1 53 1 49 25 49 26 50 38 50 39 49 63 49"/><polygon class="cls-2" points="63 51 63 53 57 55 7 55 1 53 1 51 7 53 57 53 63 51"/><rect class="cls-4" x="10" y="13" width="44" height="32"/><rect class="cls-5" x="10" y="43" width="44" height="2"/><rect class="cls-6" x="10" y="13" width="44" height="2"/><path class="cls-7" d="M16,19h5.39A10.61,10.61,0,0,1,32,29.61v2a0,0,0,0,1,0,0H26.61A10.61,10.61,0,0,1,16,21V19A0,0,0,0,1,16,19Z"/><path class="cls-8" d="M42.61,21.37H48a0,0,0,0,1,0,0v2A10.61,10.61,0,0,1,37.39,34H32a0,0,0,0,1,0,0V32A10.61,10.61,0,0,1,42.61,21.37Z" transform="translate(80 55.37) rotate(180)"/><path class="cls-9" d="M32,29.63v2H26.61A10.61,10.61,0,0,1,16,21V19A10.61,10.61,0,0,0,26.61,29.63Z"/><path class="cls-9" d="M48,21.39v2A10.61,10.61,0,0,1,37.39,34H32V32h5.39A10.61,10.61,0,0,0,48,21.39Z"/><path d="M63,48H59V12a4,4,0,0,0-4-4H9a4,4,0,0,0-4,4V48H1a1,1,0,0,0-1,1c0,4.12-.22,4.65.68,5C7.24,56.13,6.77,56,7,56c53.49,0,50.08,0,50.32,0C63.71,53.82,64,54,64,53V49A1,1,0,0,0,63,48ZM7,12a2,2,0,0,1,2-2H55a2,2,0,0,1,2,2V48c-20.37,0-18.06-.35-19.41,1H26.41c-.59-.6-.87-1-1.41-1H7ZM62,52.28,56.84,54H7.16L2,52.28V50H24.59c.59.6.87,1,1.41,1,13.74,0,12.07.34,13.41-1H62Z"/><path d="M54,46a1,1,0,0,0,1-1V13a1,1,0,0,0-1-1H10a1,1,0,0,0-1,1V45a1,1,0,0,0,1,1ZM41.45,25.11c-3.43,0-6.46,3-8.33,5.44a9.61,9.61,0,0,1,9.49-8.18H47v1A9.62,9.62,0,0,1,37.39,33H33.8c1.65-2.42,4.68-5.89,7.65-5.89A1,1,0,0,0,41.45,25.11Zm-18.9-.37c3,0,6,3.47,7.65,5.89H26.61A9.62,9.62,0,0,1,17,21V20h4.39a9.61,9.61,0,0,1,9.49,8.18C29,25.76,26,22.74,22.55,22.74A1,1,0,0,0,22.55,24.74ZM11,14H53V44H33V35h4.39A11.63,11.63,0,0,0,49,23.39v-2a1,1,0,0,0-1-1H42.61a11.59,11.59,0,0,0-10.1,5.91A11.64,11.64,0,0,0,21.39,18H16a1,1,0,0,0-1,1v2A11.63,11.63,0,0,0,26.61,32.63H31V44H11Z"/></g></svg>