<svg xmlns="http://www.w3.org/2000/svg" xmlns:xlink="http://www.w3.org/1999/xlink" viewBox="0 0 64 64"><defs><style>.cls-1{fill:url(#linear-gradient);}.cls-2{fill:#77cacb;}.cls-3{fill:url(#linear-gradient-2);}.cls-4{fill:url(#linear-gradient-3);}.cls-5{fill:url(#linear-gradient-4);}.cls-6{fill:url(#linear-gradient-5);}.cls-7{fill:url(#linear-gradient-6);}.cls-8{fill:#c7cdd8;}.cls-9{fill:#dfe3ea;}.cls-10{fill:url(#linear-gradient-12);}.cls-11{fill:#4da67f;}</style><linearGradient id="linear-gradient" x1="31.99" y1="58.96" x2="31.99" y2="22.97" gradientUnits="userSpaceOnUse"><stop offset="0" stop-color="#9dd5df"/><stop offset="1" stop-color="#c3e1f5"/></linearGradient><linearGradient id="linear-gradient-2" x1="32.07" y1="57.18" x2="32.07" y2="42.87" gradientUnits="userSpaceOnUse"><stop offset="0" stop-color="#6ab891"/><stop offset="1" stop-color="#85cba9"/></linearGradient><linearGradient id="linear-gradient-3" x1="23.27" y1="43.33" x2="23.27" y2="28.77" xlink:href="#linear-gradient-2"/><linearGradient id="linear-gradient-4" x1="45.04" y1="49.47" x2="45.04" y2="28.49" xlink:href="#linear-gradient-2"/><linearGradient id="linear-gradient-5" x1="32.92" y1="31.41" x2="32.92" y2="23" xlink:href="#linear-gradient-2"/><linearGradient id="linear-gradient-6" x1="32" y1="63" x2="32" y2="19" gradientUnits="userSpaceOnUse"><stop offset="0" stop-color="#d4d8e1"/><stop offset="1" stop-color="#f3f4f5"/></linearGradient><linearGradient id="linear-gradient-12" x1="32" y1="19" x2="32" y2="7" xlink:href="#linear-gradient-2"/></defs><title>Earth Day</title><g id="Earth_Day" data-name="Earth Day"><path class="cls-1" d="M44.94,28.49a18,18,0,0,1,2.93,21C39.7,64.82,16.33,60.71,14.14,43.23,12,26.06,33,16.13,44.94,28.49Z"/><path class="cls-2" d="M47.87,49.47c-9.08,17.07-35.55,9.56-33.8-10,.69,17.11,25.15,23.27,33.8,7a17.5,17.5,0,0,0,2.06-7A17.73,17.73,0,0,1,47.87,49.47Z"/><path class="cls-3" d="M26.92,43.33c1,.79,1.79-.21,3.57-.44s6.48,1,6.71,2.79S35,49.59,33.4,51.6s-1.12,5.58-1.12,5.58l-2-1.56c-1-.79.22-5.47.1-6.37s-3-2.34-2.23-3.34S27.93,44.12,26.92,43.33Z"/><path class="cls-4" d="M30.38,34.74a4.82,4.82,0,0,0-2.23,3.9c.11.9-2.68.35-3.46,1.35s1.23,2.56,2.23,3.34c-1-.78-3.79-1.33-5.69-2s-2.34-4.24-2.46-5.13c-.09-.71-1.93-1.77-3.19-2.57a18,18,0,0,1,3-4.58c8.82-.82,6.21.32,7.8,1.55,1,.78-.09.12,1.7-.11S32.06,33.62,30.38,34.74Z"/><path class="cls-5" d="M44.94,28.49a18,18,0,0,1,2.93,21c-1.26-1-1.78-5.18-2-6.69-.23-1.79-5.58-1.12-5.81-2.91s1.34-3.79,1.34-3.79c.78-1,3.58-.45,5.36-.67s-2-1.57-4.91-3S43.44,31.27,44.94,28.49Z"/><path class="cls-6" d="M38.09,24.06a2.58,2.58,0,0,0,.22,1.52c1.23,2.57-1.24,3.13-2.81,5.14s-4-.66-4.34-4.24C31,25,27.25,24.24,27.25,24.24a4.4,4.4,0,0,1-.05-.59A18,18,0,0,1,38.09,24.06Z"/><rect class="cls-7" x="3" y="19" width="58" height="44"/><rect class="cls-8" x="3" y="60" width="58" height="3"/><rect class="cls-9" x="3" y="19" width="58" height="3"/><path class="cls-1" d="M44.94,28.49a18,18,0,0,1,2.93,21C39.7,64.82,16.33,60.71,14.14,43.23,12,26.06,33,16.13,44.94,28.49Z"/><path class="cls-2" d="M47.87,49.47c-9.08,17.07-35.55,9.56-33.8-10,.69,17.11,25.15,23.27,33.8,7a17.5,17.5,0,0,0,2.06-7A17.73,17.73,0,0,1,47.87,49.47Z"/><path class="cls-3" d="M26.92,43.33c1,.79,1.79-.21,3.57-.44s6.48,1,6.71,2.79S35,49.59,33.4,51.6s-1.12,5.58-1.12,5.58l-2-1.56c-1-.79.22-5.47.1-6.37s-3-2.34-2.23-3.34S27.93,44.12,26.92,43.33Z"/><path class="cls-4" d="M30.38,34.74a4.82,4.82,0,0,0-2.23,3.9c.11.9-2.68.35-3.46,1.35s1.23,2.56,2.23,3.34c-1-.78-3.79-1.33-5.69-2s-2.34-4.24-2.46-5.13c-.09-.71-1.93-1.77-3.19-2.57a18,18,0,0,1,3-4.58c8.82-.82,6.21.32,7.8,1.55,1,.78-.09.12,1.7-.11S32.06,33.62,30.38,34.74Z"/><path class="cls-5" d="M44.94,28.49a18,18,0,0,1,2.93,21c-1.26-1-1.78-5.18-2-6.69-.23-1.79-5.58-1.12-5.81-2.91s1.34-3.79,1.34-3.79c.78-1,3.58-.45,5.36-.67s-2-1.57-4.91-3S43.44,31.27,44.94,28.49Z"/><path class="cls-6" d="M38.09,24.06a2.58,2.58,0,0,0,.22,1.52c1.23,2.57-1.24,3.13-2.81,5.14s-4-.66-4.34-4.24C31,25,27.25,24.24,27.25,24.24a4.4,4.4,0,0,1-.05-.59A18,18,0,0,1,38.09,24.06Z"/><rect class="cls-10" x="1" y="7" width="62" height="12" rx="2"/><path class="cls-11" d="M63,15v2a2,2,0,0,1-2,2H3a2,2,0,0,1-2-2V15a2,2,0,0,0,2,2H61A2,2,0,0,0,63,15Z"/><path d="M34.36,59.85A19,19,0,0,0,50.85,38.64C48.71,21.58,27,16.16,16.87,29.5S17.63,61.94,34.36,59.85ZM16.05,35.11a8.69,8.69,0,0,1,1.74,1.3c.75,5.68,2.72,5.8,5.26,6.53,3.26.93,3.36,1.26,3.26,1.18,1.31,1,1.15,1.05,1.05,1.17-1.35,1.74,1.45,3.37,2,4.15-.06,1.64-1.3,5.75.27,7,2.49,1.93,1.81,1.41,2,1.56A17,17,0,0,1,16.05,35.11ZM19,30c.64-.06,5.77-.54,5.73.07A2.8,2.8,0,0,0,26,31.6a1.09,1.09,0,0,0,1.64,0c1.41-.56,2.75,1.75,2.19,2.31a6.09,6.09,0,0,0-2.68,4.3c-1.05.18-2.48.19-3.24,1.17A1.8,1.8,0,0,0,23.58,41c-.7-.2-1.41-.41-2-.62-.38-.14-1.34-.83-1.8-4.32-.12-1-1.17-1.73-2.89-2.8A17.11,17.11,0,0,1,19,30ZM29.21,44.27a5.88,5.88,0,0,1,1.41-.39c1.72-.2,5.48,1.08,5.59,1.92C36.35,47,34,49.19,32.61,51a7.76,7.76,0,0,0-1.35,4.13l-.3-.23c-.38-.91.53-4.81.42-5.75-.15-1.16-1.71-2-2.3-2.81A2,2,0,0,0,29.21,44.27ZM32.89,58a1,1,0,0,0,.38-.9c-.1-.87-.15-3.46.92-4.84,1.64-2.1,4.28-4.33,4-6.66-.35-2.72-6-3.88-7.82-3.65-1.53.19-2.49.92-2.83.64-.1-.1-1.81-1.35-2-2,.75-.47,3.87,0,3.61-2.05a3.94,3.94,0,0,1,1.79-2.94c2.75-1.83-.5-7.27-4.05-5.82-.14-.11-.18-.17-.17-.18-.57-2.13-3.22-1.86-5.46-1.73a16.81,16.81,0,0,1,5.27-2.92.94.94,0,0,0,.53.3c1.58.32,3,1,3.11,1.36.5,4.68,4,7.54,6.13,4.75,1.35-1.72,4.13-2.72,3.15-5.61a17.22,17.22,0,0,1,4.17,2.9c-1.37,1.46-3.66,1.44-3.67,3,0,1.18,1.43,1.72,4,2.85-1.33,0-2.59.14-3.26,1-.19.24-1.82,2.4-1.55,4.53.32,2.51,5.22,2.2,5.81,2.93.32,2.53.78,5.2,1.75,6.65A16.9,16.9,0,0,1,32.89,58Zm4.19-33.16A3.44,3.44,0,0,0,37.4,26c.85,1.76-1,1.93-2.69,4.09-.28.36-.45.31-.53.28-.68-.19-1.79-1.73-2-4a3.21,3.21,0,0,0-2.07-2.26A16.84,16.84,0,0,1,37.08,24.79Zm8,5.35A17.35,17.35,0,0,1,47.49,34c-.92-.63-2.87-1.38-4.87-2.35C44.9,30.56,44.9,29.93,45.08,30.14Zm2.7,17.14c-1.58-5,.52-5.91-4.58-6.93a7.7,7.7,0,0,1-2.11-.6,5.19,5.19,0,0,1,1.13-3.06c.71-.75,5.18.5,5.92-1A16.82,16.82,0,0,1,47.78,47.28Z"/><path d="M61,6H55C54.55-2,49.45-2,49,6H45C44.55-2,39.45-2,39,6H35C34.55-2,29.45-2,29,6H25C24.55-2,19.45-2,19,6H15C14.55-2,9.45-2,9,6H3A3,3,0,0,0,0,9v8a3,3,0,0,0,2,2.82V63a1,1,0,0,0,1,1H61a1,1,0,0,0,1-1V19.82A3,3,0,0,0,64,17V9A3,3,0,0,0,61,6ZM52,2.09A8.18,8.18,0,0,1,53,6H51A8.18,8.18,0,0,1,52,2.09Zm-10,0A8.18,8.18,0,0,1,43,6H41A8.18,8.18,0,0,1,42,2.09Zm-10,0A8.18,8.18,0,0,1,33,6H31A8.18,8.18,0,0,1,32,2.09Zm-10,0A8.18,8.18,0,0,1,23,6H21A8.18,8.18,0,0,1,22,2.09Zm-10,0A8.18,8.18,0,0,1,13,6H11A8.18,8.18,0,0,1,12,2.09ZM60,62H4V20H60Zm2-45a1,1,0,0,1-1,1H3a1,1,0,0,1-1-1V9A1,1,0,0,1,3,8H9c.37,7.09,4,6.63,4,5a1,1,0,0,0-.91-1c-.31-.25-.92-1.62-1.06-4h8c.16,3.13,1.1,6,3,6a1,1,0,0,0,.09-2c-.31-.25-.92-1.62-1.06-4h8c.37,7.09,4,6.63,4,5a1,1,0,0,0-.91-1c-.31-.25-.92-1.62-1.06-4h8c.16,3.13,1.1,6,3,6a1,1,0,0,0,.09-2c-.31-.25-.92-1.62-1.06-4h8c.37,7.09,4,6.63,4,5a1,1,0,0,0-.91-1c-.31-.25-.92-1.62-1.06-4H61a1,1,0,0,1,1,1Z"/></g></svg>