<svg xmlns="http://www.w3.org/2000/svg" xmlns:xlink="http://www.w3.org/1999/xlink" viewBox="0 0 64 64"><defs><style>.cls-1{fill:url(#linear-gradient);}.cls-2{fill:url(#linear-gradient-2);}.cls-3{fill:#7ece67;}.cls-4{fill:url(#linear-gradient-3);}.cls-5{fill:#77cacb;}.cls-6{fill:url(#linear-gradient-4);}.cls-7{fill:url(#linear-gradient-5);}.cls-8{fill:url(#linear-gradient-6);}.cls-9{fill:url(#linear-gradient-7);}</style><linearGradient id="linear-gradient" x1="22.74" y1="14.47" x2="22.74" y2="1" gradientUnits="userSpaceOnUse"><stop offset="0" stop-color="#8cdd79"/><stop offset="1" stop-color="#d4e6b6"/></linearGradient><linearGradient id="linear-gradient-2" x1="41.26" y1="17" x2="41.26" y2="3.53" gradientTransform="translate(82.53 20.53) rotate(-180)" xlink:href="#linear-gradient"/><linearGradient id="linear-gradient-3" x1="31.98" y1="63.02" x2="31.98" y2="22.96" gradientUnits="userSpaceOnUse"><stop offset="0" stop-color="#9dd5df"/><stop offset="1" stop-color="#c3e1f5"/></linearGradient><linearGradient id="linear-gradient-4" x1="32.08" y1="60.98" x2="32.08" y2="45.08" gradientUnits="userSpaceOnUse"><stop offset="0" stop-color="#6ab891"/><stop offset="1" stop-color="#85cba9"/></linearGradient><linearGradient id="linear-gradient-5" x1="22.31" y1="45.6" x2="22.31" y2="29.42" xlink:href="#linear-gradient-4"/><linearGradient id="linear-gradient-6" x1="46.49" y1="52.42" x2="46.49" y2="29.1" xlink:href="#linear-gradient-4"/><linearGradient id="linear-gradient-7" x1="33.02" y1="32.35" x2="33.02" y2="23" xlink:href="#linear-gradient-4"/></defs><title>Earth</title><g id="Earth"><path class="cls-1" d="M13.47,1h6.74A11.79,11.79,0,0,1,32,12.79v1.68a0,0,0,0,1,0,0H25.26A11.79,11.79,0,0,1,13.47,2.68V1A0,0,0,0,1,13.47,1Z"/><path class="cls-2" d="M43.79,3.53h6.74a0,0,0,0,1,0,0V5.21A11.79,11.79,0,0,1,38.74,17H32a0,0,0,0,1,0,0V15.32A11.79,11.79,0,0,1,43.79,3.53Z" transform="translate(82.53 20.53) rotate(180)"/><path class="cls-3" d="M32,14.47H25.26A11.79,11.79,0,0,1,13.47,2.68c0-1.92,0-1.68.07-1.68A11.79,11.79,0,0,0,25.26,11.47h6.66A22.73,22.73,0,0,1,32,14.47Z"/><path class="cls-3" d="M50.53,5.21A11.79,11.79,0,0,1,38.74,17H32a27.15,27.15,0,0,1,.07-3h6.67A11.78,11.78,0,0,0,50.45,3.53C50.56,3.53,50.53,3.28,50.53,5.21Z"/><path class="cls-4" d="M51.8,45.82A20,20,0,0,1,35.39,62.71C16.35,66,4,42.7,17.86,28.86,31.46,15.26,54.5,26.93,51.8,45.82Z"/><path class="cls-5" d="M35.39,62.71A20,20,0,0,1,12.06,41.5a20,20,0,0,0,39.88,0A20,20,0,0,1,35.39,62.71Z"/><path class="cls-6" d="M26.36,45.6c1.12.87,2-.24,4-.49s7.19,1.11,7.45,3.09-2.48,4.35-4.22,6.58S32.32,61,32.32,61l-2.23-1.73c-1.12-.87.24-6.08.12-7.08s-3.35-2.6-2.48-3.71S27.48,46.47,26.36,45.6Z"/><path class="cls-7" d="M30.2,36.05a5.34,5.34,0,0,0-2.47,4.34c.12,1-3,.38-3.85,1.49s1.37,2.85,2.48,3.72c-1.11-.87-4.22-1.48-6.33-2.22s-2.6-4.72-2.73-5.71c-.1-.79-2.15-2-3.55-2.85A20.43,20.43,0,0,1,17,29.72c9.8-.9,6.91.36,8.68,1.73,1.11.87-.11.14,1.88-.12S32.07,34.81,30.2,36.05Z"/><path class="cls-8" d="M46.38,29.1a20,20,0,0,1,3.26,23.32c-1.41-1.14-2-5.75-2.19-7.44-.25-2-6.2-1.24-6.45-3.23s1.49-4.22,1.49-4.22c.86-1.11,4-.49,5.95-.74S46.2,35.05,43,33.45,44.72,32.19,46.38,29.1Z"/><path class="cls-9" d="M38.77,24.18a3,3,0,0,0,.24,1.7c1.37,2.85-1.38,3.47-3.11,5.7s-4.41-.73-4.83-4.71c-.18-1.64-4.34-2.49-4.34-2.49a5.81,5.81,0,0,1-.06-.65A19.92,19.92,0,0,1,38.77,24.18Z"/><path d="M33,22V18h5.74A12.81,12.81,0,0,0,51.53,5.21V3.53a1,1,0,0,0-1-1H43.79A12.79,12.79,0,0,0,32.51,9.31,12.81,12.81,0,0,0,20.21,0H13.47a1,1,0,0,0-1,1V2.68A12.8,12.8,0,0,0,25.26,15.47H31V22C12.82,22.9,4.32,45,17.15,57.85,29.38,70.09,50.37,63,52.79,46h0A21,21,0,0,0,33,22ZM49.55,50.3c-.18.42-.93-4-1.1-5.45C48.08,42,42.58,42.62,42,41.62a5.8,5.8,0,0,1,1.29-3.47c.38-.5,3.83-.19,5.28-.37,1.84-.23,1.17-1.66,1.45-.83A19.1,19.1,0,0,1,49.55,50.3ZM46.46,30.69a18.71,18.71,0,0,1,3,4.89c-.85-.77-3.65-1.84-5.93-3A9.23,9.23,0,0,0,46.46,30.69Zm-8.35-4.38c1,2-1.21,2.35-3,4.66-.36.46-.6.39-.72.36-.8-.23-2-1.94-2.33-4.57-.13-1.22-1.34-2.05-2.59-2.58a18.91,18.91,0,0,1,8.28.72A3.72,3.72,0,0,0,38.11,26.31ZM43.79,4.53h5.74C49.53,11.92,44.15,16,38.74,16H33.89c1.69-2.3,5.25-6.42,9.06-6.42a1,1,0,0,0,1-1c0-2.15-5.69-1.21-10.82,5.12A10.81,10.81,0,0,1,43.79,4.53ZM14.47,2h5.74a10.81,10.81,0,0,1,10.66,9.18c-2.12-2.62-5.72-6.13-9.82-6.13a1,1,0,0,0,0,2c3.81,0,7.37,4.12,9.06,6.42H25.26C19.79,13.47,14.47,9.33,14.47,2ZM26.71,40c-1.09.21-2.77.17-3.62,1.27a1.92,1.92,0,0,0-.27,1.91c-.68-.2-1.65-.47-2.45-.75-.45-.16-1.56-1-2.08-4.89-.13-1-1.31-1.88-3.25-3.09a18.45,18.45,0,0,1,2.52-3.77c5.17-.46,6.13-.18,6.2-.17.74.58-.13.56,1.64,2a1.27,1.27,0,0,0,1,.38,1,1,0,0,0,.67-.38,2.3,2.3,0,0,1,.66-.16c.57-.08,1.62.77,2,1.84.3.83,0,1-.1,1.06A6.71,6.71,0,0,0,26.71,40ZM18.56,56.44A18.94,18.94,0,0,1,14.23,36.3a10,10,0,0,1,2.09,1.57c.18,1.39.74,5.51,3.38,6.45,2.23.78,4.84,1.26,6.05,2.07,1.38,1.07,1.35,1.24,1.19,1.45-1.46,1.88,1.72,3.67,2.28,4.52,0,.28-.12,1-.21,1.63-.89,6-.25,5.5,2.69,7.78a1,1,0,0,0,1.61-.91s-.42-3.59,1-5.46c1.83-2.36,4.73-4.8,4.42-7.33-.38-3-6.6-4.2-8.57-4-1.8.22-2.74,1.06-3.22.69-1.6-1.24-2.28-2-2.31-2.31.54-.7,4.33,0,4-2.24a4.46,4.46,0,0,1,2-3.38c3-2-.68-7.91-4.47-6.25-.62-.5,0-.71-1.3-1.7-.46-.35-1.3-.67-5.26-.42A18.7,18.7,0,0,1,26,25a.94.94,0,0,0,.58.36c1.82.37,3.5,1.21,3.54,1.62.55,5.18,4.31,8.18,6.61,5.22,1.52-2,4.72-3.07,3.39-6.4a18.68,18.68,0,0,1,5,3.43C43.55,31,41,30.91,40.93,32.56c0,1.4,2.17,2.07,4.83,3.28-1.69,0-3.25,0-4.06,1.08-.21.26-2,2.63-1.7,4.95.36,2.82,5.89,2.25,6.46,3.26.36,2.84.88,5.85,2,7.41A19,19,0,0,1,18.56,56.44Zm10.17-9.86a7.56,7.56,0,0,1,1.72-.48c2-.24,6.21,1.23,6.34,2.22s-1.3,2.68-2.56,4.12c-1.62,1.85-2.76,3-3,6.48-.59-.46-.95-.12-.28-4.64.37-2.49.49-2.66-1.31-4.28a8.23,8.23,0,0,1-1.06-1.08A2,2,0,0,0,28.73,46.58Z"/></g></svg>