<svg xmlns="http://www.w3.org/2000/svg" xmlns:xlink="http://www.w3.org/1999/xlink" viewBox="0 0 64 64"><defs><style>.cls-1{fill:url(#linear-gradient);}.cls-2{fill:#c7cdd8;}.cls-3{fill:#dfe3ea;}.cls-4{fill:url(#linear-gradient-2);}.cls-5{fill:url(#linear-gradient-3);}.cls-6{fill:#7ece67;}.cls-7{fill:url(#linear-gradient-4);}.cls-8{fill:#8288a1;}.cls-9{fill:url(#linear-gradient-5);}.cls-10{fill:url(#linear-gradient-6);}.cls-11{fill:url(#linear-gradient-7);}.cls-12{fill:url(#linear-gradient-8);}.cls-13{fill:url(#linear-gradient-9);}.cls-14{fill:url(#linear-gradient-10);}.cls-15{fill:url(#linear-gradient-11);}.cls-16{fill:#42455e;}</style><linearGradient id="linear-gradient" x1="32" y1="63" x2="32" y2="38" gradientUnits="userSpaceOnUse"><stop offset="0" stop-color="#d4d8e1"/><stop offset="1" stop-color="#f3f4f5"/></linearGradient><linearGradient id="linear-gradient-2" x1="35" y1="55" x2="35" y2="43" gradientUnits="userSpaceOnUse"><stop offset="0" stop-color="#8cdd79"/><stop offset="1" stop-color="#d4e6b6"/></linearGradient><linearGradient id="linear-gradient-3" x1="49" y1="58" x2="49" y2="46" gradientTransform="translate(98 104) rotate(-180)" xlink:href="#linear-gradient-2"/><linearGradient id="linear-gradient-4" x1="48" y1="38" x2="48" y2="30" gradientUnits="userSpaceOnUse"><stop offset="0" stop-color="#949aaf"/><stop offset="1" stop-color="#c6ccda"/></linearGradient><linearGradient id="linear-gradient-5" x1="40" y1="30" x2="40" y2="22" gradientUnits="userSpaceOnUse"><stop offset="0" stop-color="#474f72"/><stop offset="1" stop-color="#878c9f"/></linearGradient><linearGradient id="linear-gradient-6" x1="48" x2="48" xlink:href="#linear-gradient-5"/><linearGradient id="linear-gradient-7" x1="56" x2="56" xlink:href="#linear-gradient-5"/><linearGradient id="linear-gradient-8" x1="16" x2="16" y2="34" xlink:href="#linear-gradient-4"/><linearGradient id="linear-gradient-9" x1="22" y1="34" x2="22" y2="6" xlink:href="#linear-gradient-5"/><linearGradient id="linear-gradient-10" x1="10" y1="34" x2="10" y2="1" xlink:href="#linear-gradient-5"/><linearGradient id="linear-gradient-11" x1="12" y1="63" x2="12" y2="51" xlink:href="#linear-gradient-4"/></defs><title>Eco Factory</title><g id="Eco_Factory" data-name="Eco Factory"><rect class="cls-1" x="1" y="38" width="62" height="25"/><rect class="cls-2" x="1" y="61" width="62" height="2"/><rect class="cls-3" x="1" y="38" width="62" height="2"/><path class="cls-4" d="M28,43h3A11,11,0,0,1,42,54v1a0,0,0,0,1,0,0H39A11,11,0,0,1,28,44V43A0,0,0,0,1,28,43Z"/><path class="cls-5" d="M53,46h3a0,0,0,0,1,0,0v1A11,11,0,0,1,45,58H42a0,0,0,0,1,0,0V57A11,11,0,0,1,53,46Z" transform="translate(98 104) rotate(180)"/><path class="cls-6" d="M42,55H39a11,11,0,0,1-11-11c0-1.13-.06-1,0-1A10.94,10.94,0,0,0,39,53h3A18.72,18.72,0,0,1,42,55Z"/><path class="cls-6" d="M56,47.05a11,11,0,0,1-11,11H42c0-1,0-1.47,0-2h3A10.94,10.94,0,0,0,56,46C56.06,46,56,45.92,56,47.05Z"/><rect class="cls-7" x="33" y="30" width="30" height="8"/><rect class="cls-8" x="33" y="36" width="30" height="2"/><polygon class="cls-9" points="44 22 44 30 36 30 44 22"/><polygon class="cls-10" points="52 22 52 30 44 30 52 22"/><polygon class="cls-11" points="60 22 60 30 52 30 60 22"/><rect class="cls-12" x="4" y="34" width="24" height="4"/><path class="cls-13" d="M26,34H18c.15-4,0,.52,1-28h6C26,34.39,25.84,29.74,26,34Z"/><path class="cls-14" d="M14,34H6c.13-4.2,0,1.14,1-33h6C14,33.88,13.88,29.89,14,34Z"/><rect class="cls-15" x="5" y="51" width="14" height="12"/><polygon class="cls-16" points="13.91 31 14 34 6 34 6.09 31 13.91 31"/><polygon class="cls-16" points="26 34 18 34 18.11 31 25.89 31 26 34"/><polygon class="cls-16" points="44 28 44 30 36 30 38 28 44 28"/><polygon class="cls-16" points="52 28 52 30 44 30 46 28 52 28"/><polygon class="cls-16" points="60 28 60 30 52 30 54 28 60 28"/><path d="M63,29H61V22a1,1,0,0,0-1.71-.71L53,27.59V22a1,1,0,0,0-1.71-.71L45,27.59V22a1,1,0,0,0-1.71-.71L35.59,29H33a1,1,0,0,0-1,1v7H29V34a1,1,0,0,0-1-1H27L26,7a1,1,0,0,0,0-2H18a1,1,0,0,0,0,2L17,33H15L14,2a1,1,0,0,0,0-2H6A1,1,0,0,0,6,2L5,33H4a1,1,0,0,0-1,1v3H1a1,1,0,0,0-1,1V63a1,1,0,0,0,1,1H63a1,1,0,0,0,1-1V30A1,1,0,0,0,63,29Zm-4-4.59V29H54.41Zm-8,0V29H46.41Zm-8,0V29H38.41ZM34,31H62v6H34ZM20,7H24L25,33H19ZM8,2H12L13,33H7ZM5,35H27v2H5ZM18,58H6V56H18Zm0-4H6V52H18ZM6,62V60H18v2ZM49.34,50.25l-6.26,5.47A10,10,0,0,1,53,47h2a10,10,0,0,1-10,10c-.55,0-1.3.8,5.61-5.25A1,1,0,0,0,49.34,50.25Zm-16-1.5C40.25,54.79,39.49,54,39,54A10,10,0,0,1,29,44h2.05a10,10,0,0,1,9.87,8.72l-6.26-5.47A1,1,0,0,0,33.34,48.75ZM62,62H43V59h2a12,12,0,0,0,12-12V46a1,1,0,0,0-1-1H53a11.94,11.94,0,0,0-10.34,6,12,12,0,0,0-11.56-9H28a1,1,0,0,0-1,1v1A12,12,0,0,0,39,56h2v6H20V51a1,1,0,0,0-1-1H5a1,1,0,0,0-1,1V62H2V39H62Z"/><path d="M41,33H37a1,1,0,0,0,0,2h4A1,1,0,0,0,41,33Z"/><path d="M50,33H46a1,1,0,0,0,0,2h4A1,1,0,0,0,50,33Z"/><path d="M59,33H55a1,1,0,0,0,0,2h4A1,1,0,0,0,59,33Z"/></g></svg>