<svg xmlns="http://www.w3.org/2000/svg" xmlns:xlink="http://www.w3.org/1999/xlink" viewBox="0 0 64 64"><defs><style>.cls-1{fill:url(#linear-gradient);}.cls-2{fill:url(#linear-gradient-2);}.cls-3{fill:#7ece67;}.cls-4{fill:url(#linear-gradient-3);}.cls-5{fill:#dd8b37;}.cls-6{fill:#fff;}.cls-7{fill:url(#linear-gradient-4);}</style><linearGradient id="linear-gradient" x1="9" y1="13.63" x2="9" y2="1" gradientUnits="userSpaceOnUse"><stop offset="0" stop-color="#8cdd79"/><stop offset="1" stop-color="#d4e6b6"/></linearGradient><linearGradient id="linear-gradient-2" x1="25" y1="16" x2="25" y2="3.37" gradientTransform="translate(50 19.37) rotate(-180)" xlink:href="#linear-gradient"/><linearGradient id="linear-gradient-3" x1="17" y1="52" x2="17" y2="24" gradientUnits="userSpaceOnUse"><stop offset="0" stop-color="#e9a254"/><stop offset="1" stop-color="#f4bb79"/></linearGradient><linearGradient id="linear-gradient-4" x1="58" y1="18" x2="58" y2="12" gradientUnits="userSpaceOnUse"><stop offset="0" stop-color="#949aaf"/><stop offset="1" stop-color="#c6ccda"/></linearGradient></defs><title>Eco Plug</title><g id="Eco_Plug" data-name="Eco Plug"><path class="cls-1" d="M1,1H6.39A10.61,10.61,0,0,1,17,11.61v2a0,0,0,0,1,0,0H11.61A10.61,10.61,0,0,1,1,3V1A0,0,0,0,1,1,1Z"/><path class="cls-2" d="M27.61,3.37H33a0,0,0,0,1,0,0v2A10.61,10.61,0,0,1,22.39,16H17a0,0,0,0,1,0,0V14A10.61,10.61,0,0,1,27.61,3.37Z" transform="translate(50 19.37) rotate(180)"/><path class="cls-3" d="M17,11.63v2H11.61A10.61,10.61,0,0,1,1,3V1A10.61,10.61,0,0,0,11.61,11.63Z"/><path class="cls-3" d="M33,3.39v2A10.61,10.61,0,0,1,22.39,16H17V14h5.39A10.61,10.61,0,0,0,33,3.39Z"/><circle class="cls-4" cx="17" cy="38" r="14"/><path class="cls-5" d="M17,52A14,14,0,0,1,3.08,36.5a14,14,0,0,0,27.84,0A14,14,0,0,1,17,52Z"/><polygon class="cls-6" points="22 38 18.43 36.62 18.43 29 12 38 15.57 39.38 15.57 47 22 38"/><path class="cls-7" d="M54,12h8a0,0,0,0,1,0,0v3a3,3,0,0,1-3,3H57a3,3,0,0,1-3-3V12A0,0,0,0,1,54,12Z"/><path d="M23,37.71c-.18-.58-.34-.54-3.53-1.78V29a1,1,0,0,0-1.82-.58l-6.42,9a1,1,0,0,0,.45,1.51l2.93,1.14V47a1,1,0,0,0,1,1c.73,0,.38.2,7.24-9.42A1,1,0,0,0,23,37.71Zm-6.39,6.17c0-4.67.21-5.1-.64-5.43l-2.37-.92,3.87-5.41c0,4.67-.21,5.1.64,5.43l2.37.92Z"/><path d="M63,11H62V8a1,1,0,0,0-2,0v3H56V8a1,1,0,0,0-2,0v3H53a1,1,0,0,0,0,2v2a4,4,0,0,0,4,4V47.5a4.5,4.5,0,0,1-9,0v-3a6.5,6.5,0,0,0-13,0v9A8.51,8.51,0,0,1,26.5,62c-4.31,0-8.5-3.25-8.5-9a15,15,0,0,0,0-29.9V17h4.39A11.63,11.63,0,0,0,34,5.39v-2a1,1,0,0,0-1-1H27.61a11.59,11.59,0,0,0-10.1,5.91A11.64,11.64,0,0,0,6.39,0H1A1,1,0,0,0,0,1V3A11.63,11.63,0,0,0,11.61,14.63H16v8.42A15,15,0,0,0,16,53c0,7,5.17,11,10.5,11A10.51,10.51,0,0,0,37,53.5v-9a4.5,4.5,0,0,1,9,0v3a6.5,6.5,0,0,0,13,0V19a4,4,0,0,0,4-4V13A1,1,0,0,0,63,11ZM27.61,4.37H32v1A9.62,9.62,0,0,1,22.39,15H18.8c1.65-2.42,4.68-5.89,7.65-5.89a1,1,0,0,0,0-2c-3.43,0-6.46,3-8.33,5.44A9.61,9.61,0,0,1,27.61,4.37ZM2,3V2H6.39a9.61,9.61,0,0,1,9.49,8.18C14,7.76,11,4.74,7.55,4.74a1,1,0,0,0,0,2c3,0,6,3.47,7.65,5.89H11.61A9.62,9.62,0,0,1,2,3ZM4,38A13,13,0,1,1,17,51,13,13,0,0,1,4,38ZM61,15a2,2,0,0,1-2,2H57a2,2,0,0,1-2-2V13h6Z"/></g></svg>