<svg xmlns="http://www.w3.org/2000/svg" xmlns:xlink="http://www.w3.org/1999/xlink" viewBox="0 0 64 64"><defs><style>.cls-1{fill:url(#linear-gradient);}.cls-2{fill:url(#linear-gradient-2);}.cls-3{fill:#4da67f;}.cls-4{fill:#42455e;}.cls-5{fill:url(#linear-gradient-3);}.cls-6{fill:url(#linear-gradient-4);}.cls-7{fill:#dfe3ea;}</style><linearGradient id="linear-gradient" x1="32" y1="63" x2="32" y2="1" gradientUnits="userSpaceOnUse"><stop offset="0" stop-color="#474f72"/><stop offset="1" stop-color="#878c9f"/></linearGradient><linearGradient id="linear-gradient-2" x1="32" y1="50" x2="32" y2="14" gradientUnits="userSpaceOnUse"><stop offset="0" stop-color="#6ab891"/><stop offset="1" stop-color="#85cba9"/></linearGradient><linearGradient id="linear-gradient-3" x1="32" y1="46" x2="32" y2="18" gradientUnits="userSpaceOnUse"><stop offset="0" stop-color="#d4d8e1"/><stop offset="1" stop-color="#f3f4f5"/></linearGradient><linearGradient id="linear-gradient-4" x1="32" y1="39" x2="32" y2="22" gradientUnits="userSpaceOnUse"><stop offset="0" stop-color="#8cdd79"/><stop offset="1" stop-color="#d4e6b6"/></linearGradient></defs><title>Eco Thecnology</title><g id="Eco_Thecnology" data-name="Eco Thecnology"><path class="cls-1" d="M63,37V27l-6.7-.86a25,25,0,0,0-3-7.18l4.13-5.34L50.38,6.54,45,10.67a25,25,0,0,0-7.18-3L37,1H27l-.86,6.7a25,25,0,0,0-7.18,3L13.62,6.54,6.54,13.62,10.67,19a25,25,0,0,0-3,7.18L1,27V37l6.7.86a25,25,0,0,0,3,7.18L6.54,50.38l7.08,7.08L19,53.33a25,25,0,0,0,7.18,3L27,63H37l.86-6.7a25,25,0,0,0,7.18-3l5.34,4.13,7.08-7.08L53.33,45a25,25,0,0,0,3-7.18Z"/><circle class="cls-2" cx="32" cy="32" r="18"/><path class="cls-3" d="M32,50A18,18,0,0,1,14,31,18,18,0,0,0,50,31,18,18,0,0,1,32,50Z"/><path class="cls-4" d="M53.33,45l4.13,5.34-7.08,7.08L45,53.33a25,25,0,0,1-7.18,3L37,63H27l-.86-6.7a25,25,0,0,1-7.18-3l-5.34,4.13L6.54,50.38,10.67,45a24.69,24.69,0,0,1-2.83-6.65c9.36,20.78,39,20.79,48.32,0A24.69,24.69,0,0,1,53.33,45Z"/><circle class="cls-5" cx="32" cy="32" r="14"/><path class="cls-6" d="M37,32.77C37,37.46,32,39,32,39s-5-1.54-5-6.23S32,22,32,22,37,28.07,37,32.77Z"/><path class="cls-7" d="M46,33A14,14,0,0,0,18,33,14,14,0,1,1,46,33Z"/><path class="cls-4" d="M7.7,37.86c.11.5.29.9-.11,0Z"/><path class="cls-4" d="M56.3,37.86c.11,0,.19-.13-.14.53C56.21,38.21,56.26,38,56.3,37.86Z"/><path d="M63.13,26l-6-.78A25.83,25.83,0,0,0,54.54,19l3.71-4.8a1,1,0,0,0-.09-1.32L51.09,5.84a1,1,0,0,0-1.32-.09L45,9.46a25.83,25.83,0,0,0-6.2-2.56L38,.87A1,1,0,0,0,37,0H27a1,1,0,0,0-1,.87l-.78,6A25.83,25.83,0,0,0,19,9.46l-4.8-3.71a1,1,0,0,0-1.32.09L5.84,12.91a1,1,0,0,0-.09,1.32L9.46,19a25.83,25.83,0,0,0-2.56,6.2L.87,26A1,1,0,0,0,0,27V37a1,1,0,0,0,.87,1l6,.78A25.83,25.83,0,0,0,9.46,45l-3.71,4.8a1,1,0,0,0,.09,1.32l7.07,7.07a1,1,0,0,0,1.32.09L19,54.54a25.83,25.83,0,0,0,6.2,2.56l.78,6A1,1,0,0,0,27,64H37a1,1,0,0,0,1-.87l.78-6A25.83,25.83,0,0,0,45,54.54l4.8,3.71a1,1,0,0,0,1.32-.09l7.07-7.07a1,1,0,0,0,.09-1.32L54.54,45a25.83,25.83,0,0,0,2.56-6.2l6-.78A1,1,0,0,0,64,37V27A1,1,0,0,0,63.13,26ZM62,36.12c-6.16.8-6.45.61-6.67,1.51-2.45,10.19-5.65,4.31.8,12.67L50.3,56.13c-4.9-3.78-5-4.13-5.78-3.65-9,5.48-7.05-1-8.4,9.52H27.88c-.8-6.16-.61-6.45-1.51-6.67-10.14-2.44-4.32-5.64-12.67.8L7.87,50.3c3.8-4.92,4.13-5,3.65-5.78-5.48-9,1-7.05-9.52-8.4V27.88c6.16-.8,6.45-.61,6.67-1.51,2.45-10.19,5.65-4.31-.8-12.67L13.7,7.87c4.92,3.8,5,4.13,5.78,3.65,9-5.48,7.05,1,8.4-9.52h8.24c.8,6.16.61,6.45,1.51,6.67,10.14,2.44,4.32,5.64,12.67-.8l5.83,5.83c-3.8,4.92-4.13,5-3.65,5.78,5.48,9-1,7.05,9.52,8.4Z"/><path d="M31.23,21.36C31,21.62,26,27.77,26,32.77c0,3.82,3,6,5,6.92V42a1,1,0,0,0,2,0V39.69c2-.87,5-3.1,5-6.92,0-5-5-11.15-5.23-11.41A1,1,0,0,0,31.23,21.36ZM33,37.46V30a1,1,0,0,0-2,0v7.46c-5.34-3.05-2.6-8.86,1-13.81C35.62,28.63,38.32,34.42,33,37.46Z"/><path d="M32,17A15,15,0,1,0,47,32,15,15,0,0,0,32,17Zm0,28A13,13,0,1,1,45,32,13,13,0,0,1,32,45Z"/><path d="M32,13A19,19,0,1,0,51,32,19,19,0,0,0,32,13Zm0,36A17,17,0,1,1,49,32,17,17,0,0,1,32,49Z"/></g></svg>