<svg xmlns="http://www.w3.org/2000/svg" xmlns:xlink="http://www.w3.org/1999/xlink" viewBox="0 0 64 64"><defs><style>.cls-1{fill:url(#linear-gradient);}.cls-2{fill:#f6b756;}.cls-3{fill:url(#linear-gradient-2);}.cls-4{fill:url(#linear-gradient-3);}.cls-5{fill:#7ece67;}.cls-6{fill:url(#linear-gradient-4);}.cls-7{fill:#8288a1;}</style><linearGradient id="linear-gradient" x1="32" y1="47" x2="32" y2="1" gradientUnits="userSpaceOnUse"><stop offset="0" stop-color="#fbcc88"/><stop offset="1" stop-color="#ffe5c3"/></linearGradient><linearGradient id="linear-gradient-2" x1="25" y1="30" x2="25" y2="18" gradientUnits="userSpaceOnUse"><stop offset="0" stop-color="#8cdd79"/><stop offset="1" stop-color="#d4e6b6"/></linearGradient><linearGradient id="linear-gradient-3" x1="39" y1="33" x2="39" y2="21" gradientTransform="translate(78 54) rotate(-180)" xlink:href="#linear-gradient-2"/><linearGradient id="linear-gradient-4" x1="32" y1="59" x2="32" y2="47" gradientUnits="userSpaceOnUse"><stop offset="0" stop-color="#949aaf"/><stop offset="1" stop-color="#c6ccda"/></linearGradient></defs><title>Eco Bulb</title><g id="Eco_Bulb" data-name="Eco Bulb"><path class="cls-1" d="M46.26,37.41A13.14,13.14,0,0,0,42,47H22a13,13,0,0,0-4.24-9.57C4,24.76,12.63,2,30.87,1,50.54,0,60.56,24.21,46.26,37.41Z"/><path class="cls-2" d="M42.37,44A12.51,12.51,0,0,0,42,47H22a12.57,12.57,0,0,0-.36-3Z"/><path class="cls-3" d="M18,18h3A11,11,0,0,1,32,29v1a0,0,0,0,1,0,0H29A11,11,0,0,1,18,19V18A0,0,0,0,1,18,18Z"/><path class="cls-4" d="M43,21h3a0,0,0,0,1,0,0v1A11,11,0,0,1,35,33H32a0,0,0,0,1,0,0V32A11,11,0,0,1,43,21Z" transform="translate(78 54) rotate(180)"/><path class="cls-5" d="M32,30H29A11,11,0,0,1,18,19.05c0-1.13-.06-1.05,0-1.05A10.94,10.94,0,0,0,29,28h3A18.72,18.72,0,0,1,32,30Z"/><path class="cls-5" d="M46,22.05a11,11,0,0,1-11,11H32c0-1,0-1.47,0-2h3A10.94,10.94,0,0,0,46,21C46.06,21,46,20.92,46,22.05Z"/><path class="cls-6" d="M22,47H42a0,0,0,0,1,0,0v8a4,4,0,0,1-4,4H26a4,4,0,0,1-4-4V47A0,0,0,0,1,22,47Z"/><path class="cls-7" d="M32,63a3,3,0,0,1-3-3V59h6v1A3,3,0,0,1,32,63Z"/><path d="M47.14,6C33.34-7.06,10.23,2.47,10,21.73a22.07,22.07,0,0,0,7.08,16.44A12.09,12.09,0,0,1,21,47v2a1,1,0,1,0,0,2v2a1,1,0,1,0,0,2,5,5,0,0,0,5,5h2a4,4,0,0,0,8,0h2a5,5,0,0,0,4.59-3L43,57a1,1,0,0,0,.09-2c-.13,0-.09.29-.09-2a1,1,0,0,0,0-2c0-4.27-.57-8.67,3.94-12.85A22,22,0,0,0,47.14,6ZM32,62a2,2,0,0,1-2-2h4A2,2,0,0,1,32,62Zm6-4H26a3,3,0,0,1-3-2.81l17.39,1.58A3,3,0,0,1,38,58ZM23,53.18v-2l18,1.63v2Zm0-4V48H41v2.81ZM39.34,25.25l-6.26,5.47A10,10,0,0,1,43,22h2a10,10,0,0,1-10,10c-.55,0-1.3.8,5.61-5.25A1,1,0,0,0,39.34,25.25Zm-16-1.5C30.25,29.79,29.49,29,29,29A10,10,0,0,1,19,19h2.05a10,10,0,0,1,9.87,8.72l-6.26-5.47A1,1,0,0,0,23.34,23.75ZM45.58,36.68A14.18,14.18,0,0,0,41,46H34a1,1,0,0,1-1-1V34h2A12,12,0,0,0,47,22.05V21a1,1,0,0,0-1-1H43a11.94,11.94,0,0,0-10.34,6,12,12,0,0,0-11.56-9H18a1,1,0,0,0-1,1v1.05A12,12,0,0,0,29,31H31V45a1,1,0,0,1-1,1H23a14.11,14.11,0,0,0-4.52-9.3C5.34,24.61,13.68,2.93,30.92,2,49.76,1,59.15,24.12,45.58,36.68Z"/></g></svg>