<svg xmlns="http://www.w3.org/2000/svg" xmlns:xlink="http://www.w3.org/1999/xlink" viewBox="0 0 64 64"><defs><style>.cls-1{fill:url(#linear-gradient);}.cls-2{fill:url(#linear-gradient-2);}.cls-3{fill:#c7cdd8;}.cls-4{fill:#cba07a;}.cls-5{fill:url(#linear-gradient-3);}</style><linearGradient id="linear-gradient" x1="27.02" y1="63" x2="27.02" y2="11" gradientUnits="userSpaceOnUse"><stop offset="0" stop-color="#d1a788"/><stop offset="1" stop-color="#f2d3b8"/></linearGradient><linearGradient id="linear-gradient-2" x1="29" y1="47" x2="29" y2="23" gradientUnits="userSpaceOnUse"><stop offset="0" stop-color="#d4d8e1"/><stop offset="1" stop-color="#f3f4f5"/></linearGradient><linearGradient id="linear-gradient-3" x1="29" y1="41" x2="29" y2="26.43" gradientUnits="userSpaceOnUse"><stop offset="0" stop-color="#8cdd79"/><stop offset="1" stop-color="#d4e6b6"/></linearGradient></defs><title>Eco Tag</title><g id="Eco_Tag" data-name="Eco Tag"><path class="cls-1" d="M19.94,61.94,2.06,44.06a3.62,3.62,0,0,1,0-5.12L28.94,12.06A3.62,3.62,0,0,1,31.5,11H48a5,5,0,0,1,5,5c0,17.56.37,17.63-1.06,19.06L25.06,61.94A3.62,3.62,0,0,1,19.94,61.94Z"/><circle class="cls-2" cx="29" cy="35" r="12"/><path class="cls-3" d="M29,47A12,12,0,0,1,17,34,12,12,0,0,0,41,34,12,12,0,0,1,29,47Z"/><path class="cls-4" d="M53,28.5c0,3.81.3,5.2-1.06,6.56L25.06,61.94a3.63,3.63,0,0,1-5.12,0L2.06,44.06A3.63,3.63,0,0,1,1.6,39.5c.27.42-.9-.8,18.34,18.44a3.63,3.63,0,0,0,5.12,0L51.94,31.06A3.62,3.62,0,0,0,53,28.5Z"/><path class="cls-5" d="M33.29,35.66C33.29,39.68,29,41,29,41s-4.29-1.32-4.29-5.34S29,26.43,29,26.43,33.29,31.63,33.29,35.66Z"/><path d="M28.23,25.79c-4.72,5.74-7,12.84-.23,15.89v1.89a1,1,0,0,0,2,0V41.68c6.81-3,4.49-10.16-.23-15.89A1,1,0,0,0,28.23,25.79ZM30,39.42V33.29a1,1,0,0,0-2,0v6.13c-4.15-2.58-1.9-7.28,1-11.33C31.86,32.08,34.17,36.83,30,39.42Z"/><path d="M29,22A13,13,0,1,0,42,35,13,13,0,0,0,29,22Zm0,24A11,11,0,1,1,40,35,11,11,0,0,1,29,46Z"/><path d="M54,0A10,10,0,0,0,44,10c-13.28,0-14-.44-15.77,1.35L1.35,38.23a4.64,4.64,0,0,0,0,6.54L19.23,62.65a4.64,4.64,0,0,0,6.54,0L52.65,35.77A4.65,4.65,0,0,0,54,32.5V20A10,10,0,0,0,54,0ZM52,32.5C52,34,53.56,32,24.35,61.23a2.68,2.68,0,0,1-3.7,0L2.77,43.35a2.62,2.62,0,0,1,0-3.7C32,10.43,30,12,31.5,12H44.22a9.63,9.63,0,0,0,1.21,3.1A2.5,2.5,0,1,0,47.11,14a8.3,8.3,0,0,1-.85-2H48a4,4,0,0,1,4,4ZM54,18V16a6,6,0,0,0-6-6H46a8,8,0,1,1,8,8Z"/></g></svg>