<svg xmlns="http://www.w3.org/2000/svg" xmlns:xlink="http://www.w3.org/1999/xlink" viewBox="0 0 64 64"><defs><style>.cls-1{fill:url(#linear-gradient);}.cls-2{fill:url(#linear-gradient-2);}.cls-3{fill:#77cacb;}.cls-4{fill:url(#linear-gradient-3);}.cls-5{fill:url(#linear-gradient-4);}.cls-6{fill:url(#linear-gradient-5);}.cls-7{fill:#dd8b37;}.cls-8{fill:#fff;}.cls-9{fill:url(#linear-gradient-6);}.cls-10{fill:#8288a1;}.cls-11{fill:#4da67f;}.cls-12{fill:url(#linear-gradient-7);}.cls-13{fill:url(#linear-gradient-8);}.cls-14{fill:#42455e;}.cls-15{fill:url(#linear-gradient-9);}.cls-16{fill:url(#linear-gradient-10);}</style><linearGradient id="linear-gradient" x1="29" y1="58" x2="29" y2="31" gradientUnits="userSpaceOnUse"><stop offset="0" stop-color="#6ab891"/><stop offset="1" stop-color="#85cba9"/></linearGradient><linearGradient id="linear-gradient-2" x1="32" y1="41" x2="32" y2="31" gradientUnits="userSpaceOnUse"><stop offset="0" stop-color="#9dd5df"/><stop offset="1" stop-color="#c3e1f5"/></linearGradient><linearGradient id="linear-gradient-3" x1="3" y1="50.02" x2="3" y2="44.18" gradientUnits="userSpaceOnUse"><stop offset="0" stop-color="#fbcc88"/><stop offset="1" stop-color="#ffe5c3"/></linearGradient><linearGradient id="linear-gradient-4" x1="55" y1="51" x2="55" y2="46" xlink:href="#linear-gradient-3"/><linearGradient id="linear-gradient-5" x1="34" y1="27" x2="34" y2="1" gradientUnits="userSpaceOnUse"><stop offset="0" stop-color="#e9a254"/><stop offset="1" stop-color="#f4bb79"/></linearGradient><linearGradient id="linear-gradient-6" x1="9" y1="18" x2="9" y2="10" gradientTransform="translate(23 5) rotate(90)" gradientUnits="userSpaceOnUse"><stop offset="0" stop-color="#949aaf"/><stop offset="1" stop-color="#c6ccda"/></linearGradient><linearGradient id="linear-gradient-7" x1="49" y1="63" x2="49" y2="53" gradientUnits="userSpaceOnUse"><stop offset="0" stop-color="#474f72"/><stop offset="1" stop-color="#878c9f"/></linearGradient><linearGradient id="linear-gradient-8" x1="10" x2="10" xlink:href="#linear-gradient-7"/><linearGradient id="linear-gradient-9" x1="10" y1="56" x2="10" y2="60" gradientTransform="matrix(1, 0, 0, 1, 0, 0)" xlink:href="#linear-gradient-6"/><linearGradient id="linear-gradient-10" x1="49" y1="56" x2="49" y2="60" gradientTransform="matrix(1, 0, 0, 1, 0, 0)" xlink:href="#linear-gradient-6"/></defs><title>Electric car</title><g id="Electric_car" data-name="Electric car"><path class="cls-1" d="M57,58V46L54.19,35.45A6,6,0,0,0,49,31c-.46,0,1.16,0-20.84,0-2.81,0-3.11.78-14.17,10-9.67,3-9.22,2.8-9.89,3.18A6,6,0,0,0,1,49.43V58Z"/><path class="cls-2" d="M50,38.1A2.9,2.9,0,0,1,47.1,41H14c11.14-9.29,11.36-10,14.17-10H48C50.07,37.89,50,37.5,50,38.1Z"/><path class="cls-3" d="M47.1,41H14l2.4-2H47.1a2.9,2.9,0,0,0,2.73-1.92A2.92,2.92,0,0,1,47.1,41Z"/><path class="cls-4" d="M1,50c0-2.77,1.08-4.68,3.11-5.78A3.5,3.5,0,0,1,1,50Z"/><path class="cls-5" d="M55,46h2a0,0,0,0,1,0,0v5a0,0,0,0,1,0,0H55a2,2,0,0,1-2-2V48A2,2,0,0,1,55,46Z"/><circle class="cls-6" cx="34" cy="14" r="13"/><path class="cls-7" d="M34,27A13,13,0,0,1,21.09,12.5a13,13,0,0,0,25.82,0A13,13,0,0,1,34,27Z"/><polygon class="cls-8" points="39 14 35.43 12.62 35.43 5 29 14 32.57 15.38 32.57 23 39 14"/><path class="cls-9" d="M5,11h8a0,0,0,0,1,0,0v3a3,3,0,0,1-3,3H8a3,3,0,0,1-3-3V11A0,0,0,0,1,5,11Z" transform="translate(-5 23) rotate(-90)"/><path class="cls-10" d="M12,13v2a3,3,0,0,1-3,3H6V16H9A3,3,0,0,0,12,13Z"/><rect class="cls-11" x="1" y="55" width="56" height="3"/><circle class="cls-12" cx="49" cy="58" r="5"/><circle class="cls-13" cx="10" cy="58" r="5"/><path class="cls-14" d="M49,63a5,5,0,0,1-4.9-6,5,5,0,0,0,9.8,0A5,5,0,0,1,49,63Z"/><path class="cls-14" d="M10,63a5,5,0,0,1-4.9-6,5,5,0,0,0,9.8,0A5,5,0,0,1,10,63Z"/><path class="cls-15" d="M10,60a2,2,0,1,1,2-2A2,2,0,0,1,10,60Zm0-2h0Zm0,0h0Zm0,0h0Zm0,0h0Zm0,0h0Zm0,0h0Zm0,0h0Zm0,0h0Z"/><path class="cls-16" d="M49,60a2,2,0,1,1,2-2A2,2,0,0,1,49,60Zm0-2Z"/><circle cx="10" cy="58" r="2"/><circle cx="49" cy="58" r="2"/><path d="M32,44H29a1,1,0,0,0,0,2h3A1,1,0,0,0,32,44Z"/><path d="M55,13H48a14,14,0,0,0-27.9,0H12A4,4,0,0,0,8,9H6A1,1,0,0,0,4,9v1H1a1,1,0,0,0,0,2H4v4H1a1,1,0,0,0,0,2H4v1a1,1,0,0,0,2,0H8a4,4,0,0,0,4-4h8.05A14,14,0,0,0,48,15h7a7,7,0,0,1,7,7V50.26a3,3,0,0,1-3,3H58c0-9.59.63-5-2.84-18.07A7.08,7.08,0,0,0,48.39,30H28.17c-3.35,0-4.06,1.27-14.66,10.1C4.25,43,4.42,42.85,3.63,43.3,1.34,44.55,0,46.75,0,50v8a1,1,0,0,0,1,1H4.09a6,6,0,0,0,11.82,0H43.09a6,6,0,0,0,11.82,0H57a1,1,0,0,0,1-1V55.26h1a5,5,0,0,0,5-5V22A9,9,0,0,0,55,13ZM10,15a2,2,0,0,1-2,2H6V11H8a2,2,0,0,1,2,2ZM34,26A12,12,0,1,1,46,14,12,12,0,0,1,34,26ZM56,50H55a1,1,0,0,1-1-1V48a1,1,0,0,1,1-1h1ZM48.92,37.55A1.9,1.9,0,0,1,47.1,40h-12l.8-8H47.26ZM33.89,32l-.8,8H16.76C27.81,30.79,24.65,32,33.89,32ZM2,48.87a4.92,4.92,0,0,1,1.79-3.28C4.75,47.92,2,49.25,2,48.87ZM10,62a4,4,0,1,1,4-4A4,4,0,0,1,10,62Zm39,0a4,4,0,1,1,4-4A4,4,0,0,1,49,62Zm7-5H54.91a6,6,0,0,0-11.82,0H15.91A6,6,0,0,0,4.09,57H2V51a4.46,4.46,0,0,0,3.58-6.31L14.15,42h33a3.91,3.91,0,0,0,3.74-5l-1.46-4.86a5,5,0,0,1,3.84,3.6L55.7,45H55a3,3,0,0,0-3,3v1a3,3,0,0,0,3,3h1Z"/><path d="M36.43,11.93V5a1,1,0,0,0-1.81-.58c-6.91,9.66-6.77,9.21-6.58,9.87s.34.54,3.53,1.78V23a1,1,0,0,0,1.81.58c6.91-9.66,6.78-9.21,6.58-9.87S39.62,13.17,36.43,11.93Zm-2.86,8c0-4.67.21-5.1-.64-5.43l-2.37-.92,3.87-5.41c0,4.67-.21,5.1.64,5.43l2.37.92Z"/></g></svg>