<svg xmlns="http://www.w3.org/2000/svg" xmlns:xlink="http://www.w3.org/1999/xlink" viewBox="0 0 64 64"><defs><style>.cls-1{fill:url(#linear-gradient);}.cls-2{fill:url(#linear-gradient-2);}.cls-3{fill:url(#linear-gradient-3);}.cls-4{fill:url(#linear-gradient-4);}.cls-5{fill:url(#linear-gradient-5);}.cls-6{fill:url(#linear-gradient-6);}.cls-7{fill:#77cacb;}.cls-8{fill:url(#linear-gradient-7);}.cls-9{fill:#8288a1;}.cls-10{fill:url(#linear-gradient-8);}.cls-11{fill:#42455e;}.cls-12{fill:#c7cdd8;}.cls-13{fill:#dfe3ea;}</style><linearGradient id="linear-gradient" x1="1.02" y1="43" x2="14.98" y2="43" gradientUnits="userSpaceOnUse"><stop offset="0" stop-color="#949aaf"/><stop offset="1" stop-color="#c6ccda"/></linearGradient><linearGradient id="linear-gradient-2" x1="29" y1="16" x2="29" y2="12" xlink:href="#linear-gradient"/><linearGradient id="linear-gradient-3" x1="29" y1="12" x2="29" y2="8" xlink:href="#linear-gradient"/><linearGradient id="linear-gradient-4" x1="29" y1="8" x2="29" y2="1.02" gradientUnits="userSpaceOnUse"><stop offset="0" stop-color="#d4d8e1"/><stop offset="1" stop-color="#f3f4f5"/></linearGradient><linearGradient id="linear-gradient-5" x1="23.5" y1="41" x2="23.5" y2="16" xlink:href="#linear-gradient-4"/><linearGradient id="linear-gradient-6" x1="8" y1="63" x2="8" y2="45" gradientUnits="userSpaceOnUse"><stop offset="0" stop-color="#9dd5df"/><stop offset="1" stop-color="#c3e1f5"/></linearGradient><linearGradient id="linear-gradient-7" x1="47" y1="37" x2="47" y2="19" xlink:href="#linear-gradient"/><linearGradient id="linear-gradient-8" x1="57" y1="36" x2="57" y2="20" gradientUnits="userSpaceOnUse"><stop offset="0" stop-color="#474f72"/><stop offset="1" stop-color="#878c9f"/></linearGradient></defs><title>Faucet</title><g id="Faucet"><path class="cls-1" d="M3,41H13a2,2,0,0,1,0,4H3A2,2,0,0,1,3,41Z"/><rect class="cls-2" x="22" y="12" width="14" height="4"/><path class="cls-3" d="M26,8h6a2,2,0,0,1,2,2v2a0,0,0,0,1,0,0H24a0,0,0,0,1,0,0V10A2,2,0,0,1,26,8Z"/><path class="cls-4" d="M31,8V3a2,2,0,0,0-4,0V8Z"/><path class="cls-5" d="M44,22V34H39.68c-4.49,8-16.95,8-21.37,0H17a4,4,0,0,0-4,4v3H3V36A14,14,0,0,1,17,22h2.74A11.88,11.88,0,0,1,23,19.49V16H35v3.48A12,12,0,0,1,38.23,22Z"/><path class="cls-6" d="M14,57A6,6,0,0,1,2,57c0-5.5,6-12,6-12S14,51.5,14,57Z"/><path class="cls-7" d="M8,63a6,6,0,0,1-5.92-7.08,6,6,0,0,0,11.84,0A6,6,0,0,1,8,63Z"/><rect class="cls-8" x="44" y="19" width="6" height="18"/><rect class="cls-9" x="44" y="34" width="6" height="3"/><rect class="cls-10" x="50" y="20" width="14" height="16"/><rect class="cls-11" x="50" y="33" width="14" height="3"/><rect class="cls-12" x="27" y="6" width="4" height="2"/><rect class="cls-13" x="23" y="16" width="12" height="3"/><rect class="cls-12" x="3" y="38" width="10" height="3"/><path class="cls-12" d="M39.68,34c-4.49,8-16.95,8-21.37,0C22.74,38,35.2,38,39.68,34Z"/><path d="M63,35H51V21H63a1,1,0,0,0,0-2H51a1,1,0,0,0-1-1H44a1,1,0,0,0-1,1v2c-6.79,0-2.71.45-7-2.1V17a1,1,0,0,0,1-1V12a1,1,0,0,0-1-1H35V10a3,3,0,0,0-3-3V5h6.28a2,2,0,1,0,0-2H32a3,3,0,0,0-6,0H19.72a2,2,0,1,0,0,2H26V7a3,3,0,0,0-3,3v1H22a1,1,0,0,0-1,1v4a1,1,0,0,0,1,1c0,3.27.41.81-2.69,4H17A15,15,0,0,0,2,36v4.18A3,3,0,0,0,3,46H5.86C4,48.37,1,52.87,1,57a7,7,0,0,0,14,0c0-4.13-3-8.63-4.86-11H13a3,3,0,0,0,1-5.82V38a3,3,0,0,1,3-3h.74c5,8,17.5,8,22.51,0H43v2a1,1,0,0,0,1,1h6a1,1,0,0,0,1-1H63A1,1,0,0,0,63,35ZM8,62a5,5,0,0,1-5-5c0-3.93,3.45-8.58,5-10.46,1.55,1.88,5,6.53,5,10.46A5,5,0,0,1,8,62ZM28,3a1,1,0,0,1,2,0V7H28Zm-3,7a1,1,0,0,1,1-1h6a1,1,0,0,1,1,1v1H25Zm-2,3H35v2H23ZM13,44H3a1,1,0,0,1,0-2H13A1,1,0,0,1,13,44ZM38.81,33.51c-4.09,7.32-15.57,7.3-19.63,0-.32-.58-.72-.51-2.18-.51a5,5,0,0,0-5,5v2H4V36A13,13,0,0,1,17,23c2.8,0,3.09.11,3.48-.33,2.15-2.38,3.52-2,3.52-3.18V17H34c0,2.62-.14,3,.53,3.37,2.75,1.45,2.74,2.63,3.7,2.63H43V33C39.58,33,39.18,32.83,38.81,33.51ZM45,36V20h4V36Z"/></g></svg>