<svg xmlns="http://www.w3.org/2000/svg" xmlns:xlink="http://www.w3.org/1999/xlink" viewBox="0 0 64 64"><defs><style>.cls-1{fill:url(#linear-gradient);}.cls-2{fill:url(#linear-gradient-2);}.cls-3{fill:url(#linear-gradient-3);}.cls-4{fill:#cba07a;}.cls-5{fill:url(#linear-gradient-4);}.cls-6{fill:#4da67f;}.cls-7{fill:url(#linear-gradient-5);}.cls-8{fill:url(#linear-gradient-6);}.cls-9{fill:url(#linear-gradient-7);}.cls-10{fill:url(#linear-gradient-8);}.cls-11{fill:url(#linear-gradient-9);}.cls-12{fill:url(#linear-gradient-10);}.cls-13{fill:url(#linear-gradient-11);}.cls-14{fill:url(#linear-gradient-12);}</style><linearGradient id="linear-gradient" x1="13" y1="55" x2="13" y2="42.02" gradientUnits="userSpaceOnUse"><stop offset="0" stop-color="#d1a788"/><stop offset="1" stop-color="#f2d3b8"/></linearGradient><linearGradient id="linear-gradient-2" x1="32" x2="32" y2="41.99" xlink:href="#linear-gradient"/><linearGradient id="linear-gradient-3" x1="51" x2="51" y2="42.02" xlink:href="#linear-gradient"/><linearGradient id="linear-gradient-4" x1="51.85" y1="43" x2="51.85" y2="32" gradientUnits="userSpaceOnUse"><stop offset="0" stop-color="#6ab891"/><stop offset="1" stop-color="#85cba9"/></linearGradient><linearGradient id="linear-gradient-5" x1="51" y1="33.82" x2="51" y2="24" xlink:href="#linear-gradient-4"/><linearGradient id="linear-gradient-6" x1="49.31" y1="25" x2="49.31" y2="15" gradientTransform="matrix(-1, 0, 0, 1, 100.31, 0)" xlink:href="#linear-gradient-4"/><linearGradient id="linear-gradient-7" x1="12.15" x2="12.15" xlink:href="#linear-gradient-4"/><linearGradient id="linear-gradient-8" x1="32" x2="32" y2="30" xlink:href="#linear-gradient-4"/><linearGradient id="linear-gradient-9" x1="32" y1="32" x2="32" y2="20" xlink:href="#linear-gradient-4"/><linearGradient id="linear-gradient-10" x1="32" y1="21.24" x2="32" y2="9" xlink:href="#linear-gradient-4"/><linearGradient id="linear-gradient-11" x1="13" y1="33.82" x2="13" y2="24" xlink:href="#linear-gradient-4"/><linearGradient id="linear-gradient-12" x1="13" y1="25" x2="13" y2="15" xlink:href="#linear-gradient-4"/></defs><title>Forest</title><g id="Forest"><polyline class="cls-1" points="15 42.02 15 55 11 55 11 42.02"/><rect class="cls-2" x="30" y="41.99" width="4" height="13.01"/><rect class="cls-3" x="49" y="42.02" width="4" height="12.98"/><polygon class="cls-4" points="53 42.02 53 44.25 51 45.23 49 44.25 49 42.02 53 42.02"/><polygon class="cls-4" points="15 42 15 44.23 13 45.21 11 44.23 11 42 15 42"/><path class="cls-5" d="M63,40.24H58.76l-1.41,2.07-3.53-.69L51,43l-2.82-1.38-3.53.69-1.41-2.07H40.69l2.07-3.5c.6-.65,1.24-1.4,1.89-2.24,1.53-1.93,1.27-1.64,1.35-2.5H56l.07.79A34.51,34.51,0,0,0,63,40.24Z"/><path class="cls-6" d="M57.35,34.51l-.66,1-3.28-.69L51,36.07l-2.41-1.24-3.28.69-.66-1c1.53-1.93,1.27-1.64,1.35-2.5H56l.07.79C56.5,33.4,56.93,34,57.35,34.51Z"/><path class="cls-7" d="M60,31.64H56.82l-1.06,1.64-2.64-.55L51,33.82l-2.12-1.09-2.64.55-1.06-1.64H42a27.73,27.73,0,0,0,5.89-7L48,24h6C54.32,25.89,58.33,30.39,60,31.64Z"/><path class="cls-6" d="M55.33,26.51l-.24.36-2.4-.47L51,27.23l-1.69-.83-2.4.47-.24-.36C48,24.61,47.9,24.58,48,24h6C54.1,24.58,54,24.62,55.33,26.51Z"/><path class="cls-8" d="M45,23.62h2.12l.7,1,1.77-.35L51,25l1.41-.69,1.77.35.7-1H57A19.08,19.08,0,0,1,51,15,19.08,19.08,0,0,1,45,23.62Z"/><path class="cls-9" d="M18.07,32.79,18,32H8l-.07.79A33,33,0,0,1,1,40.24H5.24l1.41,2.07,3.53-.69L13,43l2.82-1.38,3.53.69,1.41-2.07h2.55C19.13,33.18,22.16,38.59,18.07,32.79Z"/><path class="cls-6" d="M19.35,34.51l-.66,1-3.28-.69L13,36.07l-2.41-1.24-3.28.69-.66-1C8.18,32.57,7.92,32.86,8,32H18l.07.79C18.5,33.4,18.93,34,19.35,34.51Z"/><polygon class="cls-4" points="34 41.99 34 44.23 32 45.24 30 44.23 30 41.99 34 41.99"/><path class="cls-10" d="M46,39.69H41.06l-1.65,2.48-4.12-.83L32,43l-3.29-1.66-4.12.83-1.65-2.48H18A40.58,40.58,0,0,0,25.93,31L26,30H38l.07,1A40.62,40.62,0,0,0,46,39.69Z"/><path class="cls-6" d="M39.32,32.69l-.58.88-3.87-.78L32,34.24l-2.87-1.45-3.87.78-.58-.88c.42-.54.83-1.11,1.25-1.72L26,30H38l.07,1C38.49,31.58,38.9,32.15,39.32,32.69Z"/><path class="cls-11" d="M43,29.38H39.12l-1.3,2-3.23-.65L32,32l-2.59-1.31-3.23.65-1.3-2H21c3.77-2.78,7-8.17,8-9.38h6C36.18,21.38,39.12,26.52,43,29.38Z"/><path class="cls-6" d="M36.92,22.69l-.24.36L34,22.5l-2,1-1.95-1-2.73.55-.24-.36A20.13,20.13,0,0,1,29,20h6A21.2,21.2,0,0,1,36.92,22.69Z"/><path class="cls-12" d="M39.09,19.55h-2.5l-.84,1.27-2.08-.42L32,21.24l-1.67-.84-2.08.42-.84-1.27h-2.5A23.18,23.18,0,0,0,32,9,23.18,23.18,0,0,0,39.09,19.55Z"/><path class="cls-13" d="M16.11,24.65,16,24H10l-.11.65a26.32,26.32,0,0,1-5.89,7H7.18l1.06,1.64,2.64-.55L13,33.82l2.12-1.09,2.64.55,1.06-1.64H22A26.32,26.32,0,0,1,16.11,24.65Z"/><path class="cls-6" d="M17.33,26.51l-.24.36-2.4-.47L13,27.23l-1.69-.83-2.4.47-.24-.36C10,24.61,9.9,24.58,10,24h6C16.1,24.58,16,24.62,17.33,26.51Z"/><path class="cls-14" d="M19,23.62H16.88l-.7,1-1.77-.35L13,25l-1.41-.69-1.77.35-.7-1H7A19.08,19.08,0,0,0,13,15,19.08,19.08,0,0,0,19,23.62Z"/><path d="M57.28,32.76l.08-.12c2.45,0,3.28.23,3.59-.68.46-1.4-1.76-1.2-5.61-7.23.1-.15-.16-.11,1.66-.11a1,1,0,0,0,.58-1.81,18.34,18.34,0,0,1-5.64-8.15,1,1,0,0,0-1.88,0,18.34,18.34,0,0,1-5.64,8.15A1,1,0,0,0,45,24.62c1.83,0,1.56,0,1.66.11a29.64,29.64,0,0,1-3,3.93,32.86,32.86,0,0,1-6.76-7.79l.22-.32c1.62,0,2.6.23,2.91-.68a1,1,0,0,0-.36-1.12A22.55,22.55,0,0,1,32.94,8.67a1,1,0,0,0-1.88,0,22.55,22.55,0,0,1-6.74,10.08A1,1,0,0,0,24,19.86c.28.84.89.69,2.92.69l.21.32a34,34,0,0,1-6.76,7.79,29.64,29.64,0,0,1-3-3.93c.1-.15-.16-.11,1.66-.11a1,1,0,0,0,.58-1.81,18.34,18.34,0,0,1-5.64-8.15,1,1,0,0,0-1.88,0,18.34,18.34,0,0,1-5.64,8.15A1,1,0,0,0,7,24.62c1.83,0,1.56,0,1.66.11C4.79,30.79,2.58,30.55,3.05,32c.29.86.9.68,3.59.68l.08.12a32.69,32.69,0,0,1-6.3,6.67A1,1,0,0,0,1,41.24H4.71c1.77,2.6.91,2.29,5.29,1.43V54H1a1,1,0,0,0,0,2H62a1,1,0,0,0,0-2H54V42.67c4.46.88,3.51,1.18,5.29-1.43,3.73,0,4.37.21,4.66-.69C64.42,39.08,62.17,39.47,57.28,32.76ZM51,17.56a20.88,20.88,0,0,0,3.51,5.13c-.33.13-.41.31-.79.86-1.68-.33-1.23-.39-2.72.34-1.51-.74-1-.67-2.72-.34-.4-.58-.46-.72-.79-.86A20.88,20.88,0,0,0,51,17.56Zm-2.49,8c1.18-.23.72-.29,2.05.36a1,1,0,0,0,.88,0c1.33-.65.87-.59,2.05-.36,3.52,5.64,4.84,5.1,3.33,5.1-.7,0-.9.55-1.53,1.52-2.77-.58-1.91-.69-4.29.54-2.36-1.21-1.51-1.12-4.29-.54-.68-1-.85-1.52-1.53-1.52C43.67,30.64,45,31.14,48.51,25.54ZM42,30.38c-.51.45-1.16.79-.9,1.58s.9.68,3.59.68l.07.11q-1,1.3-2,2.49A45.72,45.72,0,0,1,39.28,31l.38-.57ZM48,54H35V42.61c.62-.31-.11-.33,4.21.54.79.16,1-.35,2-1.91h1.48c1.77,2.6.91,2.29,5.29,1.43ZM16,42.67c4.38.86,3.5,1.19,5.29-1.43h1.48c1.05,1.57,1.23,2.07,2,1.91,4.34-.88,3.61-.85,4.21-.54V54H16Zm13.16-2.22c-.41-.21-.33-.15-4.11.61-1.85-2.79-1-2.37-4.36-2.37a45.18,45.18,0,0,0,5.5-6.36,20.68,20.68,0,0,0,3.08-.59c3.25,1.64,2.19,1.65,5.46,0a22.12,22.12,0,0,0,3.08.59,45.37,45.37,0,0,0,5.5,6.36c-3.34,0-2.51-.42-4.36,2.37-3.76-.76-3.7-.82-4.11-.61L32,41.88ZM32,11.69a25.63,25.63,0,0,0,4.54,6.86c-.62,0-.8.47-1.25,1.16-2.09-.43-1.49-.5-3.29.41-1.85-.93-1.2-.84-3.29-.41-.52-.8-.67-1.13-1.25-1.16A25.63,25.63,0,0,0,32,11.69Zm-3.07,10,1.26-.25c2.1,1.06,1.53,1.05,3.62,0l1.26.25c4.69,7.47,6.78,6.68,4,6.68-.71,0-.89.54-1.76,1.85-3.52-.71-2.32-.89-5.36.65-3-1.53-1.83-1.36-5.36-.65-.95-1.45-1.09-1.85-1.76-1.85C22.16,28.38,24.23,29.18,28.93,21.7Zm-4.59,8.68.38.57a45.72,45.72,0,0,1-3.45,4.29q-1-1.18-2-2.49l.07-.11c2.45,0,3.28.23,3.59-.68s-.41-1.14-.9-1.58ZM13,17.56a20.88,20.88,0,0,0,3.51,5.13c-.33.13-.41.31-.79.86-1.68-.33-1.23-.39-2.72.34-1.51-.74-1-.67-2.72-.34-.4-.58-.46-.72-.79-.86A20.88,20.88,0,0,0,13,17.56ZM6.56,30.64a30.64,30.64,0,0,0,4-5.1l.94-.18c1.77.86,1.33.86,3.1,0l.94.18a30.64,30.64,0,0,0,4,5.1c-1.31,0-1.12-.07-2.15,1.52-2.77-.58-1.91-.69-4.29.54-2.39-1.23-1.52-1.12-4.29-.54C7.74,30.66,7.92,30.64,6.56,30.64ZM7.11,41.2c-1.13-1.64-1.21-2-1.87-2-2.8,0-1.45.83,2.86-5,.25,0,.15,0,2.64-.49,2.7,1.39,1.84,1.38,4.52,0,2.39.5,2.37.53,2.66.48.63.84,1.29,1.65,2,2.43a24.72,24.72,0,0,1-2.47,2.19A1,1,0,0,0,18,40.69h1.24l-.35.51c-3.93-.77-2.58-.93-5.89.69C9.67,40.26,11,40.44,7.11,41.2ZM12,54V43.62c1.07.53,1,.51,2,0V54Zm19,0V43.62c1.06.53,1,.51,2,0V54Zm19,0V43.62c1.07.53,1,.51,2,0V54Zm8.76-14.76c-.67,0-.79.38-1.87,2-3.93-.77-2.58-.93-5.89.69-3.33-1.63-2-1.45-5.89-.69l-.35-.51H46a1,1,0,0,0,.59-1.81,24.72,24.72,0,0,1-2.47-2.19c.67-.78,1.33-1.59,2-2.43.27.05.1.05,2.66-.48,2.7,1.39,1.84,1.38,4.52,0,2.57.54,2.39.52,2.64.49C60.2,40.05,61.57,39.24,58.76,39.24Z"/></g></svg>