<svg xmlns="http://www.w3.org/2000/svg" xmlns:xlink="http://www.w3.org/1999/xlink" viewBox="0 0 64 64"><defs><style>.cls-1{fill:url(#linear-gradient);}.cls-2{fill:#c7cdd8;}.cls-3{fill:#dfe3ea;}.cls-4{fill:url(#linear-gradient-2);}.cls-5{fill:url(#linear-gradient-3);}.cls-6{fill:#4da67f;}.cls-7{fill:url(#linear-gradient-4);}.cls-8{fill:url(#linear-gradient-5);}.cls-9{fill:#77cacb;}.cls-10{fill:#aae0e5;}.cls-11{fill:url(#linear-gradient-6);}.cls-12{fill:url(#linear-gradient-7);}</style><linearGradient id="linear-gradient" x1="23" y1="57" x2="23" y2="23" gradientUnits="userSpaceOnUse"><stop offset="0" stop-color="#d4d8e1"/><stop offset="1" stop-color="#f3f4f5"/></linearGradient><linearGradient id="linear-gradient-2" x1="23" y1="48" x2="23" y2="31" gradientUnits="userSpaceOnUse"><stop offset="0" stop-color="#8cdd79"/><stop offset="1" stop-color="#d4e6b6"/></linearGradient><linearGradient id="linear-gradient-3" x1="23" y1="63" x2="23" y2="57" gradientUnits="userSpaceOnUse"><stop offset="0" stop-color="#6ab891"/><stop offset="1" stop-color="#85cba9"/></linearGradient><linearGradient id="linear-gradient-4" y1="23" y2="1" xlink:href="#linear-gradient-3"/><linearGradient id="linear-gradient-5" x1="23" y1="19" x2="23" y2="5" gradientUnits="userSpaceOnUse"><stop offset="0" stop-color="#9dd5df"/><stop offset="1" stop-color="#c3e1f5"/></linearGradient><linearGradient id="linear-gradient-6" x1="41" y1="44" x2="41" y2="34" xlink:href="#linear-gradient-3"/><linearGradient id="linear-gradient-7" x1="56" y1="21" x2="56" y2="11" xlink:href="#linear-gradient-3"/></defs><title>Gas Station</title><g id="Gas_Station" data-name="Gas Station"><rect class="cls-1" x="7" y="23" width="32" height="34"/><rect class="cls-2" x="7" y="54" width="32" height="3"/><rect class="cls-3" x="7" y="23" width="32" height="2"/><path class="cls-4" d="M28,41.77C28,46.46,23,48,23,48s-5-1.54-5-6.23S23,31,23,31,28,37.07,28,41.77Z"/><rect class="cls-5" x="5" y="57" width="36" height="6"/><rect class="cls-6" x="5" y="61" width="36" height="2"/><rect class="cls-7" x="5" y="1" width="36" height="22" rx="2"/><path class="cls-6" d="M41,19v2a2,2,0,0,1-2,2H7a2,2,0,0,1-2-2V19a2,2,0,0,0,2,2H39A2,2,0,0,0,41,19Z"/><rect class="cls-8" x="9" y="5" width="28" height="14"/><rect class="cls-9" x="9" y="16" width="28" height="3"/><rect class="cls-10" x="9" y="5" width="28" height="2"/><path class="cls-11" d="M39,34h2a2,2,0,0,1,2,2v6a2,2,0,0,1-2,2H39a0,0,0,0,1,0,0V34A0,0,0,0,1,39,34Z"/><path class="cls-6" d="M43,40v2a2,2,0,0,1-2,2H39V42h2A2,2,0,0,0,43,40Z"/><path class="cls-12" d="M59,13v8H55l-2-2V15a4,4,0,0,1,4-4h.42C58.61,12.19,59,12.42,59,13Z"/><polygon class="cls-6" points="59 19 59 21 55 21 53 19 53 17 55 19 59 19"/><path d="M22.23,30.36C22,30.62,17,36.77,17,41.77c0,3.82,3,6,5,6.92V51a1,1,0,0,0,2,0V48.69c2-.87,5-3.1,5-6.92,0-5-5-11.15-5.23-11.41A1,1,0,0,0,22.23,30.36ZM24,46.46V39a1,1,0,0,0-2,0v7.45c-5.33-3-2.6-8.84,1-13.8C26.62,37.63,29.32,43.42,24,46.46Z"/><path d="M9,20H37a1,1,0,0,0,1-1V5a1,1,0,0,0-1-1H9A1,1,0,0,0,8,5V19A1,1,0,0,0,9,20ZM10,6H36V18H10Z"/><path d="M59.92,12.62c-.11-.27.42.3-7.21-7.33a1,1,0,0,0-1.42,1.42L55,10.42A5,5,0,0,0,52,15c0,4.34-.1,4.32.29,4.71C54.43,21.85,54.45,22,55,22h3V52a4,4,0,0,1-8,0V45a7,7,0,0,0-6-6.92V36a3,3,0,0,0-3-3H40V23.82A3,3,0,0,0,42,21V3a3,3,0,0,0-3-3H7A3,3,0,0,0,4,3V21a3,3,0,0,0,2,2.82V56H5a1,1,0,0,0-1,1v6a1,1,0,0,0,1,1H41a1,1,0,0,0,1-1V57a1,1,0,0,0-1-1H40V45h1a3,3,0,0,0,3-3V40.1A5,5,0,0,1,48,45v7a6,6,0,0,0,12,0C60,10.39,60,12.89,59.92,12.62ZM6,3A1,1,0,0,1,7,2H39a1,1,0,0,1,1,1V21a1,1,0,0,1-1,1H7a1,1,0,0,1-1-1ZM40,62H6V58H40ZM8,56V24H38V56ZM42,42a1,1,0,0,1-1,1H40V35h1a1,1,0,0,1,1,1ZM55.41,20,54,18.59V15a3,3,0,0,1,2.62-3L58,13.41V20Z"/></g></svg>