<svg xmlns="http://www.w3.org/2000/svg" xmlns:xlink="http://www.w3.org/1999/xlink" viewBox="0 0 64 64"><defs><style>.cls-1{fill:#ffd9cc;}.cls-2{fill:url(#linear-gradient);}.cls-3{fill:#77cacb;}.cls-4{fill:url(#linear-gradient-2);}.cls-5{fill:url(#linear-gradient-3);}.cls-6{fill:url(#linear-gradient-4);}.cls-7{fill:url(#linear-gradient-5);}</style><linearGradient id="linear-gradient" x1="31.98" y1="54.02" x2="31.98" y2="9.95" gradientUnits="userSpaceOnUse"><stop offset="0" stop-color="#9dd5df"/><stop offset="1" stop-color="#c3e1f5"/></linearGradient><linearGradient id="linear-gradient-2" x1="32.09" y1="51.78" x2="32.09" y2="34.29" gradientUnits="userSpaceOnUse"><stop offset="0" stop-color="#6ab891"/><stop offset="1" stop-color="#85cba9"/></linearGradient><linearGradient id="linear-gradient-3" x1="21.34" y1="34.86" x2="21.34" y2="17.06" xlink:href="#linear-gradient-2"/><linearGradient id="linear-gradient-4" x1="47.94" y1="42.36" x2="47.94" y2="16.71" xlink:href="#linear-gradient-2"/><linearGradient id="linear-gradient-5" x1="33.13" y1="20.29" x2="33.13" y2="10" xlink:href="#linear-gradient-2"/></defs><title>Greenhouse effect</title><g id="Greenhouse_effect" data-name="Greenhouse effect"><path class="cls-1" d="M62.69,36.38C59.06,61.84,28,71.83,10.08,53.93-10,33.82,5.53-.77,34,1.07A31,31,0,0,1,62.69,36.38Z"/><path class="cls-2" d="M53.78,35.11A22,22,0,0,1,35.73,53.68c-20.94,3.62-34.51-22-19.29-37.23C31.4,1.49,56.75,14.32,53.78,35.11Z"/><path class="cls-3" d="M35.73,53.68A22,22,0,0,1,10.06,30.5,22,22,0,0,0,54,30.59,22,22,0,0,1,35.73,53.68Z"/><path class="cls-4" d="M25.8,34.86c1.23,1,2.18-.27,4.36-.54s7.91,1.22,8.2,3.4S35.63,42.5,33.72,45s-1.37,6.82-1.37,6.82l-2.45-1.9c-1.24-1,.27-6.69.13-7.79S26.35,39.23,27.3,38,27,35.82,25.8,34.86Z"/><path class="cls-5" d="M30,24.36a5.89,5.89,0,0,0-2.72,4.77c.14,1.09-3.28.42-4.23,1.64s1.5,3.14,2.73,4.09c-1.23-1-4.64-1.63-7-2.45s-2.87-5.19-3-6.28c-.11-.86-2.36-2.15-3.9-3.13a22.27,22.27,0,0,1,3.61-5.6c10.79-1,7.6.39,9.55,1.9,1.22.95-.12.15,2.07-.14S32.07,23,30,24.36Z"/><path class="cls-6" d="M47.82,16.71A22,22,0,0,1,51.4,42.36C49.86,41.1,49.23,36,49,34.18c-.28-2.18-6.83-1.36-7.1-3.56S43.54,26,43.54,26c1-1.23,4.36-.55,6.54-.82s-2.46-1.91-6-3.68S46,20.11,47.82,16.71Z"/><path class="cls-7" d="M39.45,11.3a3.25,3.25,0,0,0,.26,1.86c1.51,3.14-1.51,3.82-3.42,6.28s-4.85-.8-5.32-5.18c-.19-1.81-4.77-2.74-4.77-2.74,0-.28-.06-.51-.07-.72A22,22,0,0,1,39.45,11.3Z"/><path d="M31.43,9A23,23,0,0,0,9,32C9,52.45,33.87,62.67,48.26,48.27,62.9,33.63,52.13,8.48,31.43,9Zm19.85,31.3c-2.46-6.38.86-7.59-5.63-8.89-.74-.15-2.71-.55-2.76-.93-.18-1.44,1-3.3,1.43-3.9s4-.21,5.89-.44c1.06-.13,1.36-.67,1.42-1.09.27-1.8-4.35-2.92-7.15-4.5a10.22,10.22,0,0,0,3.43-2.26A21,21,0,0,1,51.28,40.32ZM38.81,13.6c1.1,2.29-1.35,2.7-3.31,5.23-.44.56-.76.47-.9.43-.9-.26-2.32-2.18-2.63-5.11-.15-1.41-1.67-2.33-3.13-2.9a20.76,20.76,0,0,1,9.58.77A4.18,4.18,0,0,0,38.81,13.6ZM26.28,28.79c-1.09.22-3.07.16-4,1.37a2,2,0,0,0-.22,2.19c-.92-.26-2.09-.6-2.89-.88-.64-.23-1.79-1.23-2.35-5.46-.14-1.12-1.45-2-3.6-3.38a20.54,20.54,0,0,1,2.84-4.28c5.79-.51,6.84-.2,6.94-.16.81.63-.09.66,1.8,2.16.74.6,1.38.45,1.71,0,1.93-1,4,2.5,2.95,3.18C29.36,23.63,26.35,25.59,26.28,28.79ZM17.15,46.85A20.94,20.94,0,0,1,12.4,24.48a10.75,10.75,0,0,1,2.45,1.83c.19,1.49.79,6,3.65,7.05,2.21.77,5.68,1.5,6.68,2.29,1.6,1.24,1.56,1.44,1.33,1.74-1.57,2,2.07,4.06,2.53,4.82a16.9,16.9,0,0,1-.23,1.89c-1,6.43-.35,5.92,2.92,8.47a1,1,0,0,0,1.61-.91s-.46-4,1.17-6.09c2-2.56,5.17-5.25,4.84-8-.41-3.18-7.16-4.53-9.31-4.26s-3.12,1.25-3.63.74c-.31-.16-2.64-2.1-2.55-2.69.64-.82,4.73,0,4.43-2.38a4.93,4.93,0,0,1,2.28-3.81c3.17-2.11-.74-8.58-4.86-6.68-.72-.48-.11-.84-1.48-1.9-.49-.38-1.43-.73-6-.43a21.2,21.2,0,0,1,7.19-4.1,1,1,0,0,0,.62.42c1.95.4,3.92,1.32,4,1.86.58,5.54,4.59,8.91,7.09,5.69,1.7-2.18,5.3-3.41,3.6-7.18a20.82,20.82,0,0,1,5.85,4c-1.65,1.95-4.57,1.94-4.59,3.66,0,1.46,2.19,2.12,5.68,3.72-2,0-3.93-.06-4.86,1.14-.23.29-2.16,2.86-1.85,5.38.23,1.81,2.42,2.25,4.35,2.64.74.14,2.71.54,2.76,1,.39,3.14,1,6.47,2.18,8.16A21,21,0,0,1,17.15,46.85Zm11.11-11a8.52,8.52,0,0,1,2-.58c2.12-.26,6.92,1.29,7.08,2.53s-1.43,3-2.83,4.61c-1.81,2.07-3.07,3.3-3.24,7.25-.89-.69-1.26-.24-.5-5.31.41-2.71.53-2.87-1.41-4.61a7.82,7.82,0,0,1-1.21-1.27A2.15,2.15,0,0,0,28.26,35.89Z"/><path d="M25.73,6.74a1,1,0,1,0-.24-2A1,1,0,0,0,25.73,6.74Z"/><path d="M22.81,6.59A1,1,0,0,0,21,7.34,1,1,0,0,0,22.81,6.59Z"/><path d="M18.26,9.75a1,1,0,1,0-.5-1.86A1,1,0,0,0,18.26,9.75Z"/><path d="M15,12.06a1,1,0,1,0-.64-1.77A1,1,0,0,0,15,12.06Z"/><path d="M10.1,16.18A1,1,0,0,0,9,17.84,1,1,0,0,0,10.1,16.18Z"/><path d="M7.08,24.58A1,1,0,0,0,5.16,24,1,1,0,0,0,7.08,24.58Z"/><path d="M12,14.83c.42,0,.84-.32.74-.32a1,1,0,1,0-.74.32Z"/><path d="M6.25,28.37a1,1,0,0,0-2-.27A1,1,0,0,0,6.25,28.37Z"/><path d="M7.13,21.43A1,1,0,0,0,8,19.62,1,1,0,0,0,7.13,21.43Z"/><path d="M29.71,6.1h.08a1,1,0,1,0-.08,0Z"/><path d="M6,32.25a1,1,0,0,0-2,0A1,1,0,0,0,6,32.25Z"/><path d="M55,16a1,1,0,0,0-1.64,1.15A1,1,0,0,0,55,16Z"/><path d="M57.1,19.59a1,1,0,0,0-1.79.88A1,1,0,0,0,57.1,19.59Z"/><path d="M58,24.72a1,1,0,0,0-.61-1.9A1,1,0,0,0,58,24.72Z"/><path d="M57.66,27.85a1,1,0,0,0,1.15.83,1,1,0,1,0-1.15-.83Z"/><path d="M52.32,12.74a1,1,0,0,0-1.45,1.38A1,1,0,0,0,52.32,12.74Z"/><path d="M38.71,5.83a1,1,0,0,0-2-.43A1,1,0,0,0,38.71,5.83Z"/><path d="M34.74,5.12a1,1,0,0,0-2-.14A1,1,0,0,0,34.74,5.12Z"/><path d="M42.54,7.12a1,1,0,0,0-1.87-.71A1,1,0,0,0,42.54,7.12Z"/><path d="M49.22,9.93A1,1,0,0,0,48,11.51,1,1,0,0,0,49.22,9.93Z"/><path d="M46.13,9a1,1,0,0,0-1.74-1A1,1,0,0,0,46.13,9Z"/><path d="M7.22,39.9a1,1,0,0,0-1.91.61A1,1,0,0,0,7.22,39.9Z"/><path d="M51.21,49.53a1,1,0,0,0,1.48,1.35h0A1,1,0,0,0,51.21,49.53Z"/><path d="M48.38,52.2a1,1,0,1,0,1.41.14A1,1,0,0,0,48.38,52.2Z"/><path d="M53.61,46.47A1,1,0,1,0,55,46.2,1,1,0,0,0,53.61,46.47Z"/><path d="M41.71,56.13a1,1,0,1,0,1.3.56A1,1,0,0,0,41.71,56.13Z"/><path d="M38,57.3a1,1,0,1,0,1.2.74A1,1,0,0,0,38,57.3Z"/><path d="M45.2,54.42a1,1,0,1,0,1,1.72A1,1,0,0,0,45.2,54.42Z"/><path d="M59,30.71a1,1,0,0,0,0,2A1,1,0,0,0,59,30.71Z"/><path d="M56.85,42.62a1,1,0,0,0-.85,1.8A1,1,0,0,0,56.85,42.62Z"/><path d="M58.88,34.75a1,1,0,0,0-.29,2A1,1,0,0,0,59.72,36a0,0,0,0,0,0,0v0A1,1,0,0,0,58.88,34.75Z"/><path d="M58.15,38.79a1,1,0,0,0-.57,1.92A1,1,0,0,0,58.15,38.79Z"/><path d="M14.57,52.65a1,1,0,1,0,1.4-.17A1,1,0,0,0,14.57,52.65Z"/><path d="M11.69,49.82a1,1,0,1,0,1.41,0A1,1,0,0,0,11.69,49.82Z"/><path d="M5.49,37.27a1,1,0,0,0-.31-2A1,1,0,0,0,5.49,37.27Z"/><path d="M9.25,46.6a1,1,0,1,0,1.4.25A1,1,0,0,0,9.25,46.6Z"/><path d="M7.33,43.05a1,1,0,1,0,1.34.45A1,1,0,0,0,7.33,43.05Z"/><path d="M26.43,57.4a1,1,0,0,0-.42,2A1,1,0,0,0,26.43,57.4Z"/><path d="M30.28,58c0-.13-1,.08-1.06.93A1,1,0,1,0,30.28,58Z"/><path d="M34.17,57.91a1,1,0,0,0,.08,2A1,1,0,1,0,34.17,57.91Z"/><path d="M19.2,54.64a1,1,0,0,0-1,1.74A1,1,0,0,0,19.2,54.64Z"/><path d="M22.71,56.3A1,1,0,0,0,22,58.16,1,1,0,0,0,22.71,56.3Z"/><path d="M62.42,22.07A32,32,0,0,0,24.42.92C.37,6.77-8.31,37,9.37,54.63A32,32,0,0,0,62.42,22.07ZM61.7,36.24c-3.5,24.55-33.54,34.35-50.91,17C-8.14,34.29,5.48,2,32,2A30,30,0,0,1,61.7,36.24Z"/></g></svg>