<svg xmlns="http://www.w3.org/2000/svg" xmlns:xlink="http://www.w3.org/1999/xlink" viewBox="0 0 64 64"><defs><style>.cls-1{fill:url(#linear-gradient);}.cls-2{fill:url(#linear-gradient-2);}.cls-3{fill:url(#linear-gradient-3);}.cls-4{fill:#cba07a;}.cls-5{fill:url(#linear-gradient-4);}.cls-6{fill:url(#linear-gradient-5);}.cls-7{fill:url(#linear-gradient-6);}.cls-8{fill:#8a6762;}.cls-9{fill:url(#linear-gradient-7);}.cls-10{fill:url(#linear-gradient-8);}.cls-11{fill:#f6b756;}.cls-12{fill:url(#linear-gradient-9);}.cls-13{fill:#dfe3ea;}</style><linearGradient id="linear-gradient" x1="38.5" y1="63" x2="38.5" y2="25" gradientUnits="userSpaceOnUse"><stop offset="0" stop-color="#9dd5df"/><stop offset="1" stop-color="#c3e1f5"/></linearGradient><linearGradient id="linear-gradient-2" x1="14" x2="14" y2="24.98" xlink:href="#linear-gradient"/><linearGradient id="linear-gradient-3" x1="14" y1="63" x2="14" y2="47" gradientUnits="userSpaceOnUse"><stop offset="0" stop-color="#d1a788"/><stop offset="1" stop-color="#f2d3b8"/></linearGradient><linearGradient id="linear-gradient-4" x1="5.5" y1="63" x2="5.5" y2="59" gradientUnits="userSpaceOnUse"><stop offset="0" stop-color="#9b756d"/><stop offset="1" stop-color="#bc9388"/></linearGradient><linearGradient id="linear-gradient-5" x1="22.5" x2="22.5" xlink:href="#linear-gradient-4"/><linearGradient id="linear-gradient-6" x1="45" x2="45" xlink:href="#linear-gradient-4"/><linearGradient id="linear-gradient-7" x1="37" y1="55" x2="37" y2="47" gradientUnits="userSpaceOnUse"><stop offset="0" stop-color="#d4d8e1"/><stop offset="1" stop-color="#f3f4f5"/></linearGradient><linearGradient id="linear-gradient-8" x1="32" y1="15" x2="32" y2="7" gradientUnits="userSpaceOnUse"><stop offset="0" stop-color="#fbcc88"/><stop offset="1" stop-color="#ffe5c3"/></linearGradient><linearGradient id="linear-gradient-9" x1="55" x2="55" xlink:href="#linear-gradient-7"/></defs><title>Greenhouse</title><g id="Greenhouse"><path class="cls-1" d="M63,38V63H14V25H50A13,13,0,0,1,63,38Z"/><path class="cls-2" d="M27,38V63H1c0-27.18,0-25.41.05-26a13,13,0,0,1,26,1Z"/><rect class="cls-3" x="10" y="47" width="8" height="16"/><rect class="cls-4" x="10" y="61" width="8" height="2"/><rect class="cls-5" x="1" y="59" width="9" height="4"/><rect class="cls-6" x="18" y="59" width="9" height="4"/><rect class="cls-7" x="27" y="59" width="36" height="4"/><rect class="cls-8" x="1" y="61" width="9" height="2"/><rect class="cls-8" x="18" y="61" width="9" height="2"/><rect class="cls-8" x="27" y="61" width="36" height="2"/><rect class="cls-9" x="33" y="47" width="8" height="8"/><circle class="cls-10" cx="32" cy="11" r="4"/><path class="cls-11" d="M32,15a4,4,0,0,1-3.87-5,4,4,0,0,0,7.74,0A4,4,0,0,1,32,15Z"/><rect class="cls-12" x="51" y="47" width="8" height="8"/><rect class="cls-13" x="33" y="47" width="8" height="2"/><rect class="cls-13" x="51" y="47" width="8" height="2"/><rect class="cls-8" x="26" y="59" width="2" height="4"/><path d="M50,24H14A14.06,14.06,0,0,0,0,38V63a1,1,0,0,0,1,1H63a1,1,0,0,0,1-1V38A14,14,0,0,0,50,24ZM19,58V47a1,1,0,0,0-1-1H10a1,1,0,0,0-1,1V58H7V39H21V58ZM2,58V39H5V58ZM7,28.27a11.92,11.92,0,0,1,14,0V37H7ZM26,37H23V30.09A12,12,0,0,1,26,37ZM23,39h3V58H23Zm5,0H44V58H28Zm18,0H62V58H46Zm4-13A12,12,0,0,1,62,37H46a14,14,0,0,0-6.78-11ZM32,26A12,12,0,0,1,44,37H28a14.08,14.08,0,0,0-6.78-11ZM5,30.09V37H2.05A12,12,0,0,1,5,30.09ZM2,62V60H9v2Zm9-14h6V62H11Zm8,14V60h7v2Zm9-2H44v2H28Zm34,2H46V60H62Z"/><path d="M40,46H32a1,1,0,0,0-1,1v8a1,1,0,0,0,1,1h8a1,1,0,0,0,1-1V47A1,1,0,0,0,40,46Zm-1,8H33V48h6Z"/><path d="M32,15a5,5,0,1,0-5-5A5,5,0,0,0,32,15Zm0-8a3,3,0,1,1-3,3A3,3,0,0,1,32,7Z"/><path d="M33,3V1a1,1,0,0,0-2,0V3A1,1,0,0,0,33,3Z"/><path d="M31,17v2a1,1,0,0,0,2,0V17A1,1,0,0,0,31,17Z"/><path d="M39,11h2a1,1,0,0,0,0-2H39A1,1,0,0,0,39,11Z"/><path d="M23,11h2a1,1,0,0,0,0-2H23A1,1,0,0,0,23,11Z"/><path d="M37,6.05c.6,0,.83-.41,2.12-1.71a1,1,0,0,0-1.41-1.41L36.24,4.34A1,1,0,0,0,37,6.05Z"/><path d="M26.34,14.24l-1.41,1.42a1,1,0,0,0,1.41,1.41l1.42-1.41A1,1,0,0,0,26.34,14.24Z"/><path d="M36.24,15.66l1.42,1.41a1,1,0,0,0,1.41-1.41l-1.41-1.42A1,1,0,0,0,36.24,15.66Z"/><path d="M26.34,5.76a1,1,0,0,0,1.42-1.42L26.34,2.93a1,1,0,0,0-1.41,1.41Z"/><path d="M58,46H50a1,1,0,0,0-1,1v8a1,1,0,0,0,1,1h8a1,1,0,0,0,1-1V47A1,1,0,0,0,58,46Zm-1,8H51V48h6Z"/></g></svg>