<svg xmlns="http://www.w3.org/2000/svg" xmlns:xlink="http://www.w3.org/1999/xlink" viewBox="0 0 64 64"><defs><style>.cls-1{fill:url(#linear-gradient);}.cls-2{fill:#7ece67;}.cls-3{fill:url(#linear-gradient-2);}.cls-4{fill:#dfe3ea;}.cls-5{fill:url(#linear-gradient-3);}.cls-6{fill:url(#linear-gradient-4);}</style><linearGradient id="linear-gradient" x1="32" y1="63" x2="32" y2="1" gradientUnits="userSpaceOnUse"><stop offset="0" stop-color="#8cdd79"/><stop offset="1" stop-color="#d4e6b6"/></linearGradient><linearGradient id="linear-gradient-2" x1="32" y1="54" x2="32" y2="10" gradientUnits="userSpaceOnUse"><stop offset="0" stop-color="#d4d8e1"/><stop offset="1" stop-color="#f3f4f5"/></linearGradient><linearGradient id="linear-gradient-3" x1="24" y1="45.63" x2="24" y2="33" xlink:href="#linear-gradient"/><linearGradient id="linear-gradient-4" x1="40" y1="48" x2="40" y2="35.37" gradientTransform="translate(80 83.37) rotate(-180)" xlink:href="#linear-gradient"/></defs><title>Label</title><g id="Label"><path class="cls-1" d="M63,32c0,2.68-2.53,5-3.19,7.45s.33,5.82-1,8-4.65,3-6.5,4.85-2.58,5.19-4.85,6.5-5.49.28-8,1S34.68,63,32,63s-5-2.53-7.45-3.19-5.82.33-8-1-3-4.65-4.85-6.5-5.19-2.58-6.5-4.85-.28-5.49-1-8S1,34.68,1,32s2.53-5,3.19-7.45-.33-5.82,1-8,4.65-3,6.5-4.85,2.58-5.19,4.85-6.5,5.49-.28,8.05-1S29.32,1,32,1s5,2.53,7.45,3.19,5.82-.33,8,1,3,4.65,4.85,6.5,5.19,2.58,6.5,4.85.28,5.49,1,8.05S63,29.32,63,32Z"/><circle class="cls-2" cx="32" cy="32" r="24"/><circle class="cls-3" cx="32" cy="32" r="22"/><path class="cls-4" d="M53.94,33.48a22,22,0,0,0-43.88,0,22,22,0,1,1,43.88,0Z"/><path class="cls-5" d="M16,33h5.39A10.61,10.61,0,0,1,32,43.61v2a0,0,0,0,1,0,0H26.61A10.61,10.61,0,0,1,16,35V33A0,0,0,0,1,16,33Z"/><path class="cls-6" d="M42.61,35.37H48a0,0,0,0,1,0,0v2A10.61,10.61,0,0,1,37.39,48H32a0,0,0,0,1,0,0V46A10.61,10.61,0,0,1,42.61,35.37Z" transform="translate(80 83.37) rotate(180)"/><path class="cls-2" d="M32,43.63v2H26.61A10.61,10.61,0,0,1,16,35V33A10.61,10.61,0,0,0,26.61,43.63Z"/><path class="cls-2" d="M48,35.39v2A10.61,10.61,0,0,1,37.39,48H32V46h5.39A10.61,10.61,0,0,0,48,35.39Z"/><path d="M62.15,27.07c-1.49-2.49-1.64-2.94-1.6-6,.06-4.67-.62-6-4.85-8.35-2.61-1.46-3-1.8-4.41-4.41C49,4.09,47.63,3.38,42.94,3.45c-3.06,0-3.52-.11-6-1.6-4.15-2.48-5.73-2.47-9.86,0-2.49,1.49-2.95,1.64-6,1.6-4.7-.07-6,.65-8.35,4.85-1.46,2.61-1.79,2.95-4.41,4.41-4.23,2.36-4.91,3.68-4.85,8.35,0,3.05-.1,3.5-1.6,6-2.46,4.11-2.5,5.69,0,9.86,1.49,2.49,1.64,2.94,1.6,6-.06,4.67.62,6,4.85,8.35,2.61,1.46,2.95,1.8,4.41,4.41,2.32,4.17,3.62,4.92,8.35,4.85,3.07,0,3.52.11,6,1.6,4.15,2.48,5.73,2.47,9.86,0,2.49-1.49,2.94-1.64,6-1.6,4.73.07,6-.68,8.35-4.85,1.46-2.61,1.79-3,4.41-4.41,4.23-2.36,4.91-3.68,4.85-8.35,0-3,.1-3.5,1.6-6C64.61,32.82,64.65,31.24,62.15,27.07ZM60.43,35.9c-1.68,2.82-1.92,3.62-1.88,7.06.06,4-.29,4.62-3.82,6.58-2.94,1.64-3.55,2.25-5.19,5.19-2,3.52-2.61,3.88-6.58,3.82-3.44,0-4.26.2-7.06,1.88-3.49,2.1-4.31,2.09-7.8,0-2.43-1.45-3.4-1.88-6.23-1.88-1.65,0-3.6.17-4.87-.56-1.94-1.12-2.71-4.4-4.65-6.34S7.14,49,6,47s-.15-5.13-.87-7.81S2,34.3,2,32s2.46-4.59,3.15-7.2S4.91,18.9,6,17s4.39-2.71,6.33-4.65S15.06,7.14,17,6s5.13-.14,7.8-.86C27.24,4.5,29.78,2,32,2s4.59,2.46,7.19,3.15S45.1,4.91,47,6s2.71,4.4,4.65,6.34S56.86,15.05,58,17s.15,5.13.87,7.81S62,29.7,62,32A8.19,8.19,0,0,1,60.43,35.9Z"/><path d="M32,9A23,23,0,1,0,55,32,23,23,0,0,0,32,9Zm9.45,30.11c-3.43,0-6.46,3-8.33,5.44a9.61,9.61,0,0,1,9.49-8.18H47v1A9.62,9.62,0,0,1,37.39,47H33.8c1.65-2.42,4.68-5.89,7.65-5.89A1,1,0,0,0,41.45,39.11Zm-18.9-.37c3,0,6,3.47,7.65,5.89H26.61A9.62,9.62,0,0,1,17,35V34h4.39a9.61,9.61,0,0,1,9.49,8.18C29,39.76,26,36.74,22.55,36.74A1,1,0,0,0,22.55,38.74ZM33,53V49h4.39A11.63,11.63,0,0,0,49,37.39v-2a1,1,0,0,0-1-1H42.61a11.59,11.59,0,0,0-10.1,5.91A11.64,11.64,0,0,0,21.39,32H16a1,1,0,0,0-1,1v2A11.63,11.63,0,0,0,26.61,46.63H31V53a21,21,0,1,1,2,0Z"/><path d="M26,20a1,1,0,0,0,0-2H20a1,1,0,0,0-1,1V29a1,1,0,0,0,1,1h6a1,1,0,0,0,0-2H21V25h3.5a1,1,0,0,0,0-2H21V20Z"/><path d="M42,18a4,4,0,0,0-4,4v4a4,4,0,0,0,8,0V22A4,4,0,0,0,42,18Zm2,8a2,2,0,0,1-4,0V22a2,2,0,0,1,4,0Z"/><path d="M33.82,21.25a1,1,0,0,0,1.3.55c1.62-.65-.26-3.8-3.14-3.8a4,4,0,0,0-4,4v4a4,4,0,0,0,7.68,1.48,1,1,0,0,0-1.86-.75A2,2,0,0,1,30,26V22A2,2,0,0,1,33.82,21.25Z"/></g></svg>