<svg xmlns="http://www.w3.org/2000/svg" xmlns:xlink="http://www.w3.org/1999/xlink" viewBox="0 0 64 64"><defs><style>.cls-1{fill:url(#linear-gradient);}.cls-2{fill:#7ece67;}.cls-3{fill:url(#linear-gradient-2);}.cls-4{fill:url(#linear-gradient-3);}</style><linearGradient id="linear-gradient" x1="39.5" y1="23" x2="39.5" y2="1" gradientUnits="userSpaceOnUse"><stop offset="0" stop-color="#8cdd79"/><stop offset="1" stop-color="#d4e6b6"/></linearGradient><linearGradient id="linear-gradient-2" x1="11.3" y1="55.81" x2="11.3" y2="21.12" xlink:href="#linear-gradient"/><linearGradient id="linear-gradient-3" x1="47.75" y1="63" x2="47.75" y2="36.67" xlink:href="#linear-gradient"/></defs><title>Leaves</title><g id="Leaves"><path class="cls-1" d="M23,12S25,1,38,1C48,1,56,12,56,23c-5-3-6-3-17-3A19.27,19.27,0,0,1,23,12Z"/><path class="cls-2" d="M56,23c-5-3-6-3-17-3a19.27,19.27,0,0,1-16-8,10,10,0,0,1,.41-1.43A19.43,19.43,0,0,0,39,18c10.93,0,12,0,16.91,2.94C55.91,21.21,56,21.74,56,23Z"/><path class="cls-3" d="M19.91,55.2S9.38,59,2.88,47.71c-5-8.66.53-21.09,10.05-26.59-.1,5.83.4,6.7,5.9,16.22A19.29,19.29,0,0,1,19.91,55.2Z"/><path class="cls-2" d="M19.91,55.2C11,58.38.39,50.31,1,39.42,1.4,45.64,6.11,51.67,12,53.3a7.57,7.57,0,0,0,9.56-7A18.39,18.39,0,0,1,19.91,55.2Z"/><path class="cls-4" d="M58.53,36.67s8.53,7.23,2,18.49c-5,8.66-18.53,10.08-28.06,4.58,5.1-2.83,5.6-3.69,11.1-13.22A19.28,19.28,0,0,1,58.53,36.67Z"/><path class="cls-2" d="M60.56,55.16c-5,8.66-18.53,10.08-28.06,4.58.68-.38,1.28-.72,1.82-1.06,9.36,4.36,21.55,2.6,26.24-5.52A17.21,17.21,0,0,0,63,45.85,16,16,0,0,1,60.56,55.16Z"/><path d="M15.75,22c1.85.47.36-2.54,7.08-8.5A20.37,20.37,0,0,0,39,21c10.84,0,11.72,0,16.49,2.86A1,1,0,0,0,57,23C57,12.12,49.2,0,38,0,25.69,0,22.61,9.47,22.1,11.46c-5.94,5-7,9.12-7.07,9.3A1,1,0,0,0,15.75,22ZM38,2c9.15,0,16.13,9.81,16.92,19.22C50.9,19,48.9,19,39,19a18.34,18.34,0,0,1-14.61-6.78c5.74-4,15.61-3,23,2.58a1,1,0,0,0,1.2-1.6C41.19,7.64,31.41,6.3,24.88,9.59,26.3,6.57,29.8,2,38,2Z"/><path d="M32.16,56.5c-.51-1.84-2.36,1-10.9-1.89A20.37,20.37,0,0,0,19.7,36.84c-5.42-9.38-5.86-10.15-5.77-15.7a1,1,0,0,0-1.5-.88C3,25.7-3.58,38.51,2,48.21c4.47,7.73,11.75,9.75,17.88,8,3.41,1.22,8.61,2.33,11.59,1.47A1,1,0,0,0,32.16,56.5ZM3.75,47.21c-4.58-7.92.43-18.87,8.18-24.27.09,4.6,1.09,6.33,6,14.9a18.38,18.38,0,0,1,1.43,16c-6.34-3-10.38-12-9.27-21.22a1,1,0,0,0-2-.24C7,41.64,10.78,50.79,16.9,54.79,13.58,55.08,7.87,54.35,3.75,47.21Z"/><path d="M59.45,36.16c-1.4-7.67-4.39-10.65-4.52-10.78a1,1,0,0,0-1.41,0c-1.33,1.36,2,1.57,3.82,10.38A20.35,20.35,0,0,0,42.74,46C37.32,55.41,36.88,56.17,32,58.87a1,1,0,0,0,0,1.74,25.89,25.89,0,0,0,16.37,3.14C63.83,61.51,68.32,44.85,59.45,36.16Zm.24,18.5c-4.62,8-16.63,9.08-25.11,5,3.94-2.37,4.94-4.1,9.89-12.68a18.33,18.33,0,0,1,13.18-9.26c.6,7-5.24,15-13.74,18.64a1,1,0,0,0,.78,1.84c8.53-3.65,14.58-11.46,15-18.76C61.59,42.21,63.81,47.52,59.69,54.66Z"/></g></svg>