<svg xmlns="http://www.w3.org/2000/svg" xmlns:xlink="http://www.w3.org/1999/xlink" viewBox="0 0 64 64"><defs><style>.cls-1{fill:url(#linear-gradient);}.cls-2{fill:#cf4055;}.cls-3{fill:url(#linear-gradient-3);}.cls-4{fill:url(#linear-gradient-4);}.cls-5{fill:#7ece67;}</style><linearGradient id="linear-gradient" x1="31.99" y1="58" x2="31.99" y2="5.88" gradientUnits="userSpaceOnUse"><stop offset="0" stop-color="#da5466"/><stop offset="1" stop-color="#f4929c"/></linearGradient><linearGradient id="linear-gradient-3" x1="21" y1="36" x2="21" y2="20" gradientUnits="userSpaceOnUse"><stop offset="0" stop-color="#8cdd79"/><stop offset="1" stop-color="#d4e6b6"/></linearGradient><linearGradient id="linear-gradient-4" x1="43" y1="39" x2="43" y2="23" gradientTransform="translate(86 62) rotate(-180)" xlink:href="#linear-gradient-3"/></defs><title>Love</title><g id="Love"><path class="cls-1" d="M63,24c0,8.83-5.48,16.24-11.83,21.86-2.94,3-11.59,9-19.17,12.14-6.8-2.83-16-8.94-19.17-12.14C-16.27,20.11,15.28-5.91,32,11.57,43.15-.09,63,7.75,63,24Z"/><path class="cls-1" d="M63,24c0,8.83-5.48,16.24-11.83,21.86-2.94,3-11.59,9-19.17,12.14-6.8-2.83-16-8.94-19.17-12.14C-16.27,20.11,15.28-5.91,32,11.57,43.15-.09,63,7.75,63,24Z"/><path class="cls-2" d="M1,24.64c0,.1.09,1.24,0,.62C1,25.05,1,24.84,1,24.64Z"/><path class="cls-2" d="M63,25.26c0,.55,0-.35,0-.62C63,24.84,63,25.05,63,25.26Z"/><path class="cls-2" d="M62.93,25.44C61.94,39.92,45.32,52.45,32,58l-1-.44c0-.17-28.57-12.19-29.93-32.12,1,12,12.9,25,29.93,25.55C48.81,51.52,61.87,38.05,62.93,25.44Z"/><path class="cls-3" d="M10,20h8A14,14,0,0,1,32,34v2a0,0,0,0,1,0,0H24A14,14,0,0,1,10,22V20A0,0,0,0,1,10,20Z"/><path class="cls-4" d="M46,23h8a0,0,0,0,1,0,0v2A14,14,0,0,1,40,39H32a0,0,0,0,1,0,0V37A14,14,0,0,1,46,23Z" transform="translate(86 62) rotate(180)"/><path class="cls-5" d="M32,36H24A14,14,0,0,1,10,22c0-2.14-.06-2,0-2A14,14,0,0,0,24,33h8C32,33.65,32,34.3,32,36Z"/><path class="cls-5" d="M54,25A14,14,0,0,1,40,39H32c0-1.94,0-2.42,0-3h8A14,14,0,0,0,54,23C54.06,23,54,22.86,54,25Z"/><path d="M64,24C64,7.27,44-1.13,32,10.16,20-1.13,0,7.28,0,24,0,45.4,30.27,58.36,31.61,58.92a1,1,0,0,0,.78,0C33.73,58.36,64,45.4,64,24ZM45,28c-5.07,0-9.52,4.62-11.94,7.74A13,13,0,0,1,46,24h7v1A13,13,0,0,1,40,38H33.88c1.93-2.69,6.35-8,11.12-8A1,1,0,0,0,45,28ZM19,27c4.77,0,9.19,5.31,11.12,8H24A13,13,0,0,1,11,22V21h7A13,13,0,0,1,30.94,32.74C28.52,29.62,24.07,25,19,25A1,1,0,0,0,19,27ZM33,56.45V40h7A15,15,0,0,0,55,25V23a1,1,0,0,0-1-1H46a15,15,0,0,0-13.45,8.41A15,15,0,0,0,18,19H10a1,1,0,0,0-1,1v2A15,15,0,0,0,24,37h7V56.45C25.06,53.63,2,41.59,2,24,2,8.65,20.75,1.25,31.28,12.26a1,1,0,0,0,1.44,0C43.25,1.26,62,8.63,62,24,62,41.59,38.94,53.63,33,56.45Z"/></g></svg>