<svg xmlns="http://www.w3.org/2000/svg" xmlns:xlink="http://www.w3.org/1999/xlink" viewBox="0 0 64 64"><defs><style>.cls-1{fill:url(#linear-gradient);}.cls-2{fill:url(#linear-gradient-2);}.cls-3{fill:#7ece67;}.cls-4{fill:#c7cdd8;}.cls-5{fill:url(#linear-gradient-3);}.cls-6{fill:url(#linear-gradient-4);}.cls-7{fill:#cf4055;}.cls-8{fill:#dfe3ea;}</style><linearGradient id="linear-gradient" x1="25.98" y1="63" x2="25.98" y2="5" gradientUnits="userSpaceOnUse"><stop offset="0" stop-color="#d4d8e1"/><stop offset="1" stop-color="#f3f4f5"/></linearGradient><linearGradient id="linear-gradient-2" x1="25.96" y1="60" x2="25.96" y2="35.58" gradientUnits="userSpaceOnUse"><stop offset="0" stop-color="#8cdd79"/><stop offset="1" stop-color="#d4e6b6"/></linearGradient><linearGradient id="linear-gradient-3" x1="26" y1="5" x2="26" y2="1" xlink:href="#linear-gradient"/><linearGradient id="linear-gradient-4" x1="47" y1="58" x2="47" y2="26" gradientUnits="userSpaceOnUse"><stop offset="0" stop-color="#da5466"/><stop offset="1" stop-color="#f4929c"/></linearGradient></defs><title>No Chemical</title><g id="No_Chemical" data-name="No Chemical"><path class="cls-1" d="M51,57.5A6,6,0,0,1,45,63H7a6,6,0,0,1-4.8-9.6L19,31V5H33V31C52.13,56.45,48.8,51.28,51,57.5Z"/><path class="cls-2" d="M47.93,57.85A3.16,3.16,0,0,1,45,60H7a2.94,2.94,0,0,1-2.68-1.68A2.89,2.89,0,0,1,4.6,55.2L19.25,35.66c5.59-.61,6.71,2.51,12.2,2.57l2.79-.59,5,6.58c7.58,10,7.58,10,8.25,12.18C47.59,56.81,47.74,57.28,47.93,57.85Z"/><path class="cls-3" d="M47.93,57.85A3.16,3.16,0,0,1,45,60H7a2.94,2.94,0,0,1-2.68-1.68A2.91,2.91,0,0,1,4.17,56c0,.14.11.26.15.35A2.94,2.94,0,0,0,7,58H45a3.09,3.09,0,0,0,2.54-1.38Q47.69,57.15,47.93,57.85Z"/><path class="cls-4" d="M51,57.5A6,6,0,0,1,45,63H7a6,6,0,0,1-5.91-7A6,6,0,0,0,7,61H45a6,6,0,0,0,5.73-4.22Z"/><path class="cls-5" d="M19,1H33a2,2,0,0,1,0,4H19A2,2,0,0,1,19,1Z"/><path class="cls-6" d="M47,26A16,16,0,1,0,63,42,16,16,0,0,0,47,26Zm5.81,6.65L37.65,47.81C31.6,38,42.89,26.55,52.81,32.65ZM41.19,51.35,56.35,36.19C62.45,46.1,51,57.4,41.19,51.35Z"/><path class="cls-7" d="M62.93,40.5a16,16,0,0,1-31.86,0,16,16,0,1,0,31.86,0Z"/><rect class="cls-8" x="19" y="5" width="14" height="3"/></g><g id="Recycle"><path d="M64,42c0-15.63-19.51-23-29.83-11.11-.25-.33-.17,1.69-.17-25.07A3,3,0,0,0,33,0H19a3,3,0,0,0-1,5.82V30.67L1.4,52.8A7,7,0,0,0,7,64H45a7,7,0,0,0,6.87-5.72A17,17,0,0,0,64,42ZM19,2H33a1,1,0,0,1,0,2H19A1,1,0,0,1,19,2Zm.8,29.6c.3-.4.2,1.45.2-25.6H32V31c0,.42.15.54.89,1.52a17,17,0,0,0-2.18,4.66A11.43,11.43,0,0,1,26.44,36,13.73,13.73,0,0,0,17.27,35ZM45,62H7a5,5,0,0,1-4-8c9-12.06,12.27-16.25,12.15-16.18a11.86,11.86,0,0,1,10.41,0,13.61,13.61,0,0,0,4.7,1.31A17,17,0,0,0,49.65,58.77,5,5,0,0,1,45,62Zm2-5A15,15,0,1,1,62,42,15,15,0,0,1,47,57Z"/><path d="M53.33,31.8A12,12,0,0,0,36.8,48.33a1,1,0,0,0,.85.48c.59,0-.72,1.13,15.87-15.45A1,1,0,0,0,53.33,31.8ZM37.9,46.15a10,10,0,0,1-.34-7.41l3.32,4.43Zm4.41-4.41-3.78-5A10,10,0,0,1,51.15,32.9Z"/><path d="M57.2,35.67a1,1,0,0,0-1.56-.19C39.12,52,40.12,50.78,40.2,51.47a1,1,0,0,0,.47.73C51.38,58.8,63.84,46.47,57.2,35.67ZM42.85,51.1l2.27-2.27L47.48,52A9.83,9.83,0,0,1,42.85,51.1Zm6.86.52L46.55,47.4l9.55-9.55A10,10,0,0,1,49.71,51.62Z"/></g></svg>