<svg xmlns="http://www.w3.org/2000/svg" xmlns:xlink="http://www.w3.org/1999/xlink" viewBox="0 0 64 64"><defs><style>.cls-1{fill:url(#linear-gradient);}.cls-2{fill:#42455e;}.cls-3{fill:url(#linear-gradient-2);}.cls-4{fill:#dd8b37;}.cls-5{fill:url(#linear-gradient-3);}.cls-6{fill:#f2a961;}.cls-7{fill:url(#linear-gradient-4);}.cls-8{fill:url(#linear-gradient-5);}.cls-9{fill:#cf4055;}.cls-10{fill:#575f7c;}</style><linearGradient id="linear-gradient" x1="27" y1="63" x2="27" y2="57" gradientUnits="userSpaceOnUse"><stop offset="0" stop-color="#474f72"/><stop offset="1" stop-color="#878c9f"/></linearGradient><linearGradient id="linear-gradient-2" x1="27" y1="57" x2="27" y2="24" gradientUnits="userSpaceOnUse"><stop offset="0" stop-color="#e9a254"/><stop offset="1" stop-color="#f4bb79"/></linearGradient><linearGradient id="linear-gradient-3" y1="24" y2="18" xlink:href="#linear-gradient"/><linearGradient id="linear-gradient-4" x1="27" y1="18" x2="27" y2="14" gradientUnits="userSpaceOnUse"><stop offset="0" stop-color="#949aaf"/><stop offset="1" stop-color="#c6ccda"/></linearGradient><linearGradient id="linear-gradient-5" x1="46" y1="58" x2="46" y2="26" gradientUnits="userSpaceOnUse"><stop offset="0" stop-color="#da5466"/><stop offset="1" stop-color="#f4929c"/></linearGradient></defs><title>No Pesticides</title><g id="No_Pesticides" data-name="No Pesticides"><path class="cls-1" d="M40,57v3a3,3,0,0,1-3,3H17a3,3,0,0,1-3-3V57Z"/><path class="cls-2" d="M40,58v2a3,3,0,0,1-3,3H17a3,3,0,0,1-3-3V58a3,3,0,0,0,3,3H37A3,3,0,0,0,40,58Z"/><path class="cls-3" d="M40,32.78V57H14V31c5.15-6,3.72-4.33,6-7H34C38.42,29.14,37.15,27.23,40,32.78Z"/><path class="cls-4" d="M40,34.78c0-2.52.3-1.41-1.5-4.92A16,16,0,0,0,36.66,57H40V46.46l-3.35,3.35A11,11,0,0,1,40,34.78Z"/><rect class="cls-5" x="20" y="18" width="14" height="6"/><rect class="cls-2" x="20" y="22" width="14" height="2"/><polygon class="cls-6" points="35.72 26 18.29 26 20 24 34 24 35.72 26"/><rect class="cls-7" x="24" y="14" width="6" height="4"/><path class="cls-8" d="M46,26A16,16,0,1,0,62,42,16,16,0,0,0,46,26Zm5.81,6.65L36.65,47.81C30.6,38,41.89,26.55,51.81,32.65ZM40.19,51.35,55.35,36.19C61.45,46.1,50,57.4,40.19,51.35Z"/><path class="cls-9" d="M61.93,40.5a16,16,0,0,1-31.86,0,16,16,0,1,0,31.86,0Z"/><path class="cls-10" d="M36.66,57A15.47,15.47,0,0,0,40,58.83V57Z"/></g><g id="Recycle"><path d="M37.93,27,35,23.63V18a1,1,0,0,0-1-1H31V14a1,1,0,0,0-1-1H28V11h1a4,4,0,0,0,4-4V4a1,1,0,0,0-1-1H22a1,1,0,0,0-1,1V7a4,4,0,0,0,4,4h1v2H24a1,1,0,0,0-1,1v3H20a1,1,0,0,0-1,1v5.63L17,26H12a4,4,0,0,0-4,4V60a2,2,0,0,1-4,0V45a1,1,0,0,0,1-1V31a1,1,0,0,0-1-1V7.41l5.71-5.7A1,1,0,0,0,8.29.29l-6,6C1.86,6.72,2,5,2,30a1,1,0,0,0-1,1V44a1,1,0,0,0,1,1V60a4,4,0,0,0,8,0V30a2,2,0,0,1,2-2h3.25l-2,2.35C12.89,30.76,13,28.47,13,60a4,4,0,0,0,4,4H37a4,4,0,0,0,4-4V58.25A17,17,0,1,0,37.93,27ZM23,7V5h8V7a2,2,0,0,1-2,2H25A2,2,0,0,1,23,7Zm2,8h4v2H25Zm-4,4H33v4H21ZM15,31.37,20.46,25H33.54l2.68,3.12A17,17,0,0,0,36.38,56H15ZM39,60a2,2,0,0,1-2,2H17a2,2,0,0,1-2-2V58H39Zm7-3A15,15,0,1,1,61,42,15,15,0,0,1,46,57Z"/><path d="M52.33,31.8a12,12,0,0,0-12.72.06h0A12,12,0,0,0,35.8,48.33a1,1,0,0,0,.85.48c.59,0-.72,1.13,15.87-15.45A1,1,0,0,0,52.33,31.8ZM36.9,46.15A10,10,0,0,1,39,34.87v9.18Zm4.1-4.1v-8.7a10,10,0,0,1,9.15-.45Z"/><path d="M56.2,35.67a1,1,0,0,0-1.56-.19C38.12,52,39.12,50.78,39.2,51.47a1,1,0,0,0,.47.73A12,12,0,0,0,56.2,35.67ZM41.85,51.1,55.1,37.85A10,10,0,0,1,41.85,51.1Z"/></g></svg>