<svg xmlns="http://www.w3.org/2000/svg" xmlns:xlink="http://www.w3.org/1999/xlink" viewBox="0 0 64 64"><defs><style>.cls-1{fill:url(#linear-gradient);}.cls-2{fill:#c7cdd8;}.cls-3{fill:url(#linear-gradient-2);}.cls-4{fill:#cf4055;}</style><linearGradient id="linear-gradient" x1="23.97" y1="63" x2="23.97" y2="1" gradientUnits="userSpaceOnUse"><stop offset="0" stop-color="#d4d8e1"/><stop offset="1" stop-color="#f3f4f5"/></linearGradient><linearGradient id="linear-gradient-2" x1="45" y1="58" x2="45" y2="26" gradientUnits="userSpaceOnUse"><stop offset="0" stop-color="#da5466"/><stop offset="1" stop-color="#f4929c"/></linearGradient></defs><title>No Plastic Bag</title><g id="No_Plastic_Bag" data-name="No Plastic Bag"><path class="cls-1" d="M45,22c0,34.93,0,32.75,0,33a18.79,18.79,0,0,1-2,8H5c-2.61-5.2-2-5.86-2-41C8,14,8.52,5.85,9,1h6V16a2,2,0,0,0,2,2H31a2,2,0,0,0,2-2V1h6C39.48,5.85,40,14,45,22Z"/><path class="cls-2" d="M45,51.53c0,3.78.22,7.06-2,11.47H5a18.87,18.87,0,0,1-2-8.47V51.62A8.55,8.55,0,0,0,11.63,60H36.37A8.56,8.56,0,0,0,45,51.53Z"/><path class="cls-2" d="M45,33V28a16,16,0,0,0-.8,32A18.63,18.63,0,0,0,45,55a11,11,0,0,1-5.8-1.65L45,47.54V40.46l-9.35,9.35A11,11,0,0,1,45,33Z"/><path class="cls-3" d="M45,26A16,16,0,1,0,61,42,16,16,0,0,0,45,26Zm5.81,6.65L35.65,47.81C29.6,38,40.89,26.55,50.81,32.65ZM39.19,51.35,54.35,36.19C60.45,46.1,49,57.4,39.19,51.35Z"/><path class="cls-4" d="M60.93,40.5a16,16,0,0,1-31.86,0,16,16,0,1,0,31.86,0Z"/><path d="M62,42A17,17,0,0,0,46,25.05V22c0-2-4.27-3.19-6-21.1A1,1,0,0,0,39,0H33a1,1,0,0,0-1,1V16a1,1,0,0,1-1,1H17a1,1,0,0,1-1-1V1a1,1,0,0,0-1-1H9A1,1,0,0,0,8,.9C7.3,8.19,6.44,14.61,2.15,21.47,1.93,21.83,2,19.74,2,54.53a20,20,0,0,0,2.11,8.92A1,1,0,0,0,5,64c40.83,0,38.48.28,38.89-.55A20.2,20.2,0,0,0,45.49,59,17,17,0,0,0,62,42ZM42.37,62H5.63C3.3,56.93,4,55.68,4,22.28,8.69,14.65,9.42,7.05,9.91,2H14V16a3,3,0,0,0,3,3H31a3,3,0,0,0,3-3V2h4.09c.49,5.05,1.22,12.65,5.91,20.28v2.77a17,17,0,0,0-.54,33.87A18.47,18.47,0,0,1,42.37,62ZM45,57A15,15,0,1,1,60,42,15,15,0,0,1,45,57Z"/><path d="M51.33,31.8A12,12,0,0,0,34.8,48.33a1,1,0,0,0,.85.48c.59,0-.72,1.13,15.87-15.45A1,1,0,0,0,51.33,31.8ZM35.9,46.15A10,10,0,0,1,44,32.05v6ZM46,36.05v-4a10.15,10.15,0,0,1,3.15.85Z"/><path d="M55.2,35.67a1,1,0,0,0-1.56-.19C37.12,52,38.12,50.78,38.2,51.47a1,1,0,0,0,.47.73A12,12,0,0,0,55.2,35.67ZM44,48v4a10.15,10.15,0,0,1-3.15-.85Zm2,4V46l8.1-8.1A10,10,0,0,1,46,52Z"/></g></svg>