<svg xmlns="http://www.w3.org/2000/svg" xmlns:xlink="http://www.w3.org/1999/xlink" viewBox="0 0 64 64"><defs><style>.cls-1{fill:url(#linear-gradient);}.cls-2{fill:#c7cdd8;}.cls-3{fill:url(#linear-gradient-2);}.cls-4{fill:#77cacb;}.cls-5{fill:#aae0e5;}.cls-6{fill:url(#linear-gradient-3);}.cls-7{fill:#cf4055;}</style><linearGradient id="linear-gradient" x1="24" y1="8" x2="24" y2="1" gradientUnits="userSpaceOnUse"><stop offset="0" stop-color="#d4d8e1"/><stop offset="1" stop-color="#f3f4f5"/></linearGradient><linearGradient id="linear-gradient-2" x1="24" y1="63" x2="24" y2="8" gradientUnits="userSpaceOnUse"><stop offset="0" stop-color="#9dd5df"/><stop offset="1" stop-color="#c3e1f5"/></linearGradient><linearGradient id="linear-gradient-3" x1="38" y1="58" x2="38" y2="26" gradientUnits="userSpaceOnUse"><stop offset="0" stop-color="#da5466"/><stop offset="1" stop-color="#f4929c"/></linearGradient></defs><title>No Plastic Bottle</title><g id="No_Plastic_Bottle" data-name="No Plastic Bottle"><rect class="cls-1" x="18" y="1" width="12" height="7"/><rect class="cls-2" x="18" y="6" width="12" height="2"/><path class="cls-3" d="M38,39V61a2,2,0,0,1-2,2H12a2,2,0,0,1-2-2V39c0-4,2.5-5.5,2.5-7.5S11,29,11,23c0-8,8-12,8-12V8H29v3s8,4,8,12c0,6.13-1.5,6.44-1.5,8.5S38,35,38,39Z"/><path class="cls-4" d="M38,40.46l-9.35,9.35A11,11,0,0,1,36,33.18c-1.11-2.11-.15-2.88.45-5.11A16,16,0,0,0,38,60V55a11.06,11.06,0,0,1-5.81-1.65L38,47.54Z"/><path class="cls-4" d="M38,58v3a2,2,0,0,1-2,2H12a2,2,0,0,1-2-2V58a2,2,0,0,0,2,2H36A2,2,0,0,0,38,58Z"/><rect class="cls-5" x="19" y="8" width="10" height="2"/><path class="cls-6" d="M38,26A16,16,0,1,0,54,42,16,16,0,0,0,38,26Zm5.81,6.65L28.65,47.81C22.6,38,33.89,26.55,43.81,32.65ZM32.19,51.35,47.35,36.19C53.45,46.1,42,57.4,32.19,51.35Z"/><path class="cls-7" d="M53.93,40.5a16,16,0,0,1-31.86,0,16,16,0,1,0,31.86,0Z"/><path d="M55,42A17,17,0,0,0,37.93,25c0-.6.07-1.26.07-2,0-7.34-6.09-11.48-8-12.59V9a1,1,0,0,0,1-1V1a1,1,0,0,0-1-1H18a1,1,0,0,0-1,1V8a1,1,0,0,0,1,1v1.41c-1.91,1.11-8,5.25-8,12.59,0,6.07,1.5,6.87,1.5,8.5S9,34.82,9,39V61a3,3,0,0,0,3,3H36a3,3,0,0,0,3-3V59A17,17,0,0,0,55,42ZM19,2H29V7H19ZM36,62H12a1,1,0,0,1-1-1c0-25-.48-23.25,1.43-26.56C15.08,29.85,12,30.77,12,23c0-7.27,7.37-11.07,7.45-11.11.72-.36.55-1,.55-2.89h8c0,2.12-.14,2.55.55,2.89C28.63,11.93,36,15.73,36,23c0,.8,0,1.51-.08,2.14A17,17,0,0,0,37,59v2A1,1,0,0,1,36,62Zm2-5A15,15,0,1,1,53,42,15,15,0,0,1,38,57Z"/><path d="M44.33,31.8C33.6,25.19,21.17,37.57,27.8,48.33a1,1,0,0,0,.85.48c.59,0-.72,1.13,15.87-15.45A1,1,0,0,0,44.33,31.8ZM28.9,46.15a10,10,0,0,1,5.78-13.57c.55,1.79,1.94,2.91,2.24,5.54Zm9.74-9.74c-.59-2.08-1.62-3.16-2-4.31a10,10,0,0,1,5.52.8Z"/><path d="M48.2,35.67a1,1,0,0,0-1.56-.19C30.12,52,31.12,50.78,31.2,51.47a1,1,0,0,0,.47.73A12,12,0,0,0,48.2,35.67ZM37,48v4a10.15,10.15,0,0,1-3.15-.85Zm2,4V46l8.1-8.1A10,10,0,0,1,39,52Z"/></g></svg>