<svg xmlns="http://www.w3.org/2000/svg" xmlns:xlink="http://www.w3.org/1999/xlink" viewBox="0 0 64 64"><defs><style>.cls-1{fill:url(#linear-gradient);}.cls-2{fill:#c7cdd8;}.cls-3{fill:url(#linear-gradient-2);}.cls-4{fill:url(#linear-gradient-3);}.cls-5{fill:#77cacb;}.cls-6{fill:#aae0e5;}.cls-7{fill:url(#linear-gradient-4);}</style><linearGradient id="linear-gradient" x1="21.97" y1="63" x2="21.97" y2="1" gradientUnits="userSpaceOnUse"><stop offset="0" stop-color="#d4d8e1"/><stop offset="1" stop-color="#f3f4f5"/></linearGradient><linearGradient id="linear-gradient-2" x1="49" y1="8" x2="49" xlink:href="#linear-gradient"/><linearGradient id="linear-gradient-3" x1="49" y1="63" x2="49" y2="8" gradientUnits="userSpaceOnUse"><stop offset="0" stop-color="#9dd5df"/><stop offset="1" stop-color="#c3e1f5"/></linearGradient><linearGradient id="linear-gradient-4" x1="32" y1="55" x2="32" y2="25" gradientUnits="userSpaceOnUse"><stop offset="0" stop-color="#da5466"/><stop offset="1" stop-color="#f4929c"/></linearGradient></defs><title>No Plastics</title><g id="No_Plastics" data-name="No Plastics"><path class="cls-1" d="M43,22c0,34.93,0,32.75,0,33a18.79,18.79,0,0,1-2,8H3C.39,57.8,1,57.14,1,22,6,14,6.52,5.85,7,1h6V16a2,2,0,0,0,2,2H29a2,2,0,0,0,2-2V1h6C37.77,8.86,38.73,15.18,43,22Z"/><path class="cls-2" d="M43,51.53c0,3.78.22,7.06-2,11.47H3a18.87,18.87,0,0,1-2-8.47V51.62A8.55,8.55,0,0,0,9.63,60H34.37A8.56,8.56,0,0,0,43,51.53Z"/><rect class="cls-3" x="43" y="1" width="12" height="7"/><rect class="cls-2" x="43" y="6" width="12" height="2"/><path class="cls-2" d="M43,22c0,34.93,0,32.75,0,33a18.79,18.79,0,0,1-2,8H33.54A4,4,0,0,1,33,61c0-24.7-.6-23.88,1.84-28.06C36.64,29.81,34,31.49,34,24c0-3.62,2.8-7.42,5.38-9.79A34.94,34.94,0,0,0,43,22Z"/><path class="cls-4" d="M63,61a2,2,0,0,1-2,2H37a2,2,0,0,1-2-2c0-29.06-.5-22.37,2.16-28.16C38.38,30.22,36,30.05,36,23c0-8,8-12,8-12V8H54v3s8,4,8,12c0,7.74-2.64,7-1,10.18C63.52,38,63,33.58,63,61Z"/><path class="cls-2" d="M37.16,32.84C34.67,38.25,35,33.91,35,49l-3-3L21,57l-4-4V51l11-9L17,31V29l4-2L32,38Z"/><path class="cls-5" d="M36,42l11,9v2l-4,4-8-8c0-15.09-.33-10.75,2.16-16.16L43,27l4,2v2Z"/><path class="cls-5" d="M63,58v3a2,2,0,0,1-2,2H37a2,2,0,0,1-2-2V58a2,2,0,0,0,2,2H61A2,2,0,0,0,63,58Z"/><rect class="cls-6" x="44" y="8" width="10" height="2"/><polygon class="cls-7" points="47 29 43 25 32 36 21 25 17 29 28 40 17 51 21 55 32 44 43 55 47 51 36 40 47 29"/></g><g id="Recycle"><path d="M62.3,33.44c-2.08-3.58.7-2.2.7-10.44,0-7.34-6.09-11.48-8-12.59V9a1,1,0,0,0,1-1V1a1,1,0,0,0-1-1H43a1,1,0,0,0-1,1V8a1,1,0,0,0,1,1c0,2.41.47.48-3,3.66C37.31,3.65,39,0,37,0H31a1,1,0,0,0-1,1V16a1,1,0,0,1-1,1H15a1,1,0,0,1-1-1V1a1,1,0,0,0-1-1C5.75,0,6.14-.46,5.92,1.78,4.37,18,0,20.45,0,22V54.53a20,20,0,0,0,2.11,8.92c.43.86-3.25.55,58.89.55a3,3,0,0,0,3-3C64,36,64.51,37.27,62.3,33.44ZM44,2H54V7H44ZM2,22.28C6.69,14.65,7.42,7.05,7.91,2H12V16a3,3,0,0,0,3,3H29a3,3,0,0,0,3-3V2h4.09a56.26,56.26,0,0,0,2.27,12.29c-3.94,4.6-4.21,10.07-2.1,16L32,34.59,21.71,24.29a1,1,0,0,0-1.42,0l-4,4a1,1,0,0,0,0,1.42L26.59,40,16.29,50.29a1,1,0,0,0,0,1.42l4,4a1,1,0,0,0,1.42,0L32,45.41l2,2c0,14.79-.07,13.86.18,14.59H3.63C1.3,56.93,2,55.68,2,22.28ZM35.29,40.71,45.59,51,43,53.59C32,42.62,32.61,43,32,43s.15-.56-11,10.59L18.41,51l10.3-10.29a1,1,0,0,0,0-1.42L18.41,29,21,26.41l10.29,10.3a1,1,0,0,0,1.42,0L43,26.41,45.59,29,35.29,39.29A1,1,0,0,0,35.29,40.71ZM62,61a1,1,0,0,1-1,1H37a1,1,0,0,1-1-1V49.41l6.29,6.3a1,1,0,0,0,1.42,0l4-4a1,1,0,0,0,0-1.42L37.41,40l10.3-10.29a1,1,0,0,0,0-1.42l-4-4a1,1,0,0,0-1.42,0l-4.47,4.48A15.67,15.67,0,0,1,37,23c0-7.27,7.37-11.07,7.45-11.11.72-.36.55-1,.55-2.89h8c0,2.12-.14,2.55.55,2.89C53.63,11.93,61,15.73,61,23c0,5.87-1.5,6.18-1.5,8.5S62,35.25,62,39Z"/></g></svg>