<svg xmlns="http://www.w3.org/2000/svg" xmlns:xlink="http://www.w3.org/1999/xlink" viewBox="0 0 64 64"><defs><style>.cls-1{fill:url(#linear-gradient);}.cls-2{fill:#8a6762;}.cls-3{fill:url(#linear-gradient-2);}.cls-4{fill:url(#linear-gradient-3);}.cls-5{fill:url(#linear-gradient-4);}.cls-6{fill:url(#linear-gradient-6);}.cls-7{fill:url(#linear-gradient-7);}.cls-8{fill:url(#linear-gradient-8);}.cls-9{fill:#c7cdd8;}.cls-10{fill:#a88680;}</style><linearGradient id="linear-gradient" x1="46" y1="59" x2="46" y2="18" gradientUnits="userSpaceOnUse"><stop offset="0" stop-color="#9b756d"/><stop offset="1" stop-color="#bc9388"/></linearGradient><linearGradient id="linear-gradient-2" x1="20" x2="20" y2="15" xlink:href="#linear-gradient"/><linearGradient id="linear-gradient-3" x1="20" y1="45" x2="20" y2="28" gradientUnits="userSpaceOnUse"><stop offset="0" stop-color="#8cdd79"/><stop offset="1" stop-color="#d4e6b6"/></linearGradient><linearGradient id="linear-gradient-4" x1="1" y1="61" x2="39" y2="61" gradientUnits="userSpaceOnUse"><stop offset="0" stop-color="#474f72"/><stop offset="1" stop-color="#878c9f"/></linearGradient><linearGradient id="linear-gradient-6" x1="39" x2="63" xlink:href="#linear-gradient-4"/><linearGradient id="linear-gradient-7" x1="27.5" y1="15" x2="27.5" y2="1" gradientUnits="userSpaceOnUse"><stop offset="0" stop-color="#d4d8e1"/><stop offset="1" stop-color="#f3f4f5"/></linearGradient><linearGradient id="linear-gradient-8" x1="52" y1="18" x2="52" y2="5.95" xlink:href="#linear-gradient-7"/></defs><title>Nuclear Plant</title><g id="Nuclear_Plant" data-name="Nuclear Plant"><path class="cls-1" d="M63,59H29c6.17-18.51,7.16-19.51,7.16-41H55.84C55.84,27.36,55.26,41.58,63,59Z"/><path class="cls-2" d="M41.21,59H29c5-15.14,4.93-14.33,5.82-19.29A86.14,86.14,0,0,0,41.21,59Z"/><path class="cls-3" d="M39,59H1C8.33,43.23,9,30.61,9,15H31v9C31,34.08,33.88,48,39,59Z"/><path class="cls-4" d="M25,38.77C25,43.46,20,45,20,45s-5-1.54-5-6.23S20,28,20,28,25,34.07,25,38.77Z"/><rect class="cls-5" x="1" y="59" width="38" height="4"/><rect class="cls-5" x="1" y="59" width="38" height="4"/><rect class="cls-6" x="39" y="59" width="24" height="4"/><path class="cls-7" d="M41,4a3,3,0,0,1-3,3H30a3,3,0,0,1-.88,2.12c-1.36,1.36-2.52.43-3.53,1.47C24.82,11.34,25,12,25,15H14V12a5,5,0,0,1,5-5,6,6,0,0,1,6-6H38A3,3,0,0,1,41,4Z"/><path class="cls-8" d="M63,8.5A2.49,2.49,0,0,1,60.5,11H57a3,3,0,0,1-3.07,3A2.91,2.91,0,0,0,51,16.91V18H41a14.7,14.7,0,0,1,.1-3A5,5,0,0,1,46,11a5,5,0,0,1,1.46-3.54C49.41,5.53,50.76,6,60.5,6A2.5,2.5,0,0,1,63,8.5Z"/><rect class="cls-9" x="14" y="12" width="11" height="3"/><path class="cls-9" d="M51.71,15A4,4,0,0,0,51,18H41a14.7,14.7,0,0,1,.1-3Z"/><rect class="cls-10" x="9" y="15" width="22" height="3"/><path class="cls-10" d="M55.84,18v3H36.16V18Z"/><path class="cls-2" d="M39,59H1c.46-1,.89-2,1.3-3H37.7C38.11,57,38.54,58,39,59Z"/><path class="cls-2" d="M63,59H29l1-3H61.75C62.14,57,62.56,58,63,59Z"/><path d="M19.23,27.36C19,27.62,14,33.77,14,38.77c0,3.82,3,6,5,6.92V48a1,1,0,0,0,2,0V45.69c2-.87,5-3.1,5-6.92,0-5-5-11.15-5.23-11.41A1,1,0,0,0,19.23,27.36ZM21,43.46V36a1,1,0,0,0-2,0v7.46c-5.34-3.05-2.59-8.86,1-13.81C23.62,34.63,26.32,40.42,21,43.46Z"/><path d="M63.92,58.6C56.17,40.7,56.84,27.18,56.84,18a1,1,0,0,0-1-1H52a2,2,0,0,1,2-2,4,4,0,0,0,3.87-3H60.5a3.5,3.5,0,0,0,0-7H51a6,6,0,0,0-5.93,5.07A6,6,0,0,0,40,16v1H36.16c-2.58,0,.65,6.38-2.36,22.74C30,21.58,33.75,14,31,14H26V12a1,1,0,0,1,1-1,4,4,0,0,0,3.87-3H38a4,4,0,0,0,0-8H25a7,7,0,0,0-6.94,6.07A6,6,0,0,0,13,12v2H9a1,1,0,0,0-1,1c0,8.71.88,24.53-7.91,43.58C0,58.85,0,58.73,0,63a1,1,0,0,0,1,1H63a1,1,0,0,0,1-1C64,58.9,64,58.88,63.92,58.6ZM42,16a4,4,0,0,1,4-4,1,1,0,0,0,1-1,4,4,0,0,1,4-4h9.5a1.5,1.5,0,0,1,0,3H57a1,1,0,0,0-1,1,2,2,0,0,1-2.07,2A3.92,3.92,0,0,0,50,16.91c0,.13.62.09-8,.09Zm-4.84,3H54.84c0,7.82-.59,21.72,6.64,39H39.65a87,87,0,0,1-4.77-13.65C37.51,33.07,37.16,26.62,37.16,19ZM15,12a4,4,0,0,1,4-4,1,1,0,0,0,1-1,5,5,0,0,1,5-5H38a2,2,0,0,1,0,4H30a1,1,0,0,0-1,1,2,2,0,0,1-2,2,3,3,0,0,0-3,3v2H15ZM10,24V16H30c0,7.4-.83,23,7.45,42H2.55A91.91,91.91,0,0,0,10,24ZM2,60H38v2H2Zm60,2H40V60H62Z"/></g></svg>