<svg xmlns="http://www.w3.org/2000/svg" xmlns:xlink="http://www.w3.org/1999/xlink" viewBox="0 0 64 64"><defs><style>.cls-1{fill:url(#linear-gradient);}.cls-2{fill:#5b8dc9;}.cls-3{fill:url(#linear-gradient-2);}.cls-4{fill:url(#linear-gradient-3);}.cls-5{fill:url(#linear-gradient-4);}.cls-6{fill:#f6b756;}</style><linearGradient id="linear-gradient" x1="32" y1="54" x2="32" y2="42" gradientUnits="userSpaceOnUse"><stop offset="0" stop-color="#7aa8d7"/><stop offset="1" stop-color="#c3d2e7"/></linearGradient><linearGradient id="linear-gradient-2" x1="32" y1="62" x2="32" y2="50" xlink:href="#linear-gradient"/><linearGradient id="linear-gradient-3" x1="32" y1="64" x2="32" y2="60" xlink:href="#linear-gradient"/><linearGradient id="linear-gradient-4" x1="32" y1="25" x2="32" y2="9" gradientUnits="userSpaceOnUse"><stop offset="0" stop-color="#fbcc88"/><stop offset="1" stop-color="#ffe5c3"/></linearGradient></defs><title>Ocean</title><g id="Ocean"><path class="cls-1" d="M64,42V54H0V42c2.93,4,7.93,4,9.85,0a4.77,4.77,0,0,0,8.85,0h0a4.77,4.77,0,0,0,8.84,0h0a4.78,4.78,0,0,0,8.85,0h0a4.78,4.78,0,0,0,8.85,0h0a4.77,4.77,0,0,0,8.84,0h0v0C56.3,46.46,61.85,45.45,64,42Z"/><path class="cls-2" d="M63.9,49.43a5.73,5.73,0,0,1-9.77,1.42,5.65,5.65,0,0,1-8.86,0,5.65,5.65,0,0,1-8.86,0,5.64,5.64,0,0,1-8.85,0,5.67,5.67,0,0,1-8.86,0,5.65,5.65,0,0,1-8.85,0c-2.46,2.95-6.58,2.76-9.85,0V48c1.36,0,1.72.2,1.89.55h0a3.78,3.78,0,0,0,7,0,1,1,0,0,1,1.8,0c1.22,2.5,3.79,3,5.57,1.78C17.9,49.26,17.6,48,18.7,48a1,1,0,0,1,.9.55c1.55,3.21,5.44,3.27,7,0a1,1,0,0,1,1.8,0c1.58,3.27,5.51,3.23,7.06,0a1,1,0,0,1,1.78-.06c1.62,3.35,5.52,3.24,7.08.06a1,1,0,0,1,1.81,0,3.74,3.74,0,0,0,5.56,1.77C53.29,49.29,53,48,54.13,48a1,1,0,0,1,.9.56c1.61,3.28,5.5,3.2,7.06,0A1,1,0,0,1,63.9,49.43Z"/><path class="cls-3" d="M64,50V62H0V50c2.93,4,7.93,4,9.85,0a4.77,4.77,0,0,0,8.85,0h0a4.77,4.77,0,0,0,8.84,0h0a4.78,4.78,0,0,0,8.85,0h0a4.78,4.78,0,0,0,8.85,0h0a4.77,4.77,0,0,0,8.84,0h0v0C56.3,54.46,61.85,53.45,64,50Z"/><path class="cls-4" d="M64,60v4H0V60c2.93,4,7.93,4,9.85,0a4.77,4.77,0,0,0,8.85,0h0a4.77,4.77,0,0,0,8.84,0h0a4.78,4.78,0,0,0,8.85,0h0a4.78,4.78,0,0,0,8.85,0h0a4.77,4.77,0,0,0,8.84,0h0v0C56.3,64.46,61.85,63.45,64,60Z"/><path class="cls-2" d="M64,57v2.83a6.73,6.73,0,0,1-9.87,0,5.65,5.65,0,0,1-8.86,0,5.65,5.65,0,0,1-8.86,0,5.64,5.64,0,0,1-8.85,0,5.67,5.67,0,0,1-8.86,0,5.65,5.65,0,0,1-8.85,0c-2.46,2.95-6.58,2.76-9.85,0V57c1.36,0,1.72.2,1.89.55h0a3.78,3.78,0,0,0,7,0,1,1,0,0,1,1.8,0c1.22,2.5,3.79,3,5.57,1.78C17.9,58.26,17.6,57,18.7,57a1,1,0,0,1,.9.55c1.55,3.21,5.44,3.27,7,0a1,1,0,0,1,1.8,0c1.58,3.27,5.51,3.23,7.06,0a1,1,0,0,1,1.78-.06c1.62,3.35,5.52,3.24,7.08.06a1,1,0,0,1,1.81,0,3.74,3.74,0,0,0,5.56,1.77C53.29,58.29,53,57,54.13,57a1,1,0,0,1,.9.56,4.56,4.56,0,0,0,8.06,0A1,1,0,0,1,64,57Z"/><circle class="cls-5" cx="32" cy="17" r="8"/><path class="cls-6" d="M32,25a8,8,0,0,1-7.86-9.5,8,8,0,0,0,15.72,0A8,8,0,0,1,32,25Z"/><path d="M9.85,43.84a5.65,5.65,0,0,0,8.85,0,5.66,5.66,0,0,0,8.86,0,5.64,5.64,0,0,0,8.85,0,5.65,5.65,0,0,0,8.86,0,5.65,5.65,0,0,0,8.86,0c2.64,3.22,7.68,2.89,9.77-1.42a1,1,0,0,0-1.81-.84c-1.56,3.2-5.47,3.24-7.06,0a1,1,0,0,0-1.81,0,3.77,3.77,0,0,1-7,0,1,1,0,0,0-1.81,0c-1.53,3.15-5.44,3.31-7.08-.06a1,1,0,0,0-1.78.06c-1.55,3.2-5.47,3.25-7.06,0a1,1,0,0,0-1.8,0c-1.56,3.22-5.48,3.22-7,0a1,1,0,0,0-1.8,0c-1.56,3.22-5.48,3.22-7,0a1,1,0,0,0-1.8,0c-1.5,3.09-5.37,3.35-7.06,0a1,1,0,0,0-1.79.89A5.72,5.72,0,0,0,9.85,43.84Z"/><path d="M62.09,50.59c-1.56,3.2-5.47,3.24-7.06,0a1,1,0,0,0-1.81,0,3.77,3.77,0,0,1-7,0,1,1,0,0,0-1.81,0c-1.53,3.15-5.44,3.31-7.08-.06a1,1,0,0,0-1.78.06c-1.55,3.2-5.47,3.25-7.06,0a1,1,0,0,0-1.8,0c-1.55,3.21-5.48,3.23-7,0a1,1,0,0,0-1.8,0c-1.56,3.22-5.48,3.22-7,0a1,1,0,0,0-1.8,0,3.78,3.78,0,0,1-7,0,1,1,0,0,0-1.8.88,5.72,5.72,0,0,0,9.75,1.4,5.65,5.65,0,0,0,8.85,0,5.66,5.66,0,0,0,8.86,0,5.64,5.64,0,0,0,8.85,0,5.65,5.65,0,0,0,8.86,0,5.65,5.65,0,0,0,8.86,0c2.64,3.22,7.68,2.89,9.77-1.42A1,1,0,0,0,62.09,50.59Z"/><path d="M62.09,59.59c-1.56,3.2-5.47,3.24-7.06,0a1,1,0,0,0-1.81,0,3.77,3.77,0,0,1-7,0,1,1,0,0,0-1.81,0c-1.53,3.15-5.44,3.31-7.08-.06a1,1,0,0,0-1.78.06c-1.55,3.2-5.47,3.25-7.06,0a1,1,0,0,0-1.8,0c-1.55,3.21-5.48,3.23-7,0a1,1,0,0,0-1.8,0c-1.56,3.22-5.48,3.22-7,0a1,1,0,0,0-1.8,0,3.78,3.78,0,0,1-7,0,1,1,0,0,0-1.8.88,5.72,5.72,0,0,0,9.75,1.4,5.65,5.65,0,0,0,8.85,0,5.66,5.66,0,0,0,8.86,0,5.64,5.64,0,0,0,8.85,0,5.65,5.65,0,0,0,8.86,0,5.65,5.65,0,0,0,8.86,0c2.64,3.22,7.68,2.89,9.77-1.42A1,1,0,0,0,62.09,59.59Z"/><path d="M32,26a9,9,0,1,0-9-9A9,9,0,0,0,32,26Zm0-16a7,7,0,1,1-7,7A7,7,0,0,1,32,10Z"/><path d="M33,5V1a1,1,0,0,0-2,0V5A1,1,0,0,0,33,5Z"/><path d="M31,29v4a1,1,0,0,0,2,0V29A1,1,0,0,0,31,29Z"/><path d="M44,18h4a1,1,0,0,0,0-2H44A1,1,0,0,0,44,18Z"/><path d="M16,18h4a1,1,0,0,0,0-2H16A1,1,0,0,0,16,18Z"/><path d="M40.49,9.51c.55,0,.46,0,3.53-3.12A1,1,0,0,0,42.61,5L39.78,7.81A1,1,0,0,0,40.49,9.51Z"/><path d="M22.81,24.78,20,27.61A1,1,0,0,0,21.39,29l2.83-2.83A1,1,0,0,0,22.81,24.78Z"/><path d="M39.78,26.19,42.61,29A1,1,0,0,0,44,27.61l-2.83-2.83A1,1,0,0,0,39.78,26.19Z"/><path d="M22.81,9.22a1,1,0,0,0,1.41-1.41L21.39,5A1,1,0,0,0,20,6.39Z"/></g></svg>