<svg xmlns="http://www.w3.org/2000/svg" xmlns:xlink="http://www.w3.org/1999/xlink" viewBox="0 0 64 64"><defs><style>.cls-1{fill:url(#linear-gradient);}.cls-2{fill:#cba07a;}.cls-3{fill:url(#linear-gradient-2);}.cls-4{fill:url(#linear-gradient-3);}.cls-5{fill:url(#linear-gradient-4);}.cls-6{fill:#f6b756;}</style><linearGradient id="linear-gradient" x1="32" y1="63" x2="32" y2="17" gradientUnits="userSpaceOnUse"><stop offset="0" stop-color="#deb895"/><stop offset="1" stop-color="#f2d3b8"/></linearGradient><linearGradient id="linear-gradient-2" y1="17" y2="1" xlink:href="#linear-gradient"/><linearGradient id="linear-gradient-3" x1="32" y1="17" x2="32" y2="1" gradientUnits="userSpaceOnUse"><stop offset="0" stop-color="#fbcc88"/><stop offset="1" stop-color="#ffe5c3"/></linearGradient><linearGradient id="linear-gradient-4" y1="25" y2="17" xlink:href="#linear-gradient-3"/></defs><title>Package</title><g id="Package"><rect class="cls-1" x="3" y="17" width="58" height="46"/><rect class="cls-2" x="3" y="61" width="58" height="2"/><polygon class="cls-3" points="61 17 3 17 15 1 49 1 61 17"/><polygon class="cls-4" points="38 17 26 17 28.48 1 35.52 1 38 17"/><polygon class="cls-5" points="38 17 38 25 35.01 23 32 25 29.01 23 26 25 26 17 38 17"/><polygon class="cls-5" points="38 17 38 25 35.01 23 32 25 29.01 23 26 25 26 17 38 17"/><polygon class="cls-5" points="38 17 38 25 35.01 23 32 25 29.01 23 26 25 26 17 38 17"/><polygon class="cls-6" points="38 23 38 25 35.01 23 32 25 29.01 23 26 25 26 23 29.01 21 32 23 35.01 21 38 23"/><path d="M62,17c0-.49.72.64-12.19-16.57-.45-.6,2-.4-34.8-.4-.72,0,.26-1-12.8,16.4C1.91,16.79,2,14,2,63a1,1,0,0,0,1,1H61a1,1,0,0,0,1-1C62,4.22,62.07,19.58,62,17Zm-3-1H38.86L36.68,2H48.5ZM27,18H37v5.13c-2.39-1.6-1.6-1.59-5,.67-3.38-2.27-2.58-2.27-5-.67ZM34.66,2l2.17,14H27.17L29.34,2ZM15.5,2H27.32L25.14,16H5ZM60,62H4V18H25v7a1,1,0,0,0,1.55.83L29,24.2c3.55,2.38,2.44,2.37,6,0C37.62,26,37.59,26,38,26a1,1,0,0,0,1-1V18H60Z"/><path d="M37.8,40.6a1,1,0,0,0-.76.1c-.47.27-.37.26-1.48,4.39a1,1,0,0,0,1,1.26c.36,0,.41-.08,2-1l2,3.39a1,1,0,0,1-.85,1.49l-3.52,0a1,1,0,0,0,0,2c3.13,0,5,.33,6.09-1.57a3,3,0,0,0,0-3l-2-3.38c1.66-1,2.13-1.08,2-1.88S41.54,41.6,37.8,40.6Z"/><path d="M32.7,50.55c-2.88-2.88-3.05-3.32-3.85-3s-.62.83-.62,2.69c-4.11,0-4.36.17-4.75-.49s-.09-.85,1.77-4.11a1,1,0,0,0-1.74-1c-1.57,2.77-2.86,4.2-1.75,6.1a3,3,0,0,0,2.59,1.49h3.88c0,1.92-.12,2.4.62,2.7a1,1,0,0,0,1.09-.22,37.8,37.8,0,0,0,2.8-2.81A1,1,0,0,0,32.7,50.55Z"/><path d="M36.33,37.46c-1.5-2.6-2.16-4.63-4.52-4.49-2.1.13-2.61,1.85-4.33,4.83-1.67-1-2-1.31-2.65-.81s-.34,1.09.66,4.83a1,1,0,0,0,1,.74,34.64,34.64,0,0,0,4-1,1,1,0,0,0,.24-1.84l-1.53-.88,1.92-3.34a1,1,0,0,1,1.74,0l1.73,3A1,1,0,0,0,36.33,37.46Z"/></g></svg>