<svg xmlns="http://www.w3.org/2000/svg" xmlns:xlink="http://www.w3.org/1999/xlink" viewBox="0 0 64 64"><defs><style>.cls-1{fill:url(#linear-gradient);}.cls-2{fill:#c7cdd8;}</style><linearGradient id="linear-gradient" x1="32" y1="63.04" x2="32" y2="1" gradientUnits="userSpaceOnUse"><stop offset="0" stop-color="#d4d8e1"/><stop offset="1" stop-color="#f3f4f5"/></linearGradient></defs><title>Plastic Bag</title><g id="Plastic_Bag" data-name="Plastic Bag"><path class="cls-1" d="M53,22c0,35.07.65,35.7-2,41,0,.1,1.71,0-38,0-2.66-5.33-2-6-2-41,5-8,5.52-16.15,6-21h6V16a2,2,0,0,0,2,2H39a2,2,0,0,0,2-2V1h6C47.48,5.85,48,14,53,22Z"/><path class="cls-2" d="M53,51.53c0,3.78.22,7.06-2,11.47H13a18.87,18.87,0,0,1-2-8.47V51.62A8.55,8.55,0,0,0,19.63,60H44.37A8.56,8.56,0,0,0,53,51.53Z"/><path d="M53.85,21.47C49.56,14.6,48.69,8.11,48,.9A1,1,0,0,0,47,0H41a1,1,0,0,0-1,1V16a1,1,0,0,1-1,1H25a1,1,0,0,1-1-1V1a1,1,0,0,0-1-1c-7.25,0-6.86-.46-7.08,1.78C14.37,18,10,20.45,10,22V54.53a20,20,0,0,0,2.11,8.92c.4.8-2.25.55,38.89.55a1,1,0,0,0,.89-.55A20,20,0,0,0,54,54.53C54,19.49,54.08,21.85,53.85,21.47ZM50.37,62H13.63C11.31,56.93,12,56,12,22.28,16.69,14.65,17.42,7.05,17.91,2H22V16a3,3,0,0,0,3,3H39a3,3,0,0,0,3-3V2h4.09c.49,5.05,1.22,12.65,5.91,20.28C52,57.26,52.54,57.25,50.37,62Z"/><path d="M40.3,41.37c1.64-1,2.12-1.09,2-1.89s-.69-.82-4.52-1.85a1.11,1.11,0,0,0-.76.1c-.48.28-.42.46-1.48,4.4a1,1,0,0,0,1,1.26c.36,0,.41-.09,2-1,.09.16,1.87,3.24,2,3.38a1,1,0,0,1-.85,1.5l-3.52,0a1,1,0,0,0,0,2c3.16,0,5,.33,6.09-1.57a3,3,0,0,0,0-3Z"/><path d="M32.71,47.59c-2.89-2.89-3.06-3.32-3.86-3s-.62.83-.62,2.7c-4.1,0-4.36.17-4.75-.5s-.09-.84,1.77-4.11a1,1,0,0,0-1.74-1c-1.57,2.76-2.86,4.2-1.75,6.1a3,3,0,0,0,2.59,1.49h3.88c0,1.93-.13,2.39.62,2.7a1,1,0,0,0,1.09-.22L32.72,49A1,1,0,0,0,32.71,47.59Z"/><path d="M36.33,34.5l-1.73-3A3,3,0,0,0,31.81,30c-2.1.13-2.61,1.83-4.33,4.82-1.67-1-2-1.3-2.65-.81s-.34,1.1.66,4.84a1,1,0,0,0,1.22.71l3.79-1a1,1,0,0,0,.24-1.83l-1.53-.89,1.92-3.33a1,1,0,0,1,1.74,0l1.73,3A1,1,0,0,0,36.33,34.5Z"/></g></svg>