<svg xmlns="http://www.w3.org/2000/svg" xmlns:xlink="http://www.w3.org/1999/xlink" viewBox="0 0 64 64"><defs><style>.cls-1{fill:url(#linear-gradient);}.cls-2{fill:url(#linear-gradient-2);}.cls-3{fill:#7ece67;}.cls-4{fill:url(#linear-gradient-3);}.cls-5{fill:#cba07a;}.cls-6{fill:url(#linear-gradient-4);}.cls-7{fill:url(#linear-gradient-5);}.cls-8{fill:url(#linear-gradient-6);}</style><linearGradient id="linear-gradient" x1="22.74" y1="14.47" x2="22.74" y2="1" gradientUnits="userSpaceOnUse"><stop offset="0" stop-color="#8cdd79"/><stop offset="1" stop-color="#d4e6b6"/></linearGradient><linearGradient id="linear-gradient-2" x1="41.26" y1="17" x2="41.26" y2="3.53" gradientTransform="translate(82.53 20.53) rotate(-180)" xlink:href="#linear-gradient"/><linearGradient id="linear-gradient-3" x1="7.25" y1="57.25" x2="35.75" y2="28.75" gradientUnits="userSpaceOnUse"><stop offset="0" stop-color="#deb895"/><stop offset="1" stop-color="#f2d3b8"/></linearGradient><linearGradient id="linear-gradient-4" x1="16.5" y1="41" x2="16.5" y2="25" xlink:href="#linear-gradient-3"/><linearGradient id="linear-gradient-5" x1="27.25" y1="58.25" x2="57.75" y2="27.75" xlink:href="#linear-gradient-3"/><linearGradient id="linear-gradient-6" x1="47.5" y1="41" x2="47.5" y2="25" xlink:href="#linear-gradient-3"/></defs><title>Product</title><g id="Product"><path class="cls-1" d="M13.47,1h6.74A11.79,11.79,0,0,1,32,12.79v1.68a0,0,0,0,1,0,0H25.26A11.79,11.79,0,0,1,13.47,2.68V1A0,0,0,0,1,13.47,1Z"/><path class="cls-2" d="M43.79,3.53h6.74a0,0,0,0,1,0,0V5.21A11.79,11.79,0,0,1,38.74,17H32a0,0,0,0,1,0,0V15.32A11.79,11.79,0,0,1,43.79,3.53Z" transform="translate(82.53 20.53) rotate(180)"/><path class="cls-3" d="M32,14.47H25.26A11.79,11.79,0,0,1,13.47,2.68c0-1.92,0-1.68.07-1.68A11.79,11.79,0,0,0,25.26,11.47h6.66A22.73,22.73,0,0,1,32,14.47Z"/><path class="cls-3" d="M50.53,5.21A11.79,11.79,0,0,1,38.74,17H32a27.15,27.15,0,0,1,.07-3h6.67A11.78,11.78,0,0,0,50.45,3.53C50.56,3.53,50.53,3.28,50.53,5.21Z"/><polygon class="cls-4" points="32 25 32 63 8 58 8 26 32 25"/><polygon class="cls-5" points="32 25 32 29.48 25.12 43.23 8 40.25 8 26 32 25"/><polygon class="cls-6" points="8 26 1 37 24 41 32 25 8 26"/><polygon class="cls-7" points="56 26 56 58 32 63 32 25 56 26"/><polygon class="cls-5" points="32 59.78 32 63 8 58 8 54.78 32 59.78"/><polygon class="cls-5" points="56 54.78 56 58 32 63 32 59.78 56 54.78"/><polygon class="cls-5" points="56 26 56 40.25 38.88 43.23 32 29.48 32 25 56 26"/><polygon class="cls-8" points="56 26 63 37 40 41 32 25 56 26"/><path d="M63.84,36.46c-7.45-11.71-7-11.12-7.35-11.32s1-.08-23.49-1.1V18h5.74A12.81,12.81,0,0,0,51.53,5.21V3.53a1,1,0,0,0-1-1H43.79A12.79,12.79,0,0,0,32.51,9.31,12.81,12.81,0,0,0,20.21,0H13.47a1,1,0,0,0-1,1V2.68A12.8,12.8,0,0,0,25.26,15.47H31V24c-24.85,1-23.44.79-23.84,1.42C-.35,37.26-.22,36.71.08,37.4s.27.5,6.92,1.66V58a1,1,0,0,0,.8,1c25.67,5.35,24,5,24.2,5s-1.54.34,24.2-5a1,1,0,0,0,.8-1V39.06c6.66-1.16,6.62-1,6.92-1.66A1,1,0,0,0,63.84,36.46ZM43.79,4.53h5.74C49.53,11.92,44.15,16,38.74,16H33.89c1.69-2.3,5.25-6.42,9.06-6.42a1,1,0,0,0,1-1c0-2.15-5.69-1.21-10.82,5.12A10.81,10.81,0,0,1,43.79,4.53ZM14.47,2h5.74a10.81,10.81,0,0,1,10.66,9.18c-2.12-2.62-5.72-6.13-9.82-6.13a1,1,0,0,0,0,2c3.81,0,7.37,4.12,9.06,6.42H25.26C19.79,13.47,14.47,9.33,14.47,2ZM8.56,27l21.79-.91L23.44,39.89,2.65,36.27ZM9,39.41C25.06,42.2,23.87,42,24,42c.87,0,.46.31,7-12.76V61.77L9,57.19ZM55,57.19,33,61.77V29.24C39.5,42.24,39.12,42,40,42c.13,0-.72.14,15-2.59ZM40.56,39.89,33.65,26.07,55.44,27l5.91,9.29Z"/></g></svg>