<svg xmlns="http://www.w3.org/2000/svg" xmlns:xlink="http://www.w3.org/1999/xlink" viewBox="0 0 64 64"><defs><style>.cls-1{fill:url(#linear-gradient);}.cls-2{fill:url(#linear-gradient-2);}.cls-3{fill:#4da67f;}.cls-4{fill:url(#linear-gradient-3);}.cls-5{fill:#dfe3ea;}.cls-6{fill:url(#linear-gradient-4);}.cls-7{fill:url(#linear-gradient-5);}.cls-8{fill:#7ece67;}.cls-9{fill:url(#linear-gradient-6);}.cls-10{fill:#c7cdd8;}.cls-11{fill:#8a6762;}</style><linearGradient id="linear-gradient" x1="32" y1="63" x2="32" y2="1" gradientUnits="userSpaceOnUse"><stop offset="0" stop-color="#e9a254"/><stop offset="1" stop-color="#f4bb79"/></linearGradient><linearGradient id="linear-gradient-2" x1="32" y1="63" x2="32" y2="1" gradientUnits="userSpaceOnUse"><stop offset="0" stop-color="#6ab891"/><stop offset="1" stop-color="#85cba9"/></linearGradient><linearGradient id="linear-gradient-3" x1="32" y1="57.73" x2="32" y2="6.25" gradientUnits="userSpaceOnUse"><stop offset="0" stop-color="#d4d8e1"/><stop offset="1" stop-color="#f3f4f5"/></linearGradient><linearGradient id="linear-gradient-4" x1="24" y1="28.63" x2="24" y2="16" gradientUnits="userSpaceOnUse"><stop offset="0" stop-color="#8cdd79"/><stop offset="1" stop-color="#d4e6b6"/></linearGradient><linearGradient id="linear-gradient-5" x1="40" y1="31" x2="40" y2="18.37" gradientTransform="translate(80 49.37) rotate(-180)" xlink:href="#linear-gradient-4"/><linearGradient id="linear-gradient-6" x1="32" y1="57.73" x2="32" y2="43" gradientUnits="userSpaceOnUse"><stop offset="0" stop-color="#9b756d"/><stop offset="1" stop-color="#bc9388"/></linearGradient></defs><title>Protection</title><g id="Protection"><path class="cls-1" d="M32,63A36.84,36.84,0,0,1,6,27.8V5A78.39,78.39,0,0,0,32,1,78.35,78.35,0,0,0,58,5V27.8A36.84,36.84,0,0,1,32,63Z"/><path class="cls-2" d="M32,63A36.84,36.84,0,0,1,6,27.8V5A78.39,78.39,0,0,0,32,1,78.35,78.35,0,0,0,58,5V27.8A36.84,36.84,0,0,1,32,63Z"/><path class="cls-3" d="M56.79,37.11A36.83,36.83,0,0,1,32,63,36.83,36.83,0,0,1,7.21,37.11,37.61,37.61,0,0,0,32,60,37.61,37.61,0,0,0,56.79,37.11Z"/><path class="cls-4" d="M32,57.73A31.66,31.66,0,0,1,11,27.8V9.92A82.48,82.48,0,0,0,32,6.25,82.48,82.48,0,0,0,53,9.92V27.8A31.66,31.66,0,0,1,32,57.73Z"/><path class="cls-5" d="M53,9.92v3A82.48,82.48,0,0,1,32,9.25a82.48,82.48,0,0,1-21,3.67v-3A82.48,82.48,0,0,0,32,6.25,82.48,82.48,0,0,0,53,9.92Z"/><path class="cls-6" d="M16,16h5.39A10.61,10.61,0,0,1,32,26.61v2a0,0,0,0,1,0,0H26.61A10.61,10.61,0,0,1,16,18V16A0,0,0,0,1,16,16Z"/><path class="cls-7" d="M42.61,18.37H48a0,0,0,0,1,0,0v2A10.61,10.61,0,0,1,37.39,31H32a0,0,0,0,1,0,0V29A10.61,10.61,0,0,1,42.61,18.37Z" transform="translate(80 49.37) rotate(180)"/><path class="cls-8" d="M32,26.63v2H26.61A10.61,10.61,0,0,1,16,18V16A10.61,10.61,0,0,0,26.61,26.63Z"/><path class="cls-8" d="M48,18.39v2A10.61,10.61,0,0,1,37.39,31H32V29h5.39A10.61,10.61,0,0,0,48,18.39Z"/><path class="cls-9" d="M45.17,48.75a31.31,31.31,0,0,1-13.17,9,31.3,31.3,0,0,1-13.17-9C27.77,41.26,35.8,40.9,45.17,48.75Z"/><path class="cls-10" d="M20.13,47.7c-.44.34-.87.69-1.3,1a31.44,31.44,0,0,1-6.83-13A31.46,31.46,0,0,0,20.13,47.7Z"/><path class="cls-10" d="M52,35.75a31.44,31.44,0,0,1-6.83,13c-.43-.36-.86-.71-1.3-1A31.46,31.46,0,0,0,52,35.75Z"/><path class="cls-11" d="M45.17,48.75a31.31,31.31,0,0,1-13.17,9,31.3,31.3,0,0,1-13.17-9c.43-.36.86-.71,1.3-1a33.67,33.67,0,0,0,11.87,7,33.67,33.67,0,0,0,11.87-7C44.31,48,44.74,48.39,45.17,48.75Z"/><path d="M53,8.92C39.28,8.32,32.77,5,31.7,5.3A82,82,0,0,1,11,8.92a1,1,0,0,0-1,1V27.8A32.47,32.47,0,0,0,31.66,58.67a1,1,0,0,0,.68,0A32.47,32.47,0,0,0,54,27.8V9.92A1,1,0,0,0,53,8.92ZM32,56.67a30.86,30.86,0,0,1-11.75-7.78c8.07-6.48,15.37-6.53,23.5,0A30.86,30.86,0,0,1,32,56.67Zm9.45-34.56c-3.43,0-6.46,3-8.33,5.44a9.61,9.61,0,0,1,9.49-8.18H47v1A9.62,9.62,0,0,1,37.39,30H33.8c1.65-2.42,4.68-5.89,7.65-5.89A1,1,0,0,0,41.45,22.11Zm-18.9-.37c3,0,6,3.47,7.65,5.89H26.61A9.62,9.62,0,0,1,17,18V17h4.39a9.61,9.61,0,0,1,9.49,8.18C29,22.76,26,19.74,22.55,19.74A1,1,0,0,0,22.55,21.74ZM52,27.8a30.71,30.71,0,0,1-6.93,19.59C41,44.1,37,42.31,33,42.06V32h4.39A11.63,11.63,0,0,0,49,20.39v-2a1,1,0,0,0-1-1H42.61a11.59,11.59,0,0,0-10.1,5.91A11.64,11.64,0,0,0,21.39,15H16a1,1,0,0,0-1,1v2A11.63,11.63,0,0,0,26.61,29.63H31V42.06c-3.95.25-8,2-12.07,5.33A30.71,30.71,0,0,1,12,27.8V10.87A83.41,83.41,0,0,0,32,7.3a83.5,83.5,0,0,0,20,3.57Z"/><path d="M58,4A77.23,77.23,0,0,1,32.32.05C30.76-.46,24.4,4,6,4A1,1,0,0,0,5,5V27.8A37.65,37.65,0,0,0,31.71,64a1.14,1.14,0,0,0,.58,0A37.65,37.65,0,0,0,59,27.8V5A1,1,0,0,0,58,4ZM57,27.8A35.64,35.64,0,0,1,32,62,35.64,35.64,0,0,1,7,27.8C7,3.61,6.84,6,7.35,6A78.79,78.79,0,0,0,32,2.05,78.79,78.79,0,0,0,56.65,6C57.16,6,57,3.61,57,27.8Z"/></g></svg>