<svg xmlns="http://www.w3.org/2000/svg" xmlns:xlink="http://www.w3.org/1999/xlink" viewBox="0 0 64 64"><defs><style>.cls-1{fill:url(#linear-gradient);}.cls-2{fill:#cba07a;}</style><linearGradient id="linear-gradient" x1="27.02" y1="63" x2="27.02" y2="11" gradientUnits="userSpaceOnUse"><stop offset="0" stop-color="#d1a788"/><stop offset="1" stop-color="#f2d3b8"/></linearGradient></defs><title>Recycle Tag</title><g id="Recycle_Tag" data-name="Recycle Tag"><path class="cls-1" d="M19.94,61.94,2.06,44.06a3.62,3.62,0,0,1,0-5.12L28.94,12.06A3.62,3.62,0,0,1,31.5,11H48a5,5,0,0,1,5,5c0,17.56.37,17.63-1.06,19.06L25.06,61.94A3.62,3.62,0,0,1,19.94,61.94Z"/><path class="cls-2" d="M53,28.5c0,3.81.3,5.2-1.06,6.56L25.06,61.94a3.63,3.63,0,0,1-5.12,0L2.06,44.06A3.63,3.63,0,0,1,1.6,39.5c.27.42-.9-.8,18.34,18.44a3.63,3.63,0,0,0,5.12,0L51.94,31.06A3.62,3.62,0,0,0,53,28.5Z"/><path d="M24,35.26c-.74-.31-1,.15-2.34,1.47-2.92-2.92-3.2-3-3-3.71s.53-.66,4.15-1.65a1,1,0,0,0-.53-1.93c-3.07.84-5,.95-5.56,3.07a3,3,0,0,0,.78,2.89l2.74,2.74c-1.36,1.37-1.78,1.6-1.47,2.35s1,.61,4.85.61a1,1,0,0,0,.92-.61c.11-.27.08-.1.08-4.3A1,1,0,0,0,24,35.26Z"/><path d="M34.62,36.2c-.54-.15-.49-.05-4.15,2.06a1,1,0,0,0,.24,1.83l1.71.46c-1.11,4.17-1,3.75-1,3.78a1,1,0,0,1-1.66.45l-2.52-2.45a1,1,0,0,0-1.4,1.43C28.1,46,29.15,47.54,31.25,47a3,3,0,0,0,2.09-2.12l1-3.77a9.71,9.71,0,0,0,2,.49,1,1,0,0,0,.86-1.5C35.15,36.52,35.17,36.34,34.62,36.2Z"/><path d="M36.51,27.14c-1.59-1.59-3.48-.59-6.6.24l-.46-1.71a1,1,0,0,0-1.83-.24c-1.77,3.08-2.06,3.44-2.08,3.83a1,1,0,0,0,.49.93c3.71,2.15,3.53,2.1,3.89,2.1a1,1,0,0,0,1-1.26l-.46-1.71,3.72-1a1,1,0,0,1,1.26.95,25.91,25.91,0,0,1-.93,3.62,1,1,0,0,0,1.93.52c1-3.61,1-3.61,1-4.14A3,3,0,0,0,36.51,27.14Z"/><path d="M54,0A10,10,0,0,0,44,10c-13.28,0-14-.44-15.77,1.35L1.35,38.23a4.64,4.64,0,0,0,0,6.54L19.23,62.65a4.64,4.64,0,0,0,6.54,0L52.65,35.77A4.65,4.65,0,0,0,54,32.5V20A10,10,0,0,0,54,0ZM52,32.5C52,34,53.56,32,24.35,61.23a2.68,2.68,0,0,1-3.7,0L2.77,43.35a2.62,2.62,0,0,1,0-3.7C32,10.43,30,12,31.5,12H44.22a9.63,9.63,0,0,0,1.21,3.1A2.5,2.5,0,1,0,47.11,14a8.3,8.3,0,0,1-.85-2H48a4,4,0,0,1,4,4ZM54,18V16a6,6,0,0,0-6-6H46a8,8,0,1,1,8,8Z"/></g></svg>