<svg xmlns="http://www.w3.org/2000/svg" xmlns:xlink="http://www.w3.org/1999/xlink" viewBox="0 0 64 64"><defs><style>.cls-1{fill:url(#linear-gradient);}.cls-2{fill:#77cacb;}.cls-3{fill:url(#linear-gradient-2);}.cls-4{fill:url(#linear-gradient-3);}.cls-5{fill:#eab39b;}</style><linearGradient id="linear-gradient" x1="32" y1="37" x2="32" y2="1" gradientUnits="userSpaceOnUse"><stop offset="0" stop-color="#9dd5df"/><stop offset="1" stop-color="#c3e1f5"/></linearGradient><linearGradient id="linear-gradient-2" x1="16.5" y1="64" x2="16.5" y2="28" gradientUnits="userSpaceOnUse"><stop offset="0" stop-color="#f2c4b0"/><stop offset="1" stop-color="#ffe3d7"/></linearGradient><linearGradient id="linear-gradient-3" x1="47.49" x2="47.49" y2="28" xlink:href="#linear-gradient-2"/></defs><title>Save Water</title><g id="Save_Water" data-name="Save Water"><path class="cls-1" d="M44,25a12,12,0,0,1-24,0C20,14,32,1,32,1S44,14,44,25Z"/><path class="cls-2" d="M32,37A12,12,0,0,1,20.08,23.41a12,12,0,0,0,23.84,0A12,12,0,0,1,32,37Z"/><path class="cls-3" d="M32,56v8H21c.49-3.86-.26-8-3-10A90.16,90.16,0,0,1,8,45C5,42,1,32,1,30a2,2,0,0,1,3.77-.92C9.18,39.54,10.22,40.22,20,46a44.72,44.72,0,0,1-4-6c-3-5-.12-5.71,2-5,3,1,5,7,8,9S32,52.11,32,56Z"/><path class="cls-4" d="M63,30c0,2-4,12-7,15a90.16,90.16,0,0,1-10,9c-2.71,2-3.51,6-3,10H32c0-8-.14-8.66.35-10.61C33.21,49.75,35.6,45.6,38,44c3-2,5-8,8-9,2.12-.71,5,0,2,5a44.72,44.72,0,0,1-4,6c9.78-5.78,10.81-6.46,15.21-16.91A2,2,0,0,1,63,30Z"/><path class="cls-5" d="M32,59a3.61,3.61,0,0,1-3.24,2h-.93a9.09,9.09,0,0,1-7.53-4,14.68,14.68,0,0,1,.7,7H32C32,58.24,32,59.1,32,59Z"/><path class="cls-5" d="M43.7,57a9.09,9.09,0,0,1-7.53,4c-1.28,0-3.13.08-4.17-2v5H43A14.54,14.54,0,0,1,43.7,57Z"/><path d="M31,63V56c0-3.63-2.85-9.37-5.55-11.17-3.15-2.1-5.26-8-7.77-8.88-.79-.27-1.6-.24-1.85.07-1,1.23,4.13,8.44,4.9,9.31a1,1,0,0,1-1.26,1.52C10,41.22,8.32,40.19,4.13,30.15,3.9,29.59,3.79,29,3,29a1,1,0,0,0-1,1c0,1.58,3.84,11.42,6.71,14.29A89.39,89.39,0,0,0,18.6,53.2C23,56.53,22,62.9,22,63.16a1,1,0,0,1-2-.32c0-.06.84-5.45-2.61-8A91.88,91.88,0,0,1,7.29,45.71C4.13,42.55,0,32.25,0,30a3,3,0,0,1,5.66-1.38c4.28,10.12,5.54,10.67,10.78,14-1.45-2.31-3.84-5.79-2.17-7.86,1-1.21,2.73-1.16,4.05-.72,3.48,1.16,5.41,7.23,8.23,9.12C29.81,45.34,33,51.69,33,56v7A1,1,0,0,1,31,63Z"/><path d="M31,63V56c0-4.31,3.19-10.66,6.45-12.83,2.82-1.88,4.76-8,8.23-9.12,1.32-.44,3.08-.49,4,.72,1.67,2.08-.72,5.55-2.17,7.86,5.13-3.27,6.55-3.9,10.75-13.94A3,3,0,0,1,64,30c0,2.25-4.13,12.55-7.29,15.71A91.88,91.88,0,0,1,46.6,54.8c-3.45,2.59-2.62,8-2.61,8a1,1,0,0,1-2,.32c0-.26-1-6.63,3.39-10a89.39,89.39,0,0,0,9.89-8.91C58.16,41.42,62,31.58,62,30a1,1,0,0,0-1.88-.46c-4.37,10.6-5.89,11.57-15.59,17.31a1,1,0,0,1-1.26-1.52c.74-.84,5.89-8.07,4.9-9.31-.25-.31-1.06-.34-1.85-.07-2.5.83-4.62,6.79-7.77,8.88C35.85,46.63,33,52.37,33,56v7A1,1,0,0,1,31,63Z"/><path d="M32,38A13,13,0,0,1,19,25C19,13.74,30.76.86,31.27.32a1,1,0,0,1,1.46,0C33.24.86,45,13.74,45,25A13,13,0,0,1,32,38ZM32,2.52C29.43,5.53,21,16.08,21,25a11,11,0,0,0,22,0C43,16.08,34.57,5.53,32,2.52Z"/><path d="M34.55,31.52A7,7,0,0,0,39,25a1,1,0,0,1,2,0,9.07,9.07,0,0,1-5.72,8.38A1,1,0,0,1,34.55,31.52Z"/></g></svg>