<svg xmlns="http://www.w3.org/2000/svg" xmlns:xlink="http://www.w3.org/1999/xlink" viewBox="0 0 64 64"><defs><style>.cls-1{fill:url(#linear-gradient);}.cls-2{fill:#86b8e0;}.cls-3{fill:url(#linear-gradient-2);}.cls-4{fill:url(#linear-gradient-3);}.cls-5{fill:url(#linear-gradient-4);}.cls-6{fill:#5b8dc9;}.cls-7{fill:#adb3c4;}</style><linearGradient id="linear-gradient" x1="32" y1="49" x2="32" y2="23" gradientUnits="userSpaceOnUse"><stop offset="0" stop-color="#7aa8d7"/><stop offset="1" stop-color="#c3d2e7"/></linearGradient><linearGradient id="linear-gradient-2" x1="32" y1="59" x2="32" y2="49" gradientUnits="userSpaceOnUse"><stop offset="0" stop-color="#949aaf"/><stop offset="1" stop-color="#c6ccda"/></linearGradient><linearGradient id="linear-gradient-3" y1="63" y2="59" xlink:href="#linear-gradient-2"/><linearGradient id="linear-gradient-4" x1="32" y1="14" x2="32" y2="6" gradientUnits="userSpaceOnUse"><stop offset="0" stop-color="#fbcc88"/><stop offset="1" stop-color="#ffe5c3"/></linearGradient></defs><title>Solar Panel</title><g id="Solar_Panel" data-name="Solar Panel"><path class="cls-1" d="M63,49H1c2.5-5.87,8.94-21.14,11-26H52C53.76,27.15,60.8,43.83,63,49Z"/><polygon class="cls-2" points="52.85 25 11.15 25 12 23 52 23 52.85 25"/><rect class="cls-3" x="30" y="49" width="4" height="10"/><path class="cls-4" d="M24,59H40a3,3,0,0,1,3,3v1a0,0,0,0,1,0,0H21a0,0,0,0,1,0,0V62A3,3,0,0,1,24,59Z"/><circle class="cls-5" cx="32" cy="10" r="4"/><polygon class="cls-6" points="63 49 1 49 1.85 47 62.15 47 63 49"/><rect class="cls-7" x="30" y="49" width="4" height="2"/><path d="M63.92,48.61C52.09,20.64,53,22,52,22c-42.68,0-40.52-.33-40.92.61C-.81,50.72-.28,48.88.17,49.55S-1.17,50,29,50v8H24a4,4,0,0,0-4,4v1a1,1,0,0,0,1,1H43a1,1,0,0,0,1-1V62a4,4,0,0,0-4-4H35V50H63A1,1,0,0,0,63.92,48.61ZM23.15,48l1.09-8H39.76l1.09,8Zm1.36-10,1-7H38.53l1,7ZM9.7,31H23.45l-1,7H6.74Zm16-2,.68-5H37.58l.68,5Zm14.81,2H54.3l3,7H41.51Zm12.9-2H40.28l-.68-5H51.34ZM12.66,24H24.4l-.68,5H10.55ZM5.89,40H22.22l-1.09,8H2.51ZM42,62H22a2,2,0,0,1,2-2H40A2,2,0,0,1,42,62Zm-9-4H31V50h2Zm9.87-10-1.09-8H58.11l3.38,8Z"/><path d="M32,15a5,5,0,1,0-5-5A5,5,0,0,0,32,15Zm0-8a3,3,0,1,1-3,3A3,3,0,0,1,32,7Z"/><path d="M33,3V1a1,1,0,0,0-2,0V3A1,1,0,0,0,33,3Z"/><path d="M31,17v2a1,1,0,0,0,2,0V17A1,1,0,0,0,31,17Z"/><path d="M39,11h2a1,1,0,0,0,0-2H39A1,1,0,0,0,39,11Z"/><path d="M23,11h2a1,1,0,0,0,0-2H23A1,1,0,0,0,23,11Z"/><path d="M37,6.05c.6,0,.83-.41,2.12-1.71a1,1,0,0,0-1.41-1.41L36.24,4.34A1,1,0,0,0,37,6.05Z"/><path d="M26.34,14.24l-1.41,1.42a1,1,0,0,0,1.41,1.41l1.42-1.41A1,1,0,0,0,26.34,14.24Z"/><path d="M36.24,15.66l1.42,1.41a1,1,0,0,0,1.41-1.41l-1.41-1.42A1,1,0,0,0,36.24,15.66Z"/><path d="M26.34,5.76a1,1,0,0,0,1.42-1.42L26.34,2.93a1,1,0,0,0-1.41,1.41Z"/></g></svg>