<svg xmlns="http://www.w3.org/2000/svg" xmlns:xlink="http://www.w3.org/1999/xlink" viewBox="0 0 64 64"><defs><style>.cls-1{fill:url(#linear-gradient);}.cls-2{fill:url(#linear-gradient-2);}.cls-3{fill:#7ece67;}.cls-4{fill:url(#linear-gradient-3);}.cls-5{fill:url(#linear-gradient-4);}.cls-6{fill:#8a6762;}</style><linearGradient id="linear-gradient" x1="21" y1="17" x2="21" y2="1" gradientUnits="userSpaceOnUse"><stop offset="0" stop-color="#8cdd79"/><stop offset="1" stop-color="#d4e6b6"/></linearGradient><linearGradient id="linear-gradient-2" x1="43" y1="20" x2="43" y2="4" gradientTransform="translate(86 24) rotate(-180)" xlink:href="#linear-gradient"/><linearGradient id="linear-gradient-3" x1="32" y1="41" x2="32" y2="35" gradientUnits="userSpaceOnUse"><stop offset="0" stop-color="#d1a788"/><stop offset="1" stop-color="#f2d3b8"/></linearGradient><linearGradient id="linear-gradient-4" x1="32" y1="63" x2="32" y2="41" gradientUnits="userSpaceOnUse"><stop offset="0" stop-color="#9b756d"/><stop offset="1" stop-color="#bc9388"/></linearGradient></defs><title>sprout</title><g id="sprout"><path class="cls-1" d="M10,1h8A14,14,0,0,1,32,15v2a0,0,0,0,1,0,0H24A14,14,0,0,1,10,3V1A0,0,0,0,1,10,1Z"/><path class="cls-2" d="M46,4h8a0,0,0,0,1,0,0V6A14,14,0,0,1,40,20H32a0,0,0,0,1,0,0V18A14,14,0,0,1,46,4Z" transform="translate(86 24) rotate(180)"/><path class="cls-3" d="M32,17H24A14,14,0,0,1,10,3c0-2.14-.06-2,0-2A14,14,0,0,0,24,14h8C32,14.65,32,15.3,32,17Z"/><path class="cls-3" d="M54,6A14,14,0,0,1,40,20H32c0-1.94,0-2.42,0-3h8A14,14,0,0,0,54,4C54.06,4,54,3.86,54,6Z"/><rect class="cls-4" x="11" y="35" width="42" height="6"/><path class="cls-5" d="M51,41c-4.82,20.93-4.18,18.15-5.07,22H18.07c-.94-4.09,0,.07-5.07-22Z"/><polygon class="cls-6" points="46.62 60 45.93 63 18.07 63 17.38 60 46.62 60"/><path d="M40,21A15,15,0,0,0,55,6V4a1,1,0,0,0-1-1H46a15,15,0,0,0-13.45,8.41A15,15,0,0,0,18,0H10A1,1,0,0,0,9,1V3A15,15,0,0,0,24,18h7V34H11a1,1,0,0,0-1,1v6a1,1,0,0,0,1,1h1.2l4.89,21.22a1,1,0,0,0,1,.78H45.93a1,1,0,0,0,1-.78L51.8,42H53a1,1,0,0,0,1-1V35a1,1,0,0,0-1-1H33V21Zm5.14,41H18.86l-4.6-20H49.74ZM52,40H12V36H52ZM46,5h7V6A13,13,0,0,1,40,19H33.88c1.93-2.69,6.35-8,11.12-8a1,1,0,0,0,0-2c-5.07,0-9.52,4.62-11.94,7.74A13,13,0,0,1,46,5ZM11,3V2h7A13,13,0,0,1,30.94,13.74C28.52,10.62,24.07,6,19,6a1,1,0,0,0,0,2c4.77,0,9.19,5.31,11.12,8H24A13,13,0,0,1,11,3Z"/></g></svg>