<svg xmlns="http://www.w3.org/2000/svg" xmlns:xlink="http://www.w3.org/1999/xlink" viewBox="0 0 64 64"><defs><style>.cls-1{fill:url(#linear-gradient);}.cls-2{fill:url(#linear-gradient-2);}.cls-3{fill:url(#linear-gradient-3);}.cls-4{fill:#dd8b37;}</style><linearGradient id="linear-gradient" x1="3.72" y1="16.48" x2="63" y2="16.48" gradientUnits="userSpaceOnUse"><stop offset="0" stop-color="#6ab891"/><stop offset="1" stop-color="#85cba9"/></linearGradient><linearGradient id="linear-gradient-2" x1="60.28" y1="47.52" x2="1" y2="47.52" xlink:href="#linear-gradient"/><linearGradient id="linear-gradient-3" x1="32" y1="52" x2="32" y2="12" gradientUnits="userSpaceOnUse"><stop offset="0" stop-color="#e9a254"/><stop offset="1" stop-color="#f4bb79"/></linearGradient></defs><title>Sustainable energy</title><g id="Sustainable_energy" data-name="Sustainable energy"><path class="cls-1" d="M63,32H57C57,10,30.15-1.51,14.32,14.32l-2.83,2.83L14.32,20l-10.6.71.7-10.61,2.83,2.83,2.83-2.83C29.67-9.51,63,4.63,63,32Z"/><path class="cls-2" d="M60.28,43.31l-.7,10.61-2.83-2.83-2.83,2.83C34.33,73.51,1,59.37,1,32H7C7,54,33.85,65.51,49.68,49.68l2.83-2.83L49.68,44Z"/><polygon class="cls-3" points="42.77 32 35.08 28.92 35.08 12 21.23 32 28.92 35.08 28.92 52 42.77 32"/><polygon class="cls-4" points="42.77 32 28.92 52 28.92 48 40.6 31.13 42.77 32"/><path d="M9.37,9.37,7.25,11.49C5.3,9.55,4.91,8.83,4.07,9.14S3.49,9,2.72,20.62a1,1,0,0,0,1.06,1.06c11.2-.74,11.16-.51,11.48-1.35s-.26-1.09-2.35-3.18L15,15c15-15,41-4.35,41,17a1,1,0,0,0,1,1h6a1,1,0,0,0,1-1C64,3.56,29.4-10.65,9.37,9.37ZM58,31C57.14,8.6,29.73-2.5,13.62,13.62l-2.83,2.82a1,1,0,0,0,0,1.42l1.27,1.27-7.27.48.48-7.26,1.27,1.27a1,1,0,0,0,1.42,0l2.83-2.83C29.34-7.77,61.14,5,62,31Z"/><path d="M60.22,42.32c-11.31.75-11.16.51-11.48,1.35s.26,1.09,2.35,3.18L49,49C34,64,8,53.33,8,32a1,1,0,0,0-1-1H1a1,1,0,0,0-1,1C0,60.49,34.64,74.62,54.63,54.63l2.12-2.12c1.9,1.9,2.33,2.66,3.18,2.35s.58.11,1.35-11.48A1,1,0,0,0,60.22,42.32Zm-1.49,9.33c-2.33-2.32-1.63-2.32-5.52,1.56C34.65,71.77,2.86,59,2,33H6c.84,22.37,28.22,33.53,44.36,17.38l2.83-2.82a1,1,0,0,0,0-1.42l-1.27-1.27,7.27-.48Z"/><path d="M34.25,11.43l-13.84,20a1,1,0,0,0,.45,1.5l7.06,2.82V52a1,1,0,0,0,1,1c.75,0-.43,1.38,14.67-20.43a1,1,0,0,0-.45-1.5l-7.06-2.82V12A1,1,0,0,0,34.25,11.43Zm7,21L29.92,48.8V35.08c0-.92-.16-.75-7.15-3.54L34.08,15.2V28.92C34.08,29.84,34.24,29.67,41.23,32.46Z"/></g></svg>