<svg xmlns="http://www.w3.org/2000/svg" xmlns:xlink="http://www.w3.org/1999/xlink" viewBox="0 0 64 64"><defs><style>.cls-1{fill:url(#linear-gradient);}.cls-2{fill:url(#linear-gradient-2);}.cls-3{fill:url(#linear-gradient-3);}.cls-4{fill:#4da67f;}.cls-5{fill:url(#linear-gradient-4);}.cls-6{fill:#42455e;}.cls-7{fill:url(#linear-gradient-5);}.cls-8{fill:#78c19b;}</style><linearGradient id="linear-gradient" x1="28" y1="63" x2="28" y2="11" gradientUnits="userSpaceOnUse"><stop offset="0" stop-color="#6ab891"/><stop offset="1" stop-color="#85cba9"/></linearGradient><linearGradient id="linear-gradient-2" x1="32" y1="11" x2="32" y2="5.01" xlink:href="#linear-gradient"/><linearGradient id="linear-gradient-3" y1="7" x2="28" y2="1" xlink:href="#linear-gradient"/><linearGradient id="linear-gradient-4" x1="45" y1="63" x2="45" y2="47" gradientUnits="userSpaceOnUse"><stop offset="0" stop-color="#474f72"/><stop offset="1" stop-color="#878c9f"/></linearGradient><linearGradient id="linear-gradient-5" x1="45" y1="58" x2="45" y2="52" gradientUnits="userSpaceOnUse"><stop offset="0" stop-color="#949aaf"/><stop offset="1" stop-color="#c6ccda"/></linearGradient></defs><title>Trash</title><g id="Trash"><path class="cls-1" d="M50,11c-.27,2.85.27-2.82-3.48,36.14-6.38,13-4.89,9.94-6.81,13.86H20l-1,2H12c-1-8.27-5.84-50.59-6-52Z"/><path class="cls-2" d="M61,8a3,3,0,0,1-3,3H3V7H55.18A3,3,0,0,1,61,8Z"/><path class="cls-3" d="M50,7H6l4-6H46Z"/><polygon class="cls-4" points="41.18 58 39.71 61 20 61 19 63 12 63 11.42 58 41.18 58"/><circle class="cls-5" cx="45" cy="55" r="8"/><path class="cls-6" d="M45,63a8,8,0,0,1-7.94-9,8,8,0,0,0,15.88,0A8,8,0,0,1,45,63Z"/><circle class="cls-7" cx="45" cy="55" r="3"/><polygon class="cls-8" points="50 11 49.81 13 6.23 13 6 11 50 11"/><polygon class="cls-4" points="50 7 6 7 7.33 5 48.67 5 50 7"/><path d="M31.56,30.09a1,1,0,0,0,1,1.26c.36,0,.41-.08,2-1,.09.16,1.87,3.25,2,3.39a1,1,0,0,1-.85,1.49l-3.52,0a1,1,0,0,0,0,2c3.16,0,5,.33,6.09-1.57a3,3,0,0,0,0-3l-2-3.38c1.64-.95,2.12-1.09,2-1.88s-.69-.82-4.52-1.85a1,1,0,0,0-.76.1C32.57,26,32.67,26,31.56,30.09Z"/><path d="M20.35,37.26h3.88V39a1,1,0,0,0,1,1c.57,0,.54-.13,3.48-3.07a1,1,0,0,0,.29-.71c0-.54-.12-.53-3.06-3.47a1,1,0,0,0-1.71.7v1.77H20.35a1,1,0,0,1-.87-1.49l1.77-3.11a1,1,0,0,0-1.74-1l-1.77,3.11A3,3,0,0,0,20.35,37.26Z"/><path d="M21.49,26.82a1,1,0,0,0,1,.74c.19,0,0,0,4.06-1a1,1,0,0,0,.24-1.84l-1.53-.88,1.92-3.34a1,1,0,0,1,1.74,0l1.73,3a1,1,0,0,0,1.73-1c-1.5-2.6-2.16-4.64-4.52-4.49-2.1.13-2.61,1.85-4.33,4.83l-1.54-.89A1,1,0,0,0,20.48,23C21.67,27.49,21.49,26.72,21.49,26.82Z"/><path d="M54.55,6h-4c-4-6-3.82-6-4.54-6C7.64,0,9.61-.22,9.17.45L5.46,6H3A1,1,0,0,0,2,7v4a1,1,0,0,0,1,1H5.11L11,63.11A1,1,0,0,0,12,64c7.59,0,7.12,0,7.43-.11s.43-.37,1.19-1.89H39.36A9,9,0,1,0,47.6,46.39L50.91,12H58a4,4,0,1,0-3.45-6Zm-44-4H45.46l2.67,4H7.87ZM52,55a7,7,0,1,1-7-7A7,7,0,0,1,52,55Zm-6.38-9a9,9,0,0,0-8.1,14H20c-.73,0-.84.44-1.62,2H12.89L7.12,12H48.9ZM58,10H4V8c55.26,0,51.75.3,52.11-.65A2,2,0,1,1,58,10Z"/><path d="M41,55a4,4,0,1,0,4-4A4,4,0,0,0,41,55Zm6,0a2,2,0,1,1-2-2A2,2,0,0,1,47,55Z"/></g></svg>