<svg xmlns="http://www.w3.org/2000/svg" xmlns:xlink="http://www.w3.org/1999/xlink" viewBox="0 0 64 64"><defs><style>.cls-1{fill:url(#linear-gradient);}.cls-2{fill:#78c19b;}.cls-3{fill:#4da67f;}.cls-4{fill:url(#linear-gradient-2);}.cls-5{fill:url(#linear-gradient-3);}.cls-6{fill:url(#linear-gradient-4);}.cls-7{fill:url(#linear-gradient-5);}.cls-8{fill:#8a6762;}.cls-9{fill:url(#linear-gradient-6);}.cls-10{fill:#cba07a;}</style><linearGradient id="linear-gradient" x1="28" y1="48.92" x2="28" y2="6" gradientUnits="userSpaceOnUse"><stop offset="0" stop-color="#6ab891"/><stop offset="1" stop-color="#85cba9"/></linearGradient><linearGradient id="linear-gradient-2" x1="32" y1="55" x2="32" y2="45" xlink:href="#linear-gradient"/><linearGradient id="linear-gradient-3" x1="32" y1="62" x2="32" y2="52" xlink:href="#linear-gradient"/><linearGradient id="linear-gradient-4" x1="32" y1="64" x2="32" y2="60" xlink:href="#linear-gradient"/><linearGradient id="linear-gradient-5" x1="57.5" y1="28" x2="57.5" y2="4" gradientUnits="userSpaceOnUse"><stop offset="0" stop-color="#9b756d"/><stop offset="1" stop-color="#bc9388"/></linearGradient><linearGradient id="linear-gradient-6" x1="47" y1="31" x2="47" y2="1" gradientTransform="translate(94 32) rotate(180)" gradientUnits="userSpaceOnUse"><stop offset="0" stop-color="#d1a788"/><stop offset="1" stop-color="#f2d3b8"/></linearGradient></defs><title>Waste</title><g id="Waste"><path class="cls-1" d="M43,6V28a9,9,0,0,0-9,9V48.88l-21,0V36A30,30,0,0,1,43,6Z"/><path class="cls-2" d="M43,6V28a8.8,8.8,0,0,0-3,.52V6.14C41,6.05,42,6,43,6Z"/><path class="cls-3" d="M34,44.86v4l-21,0v-4c3-.36,7.2-3.62,14.56-.77A11.64,11.64,0,0,0,34,44.86Z"/><path class="cls-4" d="M64,45V55H0V45c6.17,0,6.17,2,11.34,2s5.17-2,10.34-2S26.84,47,32,47s5.16-2,10.33-2,5.17,2,10.33,2S57.84,45,64,45Z"/><path class="cls-3" d="M64,50v6H0V50a16.24,16.24,0,0,1,6.89,1.13c8.39,3.29,10.57-3.91,20.67,0,8.43,3.3,10.62-4,20.67,0a11.6,11.6,0,0,0,8.89,0A20.43,20.43,0,0,1,64,50Z"/><path class="cls-5" d="M64,52V62H0V52c6.17,0,6.17,2,11.34,2s5.17-2,10.34-2S26.84,54,32,54s5.16-2,10.33-2,5.17,2,10.33,2S57.84,52,64,52Z"/><path class="cls-3" d="M64,58v5H0V58a20.45,20.45,0,0,1,6.89,1.13c8.39,3.29,10.57-3.91,20.67,0,8.43,3.3,10.62-4,20.67,0a11.6,11.6,0,0,0,8.89,0A16.21,16.21,0,0,1,64,58Z"/><path class="cls-6" d="M64,60v4H0V60c6.17,0,6.17,2,11.34,2s5.17-2,10.34-2S26.84,62,32,62s5.16-2,10.33-2,5.17,2,10.33,2S57.84,60,64,60Z"/><rect class="cls-7" x="51" y="4" width="13" height="24"/><rect class="cls-8" x="51" y="25" width="13" height="3"/><rect class="cls-9" x="43" y="1" width="8" height="30" transform="translate(94 32) rotate(-180)"/><rect class="cls-10" x="43" y="28" width="8" height="3" transform="translate(94 59) rotate(-180)"/><path d="M43,32h8a1,1,0,0,0,1-1V29H63a1,1,0,0,0,0-2H52V5H63a1,1,0,0,0,0-2H52V1a1,1,0,0,0-1-1H43a1,1,0,0,0-1,1V5A31,31,0,0,0,12,36V46c-5.29.21-5.56-2-11-2a1,1,0,0,0,0,2c4.68,0,5.13,2,10.34,2s5.59-2,10.34-2S26.81,48,32,48s5.59-2,10.33-2,5.13,2,10.33,2S58.26,46,63,46a1,1,0,0,0,0-2c-5.18,0-5.59,2-10.33,2s-5.13-2-10.33-2c-4,0-5.1,1.11-7.34,1.67V37a8,8,0,0,1,7-7.93V31A1,1,0,0,0,43,32ZM44,2h6V30H44ZM33,37v9c-4.31.26-5.38-1-8-1.63V40a1,1,0,0,0-2,0v4c-5-.37-6.4,1.15-9,1.7V36A29,29,0,0,1,42,7v3a26,26,0,0,0-18.49,8.76A1,1,0,0,0,25,20.11,24,24,0,0,1,42,12v9a13.9,13.9,0,0,0-2.33.32,1,1,0,0,0,.44,1.94A11.94,11.94,0,0,1,42,23.06v4A10,10,0,0,0,33,37Z"/><path d="M31.43,19.68a20,20,0,0,0-8.31,14.23,1,1,0,1,0,2,.2,18,18,0,0,1,7.49-12.79A1,1,0,0,0,31.43,19.68Z"/><path d="M38.83,16.44a19.5,19.5,0,0,0-3.21,1A1,1,0,0,0,36,19.34c.47,0,1-.47,3.25-.94A1,1,0,0,0,38.83,16.44Z"/><path d="M17.77,29.73A33.42,33.42,0,0,0,17,39a1,1,0,0,0,1,1c2.08,0,.08-3.34,1.71-9.77A1,1,0,0,0,17.77,29.73Z"/><path d="M28.67,31.54C27.86,34.17,28,35.28,28,42a1,1,0,0,0,2,0c0-6.14-.17-7.48.58-9.9A1,1,0,0,0,28.67,31.54Z"/><path d="M63,52c-5.18,0-5.59,2-10.33,2s-5.13-2-10.33-2S36.73,54,32,54s-5.13-2-10.33-2-5.6,2-10.34,2S6.2,52,1,52a1,1,0,0,0,0,2c4.68,0,5.13,2,10.34,2s5.59-2,10.34-2S26.81,56,32,56s5.59-2,10.33-2,5.13,2,10.33,2S58.26,54,63,54A1,1,0,0,0,63,52Z"/><path d="M63,60c-5.18,0-5.59,2-10.33,2s-5.13-2-10.33-2S36.73,62,32,62s-5.13-2-10.33-2-5.6,2-10.34,2S6.2,60,1,60a1,1,0,0,0,0,2c4.68,0,5.13,2,10.34,2s5.59-2,10.34-2S26.81,64,32,64s5.59-2,10.33-2,5.13,2,10.33,2S58.26,62,63,62A1,1,0,0,0,63,60Z"/></g></svg>