<svg xmlns="http://www.w3.org/2000/svg" xmlns:xlink="http://www.w3.org/1999/xlink" viewBox="0 0 64 64"><defs><style>.cls-1{fill:url(#linear-gradient);}.cls-2{fill:url(#linear-gradient-2);}.cls-3{fill:url(#linear-gradient-3);}.cls-4{fill:#cba07a;}.cls-5{fill:url(#linear-gradient-4);}.cls-6{fill:url(#linear-gradient-5);}.cls-7{fill:url(#linear-gradient-6);}.cls-8{fill:url(#linear-gradient-7);}.cls-9{fill:#77cacb;}</style><linearGradient id="linear-gradient" x1="32" y1="22" x2="32" y2="1" gradientUnits="userSpaceOnUse"><stop offset="0" stop-color="#d1a788"/><stop offset="1" stop-color="#f2d3b8"/></linearGradient><linearGradient id="linear-gradient-2" x1="9" x2="9" xlink:href="#linear-gradient"/><linearGradient id="linear-gradient-3" x1="55" x2="55" xlink:href="#linear-gradient"/><linearGradient id="linear-gradient-4" x1="32" y1="38" x2="32" y2="26" gradientUnits="userSpaceOnUse"><stop offset="0" stop-color="#d4d8e1"/><stop offset="1" stop-color="#f3f4f5"/></linearGradient><linearGradient id="linear-gradient-5" x1="32" y1="63" x2="32" y2="42" gradientUnits="userSpaceOnUse"><stop offset="0" stop-color="#9dd5df"/><stop offset="1" stop-color="#c3e1f5"/></linearGradient><linearGradient id="linear-gradient-6" x1="9" x2="9" xlink:href="#linear-gradient-5"/><linearGradient id="linear-gradient-7" x1="55" x2="55" xlink:href="#linear-gradient-5"/></defs><title>Water Filtration</title><g id="Water_Filtration" data-name="Water Filtration"><path class="cls-1" d="M39,15a7,7,0,0,1-14,0c0-6.42,7-14,7-14S39,8.58,39,15Z"/><path class="cls-2" d="M16,15A7,7,0,0,1,2,15C2,8.58,9,1,9,1S16,8.58,16,15Z"/><path class="cls-3" d="M62,15a7,7,0,0,1-14,0c0-6.42,7-14,7-14S62,8.58,62,15Z"/><path class="cls-4" d="M32,22a7,7,0,0,1-6.93-8.09,7,7,0,0,0,13.86,0A7,7,0,0,1,32,22Z"/><path class="cls-4" d="M9,22a7,7,0,0,1-6.93-8.09,7,7,0,0,0,13.86,0A7,7,0,0,1,9,22Z"/><path class="cls-4" d="M55,22a7,7,0,0,1-6.93-8.09,7,7,0,0,0,13.86,0A7,7,0,0,1,55,22Z"/><rect class="cls-5" y="26" width="64" height="12"/><path class="cls-6" d="M39,56a7,7,0,0,1-14,0c0-6.42,7-14,7-14S39,49.58,39,56Z"/><path class="cls-7" d="M16,56A7,7,0,0,1,2,56c0-6.42,7-14,7-14S16,49.58,16,56Z"/><path class="cls-8" d="M62,56a7,7,0,0,1-14,0c0-6.42,7-14,7-14S62,49.58,62,56Z"/><path class="cls-9" d="M32,63a7,7,0,0,1-6.93-8.09,7,7,0,0,0,13.86,0A7,7,0,0,1,32,63Z"/><path class="cls-9" d="M9,63a7,7,0,0,1-6.93-8.09,7,7,0,0,0,13.86,0A7,7,0,0,1,9,63Z"/><path class="cls-9" d="M55,63a7,7,0,0,1-6.93-8.09,7,7,0,0,0,13.86,0A7,7,0,0,1,55,63Z"/></g><g id="Recycle"><path d="M1,27H63a1,1,0,0,0,0-2H1A1,1,0,0,0,1,27Z"/><path d="M63,37H1a1,1,0,0,0,0,2H63A1,1,0,0,0,63,37Z"/><path d="M6,29H2a1,1,0,0,0,0,2H6A1,1,0,0,0,6,29Z"/><path d="M14,29H10a1,1,0,0,0,0,2h4A1,1,0,0,0,14,29Z"/><path d="M22,29H18a1,1,0,0,0,0,2h4A1,1,0,0,0,22,29Z"/><path d="M30,29H26a1,1,0,0,0,0,2h4A1,1,0,0,0,30,29Z"/><path d="M38,29H34a1,1,0,0,0,0,2h4A1,1,0,0,0,38,29Z"/><path d="M46,29H42a1,1,0,0,0,0,2h4A1,1,0,0,0,46,29Z"/><path d="M54,29H50a1,1,0,0,0,0,2h4A1,1,0,0,0,54,29Z"/><path d="M62,29H58a1,1,0,0,0,0,2h4A1,1,0,0,0,62,29Z"/><path d="M6,33H2a1,1,0,0,0,0,2H6A1,1,0,0,0,6,33Z"/><path d="M14,33H10a1,1,0,0,0,0,2h4A1,1,0,0,0,14,33Z"/><path d="M22,33H18a1,1,0,0,0,0,2h4A1,1,0,0,0,22,33Z"/><path d="M30,33H26a1,1,0,0,0,0,2h4A1,1,0,0,0,30,33Z"/><path d="M38,33H34a1,1,0,0,0,0,2h4A1,1,0,0,0,38,33Z"/><path d="M46,33H42a1,1,0,0,0,0,2h4A1,1,0,0,0,46,33Z"/><path d="M54,33H50a1,1,0,0,0,0,2h4A1,1,0,0,0,54,33Z"/><path d="M62,33H58a1,1,0,0,0,0,2h4A1,1,0,0,0,62,33Z"/><path d="M29,16a1,1,0,0,0-2,0A1,1,0,0,0,29,16Z"/><path d="M30,13a1,1,0,0,0,0-2A1,1,0,0,0,30,13Z"/><path d="M35,14a1,1,0,0,0,0-2A1,1,0,0,0,35,14Z"/><path d="M33,9a1,1,0,0,0,0-2A1,1,0,0,0,33,9Z"/><path d="M34,17a1,1,0,0,0,0,2A1,1,0,0,0,34,17Z"/><path d="M52,16a1,1,0,0,0-2,0A1,1,0,0,0,52,16Z"/><path d="M59,15a1,1,0,0,0,0-2A1,1,0,0,0,59,15Z"/><path d="M54,10a1,1,0,0,0,0-2A1,1,0,0,0,54,10Z"/><path d="M54,13a1,1,0,0,0,2,0A1,1,0,0,0,54,13Z"/><path d="M55,18a1,1,0,0,0,2,0A1,1,0,0,0,55,18Z"/><path d="M6,14a1,1,0,0,0,0-2A1,1,0,0,0,6,14Z"/><path d="M12,15a1,1,0,0,0,0-2A1,1,0,0,0,12,15Z"/><path d="M12,19a1,1,0,0,0,0-2A1,1,0,0,0,12,19Z"/><path d="M6,18a1,1,0,0,0,2,0A1,1,0,0,0,6,18Z"/><path d="M9,10A1,1,0,0,0,9,8,1,1,0,0,0,9,10Z"/><path d="M31.27,41.32C31,41.64,24,49.27,24,56a8,8,0,0,0,16,0c0-6.73-7-14.36-7.27-14.68A1,1,0,0,0,31.27,41.32ZM32,62a6,6,0,0,1-6-6c0-4.75,4.25-10.36,6-12.47,1.75,2.11,6,7.72,6,12.47A6,6,0,0,1,32,62Z"/><path d="M31,60c0,2.28,6,.65,6-4a1,1,0,0,0-2,0,3,3,0,0,1-3,3A1,1,0,0,0,31,60Z"/><path d="M8.27,41.32C8,41.64,1,49.27,1,56a8,8,0,0,0,16,0c0-6.73-7-14.36-7.27-14.68A1,1,0,0,0,8.27,41.32ZM9,62a6,6,0,0,1-6-6c0-4.75,4.25-10.36,6-12.47,1.75,2.11,6,7.72,6,12.47A6,6,0,0,1,9,62Z"/><path d="M8,60c0,2.28,6,.65,6-4a1,1,0,0,0-2,0,3,3,0,0,1-3,3A1,1,0,0,0,8,60Z"/><path d="M54.27,41.32C54,41.64,47,49.27,47,56a8,8,0,0,0,16,0c0-6.73-7-14.36-7.27-14.68A1,1,0,0,0,54.27,41.32ZM55,62a6,6,0,0,1-6-6c0-4.75,4.25-10.36,6-12.47,1.75,2.11,6,7.72,6,12.47A6,6,0,0,1,55,62Z"/><path d="M54,60c0,2.28,6,.65,6-4a1,1,0,0,0-2,0,3,3,0,0,1-3,3A1,1,0,0,0,54,60Z"/><path d="M32,23a8,8,0,0,0,8-8C40,8.27,33,.64,32.73.32a1,1,0,0,0-1.46,0C31,.64,24,8.27,24,15A8,8,0,0,0,32,23ZM32,2.53c1.75,2.11,6,7.72,6,12.47a6,6,0,0,1-12,0C26,10.25,30.25,4.64,32,2.53Z"/><path d="M9,23a8,8,0,0,0,8-8C17,8.27,10,.64,9.73.32a1,1,0,0,0-1.46,0C8,.64,1,8.27,1,15A8,8,0,0,0,9,23ZM9,2.53c1.75,2.11,6,7.72,6,12.47A6,6,0,0,1,3,15C3,10.25,7.25,4.64,9,2.53Z"/><path d="M55,23a8,8,0,0,0,8-8C63,8.27,56,.64,55.73.32a1,1,0,0,0-1.46,0C54,.64,47,8.27,47,15A8,8,0,0,0,55,23ZM55,2.53c1.75,2.11,6,7.72,6,12.47a6,6,0,0,1-12,0C49,10.25,53.25,4.64,55,2.53Z"/></g></svg>