<svg xmlns="http://www.w3.org/2000/svg" xmlns:xlink="http://www.w3.org/1999/xlink" viewBox="0 0 64 64"><defs><style>.cls-1{fill:url(#linear-gradient);}.cls-2{fill:#8288a1;}.cls-3{fill:url(#linear-gradient-2);}.cls-4{fill:url(#linear-gradient-3);}.cls-5{fill:url(#linear-gradient-4);}.cls-6{fill:#c7cdd8;}.cls-7{fill:#adb3c4;}.cls-8{fill:url(#linear-gradient-5);}.cls-9{fill:url(#linear-gradient-6);}</style><linearGradient id="linear-gradient" x1="19.99" y1="59" x2="19.99" y2="25.64" gradientUnits="userSpaceOnUse"><stop offset="0" stop-color="#949aaf"/><stop offset="1" stop-color="#c6ccda"/></linearGradient><linearGradient id="linear-gradient-2" x1="18" y1="20.18" x2="18" y2="1" gradientUnits="userSpaceOnUse"><stop offset="0" stop-color="#d4d8e1"/><stop offset="1" stop-color="#f3f4f5"/></linearGradient><linearGradient id="linear-gradient-3" x1="30.61" y1="34.45" x2="30.61" y2="22.45" xlink:href="#linear-gradient-2"/><linearGradient id="linear-gradient-4" x1="9.41" y1="34.71" x2="9.41" y2="23.55" xlink:href="#linear-gradient-2"/><linearGradient id="linear-gradient-5" x1="20" y1="63" x2="20" y2="59" gradientUnits="userSpaceOnUse"><stop offset="0" stop-color="#474f72"/><stop offset="1" stop-color="#878c9f"/></linearGradient><linearGradient id="linear-gradient-6" x1="20" y1="26" x2="20" y2="20" xlink:href="#linear-gradient"/></defs><title>Wind Turbin Energy</title><g id="Wind_Turbin_Energy" data-name="Wind Turbin Energy"><path class="cls-1" d="M23,59H17c0-25.58-.48-18.69,1.58-33.36h2.84C23.41,39.79,23,34,23,59Z"/><rect class="cls-2" x="17" y="56" width="6" height="3"/><path class="cls-3" d="M21,2.15v18A2.77,2.77,0,0,0,20,20c-1.32,0-.2.8-3.12-2.12-1-1-1.88-1.71-1.88-3.35,0-.74-.15,0,3.75-12.72A1.15,1.15,0,0,1,21,2.15Z"/><path class="cls-4" d="M39.28,33.3a1.14,1.14,0,0,1-1.72,1l-15.62-9a2.9,2.9,0,0,0,1-1.6c4.31-1.15,6-2,7.74-.12C39.68,33.28,39.28,32.66,39.28,33.3Z"/><path class="cls-5" d="M18,25.19c-1,3.68-.72,2.69-1.13,4.22A3.57,3.57,0,0,1,14.19,32C1.48,34.86,2.22,34.71,2,34.71a1.16,1.16,0,0,1-.58-2.15l15.61-9A3,3,0,0,0,18,25.19Z"/><path class="cls-6" d="M17.05,23.55a3,3,0,0,0,.9,1.64l-.82,3.07a5.94,5.94,0,0,1-2.75-3.17Z"/><path class="cls-6" d="M19.13,20.13l-2.25-2.25A6,6,0,0,1,21,17.09v3.09A2.9,2.9,0,0,0,19.13,20.13Z"/><path class="cls-7" d="M21.42,25.64l.43,3.06a5.85,5.85,0,0,1-3.7,0l.43-3.06Z"/><path class="cls-6" d="M26,23a5.86,5.86,0,0,1-1.39,3.82l-2.67-1.54a2.9,2.9,0,0,0,1-1.6C26.31,22.77,26,22.8,26,23Z"/><path class="cls-8" d="M17,59h6a3,3,0,0,1,3,3v1a0,0,0,0,1,0,0H14a0,0,0,0,1,0,0V62A3,3,0,0,1,17,59Z"/><circle class="cls-9" cx="20" cy="23" r="3"/><path d="M63,62H27a4,4,0,0,0-3-3.86c0-26.1.37-18.56-1.41-31.33,15.5,8.94,14.91,8.88,16.1,8.56a2.14,2.14,0,0,0,1.59-2.07c0-1.18,0-.88-8.88-10.42a4.62,4.62,0,0,0-4.52-1.3L24,22.37A4,4,0,0,0,22,19.54V2.15a2.15,2.15,0,0,0-4.21-.63L14.21,13.18a4.54,4.54,0,0,0,1.12,4.57l2.15,2.15A4,4,0,0,0,16,23c0,.1,1-.56-15.06,8.7A2.15,2.15,0,0,0,2.5,35.65C14.81,32.83,15.38,33,16.75,31.52c-1,7.23-.75,1.18-.75,26.62A4,4,0,0,0,13,62H1a1,1,0,0,0,0,2H63A1,1,0,0,0,63,62ZM20.68,21.13A2,2,0,1,1,18,23,2,2,0,0,1,20.68,21.13Zm-1.27,5.8a2.6,2.6,0,0,0,1.18,0C22.37,39.7,22,32.88,22,58H18C18,32.88,17.63,39.7,19.41,26.93Zm8-3.41a2.57,2.57,0,0,1,2.53.72c8.92,9.61,8.37,9,8.34,9.13s.6.52-14.81-8.37C23.89,24.28,23,24.7,27.4,23.52Zm-11.4-9c0-.52-.24.42,3.7-12.42a.15.15,0,0,1,.3,0V19l-.55,0C16.86,16.44,16,15.94,16,14.53ZM14,31C1.31,33.87,2,33.78,1.88,33.63S1.13,33.9,16.54,25c.07.13.23.36.3.46C15.94,28.83,15.9,30.52,14,31Zm1,31a2,2,0,0,1,2-2h6a2,2,0,0,1,2,2Z"/><path d="M37,12H55a1,1,0,0,0,0-2H37a4,4,0,0,1-2.84-6.83A4.67,4.67,0,0,1,38,2a1,1,0,0,0,0-2c-1.8,0-3.49,0-5.25,1.76A6,6,0,0,0,37,12Z"/><path d="M59,12h4a1,1,0,0,0,0-2H59A1,1,0,0,0,59,12Z"/><path d="M38,16a1,1,0,0,0,0,2h1a1,1,0,0,0,0-2Z"/><path d="M53,16H43a1,1,0,0,0,0,2H53A1,1,0,0,0,53,16Z"/><path d="M30,18h4a1,1,0,0,0,0-2H30A1,1,0,0,0,30,18Z"/><path d="M53,24h7a1,1,0,0,0,0-2H53A1,1,0,0,0,53,24Z"/><path d="M46,24h3a1,1,0,0,0,0-2H46a5,5,0,0,0,0,10,1,1,0,0,0,0-2,3,3,0,0,1,0-6Z"/><path d="M43,6H60a1,1,0,0,0,0-2H43A1,1,0,0,0,43,6Z"/></g></svg>